<svg width="1440" height="907" viewBox="0 0 1440 907" fill="none" xmlns="http://www.w3.org/2000/svg">
<path d="M1156.77 388.154H1062.25V657.875H1156.77V388.154Z" fill="#BFE1F2"/>
<path d="M967.997 362.972V301.343H1034.46V321.883L1091.26 349.678V509.198H1158.94L1193.98 544.247C1193.98 544.247 1181.9 638.504 1173.44 638.504H1041.96L967.997 362.972Z" fill="#AED9ED"/>
<path d="M1138 604.54V582.786H1120.97L1097.87 559.84V530.825H1068.67V452.278H1043.07V374.936L1024.82 367.683H1000.49L929.939 356.809V242.008H881.275V264.953L850.867 295.16H804.669L757.831 248.632H724.375V184H628.254V257.714H608.776V349.556H577.146V289.135H535.784V246.841H469.468V416.024H433.598L362.431 362.783H258.419L218.577 402.36V436.593H176.91L130.712 482.484H115.474C109.767 482.484 82.3239 511.854 82.3239 517.532L69.247 532.639H0.516763L-8 642L1138 604.54Z" fill="#D2EAF8"/>
<path d="M61.6365 507.992H125.679L164.354 534.58V604.67H73.7165L60.4225 585.335L61.6365 507.992Z" fill="#C4E1EC"/>
<path d="M866.478 615.484H1082.79V500.457H866.478V615.484Z" fill="#75A0B7"/>
<path d="M514.676 613.766H628.926V478.095H514.676V613.766Z" fill="#75A1B8"/>
<path d="M420.345 614.966H560.798V395.252H420.345V614.966Z" fill="#75A0B7"/>
<path d="M439.213 291.395C440.523 289.914 439.213 281.772 439.213 281.772H417.199C417.199 281.772 418.776 272.149 417.199 272.149H402.528L394.926 280.854H385.755V288.959L396.236 300.965L407.769 293.763L439.213 291.395Z" fill="#79A7C1"/>
<path d="M368.982 617.371H453.883L453.883 289.596H368.982L368.982 617.371Z" fill="#79A7C1"/>
<path d="M293.519 617.371H386.806L386.806 248.774H293.519L293.519 617.371Z" fill="#98C2D5"/>
<path d="M722.657 618.06H977.301V436.2H722.657V618.06Z" fill="#92BBCD"/>
<path d="M698.105 617.371H817.588L824.738 0H705.248L698.105 617.371Z" fill="#BFE1F2"/>
<path d="M357.983 614.292H203.896V499.361C203.896 495.701 205.347 492.19 207.933 489.6C210.518 487.009 214.025 485.549 217.685 485.542H312.564C318.529 485.542 324.435 486.716 329.945 488.999C335.456 491.281 340.463 494.627 344.68 498.844C348.898 503.062 352.243 508.069 354.526 513.579C356.808 519.09 357.983 524.996 357.983 530.96V614.292Z" fill="#75A0B7"/>
<path d="M343.423 479.324H307.279V469.872H259.329V478.428H240.069V470.775H222.386L200.372 488.784V500.938H364.793L343.423 479.324Z" fill="#78A7C1"/>
<path d="M272.69 477.074H274.659V407.288H272.69V477.074Z" fill="#78A7C1"/>
<path d="M272.69 482.026H280.943V450.064H272.69V482.026Z" fill="#78A7C1"/>
<path d="M278.974 455.763H280.943V431.899H278.974V455.763Z" fill="#78A7C1"/>
<path d="M269.159 454.564H284.614V452.766H269.159V454.564Z" fill="#78A7C1"/>
<path d="M282.668 464.868H284.637V423.898H282.668V464.868Z" fill="#78A7C1"/>
<path d="M267.967 466.718H269.936V441.959H267.967V466.718Z" fill="#78A7C1"/>
<path d="M1440 613H0V751H1440V613Z" fill="#5B8A6C"/>
<path d="M1440 725.537H1326.52V819.091H1440V725.537Z" fill="#4A7A73"/>
<path d="M1338.02 725.537H653.884V819.091H1338.02V725.537Z" fill="#4A7A73"/>
<path d="M684.134 725.537H0V819.091H684.134V725.537Z" fill="#4A7A73"/>
<path d="M73.5171 755.522H34.2841V760.807H73.5171V755.522Z" fill="#F5F5F6"/>
<path d="M136.956 755.522H97.7228V760.807H136.956V755.522Z" fill="#F5F5F6"/>
<path d="M200.395 755.522H161.162V760.807H200.395V755.522Z" fill="#F5F5F6"/>
<path d="M263.826 755.522H224.593V760.807H263.826V755.522Z" fill="#F5F5F6"/>
<path d="M327.265 755.522H288.032V760.807H327.265V755.522Z" fill="#F5F5F6"/>
<path d="M390.703 755.522H351.47V760.807H390.703V755.522Z" fill="#F5F5F6"/>
<path d="M454.135 755.522H414.902V760.807H454.135V755.522Z" fill="#F5F5F6"/>
<path d="M517.573 755.522H478.34V760.807H517.573V755.522Z" fill="#F5F5F6"/>
<path d="M581.012 755.522H541.779V760.807H581.012V755.522Z" fill="#F5F5F6"/>
<path d="M644.444 755.522H605.21V760.807H644.444V755.522Z" fill="#F5F5F6"/>
<path d="M710.904 755.522H671.671V760.807H710.904V755.522Z" fill="#F5F5F6"/>
<path d="M774.343 755.522H735.11V760.807H774.343V755.522Z" fill="#F5F5F6"/>
<path d="M837.782 755.522H798.549V760.807H837.782V755.522Z" fill="#F5F5F6"/>
<path d="M901.213 755.522H861.98V760.807H901.213V755.522Z" fill="#F5F5F6"/>
<path d="M964.652 755.522H925.419V760.807H964.652V755.522Z" fill="#F5F5F6"/>
<path d="M1028.09 755.522H988.858V760.807H1028.09V755.522Z" fill="#F5F5F6"/>
<path d="M1091.52 755.522H1052.29V760.807H1091.52V755.522Z" fill="#F5F5F6"/>
<path d="M1154.96 755.522H1115.73V760.807H1154.96V755.522Z" fill="#F5F5F6"/>
<path d="M1218.4 755.522H1179.17V760.807H1218.4V755.522Z" fill="#F5F5F6"/>
<path d="M1281.83 755.522H1242.6V760.807H1281.83V755.522Z" fill="#F5F5F6"/>
<path d="M1350.38 755.522H1311.14V760.807H1350.38V755.522Z" fill="#F5F5F6"/>
<path d="M1413.81 755.522H1374.57V760.807H1413.81V755.522Z" fill="#F5F5F6"/>
<path d="M334.815 727.965H508.813C513.719 727.965 517.696 723.988 517.696 719.082V560.605C517.696 555.7 513.719 551.723 508.813 551.723H334.815C329.909 551.723 325.932 555.7 325.932 560.605V719.082C325.932 723.988 329.909 727.965 334.815 727.965Z" fill="#3F6A70"/>
<path d="M501.789 593.544H474.446V622.545H501.789V593.544Z" fill="#E1EDD5"/>
<path d="M470.567 593.544H443.224V622.545H470.567V593.544Z" fill="#E1EDD5"/>
<path d="M439.346 593.544H412.003V622.545H439.346V593.544Z" fill="#E1EDD5"/>
<path d="M501.789 626.424H474.446V655.425H501.789V626.424Z" fill="#E1EDD5"/>
<path d="M470.567 626.424H443.224V655.425H470.567V626.424Z" fill="#E1EDD5"/>
<path d="M439.346 626.424H412.003V655.425H439.346V626.424Z" fill="#E1EDD5"/>
<path d="M350.566 522.344H493.995C495.762 522.344 497.456 523.046 498.705 524.296C499.955 525.545 500.657 527.239 500.657 529.006L529.473 558.984C529.473 560.751 528.771 562.446 527.521 563.695C526.272 564.944 524.578 565.646 522.811 565.646H320.81C319.043 565.646 317.349 564.944 316.1 563.695C314.85 562.446 314.148 560.751 314.148 558.984L343.904 529.006C343.904 527.239 344.606 525.545 345.856 524.296C347.105 523.046 348.799 522.344 350.566 522.344Z" fill="#4A7A72"/>
<path d="M325.932 572.411H517.696V565.624H325.932V572.411Z" fill="#3C5A67"/>
<path d="M379.848 572.412H462.669C467.575 572.412 471.552 568.435 471.552 563.529V552.87C471.552 547.965 467.575 543.988 462.669 543.988H379.848C374.943 543.988 370.966 547.965 370.966 552.87V563.529C370.966 568.435 374.943 572.412 379.848 572.412Z" fill="#ACCCA9"/>
<path d="M322.446 307.709H71.6142C66.7086 307.709 62.7318 311.685 62.7318 316.591V719.09C62.7318 723.995 66.7086 727.972 71.6142 727.972H322.446C327.351 727.972 331.328 723.995 331.328 719.09V316.591C331.328 311.685 327.351 307.709 322.446 307.709Z" fill="#3F6A70"/>
<path d="M310.899 558.725H213C204.877 558.725 198.292 565.31 198.292 573.433V655.729C198.292 663.851 204.877 670.436 213 670.436H310.899C319.022 670.436 325.607 663.851 325.607 655.729V573.433C325.607 565.31 319.022 558.725 310.899 558.725Z" fill="#3C5A67"/>
<path d="M288.108 571.286H267.649C266.316 571.286 265.236 572.367 265.236 573.699V595.698C265.236 597.031 266.316 598.111 267.649 598.111H288.108C289.441 598.111 290.521 597.031 290.521 595.698V573.699C290.521 572.367 289.441 571.286 288.108 571.286Z" fill="#E1EDD5"/>
<path d="M316.983 571.286H296.524C295.191 571.286 294.111 572.367 294.111 573.699V595.698C294.111 597.031 295.191 598.111 296.524 598.111H316.983C318.316 598.111 319.396 597.031 319.396 595.698V573.699C319.396 572.367 318.316 571.286 316.983 571.286Z" fill="#E1EDD5"/>
<path d="M226.605 571.286H206.146C204.813 571.286 203.733 572.367 203.733 573.699V595.698C203.733 597.031 204.813 598.111 206.146 598.111H226.605C227.938 598.111 229.018 597.031 229.018 595.698V573.699C229.018 572.367 227.938 571.286 226.605 571.286Z" fill="#E1EDD5"/>
<path d="M255.48 571.286H235.021C233.688 571.286 232.608 572.367 232.608 573.699V595.698C232.608 597.031 233.688 598.111 235.021 598.111H255.48C256.813 598.111 257.893 597.031 257.893 595.698V573.699C257.893 572.367 256.813 571.286 255.48 571.286Z" fill="#E1EDD5"/>
<path d="M249.003 604.929H212.615C207.71 604.929 203.733 608.905 203.733 613.811V650.199C203.733 655.105 207.71 659.082 212.615 659.082H249.003C253.909 659.082 257.886 655.105 257.886 650.199V613.811C257.886 608.905 253.909 604.929 249.003 604.929Z" fill="#E1EDD5"/>
<path d="M310.196 604.929H273.807C268.902 604.929 264.925 608.905 264.925 613.811V650.199C264.925 655.105 268.902 659.082 273.807 659.082H310.196C315.101 659.082 319.078 655.105 319.078 650.199V613.811C319.078 608.905 315.101 604.929 310.196 604.929Z" fill="#E1EDD5"/>
<path d="M154.013 568.474H108.077C101.139 568.474 95.5153 574.097 95.5153 581.035V705.67C95.5153 712.607 101.139 718.231 108.077 718.231H154.013C160.951 718.231 166.575 712.607 166.575 705.67V581.035C166.575 574.097 160.951 568.474 154.013 568.474Z" fill="#3C5A67"/>
<path d="M134.206 669.555H128.536C117.633 669.555 108.299 665.854 104.376 660.629V696.158C104.376 698.941 108.373 701.221 113.258 701.221H148.825C153.71 701.221 157.707 698.941 157.707 696.158V661.443C153.466 666.247 144.539 669.555 134.206 669.555Z" fill="#E1EDD5"/>
<path d="M133.325 575.631H127.647C122.533 575.59 117.519 577.049 113.225 579.827C108.93 582.606 105.545 586.582 103.487 591.264V634.877C105.545 639.559 108.93 643.536 113.225 646.314C117.519 649.093 122.533 650.552 127.647 650.51H133.325C138.172 650.544 142.934 649.235 147.082 646.728C151.23 644.22 154.603 640.613 156.826 636.306V589.836C154.603 585.529 151.23 581.921 147.082 579.414C142.934 576.907 138.172 575.597 133.325 575.631Z" fill="#E1EDD5"/>
<path d="M87.7062 535.979L82.1324 547.682H322.298L316.724 535.979H87.7062Z" fill="#5C988A"/>
<path d="M285.525 547.674H81.8734V558.481C81.8734 562.922 86.0185 566.579 91.1333 566.579C96.2481 566.579 100.393 562.952 100.393 558.481C100.393 562.922 104.531 566.571 109.646 566.571C114.761 566.571 118.906 562.952 118.906 558.481C118.906 562.922 123.051 566.579 128.158 566.579C133.266 566.579 137.418 562.952 137.418 558.481C137.418 562.922 141.563 566.571 146.678 566.571C151.793 566.571 155.93 562.952 155.93 558.481C155.93 562.922 160.076 566.571 165.19 566.571C170.305 566.571 174.443 562.952 174.443 558.481C174.443 562.922 178.588 566.571 183.703 566.571C188.818 566.571 192.955 562.952 192.955 558.481C192.955 562.922 197.1 566.571 202.215 566.571C207.33 566.571 211.475 562.952 211.475 558.481C211.475 562.922 215.62 566.571 220.728 566.571C225.835 566.571 229.987 562.952 229.987 558.481C229.987 562.922 234.133 566.571 239.24 566.571C244.347 566.571 248.5 562.952 248.5 558.481C248.5 562.922 252.645 566.579 257.76 566.579C262.875 566.579 267.012 562.952 267.012 558.481C267.012 562.922 271.157 566.571 276.272 566.571C281.387 566.571 285.525 562.952 285.525 558.481C285.525 562.922 289.67 566.579 294.785 566.579C299.899 566.579 304.044 562.952 304.044 558.481C304.044 562.922 308.182 566.579 313.297 566.579C318.412 566.579 322.549 562.952 322.549 558.481V547.674H285.539H285.525Z" fill="#4A7A72"/>
<path d="M253.866 352.72H140.201C135.296 352.72 131.319 356.697 131.319 361.603V431.981C131.319 436.886 135.296 440.863 140.201 440.863H253.866C258.772 440.863 262.749 436.886 262.749 431.981V361.603C262.749 356.697 258.772 352.72 253.866 352.72Z" fill="#E1EDD5"/>
<path d="M199.772 261.113L62.7318 307.672C62.7318 310.329 66.7289 312.505 71.6142 312.505H322.453C327.339 312.505 331.336 310.329 331.336 307.672L199.772 261.113Z" fill="#3F6A70"/>
<path d="M280.262 439.561H113.258C108.352 439.561 104.376 443.537 104.376 448.443V474.231C104.376 479.137 108.352 483.114 113.258 483.114H280.262C285.168 483.114 289.144 479.137 289.144 474.231V448.443C289.144 443.537 285.168 439.561 280.262 439.561Z" fill="#3C5A67"/>
<path d="M826.749 478.247C824.934 454.826 817.065 432.278 803.914 412.813L781.002 386.743C773.494 380.164 765.291 374.423 756.539 369.621C728.953 352.499 696.187 345.719 664.072 350.487C631.957 355.255 602.574 371.262 581.152 395.659C567.269 411.475 557.204 430.267 551.731 450.587C546.259 470.908 545.526 492.213 549.588 512.861C553.651 533.51 562.401 552.95 575.164 569.682C587.927 586.414 604.361 599.992 623.201 609.37C632.996 615.299 679.207 627.979 659.762 621.979C660.427 622.186 661.115 622.31 661.81 622.351C674.073 623.72 686.399 624.44 698.738 624.507C699.126 624.502 699.513 624.469 699.897 624.41C712.172 622.917 724.22 619.397 736.264 616.804C764.503 606.908 788.681 587.96 805.04 562.905C821.399 537.85 829.021 508.092 826.722 478.258L826.749 478.247Z" fill="#5AA070"/>
<g style="mix-blend-mode:multiply" opacity="0.6">
<g style="mix-blend-mode:multiply" opacity="0.6">
<path d="M661.837 622.362C664.36 622.642 666.877 622.874 669.384 623.1C628.381 594.183 601.184 546.507 601.184 493.423C601.184 430.242 639.713 374.705 694.198 349.373C675.459 347.984 656.634 350.48 638.904 356.705C613.412 365.651 591.124 381.913 574.824 403.458C558.525 425.003 548.939 450.875 547.264 477.838C545.59 504.802 551.901 531.661 565.409 555.058C578.917 578.454 599.022 597.349 623.211 609.38C633.006 615.31 679.217 627.99 659.772 621.99C660.443 622.198 661.136 622.323 661.837 622.362Z" fill="#5AA070"/>
</g>
</g>
<path d="M680.629 697.467L686.02 526.528H688.177L693.567 697.467H680.629Z" fill="#2C464B"/>
<path d="M687.891 583.542L716.349 558.259L716.985 558.895L691.708 587.353L687.891 583.542Z" fill="#2C464B"/>
<path d="M687.891 624.96L662.613 596.496L663.249 595.865L691.708 621.149L687.891 624.96Z" fill="#2C464B"/>
<g filter="url(#filter0_d)">
<rect y="819" width="1440" height="88" fill="#4A7A73"/>
</g>
<g clip-path="url(#clip0)">
<path d="M349.62 787.39C369.292 787.39 385.24 771.442 385.24 751.77C385.24 732.098 369.292 716.15 349.62 716.15C329.948 716.15 314 732.098 314 751.77C314 771.442 329.948 787.39 349.62 787.39Z" fill="#2B474B"/>
<path d="M350.28 783.11C367.589 783.11 381.62 769.079 381.62 751.77C381.62 734.461 367.589 720.43 350.28 720.43C332.971 720.43 318.94 734.461 318.94 751.77C318.94 769.079 332.971 783.11 350.28 783.11Z" fill="#4A7A72"/>
<path d="M477.01 787.34C496.682 787.34 512.63 771.392 512.63 751.72C512.63 732.048 496.682 716.1 477.01 716.1C457.338 716.1 441.39 732.048 441.39 751.72C441.39 771.392 457.338 787.34 477.01 787.34Z" fill="#2B474B"/>
<path d="M477.01 783.06C494.319 783.06 508.35 769.029 508.35 751.72C508.35 734.411 494.319 720.38 477.01 720.38C459.701 720.38 445.67 734.411 445.67 751.72C445.67 769.029 459.701 783.06 477.01 783.06Z" fill="#4A7A72"/>
<path d="M417.36 683.76C417.36 683.76 443.65 688.22 444.36 698.45C445 707.12 424.53 716.1 425.46 716.17L421.66 714.82C428.46 711.52 463.04 693.39 414.4 688.19L417.36 683.76Z" fill="#D35F68"/>
<path d="M395.701 702.696L349.619 748.778L353.288 752.448L399.371 706.366L395.701 702.696Z" fill="#79B86A"/>
<path d="M417.181 738.014L352.584 746.634L353.27 751.778L417.868 743.159L417.181 738.014Z" fill="#79B86A"/>
<path d="M419.34 736.92L417.36 736.1L424.02 723.93L426 724.75L419.34 736.92Z" fill="#2B464B"/>
<path d="M428.77 722.21H420.27C419.762 722.21 419.35 722.622 419.35 723.13V723.84C419.35 724.348 419.762 724.76 420.27 724.76H428.77C429.278 724.76 429.69 724.348 429.69 723.84V723.13C429.69 722.622 429.278 722.21 428.77 722.21Z" fill="#2B474B"/>
<path d="M417.67 741.04L414.42 737.37L455.32 691.29L458.58 694.95L417.67 741.04Z" fill="#79B86A"/>
<path d="M388.671 678.751L383.869 680.718L408.577 741.023L413.379 739.055L388.671 678.751Z" fill="#79B86A"/>
<path d="M397.44 708.17L396.83 703.02L454.17 694.41L454.78 699.54L397.44 708.17Z" fill="#79B86A"/>
<path d="M459.259 687.959L454.046 689.583L472.798 749.749L478.01 748.124L459.259 687.959Z" fill="#79B86A"/>
<path d="M349.62 760.7C354.176 760.7 357.87 757.006 357.87 752.45C357.87 747.894 354.176 744.2 349.62 744.2C345.064 744.2 341.37 747.894 341.37 752.45C341.37 757.006 345.064 760.7 349.62 760.7Z" fill="#2B474B"/>
<path d="M477.01 757.45C479.926 757.45 482.29 755.086 482.29 752.17C482.29 749.254 479.926 746.89 477.01 746.89C474.094 746.89 471.73 749.254 471.73 752.17C471.73 755.086 474.094 757.45 477.01 757.45Z" fill="#2B474B"/>
<path d="M410.39 684.32C412.93 687.14 409.9 687.41 393.46 690.24C384.15 691.08 376.53 687.59 376.53 684.32C376.53 681.05 384.11 678.39 393.46 678.39C402.81 678.39 408.24 681.93 410.39 684.32Z" fill="#2B474B"/>
<path d="M394.623 697.838L393.012 698.498C391.382 699.166 390.602 701.029 391.27 702.659L395.274 712.431C395.942 714.061 397.805 714.841 399.435 714.173L401.045 713.513C402.675 712.845 403.455 710.982 402.787 709.352L398.784 699.581C398.116 697.95 396.253 697.17 394.623 697.838Z" fill="#2B464B"/>
<path d="M457.071 687.144L455.41 687.662C453.728 688.186 452.789 689.975 453.314 691.657L457.94 706.503C458.465 708.185 460.253 709.123 461.935 708.599L463.596 708.081C465.278 707.557 466.217 705.769 465.693 704.087L461.066 689.241C460.542 687.559 458.753 686.62 457.071 687.144Z" fill="#2B464B"/>
<path d="M414.11 756.26C420.389 756.26 425.48 751.169 425.48 744.89C425.48 738.611 420.389 733.52 414.11 733.52C407.831 733.52 402.74 738.611 402.74 744.89C402.74 751.169 407.831 756.26 414.11 756.26Z" fill="#2B474B"/>
<path d="M414.11 748.72C416.225 748.72 417.94 747.005 417.94 744.89C417.94 742.775 416.225 741.06 414.11 741.06C411.995 741.06 410.28 742.775 410.28 744.89C410.28 747.005 411.995 748.72 414.11 748.72Z" fill="#2B464B"/>
<path d="M349.62 743.67L413.52 733.53C416.034 733.382 418.525 734.08 420.595 735.514C422.665 736.948 424.195 739.034 424.94 741.44C428.08 750.2 419.82 756.11 416 756.1C412.18 756.09 349.62 760.7 349.62 760.7C349.62 760.7 341.62 760.59 341.35 752.45C341.08 744.31 349.62 743.67 349.62 743.67Z" stroke="#2B464B" stroke-miterlimit="10"/>
<path d="M405.15 763.58L403.16 762.78L411.53 747.04L413.52 747.84L405.15 763.58Z" fill="#2B464B"/>
<path d="M408.73 762.3H400.23C399.722 762.3 399.31 762.712 399.31 763.22V763.93C399.31 764.438 399.722 764.85 400.23 764.85H408.73C409.238 764.85 409.65 764.438 409.65 763.93V763.22C409.65 762.712 409.238 762.3 408.73 762.3Z" fill="#2B474B"/>
<path d="M463.212 677.937L453.684 680.906C453.041 681.106 452.682 681.79 452.882 682.434L453.082 683.073C453.282 683.717 453.966 684.076 454.609 683.875L464.137 680.906C464.781 680.705 465.14 680.021 464.939 679.378L464.74 678.738C464.539 678.095 463.855 677.736 463.212 677.937Z" fill="#2B464B"/>
<path d="M452.641 676.118L452.574 676.139C451.647 676.432 451.133 677.421 451.426 678.348L454.628 688.484C454.92 689.411 455.909 689.925 456.836 689.632L456.903 689.611C457.83 689.318 458.344 688.33 458.051 687.403L454.849 677.266C454.556 676.34 453.568 675.826 452.641 676.118Z" fill="#2B464B"/>
<path d="M457.308 685.083L454.033 686.104C453.722 686.201 453.549 686.532 453.646 686.843L453.907 687.683C454.004 687.994 454.335 688.168 454.646 688.071L457.921 687.05C458.232 686.953 458.406 686.622 458.309 686.311L458.047 685.471C457.95 685.16 457.619 684.986 457.308 685.083Z" fill="#2B474B"/>
<path d="M466.5 681.63C468.383 681.63 469.91 680.103 469.91 678.22C469.91 676.337 468.383 674.81 466.5 674.81C464.617 674.81 463.09 676.337 463.09 678.22C463.09 680.103 464.617 681.63 466.5 681.63Z" fill="#2B474B"/>
<path d="M418.35 645.83L413.83 649.19C409.76 643.7 406.89 638.92 408.55 637.66C410.21 636.4 414.27 640.33 418.35 645.83Z" fill="#79B86A"/>
<path d="M391.52 675.61C391.52 675.61 394.44 683.5 406.02 687.26C417.6 691.02 421.82 684.75 414.67 678.66C407.52 672.57 397.3 664.41 391.52 675.61Z" fill="#2B474B"/>
<path d="M405.84 673.31C405.93 673.17 412.78 648.47 412.78 648.47C414.78 641.47 409.18 636.22 402.78 635.35L399.22 634.83C396.193 634.408 393.12 635.192 390.666 637.014C388.212 638.836 386.572 641.55 386.1 644.57C386.08 644.726 386.08 644.884 386.1 645.04C386.804 652.307 385.776 659.637 383.1 666.43V666.56C381.67 671.18 382.25 673.56 385.49 676.04C387.602 677.611 390.032 678.7 392.61 679.23C398.06 679 402.56 677.22 405.84 673.31Z" fill="#2B474B"/>
<path d="M403.22 640.06C405.01 639.68 405.34 638.55 404.22 636.72H395.89C395.86 637.23 400.69 640.6 403.22 640.06Z" fill="#79B86A"/>
<path d="M385.33 659.15C385.33 659.15 401.87 670.15 408.98 662.15L407.11 668.83C407.11 668.83 399.1 674.6 384 664L385.33 659.15Z" fill="#79B86A"/>
<path d="M390.47 696.8C390.47 696.8 402.21 708.8 404.47 759.28L408.33 757.57C408.33 757.57 409.92 731.57 396.49 695.23L390.47 696.8Z" fill="#D35F68"/>
<path d="M382.27 670.4C382.27 670.4 378.44 678.82 384.55 690.69C390.66 702.56 398.82 700.99 397.96 690.69C397.1 680.39 395.44 666.18 382.27 670.4Z" fill="#2B474B"/>
<path d="M392.75 651.91C391.91 652.01 414.42 681.63 466.5 679.22V674.81C466.5 674.81 418.89 680.9 397.27 648.52L392.75 651.91Z" fill="#D35F68"/>
<path d="M397.25 648.47L392.73 651.83C388.64 646.33 385.73 641.54 387.44 640.29C389.15 639.04 393.16 643 397.25 648.47Z" fill="#79B86A"/>
<path d="M466.5 681.36C468.234 681.36 469.64 679.954 469.64 678.22C469.64 676.486 468.234 675.08 466.5 675.08C464.766 675.08 463.36 676.486 463.36 678.22C463.36 679.954 464.766 681.36 466.5 681.36Z" fill="#D35F68"/>
<path d="M465.55 681.06C466.594 681.06 467.44 680.214 467.44 679.17C467.44 678.126 466.594 677.28 465.55 677.28C464.506 677.28 463.66 678.126 463.66 679.17C463.66 680.214 464.506 681.06 465.55 681.06Z" fill="#2B474B"/>
<path d="M418.35 645.83C418.35 645.83 433.49 673.21 466.01 675.07L464.9 677.38C440.9 673.97 428.2 668.62 413.83 649.19L418.35 645.83Z" fill="#D35F68"/>
<path d="M408.82 762.61C411.592 762.61 413.84 761.406 413.84 759.92C413.84 758.434 411.592 757.23 408.82 757.23C406.048 757.23 403.8 758.434 403.8 759.92C403.8 761.406 406.048 762.61 408.82 762.61Z" fill="#79B86A"/>
<path d="M426.768 723.185C428.055 722.442 427.974 719.893 426.588 717.492C425.201 715.091 423.035 713.747 421.748 714.49C420.461 715.233 420.542 717.781 421.928 720.182C423.315 722.583 425.481 723.927 426.768 723.185Z" fill="#79B86A"/>
<path d="M377.79 609.44C375.992 609.451 374.272 610.175 373.008 611.454C371.744 612.733 371.039 614.462 371.05 616.26C371.061 618.058 371.785 619.778 373.064 621.042C374.343 622.306 376.072 623.011 377.87 623C378.547 622.993 379.221 622.893 379.87 622.7V609.78C379.199 609.559 378.497 609.444 377.79 609.44Z" fill="#975056"/>
<path d="M407.41 595.73H393.24C389.685 595.73 386.276 597.141 383.761 599.654C381.247 602.167 379.833 605.575 379.83 609.13V623.3C379.83 626.857 381.243 630.267 383.758 632.782C386.273 635.297 389.683 636.71 393.24 636.71H407.41C409.171 636.71 410.914 636.363 412.54 635.689C414.167 635.015 415.644 634.027 416.889 632.782C418.133 631.536 419.12 630.058 419.793 628.431C420.466 626.804 420.811 625.061 420.81 623.3V609.14C420.81 605.585 419.399 602.176 416.886 599.661C414.373 597.147 410.965 595.733 407.41 595.73Z" fill="#D35F68"/>
<path d="M413.91 621.7C415.561 621.7 416.9 620.361 416.9 618.71C416.9 617.059 415.561 615.72 413.91 615.72C412.259 615.72 410.92 617.059 410.92 618.71C410.92 620.361 412.259 621.7 413.91 621.7Z" fill="#CF665F"/>
<path d="M400.33 617.39C401.633 617.39 402.69 615.371 402.69 612.88C402.69 610.389 401.633 608.37 400.33 608.37C399.027 608.37 397.97 610.389 397.97 612.88C397.97 615.371 399.027 617.39 400.33 617.39Z" fill="#E3F2FC"/>
<path d="M378.76 610.59C381.958 610.59 384.55 607.998 384.55 604.8C384.55 601.602 381.958 599.01 378.76 599.01C375.562 599.01 372.97 601.602 372.97 604.8C372.97 607.998 375.562 610.59 378.76 610.59Z" fill="#2B464B"/>
<path d="M394.1 606.4C404.406 606.4 412.76 600.239 412.76 592.64C412.76 585.041 404.406 578.88 394.1 578.88C383.794 578.88 375.44 585.041 375.44 592.64C375.44 600.239 383.794 606.4 394.1 606.4Z" fill="#2B464B"/>
<path d="M416.89 608.35C422.054 608.35 426.24 604.164 426.24 599C426.24 593.836 422.054 589.65 416.89 589.65C411.726 589.65 407.54 593.836 407.54 599C407.54 604.164 411.726 608.35 416.89 608.35Z" fill="#2B464B"/>
<path d="M414.11 595.01C417.369 595.01 420.01 592.368 420.01 589.11C420.01 585.851 417.369 583.21 414.11 583.21C410.852 583.21 408.21 585.851 408.21 589.11C408.21 592.368 410.852 595.01 414.11 595.01Z" fill="#2B464B"/>
<path d="M424.2 588.21C426.88 597.36 416.49 589.5 400.37 596.87C391.31 601 390 616 370.53 597.28C363.92 590.91 376 578.25 393 573.26C410 568.27 421.54 579.07 424.2 588.21Z" fill="#79B86A"/>
<path d="M387.13 606.41H384.71V627.62L387.13 630.03V606.41Z" fill="#2B464B"/>
<path d="M384.71 633.65C385.457 634.252 386.257 634.784 387.1 635.24V632.85L384.71 631.06V633.65Z" fill="#2B464B"/>
<path d="M393.81 636.71L387.13 630V633.42L389.74 636.22C391.066 636.577 392.437 636.742 393.81 636.71Z" fill="#2B464B"/>
<path d="M379.83 622.67C379.832 624.129 380.01 625.583 380.36 627L384.71 631V627.62L379.83 622.67Z" fill="#2B464B"/>
<path d="M384.71 627.62V631.04L387.13 633.45V630.03L384.71 627.62Z" fill="#2B464B"/>
<path d="M392.76 580C398.71 580.398 404.338 582.843 408.69 586.92C409.27 587.38 410.69 588.51 410.46 589.02C410.23 589.53 406.95 588.71 405.8 588.37C402.356 587.349 399.061 585.88 396 584C392.64 581.39 391.72 580.22 392.76 580Z" fill="#2B464B"/>
<path d="M404.4 575.79C409.164 577.545 413.233 580.793 416 585.05C416.37 585.54 417.28 586.77 417 587.05C416.72 587.33 414.17 585.92 413.29 585.36C410.693 583.708 408.308 581.743 406.19 579.51C404 576.78 403.49 575.68 404.4 575.79Z" fill="#2B464B"/>
</g>
<defs>
<filter id="filter0_d" x="-2" y="818" width="1444" height="92" filterUnits="userSpaceOnUse" color-interpolation-filters="sRGB">
<feFlood flood-opacity="0" result="BackgroundImageFix"/>
<feColorMatrix in="SourceAlpha" type="matrix" values="0 0 0 0 0 0 0 0 0 0 0 0 0 0 0 0 0 0 127 0"/>
<feOffset dy="1"/>
<feGaussianBlur stdDeviation="1"/>
<feColorMatrix type="matrix" values="0 0 0 0 0.203371 0 0 0 0 0.234525 0 0 0 0 0.344978 0 0 0 0.4 0"/>
<feBlend mode="normal" in2="BackgroundImageFix" result="effect1_dropShadow"/>
<feBlend mode="normal" in="SourceGraphic" in2="effect1_dropShadow" result="shape"/>
</filter>
<clipPath id="clip0">
<rect x="314" y="572" width="198.63" height="215.39" fill="white"/>
</clipPath>
</defs>
</svg>
