<svg xmlns="http://www.w3.org/2000/svg" viewBox="0 0 2187.85 751.21"><defs><style>.cls-1{isolation:isolate;}.cls-2{fill:#318465;}.cls-3{fill:#00a26e;}.cls-4{opacity:0.6;}.cls-4,.cls-6{mix-blend-mode:multiply;}.cls-5{fill:#13454a;}.cls-7{fill:#14454a;}.cls-8{fill:#255968;}.cls-9{fill:#127676;}.cls-10{fill:#099;}.cls-11{fill:#ddeed5;}.cls-12{fill:#9fcea9;}.cls-13{fill:#336667;}.cls-14{fill:#254a4a;}.cls-15{fill:#29998b;}.cls-16{fill:#1e7b73;}.cls-17{fill:#186a71;}</style></defs><title>intro inteira</title><g class="cls-1"><g id="Layer_2" data-name="Layer 2"><g id="Vegetação"><g id="Arbusto1"><path id="Arbustos_2" data-name="Arbustos 2" class="cls-2" d="M-7860.51,735.78c-5-16.58,1.09-36.38,20.11-45.22s49.77.24,50.51,17.25c11.78-13.48,45-7.95,48.36,8.05-5.42,2.34-8.21,7.73-6.35,12.27,9.51-1.07,19.53,4.07,21.85,11.2,5.22-10.19,23.17-15.15,35.72-9.86s16.62,19.54,8.12,28.35l69.88.14c-4.06-4.72,4.15-10.13,11.3-11.62,28.76-6,62,4.62,76.65,24.45,9.62-6.84,25.56-7.73,36.37-2,7.16-8.6,23.38-9.73,36.13-6.74s24,9,36.88,11.73c47.91,10.14,101.79-27.5,145-8.79,28.14-13.16,62-19.08,94.77-16.59,20.32-12,52.35-10.19,70.13,4,15.48,4.54,32-2.7,47.11-8s36.23-7.47,45.3,3.13c39.18-14.79,87.88-13.76,125.93,2.66-12.46-9.68,8.15-23.57,25-27.81,34.83-8.75,76.7-16.65,105.19,1,.32,10.29,4.75,20.48,12.55,28.87,35.09-6.8,71.91-13.62,107.05-7,12,2.27,23.7,6.11,36.05,6.1s26-5.44,28-14.76c16.17-.6,31.68,9.88,32.85,22.22l133.95-3.27c13-16.43,45-14.25,68.63-7.6s50.39,15.58,72.41,6.32c5.85-2.47,10.74-6,15.8-9.37a201.28,201.28,0,0,1,60.42-26.23c20.37-5.2,50.67-3.12,53.4,13.17,1.67-12,24.13-16.68,37.37-10s18.29,19.59,19.94,31.62,1,24.54,6.82,35.79c-201.29,36.81-411.53,25.28-618.19,16.42q-245.22-10.51-490.75-15.6-244.32-5.06-488.76-4.74c-45.56.06-92.24,2.71-137.68.62C-7837.6,784.49-7853.75,758.23-7860.51,735.78Z" transform="translate(8131.82 -66.31)"/></g><g id="Arvore_1" data-name="Arvore 1"><path class="cls-3" d="M-7612.85,389.35A251.5,251.5,0,0,0-7655.2,268l-42.5-48.36a255.51,255.51,0,0,0-45.39-31.75,253.27,253.27,0,0,0-85.31-33.59,253.53,253.53,0,0,0-132.86,9.61,256.06,256.06,0,0,0-107.16,72.28A256.41,256.41,0,0,0-8131.09,424a254.55,254.55,0,0,0,42.86,122.86,254.56,254.56,0,0,0,97.86,85.77c18.17,11,103.89,34.51,67.81,23.39a16,16,0,0,0,3.81.68,651.63,651.63,0,0,0,68.5,4,17.16,17.16,0,0,0,2.15-.18c22.77-2.78,45.12-9.31,67.46-14.12a252.91,252.91,0,0,0,105.87-71.41A253.35,253.35,0,0,0-7612.85,389.35Z" transform="translate(8131.82 -66.31)"/><g class="cls-4"><path class="cls-3" d="M-7918.75,656.65c4.68.52,9.35,1,14,1.37-76.06-53.63-126.51-142.08-126.51-240.54,0-117.21,71.46-220.22,172.53-267.22a253,253,0,0,0-102.56,13.61,256.06,256.06,0,0,0-107.16,72.28A256.41,256.41,0,0,0-8131.09,424a254.55,254.55,0,0,0,42.86,122.86,254.56,254.56,0,0,0,97.86,85.77c18.17,11,103.89,34.51,67.81,23.39A16,16,0,0,0-7918.75,656.65Z" transform="translate(8131.82 -66.31)"/></g><line class="cls-3" x1="259.93" y1="729.69" x2="259.93" y2="412.6"/><polygon class="cls-5" points="247.93 729.69 257.93 412.6 261.93 412.6 271.93 729.69 247.93 729.69"/><line class="cls-3" x1="264.94" y1="521.89" x2="314.78" y2="472.05"/><polygon class="cls-5" points="261.4 518.36 314.19 471.46 315.37 472.63 268.47 525.43 261.4 518.36"/><line class="cls-3" x1="264.94" y1="591.65" x2="215.1" y2="541.8"/><polygon class="cls-5" points="261.4 595.18 214.51 542.39 215.68 541.22 268.47 588.11 261.4 595.18"/></g><g id="Arvore_2" data-name="Arvore 2"><path class="cls-3" d="M-5976.29,411.63c22.17-27.65,34.6-63.66,32-98a136.67,136.67,0,0,0-45.74-91.51,129.94,129.94,0,0,0-17.35-12.89,75.92,75.92,0,0,0-.05-10.12c-3.63-47.42-43.74-76-88.71-76a64.78,64.78,0,0,0-15.72,1.95,126,126,0,0,0-23.55-27.78c-26.86-23.65-58-31-92.85-31-38.32,0-71.48,22.06-92.47,52.74a174.13,174.13,0,0,0-35.9-3.39c-62,0-110,60.33-111.3,118.93-1.53.95-3.08,1.11-4.58,2.12,0,0-.05-.72-.07-.73a159.74,159.74,0,0,0-25.55,23.23,134.84,134.84,0,0,0-32.74,98.46A134.45,134.45,0,0,0-6486,447.58s0,.1,0,.11c9.74,7.19,18.58,13,28.07,18.9.18.12.36.27.54.39l.16.08c.82.5,1.61,1,2.44,1.52l.85.38c-.07,3.64,0,7.28.27,10.89a131.3,131.3,0,0,0,44,87.93c27.8,24.48,60,32.07,96.11,32.07A105.3,105.3,0,0,0-6264,587.28c21.69,12.33,45.74,16.55,71.95,16.55,21.43,0,41.23-7,58.13-18.59,18.58,8,38.75,10.94,60.41,10.94,67.25,0,118.31-69.4,113.48-132.46A123.43,123.43,0,0,0-5976.29,411.63Z" transform="translate(8131.82 -66.31)"/><polygon class="cls-3" points="1659.21 169.68 1659.21 169.68 1659.22 169.68 1659.21 169.68"/><g class="cls-6"><g class="cls-4"><path class="cls-3" d="M-6120.95,126.28q2.65-3.33,5.47-6.52a125.6,125.6,0,0,0-20-22.47c-26.86-23.65-58-31-92.85-31-38.32,0-71.48,22.06-92.47,52.74a174.13,174.13,0,0,0-35.9-3.39c-62,0-110,60.33-111.3,118.93-1.53.95-3.08,1.11-4.58,2.12,0,0-.05-.72-.07-.73a159.74,159.74,0,0,0-25.55,23.23,134.84,134.84,0,0,0-32.74,98.46A134.45,134.45,0,0,0-6486,447.58s0,.1,0,.11c9.74,7.19,18.58,13,28.07,18.9.18.12.36.27.54.39l.16.08c.82.5,1.61,1,2.44,1.52l.85.38c-.07,3.64,0,7.28.27,10.89a131.3,131.3,0,0,0,44,87.93c27.8,24.48,60,32.07,96.11,32.07A104.65,104.65,0,0,0-6268,589.19c-53.33-17.61-95.06-62.72-107.81-117.9-29.29-29.24-47.6-69.45-47.6-113.31,0-86.07,70.56-158.09,156.11-160.61,29.18-43,78.44-71.68,133.4-71.68C-6129.52,125.69-6125.22,125.93-6120.95,126.28Z" transform="translate(8131.82 -66.31)"/></g><polygon class="cls-3" points="1659.21 169.68 1659.21 169.68 1659.22 169.68 1659.21 169.68"/></g><line class="cls-3" x1="1924.06" y1="725.46" x2="1924.06" y2="386.56"/><polygon class="cls-7" points="1912.06 725.46 1922.06 386.56 1926.06 386.56 1936.06 725.46 1912.06 725.46"/><line class="cls-3" x1="1929.42" y1="503.37" x2="1982.69" y2="450.1"/><polygon class="cls-7" points="1925.88 499.83 1982.1 449.51 1983.28 450.69 1932.95 506.91 1925.88 499.83"/><line class="cls-3" x1="1929.42" y1="577.93" x2="1876.15" y2="524.65"/><polygon class="cls-7" points="1925.88 581.46 1875.56 525.24 1876.74 524.06 1932.95 574.39 1925.88 581.46"/></g></g><g id="tapa_buraco" data-name="tapa buraco"><rect class="cls-8" x="1070.36" y="398.29" width="53.5" height="342.54" rx="12" ry="12"/></g><g id="Casa_3" data-name="Casa 3"><rect class="cls-9" x="1106.45" y="341.67" width="588.26" height="407.22" rx="12" ry="12"/><path class="cls-10" d="M-6516.4,354.09h-429.67c-3.52,0-94.2,59.49-94.2,59.49,0,6.6,2.88,12,6.39,12h605.28c3.52,0,6.4-5.4,6.4-12C-6422.2,413.58-6512.88,354.09-6516.4,354.09Z" transform="translate(8131.82 -66.31)"/><rect class="cls-10" x="1165.14" y="273" width="466.35" height="24" rx="12" ry="12"/><rect class="cls-11" x="1143.03" y="540.42" width="90.43" height="145.92" rx="12" ry="12"/><rect class="cls-11" x="1256.81" y="540.42" width="90.43" height="145.92" rx="12" ry="12"/><rect class="cls-11" x="1366.89" y="540.42" width="90.43" height="145.92" rx="12" ry="12"/><rect class="cls-8" x="1519.05" y="499.43" width="125.84" height="237.38" rx="12" ry="12"/><rect class="cls-11" x="1534.4" y="520.27" width="97.09" height="194.78" rx="12" ry="12"/><rect class="cls-12" x="1123.86" y="377.69" width="554" height="102.34" rx="12" ry="12"/></g><g id="Casa2"><rect class="cls-13" x="726.73" y="181.14" width="362.87" height="567.77" rx="12" ry="12"/><rect class="cls-14" x="909.86" y="520.27" width="172" height="150.92" rx="19.87" ry="19.87"/><rect class="cls-11" x="1000.31" y="537.24" width="34.16" height="36.24" rx="3.26" ry="3.26"/><rect class="cls-11" x="1039.31" y="537.24" width="34.16" height="36.24" rx="3.26" ry="3.26"/><rect class="cls-11" x="917.22" y="537.24" width="34.16" height="36.24" rx="3.26" ry="3.26"/><rect class="cls-11" x="956.22" y="537.24" width="34.16" height="36.24" rx="3.26" ry="3.26"/><rect class="cls-11" x="917.22" y="582.69" width="73.16" height="73.16" rx="12" ry="12"/><rect class="cls-11" x="999.89" y="582.69" width="73.16" height="73.16" rx="12" ry="12"/><rect class="cls-14" x="771.01" y="533.44" width="96" height="202.32" rx="16.97" ry="16.97"/><path class="cls-11" d="M-7308.53,736.3h-7.67c-14.72,0-27.34-5-32.64-12v48c0,3.77,5.4,6.85,12,6.85h48.06c6.6,0,12-3.08,12-6.85V725.34C-7282.52,731.83-7294.58,736.3-7308.53,736.3Z" transform="translate(8131.82 -66.31)"/><path class="cls-11" d="M-7309.73,609.41h-7.66A35.36,35.36,0,0,0-7350,630.53v58.93a35.36,35.36,0,0,0,32.65,21.12h7.66a35.44,35.44,0,0,0,31.75-19.2V628.61A35.46,35.46,0,0,0-7309.73,609.41Z" transform="translate(8131.82 -66.31)"/><polygon class="cls-15" points="760.47 489.54 752.93 505.35 1077.4 505.35 1069.87 489.54 760.47 489.54"/><path class="cls-16" d="M-7104.1,571.64h-275.13v14.61c0,6,5.6,10.94,12.5,10.94s12.51-4.9,12.51-10.94v0c0,6,5.6,10.93,12.51,10.93s12.5-4.89,12.5-10.93h0c0,6,5.6,10.93,12.51,10.93s12.5-4.89,12.5-10.93v0c0,6,5.6,10.94,12.51,10.94s12.51-4.9,12.51-10.94v0c0,6,5.59,10.93,12.5,10.93s12.51-4.89,12.51-10.93v0c0,6,5.6,10.93,12.5,10.93s12.51-4.9,12.51-10.93h0c0,6,5.6,10.94,12.5,10.94s12.51-4.9,12.51-10.94v0c0,6,5.6,10.94,12.51,10.94s12.5-4.9,12.5-10.94v0c0,6,5.6,10.93,12.51,10.93s12.5-4.9,12.5-10.93v0c0,6,5.61,10.93,12.51,10.93s12.51-4.89,12.51-10.93h0c0,6,5.59,10.94,12.5,10.94s12.51-4.9,12.51-10.94v0c0,6,5.6,10.93,12.5,10.93s12.51-4.89,12.51-10.93h0c0,6,5.6,10.93,12.51,10.93s12.5-4.89,12.5-10.93V571.64h-50Z" transform="translate(8131.82 -66.31)"/><rect class="cls-11" x="819.38" y="241.96" width="177.56" height="119.08" rx="12" ry="12"/><path class="cls-13" d="M-7220,184.51l-185.13,62.89c0,3.59,5.4,6.53,12,6.53h338.87c6.6,0,12-2.94,12-6.53Z" transform="translate(8131.82 -66.31)"/><rect class="cls-14" x="782.98" y="359.28" width="249.62" height="58.84" rx="12" ry="12"/></g><g id="Casa1"><rect class="cls-17" x="387.64" y="430.69" width="346" height="318" rx="12" ry="12"/><rect class="cls-11" x="416.35" y="506.15" width="49.33" height="52.33"/><rect class="cls-11" x="472.68" y="506.15" width="49.33" height="52.33"/><rect class="cls-11" x="529.01" y="506.15" width="49.33" height="52.33"/><rect class="cls-11" x="416.35" y="565.48" width="49.33" height="52.33"/><rect class="cls-11" x="472.68" y="565.48" width="49.33" height="52.33"/><rect class="cls-11" x="529.01" y="565.48" width="49.33" height="52.33"/><rect class="cls-11" x="416.35" y="624.81" width="49.33" height="52.33"/><rect class="cls-11" x="472.68" y="624.81" width="49.33" height="52.33"/><rect class="cls-11" x="529.01" y="624.81" width="49.33" height="52.33"/><rect class="cls-8" x="613.17" y="533.44" width="96" height="202.32" rx="16.97" ry="16.97"/><path class="cls-11" d="M-7443.65,608.75h-54l-12,12v77.83l12,12h54l12-12V620.75Z" transform="translate(8131.82 -66.31)"/><path class="cls-16" d="M-7442.63,444h-258.79a12,12,0,0,0-12,12l-52,54.09a12,12,0,0,0,12,12h364.48a12,12,0,0,0,12-12L-7430.63,456A12,12,0,0,0-7442.63,444Z" transform="translate(8131.82 -66.31)"/><rect class="cls-8" x="387.64" y="455.78" width="346" height="12.25"/><rect class="cls-12" x="470.9" y="416.74" width="181.49" height="51.29" rx="12" ry="12"/></g><g id="Objetos"><rect class="cls-8" x="1737.16" y="683.21" width="28" height="68" rx="12" ry="12"/><rect class="cls-8" x="1741.49" y="279.21" width="19.35" height="438" rx="9.68" ry="9.68"/><rect class="cls-17" x="1730.16" y="269.21" width="42" height="18.95" rx="9.47" ry="9.47"/></g></g></g></svg>