<svg width="68" height="41" viewBox="0 0 68 41" fill="none" xmlns="http://www.w3.org/2000/svg">
<g clip-path="url(#clip0)">
<path d="M33.0959 27.3125C31.4073 27.6847 29.6841 27.8789 27.9547 27.8919C27.8806 27.891 27.8072 27.9059 27.7394 27.9356C27.6716 27.9654 27.611 28.0092 27.5616 28.0642C26.6822 28.8066 25.7638 29.5019 24.8102 30.1471C24.7093 30.2246 24.5982 30.2878 24.48 30.335L26.4139 28.1895C26.5043 28.0905 26.5884 27.9859 26.6654 27.8763C26.1466 27.8763 25.6592 27.8763 25.1875 27.7353C22.6124 27.5075 20.1491 26.5813 18.0652 25.0573C16.2226 23.6846 15.0013 21.6404 14.6691 19.3724C14.6691 19.3724 14.6691 19.1845 14.5748 19.1532C14.4804 19.1219 14.4333 19.1532 14.3704 19.2785L13.2698 20.2494C13.1783 20.347 13.0653 20.4221 12.9396 20.4687C13.0925 20.2349 13.2719 20.0195 13.4742 19.8266C13.8315 19.5089 14.1628 19.1633 14.4647 18.793C14.732 18.3701 14.5591 17.8377 14.5905 17.3522C14.7793 15.6298 15.314 13.9628 16.1628 12.4504C16.2496 12.3423 16.3041 12.212 16.32 12.0745C16.5493 11.8309 16.7354 11.5502 16.8703 11.2445C18.9187 8.24302 21.643 5.75999 24.8259 3.99352C25.5019 3.602 26.2095 3.2418 26.9013 2.86594C27.3116 2.74762 27.6994 2.56241 28.049 2.31782C28.3611 2.25614 28.6628 2.15069 28.9452 2.0046C32.4366 0.602381 36.1905 -0.0332831 39.951 0.140963C42.4749 0.182826 44.951 0.833017 47.1676 2.03592C48.3202 2.66421 49.3202 3.53682 50.0972 4.59216C50.8741 5.6475 51.4091 6.85985 51.6643 8.14364C52.0029 10.1596 51.7349 12.2303 50.8939 14.0947C50.1441 15.8602 49.1142 17.4941 47.8437 18.9339C47.6063 19.1323 47.3997 19.3645 47.2305 19.623C47.1817 19.6509 47.1389 19.6882 47.1047 19.7326C46.0355 20.8137 44.8728 21.7989 43.63 22.6769C43.5016 22.77 43.3989 22.8939 43.3313 23.0371C43.1092 23.5809 42.841 24.1048 42.5295 24.6031C42.5295 24.1333 42.7496 23.7888 42.7496 23.3973C42.7496 23.3973 42.7496 23.3973 42.671 23.3973C42.589 23.4028 42.5114 23.4359 42.4508 23.4912C40.3929 24.7916 38.1866 25.8431 35.8788 26.6234C35.3977 26.7439 34.9251 26.8957 34.4638 27.0776C33.9878 27.1336 33.5188 27.2386 33.0645 27.3908L33.0959 27.3125ZM31.6495 26.8896C32.1143 26.8548 32.5735 26.7654 33.0173 26.6234H33.2532C36.6196 25.8394 39.8157 24.4546 42.6867 22.5359C42.7631 22.5015 42.8284 22.4467 42.8756 22.3776C42.9228 22.3085 42.9499 22.2278 42.954 22.1444C43.0248 21.4676 43.0248 20.7853 42.954 20.1085C42.9478 19.7724 42.8707 19.4415 42.7276 19.137C42.5846 18.8326 42.3789 18.5616 42.1239 18.3415C41.8689 18.1214 41.5702 17.9573 41.2473 17.8597C40.9244 17.7621 40.5845 17.7332 40.2497 17.775C39.2243 17.8331 38.2226 18.1052 37.3096 18.5737C36.7436 18.84 36.209 19.1219 35.6587 19.4038C35.6587 19.4038 35.6587 19.2628 35.7373 19.2002C36.3266 18.1756 37.0688 17.2462 37.9385 16.4439C38.8058 15.5639 39.8903 14.9266 41.083 14.5959C41.6949 14.3983 42.3592 14.4386 42.9425 14.7088C43.5258 14.9789 43.9849 15.4589 44.2275 16.0523C44.5021 16.6525 44.6467 17.3035 44.652 17.963C44.6519 19.0833 44.4605 20.1954 44.086 21.2517C44.086 21.3457 43.9759 21.4397 44.086 21.5963C45.1318 20.7491 46.1 19.811 46.9789 18.793C47.194 18.5819 47.3888 18.3512 47.5607 18.1039C48.992 16.5171 50.0643 14.6425 50.7052 12.607C51.113 11.2841 51.2099 9.88557 50.9882 8.5195C50.7968 7.42353 50.3795 6.37898 49.7625 5.45173C49.1455 4.52449 48.3423 3.7347 47.4035 3.13218C45.2097 1.67328 42.6502 0.854201 40.0139 0.767395C38.0614 0.633829 36.0997 0.76023 34.1808 1.14325C32.5134 1.44439 30.8806 1.91133 29.3068 2.53707C28.9234 2.63804 28.5576 2.79645 28.2219 3.00689C28.0881 3.03928 27.9567 3.08115 27.8289 3.13218C24.4976 4.57158 21.5163 6.70802 19.0872 9.3965C18.3192 10.2372 17.6493 11.1619 17.0904 12.1528C16.8884 12.4018 16.7291 12.6822 16.6187 12.9828C15.7972 14.4961 15.3448 16.1806 15.298 17.9003L17.9394 15.3789C18.155 15.2265 18.3505 15.0476 18.5211 14.8465C20.2315 13.2772 22.0783 11.8621 24.0398 10.618C26.1857 9.2412 28.6881 8.51738 31.2407 8.53516C32.2857 8.50751 33.3113 8.81965 34.1623 9.42434C35.0134 10.029 35.6435 10.8934 35.9574 11.8866C36.3232 12.7621 36.4533 13.7176 36.3348 14.6585C35.8776 16.8818 35.02 19.0041 33.8035 20.9229C32.8483 22.4732 31.7424 23.9262 30.5017 25.2609C30.2911 25.4265 30.1057 25.6216 29.9514 25.8404L28.8351 27.0776C29.2087 27.0805 29.582 27.0543 29.9514 26.9993C30.5558 26.9654 31.1558 26.8763 31.7438 26.733L31.6495 26.8896ZM28.8666 25.2766C29.0672 25.1002 29.2326 24.8877 29.354 24.6501C29.8414 24.0394 30.2659 23.3973 30.6904 22.7552C31.6716 21.3359 32.4347 19.7788 32.9544 18.1352C33.2428 17.1883 33.2645 16.1807 33.0173 15.2223C32.8 14.4707 32.3753 13.795 31.7917 13.2717C31.208 12.7485 30.4888 12.3988 29.7156 12.2624C28.3486 11.9815 26.9309 12.0735 25.612 12.5287C23.2873 13.2297 21.0861 14.2864 19.0872 15.6608C18.8476 15.7756 18.6253 15.9232 18.4268 16.0993C17.4206 16.7884 16.4615 17.5245 15.5024 18.2918C15.4284 18.339 15.3717 18.4086 15.3405 18.4904C15.3094 18.5722 15.3055 18.6618 15.3295 18.746C15.3295 18.8713 15.3295 19.0122 15.3295 19.1532C15.4948 20.2991 15.9044 21.3965 16.5309 22.3717C17.1573 23.3468 17.9861 24.1771 18.9614 24.8067C21.3917 26.3398 24.2133 27.1443 27.0899 27.1245C27.1464 27.1326 27.2041 27.1253 27.2567 27.1032C27.3094 27.0811 27.355 27.0452 27.3887 26.9993C27.8603 26.4355 28.332 25.8873 28.7565 25.3079" fill="white"/>
<path d="M4.82682 37.445C5.36139 36.2078 5.89595 35.0332 6.39908 33.8587C6.42545 33.7431 6.49611 33.6424 6.59598 33.5781C6.69585 33.5137 6.81703 33.4907 6.93364 33.5141C7.40532 33.5141 7.87699 33.5141 8.34867 33.5141C8.53734 33.5141 8.61595 33.5141 8.63168 33.749C8.83607 35.0645 9.04046 36.3957 9.22913 37.7112C9.37064 38.6352 9.49642 39.5592 9.65364 40.4832C9.65364 40.7181 9.65364 40.8121 9.40208 40.7964C9.15052 40.7807 8.39584 40.7964 7.82983 40.7964C7.64116 40.7964 7.56254 40.7964 7.54682 40.5458C7.3896 39.3399 7.21665 38.1497 7.05942 36.9438C7.05942 36.9438 7.05942 36.8185 6.96509 36.7716C6.79214 37.1004 6.63491 37.445 6.47769 37.7895C6.05318 38.7135 5.61295 39.6375 5.20416 40.5771C5.10983 40.7964 4.96832 40.7964 4.77965 40.7964C4.59098 40.7964 4.44948 40.7964 4.35514 40.5615C3.8363 39.3869 3.28601 38.228 2.78289 37.0691C2.78289 36.9595 2.68856 36.8812 2.59422 36.6933C2.59422 37.1318 2.46844 37.4763 2.42127 37.8208C2.31121 38.6978 2.18543 39.5749 2.0911 40.4519C2.0911 40.7181 1.96532 40.8121 1.66659 40.7964C1.36786 40.7807 0.691792 40.7964 0.204393 40.7964C0 40.7964 0 40.7181 0 40.5615C0.330173 38.322 0.676069 36.0982 1.00624 33.8587C1.00624 33.5768 1.14775 33.4985 1.43075 33.5141C1.71376 33.5298 2.32694 33.5141 2.76717 33.5141C2.86901 33.4949 2.97438 33.515 3.06195 33.5702C3.14952 33.6254 3.21275 33.7118 3.23884 33.8117C3.74197 35.0019 4.26081 36.1921 4.8111 37.445" fill="white"/>
<path d="M34.3852 37.4293C34.9198 36.1921 35.4543 35.0019 35.9575 33.8117C35.9836 33.7118 36.0468 33.6255 36.1344 33.5702C36.2219 33.515 36.3273 33.4949 36.4291 33.5141C36.9113 33.5141 37.3987 33.5141 37.8913 33.5141C38.0643 33.5141 38.1429 33.5141 38.1743 33.7334C38.5045 36.0199 38.8504 38.3063 39.1963 40.5928C39.1963 40.7651 39.1963 40.7964 39.0233 40.7964C38.4888 40.7964 37.9542 40.7964 37.4511 40.7964C37.2624 40.7964 37.1995 40.7964 37.1681 40.5615C37.0423 39.5279 36.8851 38.4943 36.7436 37.4293L36.6492 36.7089C36.5413 36.7912 36.4639 36.9069 36.4291 37.0378C35.8946 38.1967 35.36 39.34 34.8569 40.5145C34.7468 40.7494 34.6053 40.7494 34.4009 40.7494C34.3138 40.7647 34.2241 40.7476 34.1488 40.7014C34.0734 40.6553 34.0177 40.5832 33.9921 40.4989C33.4733 39.3243 32.923 38.1654 32.4199 37.0065C32.4116 36.9484 32.3904 36.893 32.3577 36.8442C32.3251 36.7954 32.2818 36.7545 32.2312 36.7246C32.1526 37.2727 32.074 37.8209 32.0111 38.369C31.9482 38.9171 31.8067 39.7785 31.7281 40.4832C31.7281 40.6868 31.6338 40.7651 31.4136 40.7494C30.8948 40.7494 30.3602 40.7494 29.8414 40.7494C29.6684 40.7494 29.6213 40.7494 29.6527 40.5302C29.9986 38.275 30.3445 36.0199 30.6747 33.7647C30.6747 33.5298 30.8005 33.4515 31.0363 33.4672C31.2721 33.4828 31.9482 33.4672 32.4199 33.4672C32.5259 33.448 32.6352 33.4698 32.7257 33.5279C32.8162 33.5861 32.8811 33.6763 32.9073 33.7804C33.379 34.9079 33.8664 36.0199 34.3538 37.1474L34.4795 37.3824" fill="white"/>
<path d="M14.2603 40.9844C13.7484 41.0303 13.2324 40.9728 12.7432 40.8154C12.2541 40.658 11.8019 40.4039 11.4136 40.0683C11.0254 39.7327 10.7092 39.3225 10.4838 38.8623C10.2585 38.4021 10.1287 37.9014 10.1023 37.39C10.0758 36.8787 10.1532 36.3673 10.3298 35.8865C10.5065 35.4056 10.7787 34.9652 11.1302 34.5916C11.4818 34.2181 11.9054 33.919 12.3757 33.7123C12.846 33.5057 13.3533 33.3956 13.8673 33.3889C14.7906 33.2909 15.7213 33.4884 16.5244 33.9527C17.1505 34.3317 17.651 34.8854 17.9641 35.5452C18.2771 36.205 18.3888 36.9418 18.2853 37.6643C18.1999 38.4125 17.8832 39.1158 17.379 39.6769C16.8749 40.238 16.2081 40.6292 15.471 40.7964C15.079 40.9144 14.6691 40.9622 14.2603 40.9374V40.9844ZM14.2603 39.0424C14.5173 39.0535 14.7737 39.0113 15.0134 38.9184C15.253 38.8255 15.4707 38.684 15.6526 38.5029C15.8344 38.3218 15.9765 38.105 16.0697 37.8662C16.163 37.6275 16.2054 37.3721 16.1942 37.1162C16.1963 36.8633 16.1477 36.6126 16.051 36.3788C15.9544 36.1451 15.8118 35.9329 15.6316 35.7548C15.4514 35.5768 15.2372 35.4365 15.0017 35.3421C14.7662 35.2478 14.5141 35.2013 14.2603 35.2055C14.0067 35.1991 13.7544 35.2441 13.5187 35.3378C13.2831 35.4316 13.069 35.5721 12.8896 35.7508C12.7102 35.9295 12.5691 36.1427 12.475 36.3774C12.3809 36.6121 12.3357 36.8635 12.3422 37.1162C12.312 37.3814 12.3403 37.6501 12.4252 37.9033C12.5101 38.1565 12.6496 38.3882 12.8338 38.5821C13.018 38.776 13.2425 38.9275 13.4916 39.026C13.7408 39.1244 14.0085 39.1675 14.2761 39.1521" fill="white"/>
<path d="M63.9908 40.9843C63.0987 41.0428 62.2139 40.7905 61.4882 40.2704C60.7625 39.7504 60.2409 38.9951 60.0129 38.1341C59.8768 37.5859 59.8653 37.0143 59.9794 36.4612C60.0934 35.908 60.3302 35.3872 60.6723 34.9369C61.0143 34.4866 61.4531 34.1181 61.9566 33.8584C62.46 33.5987 63.0153 33.4543 63.582 33.4358C64.1831 33.3649 64.7925 33.4279 65.3662 33.6202C65.9399 33.8125 66.4636 34.1293 66.8994 34.5477C67.3964 35.0318 67.7468 35.6453 67.9108 36.3181C68.0748 36.9909 68.0458 37.6961 67.827 38.3533C67.6597 38.9832 67.3195 39.5542 66.8446 40.0023C66.3697 40.4504 65.779 40.7579 65.1385 40.8904C64.7671 41.0036 64.3787 41.0513 63.9908 41.0313V40.9843ZM63.9908 39.1364C64.2436 39.145 64.4956 39.102 64.7312 39.01C64.9668 38.918 65.1811 38.779 65.3607 38.6015C65.5404 38.4241 65.6817 38.2118 65.776 37.9779C65.8702 37.744 65.9155 37.4934 65.9089 37.2414C65.9331 36.9749 65.9013 36.7063 65.8155 36.4527C65.7297 36.1991 65.5918 35.9662 65.4106 35.7686C65.2294 35.571 65.0089 35.4133 64.763 35.3053C64.5172 35.1974 64.2515 35.1416 63.9829 35.1416C63.7142 35.1416 63.4485 35.1974 63.2027 35.3053C62.9569 35.4133 62.7364 35.571 62.5552 35.7686C62.374 35.9662 62.2361 36.1991 62.1503 36.4527C62.0645 36.7063 62.0327 36.9749 62.0569 37.2414C62.0482 37.4933 62.0914 37.7443 62.1837 37.979C62.276 38.2137 62.4156 38.427 62.5938 38.606C62.772 38.785 62.9851 38.9257 63.2199 39.0196C63.4547 39.1135 63.7063 39.1586 63.9593 39.152" fill="white"/>
<path d="M48.0953 37.0065V40.5302C48.0953 40.6712 48.0953 40.8121 47.8909 40.7964C47.372 40.7964 46.8532 40.7964 46.3186 40.7964C46.1457 40.7964 46.1142 40.7964 46.1142 40.5929C46.1142 38.3064 46.1142 36.0199 46.1142 33.7334C46.1142 33.5611 46.1142 33.5142 46.3343 33.5142C46.7903 33.5142 47.262 33.5142 47.7179 33.5142C47.7841 33.5165 47.8488 33.5348 47.9063 33.5676C47.9638 33.6003 48.0125 33.6465 48.0481 33.7021L50.4379 36.9909L50.6738 37.2884V33.7961C50.6738 33.5611 50.6738 33.4985 50.9568 33.5142C51.2398 33.5298 51.9158 33.5142 52.3875 33.5142C52.5605 33.5142 52.6391 33.5142 52.6391 33.7334V40.5615C52.6391 40.7181 52.6391 40.7964 52.4347 40.7964C51.9945 40.7964 51.5542 40.7964 51.114 40.7964C50.941 40.7964 50.8782 40.7025 50.7995 40.5929L48.3468 37.2258L48.1582 36.9909H48.0795" fill="white"/>
<path d="M40.234 37.1474C40.234 36.0355 40.234 34.9079 40.234 33.796C40.234 33.5455 40.234 33.4985 40.5327 33.4985H44.6363C44.8564 33.4985 44.935 33.4985 44.9193 33.7804C44.9036 34.0623 44.9193 34.6104 44.9193 35.0176C44.9193 35.4248 44.9193 35.2525 44.6835 35.2525H42.5452C42.3094 35.2525 42.2308 35.2525 42.2308 35.55C42.2308 36.3331 42.2308 36.3331 43.0012 36.3331H44.3847C44.5891 36.3331 44.6677 36.3331 44.652 36.5993C44.6363 36.8656 44.652 37.3667 44.652 37.7426C44.652 38.1184 44.652 37.9931 44.4005 37.9931C43.7873 37.9931 43.1584 37.9931 42.5452 37.9931C42.3251 37.9931 42.2308 37.9931 42.2308 38.275C42.2308 39.0737 42.2308 39.0737 43.0326 39.0737H44.7621C44.9822 39.0737 45.0294 39.0737 45.0294 39.34C45.0294 39.6062 45.0294 40.1543 45.0294 40.5615C45.0294 40.9687 44.9507 40.8121 44.7464 40.8121H40.4856C40.2654 40.8121 40.234 40.7338 40.234 40.5458C40.234 39.4183 40.234 38.2907 40.234 37.1631" fill="white"/>
<path d="M18.2853 33.5142C18.9928 33.5142 19.6846 33.5142 20.3764 33.5142C20.5651 33.5142 20.5965 33.6081 20.6437 33.7491C21.0682 35.0333 21.477 36.3018 21.9015 37.5703C21.9235 37.6952 21.9839 37.8101 22.0745 37.8992C22.2788 37.2571 22.4832 36.6463 22.6719 36.0356C22.8606 35.4248 23.1593 34.4695 23.4109 33.7647C23.4109 33.6551 23.4109 33.5142 23.631 33.5142H25.7378C25.7378 33.6551 25.7378 33.7491 25.7378 33.843L23.1121 40.5302C23.1046 40.5738 23.0884 40.6154 23.0644 40.6525C23.0404 40.6897 23.0091 40.7216 22.9724 40.7465C22.9357 40.7713 22.8944 40.7886 22.8508 40.7972C22.8073 40.8057 22.7625 40.8055 22.7191 40.7964C22.2474 40.7964 21.7757 40.7964 21.3041 40.7964C21.2423 40.8027 21.1803 40.7874 21.1287 40.7531C21.077 40.7188 21.039 40.6677 21.021 40.6085L18.2853 33.6081V33.5142Z" fill="white"/>
<path d="M56.6012 33.5142C57.5131 33.5142 58.4092 33.5142 59.3211 33.5142C59.5413 33.5142 59.6042 33.5142 59.5884 33.7804C59.5727 34.0466 59.5884 34.6261 59.5884 35.0489C59.5884 35.4718 59.5884 35.3308 59.3211 35.3151C58.8495 35.3151 58.3935 35.3151 57.9376 35.3151C57.4816 35.3151 57.5917 35.3151 57.5917 35.644C57.5917 37.2101 57.5917 38.7762 57.5917 40.3423C57.5917 40.6242 57.5917 40.7494 57.2301 40.7181C56.7744 40.6946 56.3178 40.6946 55.8622 40.7181C55.6264 40.7181 55.5477 40.7181 55.5477 40.4206C55.5477 38.8545 55.5477 37.1944 55.5477 35.5814C55.5477 35.2995 55.5477 35.2212 55.2018 35.2368H53.7868C53.6139 35.2368 53.551 35.2368 53.551 35.0019C53.551 34.767 53.551 34.1406 53.551 33.7021C53.551 33.4985 53.551 33.4359 53.8183 33.4359C54.7302 33.4359 55.6578 33.4359 56.5697 33.4359" fill="white"/>
<path d="M47.1676 19.623C47.3418 19.3684 47.5479 19.1368 47.7808 18.934C48.1088 19.9471 48.2888 21.0019 48.3154 22.0661C48.384 23.4779 47.9639 24.8703 47.1253 26.0106C46.2868 27.1508 45.0807 27.9698 43.7087 28.3304C42.0082 28.8143 40.2256 28.9422 38.4731 28.7063C36.6642 28.4873 34.8898 28.0454 33.1903 27.3908C33.1903 27.3908 33.0645 27.3908 33.0331 27.2968C33.4874 27.1446 33.9563 27.0397 34.4324 26.9836C34.9342 27.2098 35.4623 27.3729 36.0046 27.4691C38.1761 28.0918 40.4622 28.2097 42.6867 27.8136C43.9797 27.5975 45.1726 26.9842 46.0985 26.0596C46.6782 25.4353 47.1081 24.6881 47.3559 23.8743C47.6038 23.0605 47.663 22.2013 47.5292 21.3614C47.5006 20.7667 47.3786 20.1801 47.1676 19.623Z" fill="white"/>
<path d="M28.5679 37.1944C28.5679 38.275 28.5679 39.3556 28.5679 40.4362C28.5679 40.7495 28.4735 40.8121 28.2062 40.7964C27.939 40.7808 27.2314 40.7964 26.7598 40.7964C26.5868 40.7964 26.5239 40.7964 26.5239 40.5772V33.7334C26.5239 33.5611 26.5239 33.5142 26.7598 33.5142C27.2786 33.5142 27.8132 33.5142 28.332 33.5142C28.5364 33.5142 28.5679 33.5925 28.5679 33.7647V37.1944Z" fill="white"/>
<path d="M16.7917 11.2131C16.6568 11.5189 16.4707 11.7996 16.2414 12.0431C15.776 10.8322 15.526 9.54969 15.5024 8.25323C15.4521 6.86954 15.8717 5.50939 16.6934 4.39258C17.515 3.27577 18.6908 2.46755 20.0305 2.09853C21.6927 1.61269 23.4376 1.47407 25.1561 1.69135C26.1058 1.7938 27.0465 1.96655 27.9704 2.20815C27.6208 2.45275 27.233 2.63796 26.8227 2.75628C26.61 2.65992 26.3801 2.60668 26.1466 2.59967C24.3273 2.2311 22.4492 2.26317 20.6437 2.69364C19.8379 2.86014 19.0784 3.20012 18.4185 3.68978C17.7585 4.17943 17.214 4.80691 16.8231 5.52825C16.3154 6.51821 16.1026 7.6322 16.2099 8.73871C16.2338 9.58768 16.4095 10.4256 16.7288 11.2131" fill="white"/>
<path d="M28.8037 25.3549C26.8367 24.2227 24.9788 22.9121 23.2536 21.4397C21.4287 19.8833 19.8071 18.105 18.4268 16.1463C18.6253 15.9702 18.8476 15.8226 19.0872 15.7078C19.5896 16.4952 20.1576 17.2391 20.7852 17.9317C23.1832 20.6292 26.0153 22.9103 29.1653 24.6815H29.2911C29.1697 24.919 29.0044 25.1316 28.8037 25.3079" fill="white"/>
<path d="M40.6113 8.94232C41.4918 9.77234 42.388 10.5084 43.1898 11.4637C44.9992 13.3721 46.4574 15.5826 47.4978 17.9943C47.4948 18.0308 47.4948 18.0674 47.4978 18.1039C47.3305 18.3502 47.1411 18.5809 46.9318 18.793C45.8488 16.1254 44.2457 13.6982 42.215 11.6516C41.4446 10.8373 40.6428 10.0856 39.7623 9.33384L40.4855 8.94232" fill="white"/>
<path d="M29.3068 2.53705C30.376 2.92857 31.4451 3.28877 32.4513 3.75859C33.4576 4.22842 34.0236 4.54163 34.8412 4.94881C34.8412 5.23071 34.8412 5.5126 34.7625 5.7945C32.7814 4.65825 30.6698 3.76434 28.4735 3.13216L28.3006 3.00687C28.6362 2.79643 29.002 2.63802 29.3854 2.53705" fill="white"/>
<path d="M17.9394 15.3946C17.4383 14.6307 16.9967 13.8297 16.6187 12.9985C16.7291 12.6979 16.8885 12.4174 17.0904 12.1685C17.4507 13.0088 17.8656 13.8249 18.3325 14.6115L18.5212 14.8621C18.3505 15.0633 18.155 15.2422 17.9394 15.3946Z" fill="white"/>
<path d="M34.794 5.79453L34.8726 4.94885C35.0354 4.28399 35.3802 3.67719 35.8688 3.19607C36.3574 2.71494 36.9705 2.37837 37.6398 2.22387C38.2177 2.06317 38.8272 2.05219 39.4105 2.19197C39.9939 2.33175 40.5317 2.61766 40.9729 3.02257C41.6765 3.60721 42.1346 4.43325 42.2569 5.33777C42.3791 6.24228 42.1566 7.15959 41.6333 7.90874C41.3721 8.32315 41.0233 8.67588 40.6113 8.94236L39.8881 9.39652C39.3692 9.59418 38.813 9.67529 38.259 9.63406C37.705 9.59283 37.167 9.43028 36.6834 9.15801C36.1998 8.88574 35.7825 8.51047 35.4613 8.05899C35.1402 7.60752 34.923 7.09098 34.8254 6.54625C34.8094 6.31684 34.8094 6.08659 34.8254 5.85718" fill="white"/>
</g>
<defs>
<clipPath id="clip0">
<rect width="68" height="41" fill="white"/>
</clipPath>
</defs>
</svg>
