<svg width="146" height="37" viewBox="0 0 146 37" fill="none" xmlns="http://www.w3.org/2000/svg">
<g clip-path="url(#clip0)">
<path d="M146 27.5434C145.446 27.5128 144.891 27.5128 144.337 27.5434C144.108 27.5434 144.047 27.5434 144.047 27.2527C144.047 25.4777 144.047 23.7027 144.047 21.9276C144.047 21.6522 144.047 21.6063 143.712 21.6063H138.724C138.449 21.6063 138.358 21.6063 138.358 21.9582C138.358 23.7027 138.358 25.4624 138.358 27.2221C138.358 27.4822 138.358 27.5587 138.022 27.5434H136.649C136.466 27.5434 136.405 27.5434 136.405 27.2986C136.405 24.0393 136.405 20.78 136.405 17.5054C136.365 16.2672 136.805 15.0617 137.632 14.1419C138.459 13.222 139.609 12.6595 140.841 12.5724C142.073 12.4852 143.291 12.8803 144.238 13.6746C145.186 14.4688 145.79 15.6006 145.924 16.8321C145.924 16.8321 145.924 16.9698 145.924 16.9851L146 27.5434ZM141.225 19.6323H143.819C143.986 19.6323 144.063 19.6323 144.063 19.4181C144.063 18.7448 144.063 18.0716 144.063 17.4136C144.051 16.6987 143.772 16.0145 143.28 15.4968C142.788 14.9792 142.121 14.6661 141.409 14.6198C140.698 14.5735 139.996 14.7975 139.441 15.2471C138.887 15.6966 138.522 16.339 138.419 17.0463C138.312 17.8267 138.419 18.5765 138.419 19.3722C138.419 19.5711 138.419 19.6323 138.678 19.6323H141.286" fill="white"/>
<path d="M18.4426 36.9694C14.7914 36.963 11.2245 35.8677 8.1953 33.8229C5.16612 31.778 2.81142 28.8759 1.43049 25.4853C0.0495609 22.0948 -0.295242 18.369 0.439907 14.7814C1.17505 11.1938 2.95696 7.90644 5.55913 5.33719C8.16131 2.76793 11.4663 1.03278 15.0539 0.352256C18.6416 -0.328265 22.3499 0.0765812 25.7076 1.51534C29.0654 2.9541 31.9208 5.36179 33.9111 8.43241C35.9014 11.503 36.9366 15.0979 36.8852 18.7602C36.813 23.6174 34.8377 28.2509 31.3864 31.6585C27.9351 35.0661 23.2853 36.974 18.4426 36.9694ZM18.4426 34.414C21.579 34.411 24.6442 33.4754 27.2507 31.7256C29.8573 29.9758 31.8884 27.4902 33.0872 24.583C34.2861 21.6757 34.599 18.4772 33.9863 15.3916C33.3737 12.306 31.8631 9.47183 29.6453 7.24714C27.4275 5.02245 24.6021 3.50711 21.5261 2.89258C18.4501 2.27804 15.2615 2.5919 12.3633 3.7945C9.46501 4.99709 6.98714 7.03445 5.24276 9.64915C3.49838 12.2638 2.56576 15.3385 2.56274 18.4847C2.57482 22.7057 4.25174 26.7503 7.22718 29.735C10.2026 32.7197 14.2347 34.4019 18.4426 34.414Z" fill="white"/>
<path d="M110.915 22.2796V17.689C110.856 16.4126 111.305 15.1652 112.164 14.2211C113.022 13.277 114.219 12.7135 115.491 12.6547C116.764 12.5958 118.007 13.0464 118.948 13.9073C119.89 14.7682 120.451 15.9689 120.51 17.2452C120.517 17.3777 120.517 17.5106 120.51 17.6431C120.51 20.8259 120.51 24.0087 120.51 27.1915C120.51 27.4516 120.51 27.5587 120.159 27.5281C119.732 27.5053 119.304 27.5053 118.878 27.5281C118.588 27.5281 118.542 27.4363 118.542 27.1609C118.542 25.4164 118.542 23.6567 118.542 21.897C118.542 21.6369 118.542 21.5757 118.222 21.5757H113.111C112.898 21.5757 112.837 21.5757 112.837 21.8511C112.837 23.6414 112.837 25.4164 112.837 27.2068C112.837 27.4669 112.837 27.5281 112.532 27.5128C112.105 27.4898 111.677 27.4898 111.25 27.5128C110.93 27.5128 110.884 27.4057 110.9 27.1303V22.2796H110.915ZM115.689 19.6476H118.252C118.466 19.6476 118.527 19.6476 118.527 19.3569C118.527 18.7295 118.527 18.1174 118.527 17.4901C118.511 16.7857 118.239 16.1116 117.761 15.5955C117.283 15.0793 116.633 14.7571 115.934 14.6898C115.227 14.6248 114.522 14.8275 113.958 15.2581C113.393 15.6886 113.009 16.3156 112.883 17.0157C112.829 17.8105 112.829 18.608 112.883 19.4028C112.883 19.6017 112.883 19.6629 113.142 19.6629H115.735" fill="white"/>
<path d="M109.328 27.5434H107.406C107.193 27.5434 107.178 27.4057 107.116 27.2833L104.828 21.897C104.803 21.7994 104.742 21.7151 104.657 21.6611C104.572 21.6071 104.47 21.5875 104.371 21.6063H102.525C102.266 21.6063 102.174 21.6063 102.174 21.9276C102.174 23.6874 102.174 25.4471 102.174 27.2068C102.174 27.4822 102.174 27.574 101.838 27.5434H100.527C100.283 27.5434 100.237 27.5434 100.237 27.2527V13.0525C100.237 12.823 100.237 12.7465 100.542 12.7465H104.859C105.453 12.7439 106.041 12.8622 106.588 13.0941C107.135 13.3261 107.63 13.6669 108.042 14.096C108.454 14.525 108.775 15.0335 108.986 15.5906C109.196 16.1477 109.292 16.7418 109.267 17.3371C109.244 18.111 109.011 18.8641 108.595 19.5161C108.179 20.1681 107.594 20.6948 106.903 21.0401C106.674 21.1625 106.659 21.2391 106.75 21.4533C107.574 23.3507 108.383 25.2482 109.191 27.1456L109.313 27.4822L109.328 27.5434ZM102.205 17.1688V19.4334C102.205 19.6018 102.205 19.663 102.433 19.663H105.027C105.682 19.663 106.311 19.4018 106.774 18.9369C107.237 18.472 107.498 17.8415 107.498 17.1841C107.498 16.5266 107.237 15.8961 106.774 15.4312C106.311 14.9663 105.682 14.7051 105.027 14.7051H102.403C102.22 14.7051 102.189 14.7051 102.189 14.9347V17.1841" fill="white"/>
<path d="M80.0704 20.4281C80.1246 21.4475 80.1246 22.469 80.0704 23.4884C79.9501 24.6855 79.3836 25.7929 78.4844 26.589C77.5851 27.3851 76.4194 27.8113 75.2203 27.7823C74.0213 27.7533 72.8773 27.2712 72.0174 26.4325C71.1574 25.5939 70.6448 24.4604 70.5822 23.2589C70.4526 21.185 70.4526 19.1049 70.5822 17.031C70.6973 15.9871 71.1556 15.0114 71.8848 14.2578C72.614 13.5041 73.5726 13.0155 74.6093 12.8689C75.2989 12.7636 76.003 12.8112 76.6723 13.0082C77.3415 13.2053 77.9596 13.547 78.4831 14.0093C79.0065 14.4717 79.4226 15.0435 79.7022 15.6845C79.9817 16.3255 80.1178 17.0202 80.1009 17.7196L80.0704 20.4281ZM72.4432 20.1832V22.8611C72.4146 23.2534 72.4669 23.6474 72.5968 24.0186C72.7268 24.3897 72.9317 24.73 73.1987 25.0182C73.4657 25.3063 73.789 25.5362 74.1485 25.6933C74.508 25.8505 74.896 25.9316 75.2882 25.9316C75.6803 25.9316 76.0683 25.8505 76.4278 25.6933C76.7873 25.5362 77.1107 25.3063 77.3776 25.0182C77.6446 24.73 77.8495 24.3897 77.9795 24.0186C78.1095 23.6474 78.1618 23.2534 78.1331 22.8611V17.536C78.0805 16.8152 77.7579 16.1411 77.2301 15.6491C76.7024 15.1571 76.0086 14.8836 75.2882 14.8836C74.5677 14.8836 73.8739 15.1571 73.3462 15.6491C72.8185 16.1411 72.4959 16.8152 72.4432 17.536V20.1679" fill="white"/>
<path d="M122.188 20.122C122.188 17.7655 122.188 15.409 122.188 13.0525C122.188 12.823 122.188 12.7465 122.493 12.7465H126.718C127.856 12.7465 128.949 13.1876 129.77 13.9775C130.591 14.7674 131.076 15.8449 131.123 16.9849C131.17 18.1249 130.776 19.2391 130.024 20.0947C129.271 20.9502 128.218 21.4808 127.085 21.5757C126.2 21.5757 125.315 21.5757 124.43 21.5757C124.186 21.5757 124.125 21.5757 124.125 21.8817C124.125 23.6567 124.125 25.4317 124.125 27.2068C124.125 27.4516 124.125 27.5281 123.82 27.5128H122.462C122.234 27.5128 122.173 27.5128 122.173 27.2221C122.173 24.8503 122.173 22.4785 122.173 20.1067L122.188 20.122ZM124.11 17.1534C124.11 17.8879 124.11 18.6836 124.11 19.3722C124.11 19.5558 124.11 19.6476 124.354 19.6476H126.886C127.542 19.6476 128.17 19.3864 128.634 18.9216C129.097 18.4567 129.357 17.8262 129.357 17.1687C129.357 16.5113 129.097 15.8807 128.634 15.4159C128.17 14.951 127.542 14.6898 126.886 14.6898H124.384C124.186 14.6898 124.125 14.6898 124.125 14.9346C124.125 15.6844 124.125 16.4648 124.125 17.1687" fill="white"/>
<path d="M96.3469 14.6899C95.6512 14.638 94.9527 14.638 94.257 14.6899C93.7217 14.8068 93.247 15.1149 92.9215 15.5569C92.5959 15.9989 92.4417 16.5446 92.4875 17.0923C92.5165 17.6403 92.7456 18.1584 93.131 18.5479C93.5164 18.9373 94.0313 19.1709 94.5774 19.2039C95.3706 19.2039 96.1028 19.2039 96.9876 19.2039C97.2469 19.2039 97.3232 19.2957 97.3079 19.5406C97.2927 19.7854 97.3079 20.4587 97.3079 20.9177C97.3079 21.3768 97.2164 21.1473 97.0486 21.1473H94.7604C94.1995 21.1507 93.6591 21.3594 93.2406 21.7341C92.8222 22.1088 92.5544 22.6238 92.4875 23.1824C92.4363 23.7213 92.5766 24.2611 92.8836 24.7063C93.1906 25.1515 93.6447 25.4735 94.1655 25.6154C94.4101 25.6761 94.661 25.7069 94.913 25.7072H98.2995C98.513 25.7072 98.5893 25.7072 98.574 25.9674C98.574 26.457 98.574 26.9314 98.574 27.4211C98.574 27.5588 98.574 27.6506 98.3757 27.6506C97.0333 27.6506 95.6757 27.7271 94.3333 27.6506C93.5393 27.6029 92.7782 27.3159 92.1495 26.8272C91.5208 26.3385 91.0538 25.6708 90.8095 24.9115C90.5169 24.175 90.4476 23.3682 90.6104 22.5923C90.7733 21.8165 91.1609 21.1061 91.7248 20.5505C92.0299 20.2292 92.0299 20.2292 91.7248 19.9231C91.1457 19.3276 90.7556 18.5733 90.6038 17.7554C90.4519 16.9376 90.5451 16.093 90.8716 15.3283C91.1981 14.5635 91.7432 13.913 92.4381 13.459C93.133 13.0049 93.9464 12.7676 94.7757 12.7771H98.33C98.5588 12.7771 98.6503 12.7771 98.6503 13.0832C98.6274 13.5317 98.6274 13.9812 98.6503 14.4297C98.6503 14.6593 98.6503 14.7358 98.3757 14.7205H96.3469" fill="white"/>
<path d="M59.3549 27.6658H56.9142C56.7007 27.6658 56.6396 27.6658 56.6396 27.3904C56.6396 26.9313 56.6396 26.4723 56.6396 26.0132C56.6396 25.5542 56.6396 25.6919 56.96 25.7072H61.5363C61.8359 25.7395 62.1374 25.6673 62.3901 25.5029C62.6429 25.3385 62.8316 25.0919 62.9245 24.8044C63.0272 24.5329 63.0364 24.2349 62.9508 23.9576C62.8651 23.6803 62.6893 23.4397 62.4516 23.2742C60.6668 21.744 58.882 20.2138 57.1278 18.5918C56.722 18.2479 56.4051 17.8108 56.204 17.3176C56.003 16.8243 55.9239 16.2897 55.9733 15.7591C56.0227 15.2286 56.1993 14.7179 56.488 14.2706C56.7767 13.8233 57.1689 13.4526 57.6312 13.1902C58.0917 12.9098 58.618 12.7567 59.1566 12.7465H64.0685C64.3279 12.7465 64.3889 12.823 64.3736 13.0678C64.3509 13.5062 64.3509 13.9454 64.3736 14.3838C64.3736 14.6592 64.2821 14.6898 64.038 14.6898H59.4922C59.188 14.6651 58.8842 14.7417 58.6278 14.9077C58.3713 15.0736 58.1765 15.3197 58.0736 15.6079C57.9827 15.8819 57.981 16.1779 58.0687 16.4529C58.1565 16.728 58.3291 16.9679 58.5617 17.1381L63.9007 21.8205C64.3672 22.2192 64.7129 22.741 64.8988 23.3267C65.0846 23.9125 65.1032 24.5387 64.9523 25.1345C64.8015 25.7303 64.4872 26.2718 64.0452 26.6975C63.6032 27.1233 63.0511 27.4163 62.4516 27.5434C61.9485 27.6341 61.4364 27.6649 60.9261 27.6352H59.4007" fill="white"/>
<path d="M47.365 12.7465H50.5226C50.7819 12.7465 50.843 12.823 50.8277 13.0678C50.8125 13.3127 50.8277 13.9553 50.8277 14.4144C50.8277 14.8735 50.8277 14.6898 50.5379 14.6898H44.4361C44.192 14.6898 43.9785 14.6898 43.9022 14.9959C43.8259 15.3019 43.9785 15.4549 44.2225 15.5926C45.5802 16.3118 46.9226 17.031 48.265 17.7808C48.6169 17.9758 48.9142 18.2565 49.1296 18.597C49.3449 18.9376 49.4713 19.327 49.4972 19.7295C49.523 20.1319 49.4474 20.5344 49.2774 20.8998C49.1074 21.2653 48.8484 21.5819 48.5243 21.8205C48.1112 22.1175 47.6138 22.2731 47.1056 22.2643C46.3124 22.2643 45.5802 22.2643 44.7259 22.2643C44.2683 22.2643 44.1463 22.3714 44.1463 22.8304V27.2221C44.1463 27.4516 44.1463 27.5434 43.8412 27.5281H42.4378C42.2547 27.5281 42.209 27.5281 42.209 27.2986C42.209 25.7684 42.209 24.1311 42.209 22.5397C42.2284 21.9522 42.4718 21.3945 42.889 20.9817C43.3062 20.5689 43.8654 20.3324 44.4514 20.3209H46.9836C47.2429 20.3209 47.4565 20.3209 47.5175 19.9996C47.5785 19.6783 47.5175 19.5558 47.2124 19.4181C45.8548 18.6989 44.4971 17.9644 43.1547 17.2146C42.7976 17.0154 42.4973 16.7278 42.2823 16.3792C42.0673 16.0306 41.9448 15.6326 41.9265 15.2231C41.9081 14.8136 41.9945 14.4062 42.1775 14.0397C42.3604 13.6731 42.6338 13.3596 42.9717 13.129C43.3437 12.8723 43.7863 12.7385 44.2378 12.7465H47.365Z" fill="white"/>
<path d="M84.1586 21.1166V14.9959C84.1586 14.7204 84.1586 14.6592 83.8383 14.6745H81.306C81.0925 14.6745 81.0314 14.6745 81.0314 14.4144C81.0314 13.9401 81.0314 13.4504 81.0314 12.976C81.0314 12.7771 81.1077 12.7312 81.2908 12.7312H88.918C89.1315 12.7312 89.1773 12.7312 89.1773 12.9913C89.1773 13.4606 89.1773 13.935 89.1773 14.4144C89.1773 14.6439 89.101 14.6745 88.8875 14.6745C88.0637 14.6745 87.2247 14.6745 86.3858 14.6745C86.0807 14.6745 86.0502 14.7817 86.0502 15.0418V27.1609C86.0502 27.4516 86.0502 27.5587 85.684 27.5434C85.2572 27.5205 84.8295 27.5205 84.4027 27.5434C84.1739 27.5434 84.1128 27.5434 84.1128 27.2527V21.1319" fill="white"/>
<path d="M68.6449 20.1526C68.6449 22.4938 68.6449 24.8503 68.6449 27.2068C68.6449 27.4516 68.6449 27.5434 68.3093 27.5281H67.1194C66.8754 27.5281 66.8296 27.5281 66.8296 27.2374C66.8296 25.7072 66.8296 24.177 66.8296 22.6468V13.0984C66.8296 12.823 66.8296 12.7312 67.1652 12.7465C67.6022 12.7694 68.0401 12.7694 68.4771 12.7465C68.7364 12.7465 68.7974 12.7465 68.7974 13.0525C68.7974 15.2254 68.7974 17.4136 68.7974 19.5864L68.6449 20.1526Z" fill="white"/>
<path d="M54.4583 20.1526C54.4583 22.5091 54.4583 24.8656 54.4583 27.2221C54.4583 27.4516 54.4583 27.5434 54.1532 27.5281H52.8565C52.5972 27.5281 52.5057 27.5281 52.5057 27.1915C52.5057 24.8962 52.5057 22.6009 52.5057 20.3209C52.5057 18.041 52.5057 15.4855 52.5057 13.0678C52.5057 12.823 52.5057 12.7312 52.8413 12.7465H54.0922C54.3667 12.7465 54.4583 12.7465 54.4583 13.0984C54.4583 15.4549 54.4583 17.8114 54.4583 20.1526Z" fill="white"/>
<path d="M132.79 20.1526C132.79 17.7808 132.79 15.4243 132.79 13.0678C132.79 12.823 132.79 12.7312 133.095 12.7465H134.452C134.681 12.7465 134.742 12.7465 134.742 13.0372C134.742 15.4855 134.742 17.9338 134.742 20.3821C134.742 22.8305 134.742 24.9727 134.742 27.1915C134.742 27.4822 134.651 27.5434 134.376 27.5281H133.125C132.866 27.5281 132.79 27.5281 132.79 27.2068C132.79 24.8503 132.79 22.5091 132.79 20.1526Z" fill="white"/>
<path d="M42.7124 3.39703C42.7124 2.43301 42.7124 1.4843 42.7124 0.535577C42.7124 0.336653 42.7124 0.244841 42.9869 0.244841C43.9523 0.191336 44.9199 0.191336 45.8853 0.244841C46.5426 0.314969 47.1523 0.621928 47.6011 1.10875C48.05 1.59558 48.3075 2.22922 48.326 2.89207C48.4448 3.74796 48.2496 4.618 47.7768 5.34037C47.5094 5.70414 47.1598 5.99918 46.7568 6.20132C46.3538 6.40346 45.9087 6.50695 45.4581 6.50332C44.6192 6.50332 43.7649 6.50332 42.9259 6.50332C42.7124 6.50332 42.7276 6.39621 42.7276 6.24319V3.39703H42.7124ZM44.6649 1.19356C44.4056 1.19356 44.2073 1.19356 44.0242 1.19356C43.8412 1.19356 43.8107 1.19356 43.8107 1.39248V5.44749C43.8107 5.61581 43.8107 5.66172 44.0242 5.64641C44.4056 5.64641 44.7717 5.64641 45.1531 5.64641C45.6222 5.66783 46.0814 5.50604 46.4341 5.19502C46.7868 4.884 47.0056 4.44796 47.0446 3.97851C47.1283 3.53872 47.1283 3.08702 47.0446 2.64724C46.9695 2.28328 46.7815 1.95252 46.5074 1.70237C46.2334 1.45222 45.8874 1.29553 45.5192 1.25477C45.2351 1.22644 44.949 1.22644 44.6649 1.25477" fill="white"/>
<path d="M79.0179 2.67785C79.1688 2.44824 79.3759 2.26133 79.6194 2.13501C79.863 2.00869 80.1348 1.94719 80.4088 1.95641C80.6828 1.96562 80.9499 2.04523 81.1844 2.18763C81.419 2.33002 81.6132 2.53043 81.7484 2.76966C81.9308 2.47982 82.1949 2.25089 82.5073 2.11194C82.8196 1.97299 83.1661 1.93029 83.5027 1.98926C83.8265 2.00862 84.131 2.15046 84.3546 2.38617C84.5783 2.62189 84.7045 2.93392 84.7078 3.25932C84.8298 4.31515 84.7078 5.37098 84.7078 6.42681C84.7078 6.53393 84.7078 6.61044 84.5552 6.59514C84.2654 6.59514 83.884 6.68695 83.701 6.59514C83.5179 6.50332 83.701 6.04427 83.701 5.75353C83.701 5.04964 83.701 4.36106 83.701 3.65717C83.701 3.19811 83.5027 2.98389 83.1823 2.93798C82.9875 2.8912 82.7827 2.91094 82.6003 2.99409C82.418 3.07724 82.2685 3.21904 82.1755 3.39704C82.0466 3.6473 81.9836 3.92647 81.9925 4.20804C81.9925 4.92723 81.9925 5.64642 81.9925 6.38091C81.9925 6.56453 81.9925 6.67165 81.7332 6.64104C81.4738 6.61044 81.062 6.76346 80.8942 6.64104C80.7264 6.51863 80.8942 6.10547 80.8942 5.81474V3.85609C80.8942 3.18281 80.6959 2.89207 80.2077 2.87677C80.074 2.86541 79.9393 2.88322 79.8131 2.92897C79.6868 2.97472 79.5719 3.04733 79.4763 3.14182C79.3806 3.23631 79.3065 3.35043 79.259 3.47637C79.2114 3.6023 79.1916 3.73706 79.2009 3.8714C79.2009 4.63649 79.2009 5.40159 79.2009 6.16668C79.2009 6.59514 79.2009 6.59514 78.7738 6.59514C78.0721 6.59514 78.0721 6.59514 78.0721 5.90655C78.0721 4.6977 78.0721 3.50415 78.0721 2.2953C78.0721 2.14228 78.0721 2.05047 78.2551 2.08107H78.4535C79.0484 2.08107 79.0484 2.08107 79.2009 2.67785" fill="white"/>
<path d="M110.35 2.61663C110.35 1.85154 110.35 1.08644 110.35 0.367254C110.35 0.107122 110.35 -0.0152936 110.686 0.0153103C111.022 0.0459141 111.281 -0.0918031 111.434 0.0153103C111.586 0.122424 111.434 0.520273 111.434 0.780405C111.434 2.60133 111.434 4.42226 111.434 6.22788C111.434 6.48802 111.433 6.56452 111.113 6.53392H110.93C110.335 6.53392 110.335 6.53392 110.32 5.96775C110.09 6.23449 109.79 6.43164 109.455 6.53708C109.119 6.64252 108.761 6.65207 108.421 6.56467C108.08 6.47726 107.77 6.29635 107.527 6.04225C107.283 5.78815 107.114 5.47091 107.04 5.12615C106.841 4.44423 106.884 3.71387 107.162 3.06039C107.292 2.76613 107.494 2.50924 107.748 2.31316C108.003 2.11709 108.302 1.98806 108.619 1.93785C108.936 1.88764 109.261 1.91785 109.563 2.02573C109.866 2.1336 110.136 2.31571 110.35 2.55543V2.61663ZM108.078 4.33045C108.072 4.55329 108.103 4.77549 108.169 4.98843C108.23 5.21599 108.366 5.41645 108.554 5.55787C108.742 5.6993 108.971 5.77356 109.206 5.76883C109.448 5.78975 109.69 5.7223 109.886 5.57889C110.082 5.43549 110.22 5.22579 110.274 4.98843C110.426 4.54207 110.426 4.05761 110.274 3.61126C110.196 3.40041 110.056 3.21857 109.872 3.09015C109.688 2.96174 109.469 2.89291 109.244 2.89291C109.02 2.89291 108.801 2.96174 108.617 3.09015C108.433 3.21857 108.293 3.40041 108.215 3.61126C108.114 3.86392 108.067 4.13501 108.078 4.40696" fill="white"/>
<path d="M55.282 2.75437C55.4883 2.4254 55.8 2.17654 56.1659 2.04864C56.5318 1.92074 56.9301 1.92139 57.2956 2.05048C57.6749 2.1651 58.0114 2.39107 58.2615 2.69926C58.5116 3.00745 58.664 3.38373 58.699 3.7796C58.805 4.25832 58.805 4.75456 58.699 5.23328C58.6088 5.57394 58.4272 5.88327 58.174 6.12766C57.9208 6.37205 57.6057 6.54213 57.2628 6.61943C56.92 6.69672 56.5626 6.67827 56.2295 6.56608C55.8964 6.45389 55.6004 6.25224 55.3735 5.98307C55.3735 6.74817 55.3735 7.51326 55.3735 8.20185C55.3735 8.44668 55.3735 8.53849 55.0532 8.52319C54.7328 8.50789 54.4583 8.6303 54.3057 8.52319C54.1532 8.41608 54.3057 8.01823 54.3057 7.74279C54.3057 6.2126 54.3057 4.5906 54.3057 3.0145C54.3208 2.79544 54.3208 2.57559 54.3057 2.35652C54.3057 2.2035 54.3057 2.11169 54.504 2.1423H54.6566C55.3125 2.1423 55.3125 2.1423 55.4498 2.81558L55.282 2.75437ZM55.4498 4.34577C55.4498 4.46819 55.4498 4.6059 55.4498 4.74362C55.4687 5.02121 55.5902 5.28173 55.7905 5.47419C55.9909 5.66664 56.2556 5.77717 56.5329 5.78415C56.8139 5.80971 57.0935 5.72267 57.3108 5.54204C57.528 5.3614 57.6651 5.10187 57.6922 4.82013C57.7831 4.43268 57.7831 4.02934 57.6922 3.64188C57.6251 3.41594 57.4856 3.2185 57.2953 3.08017C57.105 2.94184 56.8746 2.87035 56.6396 2.87679C56.4009 2.86279 56.1648 2.93321 55.9725 3.0758C55.7802 3.2184 55.6438 3.42413 55.5871 3.65718C55.5195 3.88057 55.4836 4.11236 55.4803 4.34577" fill="white"/>
<path d="M62.8482 2.60129C62.9702 2.44827 62.8482 2.18813 62.955 2.11163C63.1565 2.07315 63.3635 2.07315 63.5651 2.11163H63.794C63.9465 2.11163 64.0075 2.11163 64.0075 2.31055V6.39616C64.0075 6.56448 64.0075 6.61038 63.794 6.59508H63.5041C62.9245 6.59508 62.9245 6.59508 62.8787 5.9677C62.7287 6.17349 62.534 6.34239 62.3094 6.46168C62.0848 6.58096 61.8361 6.64751 61.5821 6.65629C61.11 6.70702 60.6362 6.57782 60.2547 6.29435C59.8732 6.01087 59.6119 5.59386 59.5227 5.1261C59.3966 4.68214 59.385 4.21331 59.4891 3.76364C59.5931 3.31396 59.8094 2.89819 60.1176 2.55538C60.2895 2.3791 60.4948 2.23904 60.7214 2.14341C60.948 2.04779 61.1913 1.99854 61.4371 1.99854C61.683 1.99854 61.9263 2.04779 62.1529 2.14341C62.3795 2.23904 62.5848 2.3791 62.7566 2.55538L62.8482 2.63189V2.60129ZM60.5905 4.3151C60.5699 4.56989 60.6064 4.82608 60.6973 5.06489C60.7665 5.27574 60.9021 5.45835 61.0837 5.58528C61.2652 5.71222 61.4829 5.77661 61.7041 5.76878C61.9255 5.79184 62.1483 5.73948 62.3364 5.62012C62.5246 5.50077 62.6672 5.32136 62.7414 5.1108C62.9097 4.65672 62.9097 4.1571 62.7414 3.70302C62.6968 3.45312 62.5613 3.22871 62.3612 3.07324C62.1612 2.91776 61.9107 2.84229 61.6583 2.86142C61.405 2.8607 61.1594 2.94911 60.9643 3.11127C60.7692 3.27343 60.6369 3.49907 60.5905 3.74893C60.5606 3.93646 60.5606 4.12757 60.5905 4.3151Z" fill="white"/>
<path d="M75.6161 2.66252C75.6161 2.08105 75.6161 2.08105 76.211 2.08105C76.806 2.08105 76.745 2.08105 76.745 2.63192C76.745 3.85607 76.745 5.09552 76.745 6.31968C76.745 6.5492 76.7449 6.62571 76.4551 6.59511H76.2721C75.6619 6.59511 75.6619 6.59511 75.6009 5.98303C75.4382 6.19758 75.2283 6.37141 74.9874 6.49088C74.7466 6.61035 74.4814 6.67222 74.2127 6.67162C73.8126 6.694 73.4162 6.58517 73.0832 6.36157C72.7502 6.13797 72.4988 5.81174 72.3669 5.43217C72.0769 4.71588 72.0769 3.91437 72.3669 3.19809C72.4827 2.88919 72.6774 2.61626 72.9315 2.40667C73.1857 2.19708 73.4902 2.05819 73.8147 2.00394C74.1392 1.94969 74.4723 1.98198 74.7804 2.09757C75.0885 2.21316 75.361 2.40799 75.5704 2.66252H75.6161ZM75.5704 4.31513C75.5893 4.03122 75.5369 3.74709 75.4178 3.48882C75.3439 3.30227 75.2155 3.14251 75.0494 3.03054C74.8834 2.91856 74.6874 2.85962 74.4873 2.86145C74.2838 2.84173 74.0791 2.88368 73.8996 2.98188C73.7201 3.08008 73.5742 3.23002 73.4805 3.41231C73.2438 3.88729 73.2001 4.43583 73.3585 4.9425C73.4266 5.17355 73.5674 5.3763 73.7599 5.5205C73.9523 5.66469 74.1861 5.74261 74.4263 5.74261C74.6665 5.74261 74.9003 5.66469 75.0927 5.5205C75.2851 5.3763 75.4259 5.17355 75.4941 4.9425C75.5314 4.72992 75.5314 4.51241 75.4941 4.29982" fill="white"/>
<path d="M101.518 6.67162C101.201 6.68729 100.884 6.63328 100.59 6.51336C100.296 6.39345 100.031 6.21051 99.8144 5.97734C99.598 5.74418 99.4349 5.4664 99.3366 5.16344C99.2383 4.86047 99.2071 4.53962 99.2452 4.22331C99.2695 3.61457 99.5338 3.04043 99.9801 2.62719C100.201 2.42258 100.46 2.26363 100.742 2.15942C101.025 2.05521 101.324 2.00778 101.625 2.01984C101.925 2.0319 102.221 2.10321 102.494 2.22969C102.767 2.35618 103.012 2.53537 103.216 2.75703C103.42 2.9787 103.579 3.23849 103.682 3.52158C103.786 3.80467 103.834 4.10552 103.822 4.40694C103.835 4.71188 103.784 5.01625 103.673 5.30022C103.561 5.58419 103.391 5.84138 103.174 6.05504C102.956 6.26871 102.697 6.43404 102.411 6.54028C102.126 6.64651 101.822 6.69127 101.518 6.67162ZM102.693 4.36103C102.7 4.09057 102.659 3.82096 102.571 3.56533C102.498 3.34918 102.358 3.16231 102.171 3.03268C101.984 2.90304 101.761 2.8376 101.533 2.84614C101.308 2.83589 101.085 2.90089 100.9 3.03101C100.715 3.16113 100.579 3.34902 100.511 3.56533C100.351 4.03129 100.351 4.53775 100.511 5.00371C100.574 5.23737 100.712 5.44369 100.904 5.59081C101.096 5.73793 101.33 5.81765 101.572 5.81765C101.813 5.81765 102.047 5.73793 102.239 5.59081C102.431 5.44369 102.569 5.23737 102.632 5.00371C102.691 4.81026 102.722 4.60925 102.723 4.40694" fill="white"/>
<path d="M91.8926 2.70842C92.0857 2.43263 92.3536 2.21824 92.6646 2.09075C92.9756 1.96326 93.3165 1.92802 93.6469 1.98923C93.9796 2.01083 94.2932 2.15319 94.529 2.38972C94.7648 2.62625 94.9067 2.94078 94.9282 3.27459C94.974 4.10536 94.974 4.93803 94.9282 5.7688C94.9282 6.02893 95.0198 6.38087 94.9282 6.53389C94.8367 6.68691 94.4096 6.53389 94.1503 6.53389C93.8909 6.53389 93.8299 6.53389 93.8299 6.21255C93.8299 5.47806 93.8299 4.68236 93.8299 4.00908V3.88666C93.8299 3.19808 93.5706 2.89204 93.0367 2.87674C92.8925 2.86151 92.7467 2.87724 92.609 2.92287C92.4713 2.96851 92.3449 3.04301 92.2381 3.14143C92.1314 3.23985 92.0467 3.35992 91.9898 3.49369C91.9328 3.62746 91.9049 3.77184 91.9079 3.91727C91.9079 4.71297 91.9079 5.50866 91.9079 6.30436C91.9079 6.51859 91.9079 6.6257 91.618 6.5951C91.3282 6.5645 90.9926 6.68691 90.8248 6.5951C90.657 6.50329 90.8248 6.05953 90.8248 5.7841C90.8248 4.65176 90.8248 3.50412 90.8248 2.37177C90.8248 2.17285 90.8248 2.11164 91.0536 2.12694C91.292 2.10371 91.5321 2.10371 91.7706 2.12694C92.0146 2.21876 91.7706 2.5554 91.9841 2.73902" fill="white"/>
<path d="M115.079 4.40697C114.637 4.40697 114.179 4.40697 113.737 4.40697C113.554 4.40697 113.523 4.40697 113.554 4.6212C113.564 4.81944 113.62 5.01262 113.717 5.18525C113.815 5.35788 113.951 5.50515 114.116 5.61524C114.281 5.72534 114.469 5.7952 114.665 5.81921C114.862 5.84323 115.061 5.82074 115.247 5.75354C115.535 5.69348 115.81 5.57926 116.056 5.4169H116.208C116.322 5.64057 116.424 5.87046 116.513 6.10548C116.513 6.2279 116.422 6.2585 116.33 6.31971C115.837 6.61822 115.265 6.75907 114.69 6.72353C114.115 6.688 113.564 6.47777 113.111 6.12079C112.733 5.7175 112.49 5.20455 112.419 4.65503C112.348 4.10551 112.451 3.54746 112.715 3.0604C112.946 2.63325 113.315 2.29758 113.761 2.1085C114.207 1.91942 114.705 1.88817 115.171 2.01988C115.655 2.14296 116.078 2.43979 116.359 2.85425C116.64 3.2687 116.76 3.77209 116.696 4.26926C116.696 4.43758 116.559 4.39167 116.467 4.39167H115.156L115.079 4.40697ZM114.667 3.77959H115.415C115.674 3.77959 115.735 3.77959 115.659 3.47356C115.605 3.25482 115.472 3.06375 115.286 2.93677C115.101 2.80978 114.875 2.75575 114.652 2.78497C114.426 2.79013 114.209 2.87142 114.034 3.01576C113.86 3.16009 113.739 3.35907 113.691 3.58067C113.691 3.73369 113.691 3.77959 113.859 3.77959H114.667Z" fill="white"/>
<path d="M88.2926 4.40697C87.8654 4.40697 87.4536 4.40697 87.0417 4.40697C86.6298 4.40697 86.7671 4.48348 86.7976 4.6977C86.819 4.88744 86.8827 5.06991 86.984 5.23153C87.0853 5.39316 87.2217 5.52978 87.383 5.63125C87.5442 5.73271 87.7262 5.79639 87.9154 5.81756C88.1045 5.83874 88.296 5.81685 88.4756 5.75354C88.7609 5.69911 89.0313 5.58435 89.2688 5.41689C89.4061 5.32508 89.4519 5.41689 89.5129 5.41689C89.818 6.04427 89.7875 6.13608 89.1621 6.38091C88.5561 6.62435 87.8897 6.67249 87.2553 6.51863C86.7381 6.38464 86.2885 6.0637 85.9929 5.61745C85.6972 5.1712 85.5764 4.63111 85.6535 4.10093C85.6567 3.76095 85.7394 3.42646 85.8949 3.12437C86.0504 2.82227 86.2744 2.561 86.5489 2.36155C86.8234 2.16211 87.1407 2.03006 87.4754 1.97604C87.81 1.92201 88.1526 1.9475 88.4756 2.05047C88.9304 2.1972 89.3189 2.50017 89.5729 2.90605C89.8268 3.31193 89.9298 3.79467 89.8638 4.26925C89.8638 4.45287 89.7417 4.40697 89.6502 4.40697H88.3078H88.2926ZM87.8654 3.79489H88.6129C88.8417 3.79489 88.9027 3.79489 88.8417 3.51946C88.7972 3.2933 88.668 3.09281 88.4808 2.95909C88.2937 2.82537 88.0625 2.76854 87.8349 2.80027C87.6103 2.80191 87.3929 2.88002 87.2183 3.0218C87.0437 3.16358 86.9223 3.36062 86.8739 3.58067C86.8739 3.74899 86.8739 3.79489 87.0569 3.79489H87.8654Z" fill="white"/>
<path d="M52.8565 5.32505C52.8984 5.39847 52.9341 5.47524 52.9633 5.55458C53.2379 6.16665 53.2379 6.18195 52.5972 6.44209C51.9882 6.69508 51.3139 6.74339 50.6752 6.5798C50.2285 6.44891 49.8371 6.17424 49.5615 5.79816C49.2858 5.42208 49.1411 4.96547 49.1497 4.49875C49.0988 4.14706 49.1329 3.78826 49.2491 3.45254C49.3652 3.11681 49.5601 2.81398 49.8172 2.56954C50.0743 2.32509 50.3863 2.14618 50.7267 2.04786C51.0671 1.94954 51.4261 1.93468 51.7735 2.00454C52.2105 2.09987 52.6013 2.34397 52.8793 2.69541C53.1574 3.04684 53.3056 3.48396 53.2989 3.93257C53.2989 4.40693 53.2989 4.40693 52.8413 4.40693C52.0633 4.40693 51.3159 4.40693 50.5074 4.40693C50.2328 4.40693 50.2175 4.49875 50.248 4.71297C50.2714 4.90136 50.3367 5.08209 50.4389 5.24187C50.5411 5.40164 50.6777 5.5364 50.8387 5.63622C50.9997 5.73605 51.1809 5.7984 51.3691 5.8187C51.5573 5.83899 51.7476 5.81672 51.926 5.7535C52.277 5.67835 52.6091 5.5326 52.9023 5.32505H52.8565ZM51.3769 3.79486H52.1853C52.3837 3.79486 52.3989 3.70305 52.3684 3.55003C52.3308 3.31825 52.2046 3.1103 52.0166 2.97031C51.8286 2.83032 51.5937 2.76932 51.3616 2.80023C51.1315 2.79615 50.9073 2.87375 50.7287 3.01934C50.5501 3.16493 50.4284 3.36914 50.3853 3.59593C50.3853 3.73365 50.3853 3.79486 50.5226 3.79486H51.3769Z" fill="white"/>
<path d="M98.7571 5.6464V6.12076C98.7571 6.65632 98.7571 6.65632 98.1927 6.68693C97.9606 6.72377 97.7231 6.70634 97.4989 6.63598C97.2746 6.56563 97.0696 6.44425 96.8998 6.28133C96.73 6.1184 96.6 5.91833 96.52 5.69671C96.4399 5.4751 96.412 5.23793 96.4384 5.00372C96.4384 4.42224 96.4384 3.84077 96.4384 3.244C96.4384 3.02977 96.4384 2.96856 96.1638 2.96856C95.5231 2.96856 95.5231 2.96856 95.5537 2.31058C95.5537 2.15756 95.5537 2.11166 95.752 2.11166C95.9503 2.11166 96.2706 2.21877 96.4079 2.03515C96.5452 1.85153 96.4079 1.622 96.4079 1.39247C96.4079 1.16294 96.4079 0.948713 96.7588 0.902807C97.0125 0.842402 97.2622 0.765736 97.5062 0.673279C97.5442 0.937145 97.5442 1.20511 97.5062 1.46898C97.5062 2.11166 97.5062 2.11166 98.1622 2.11166C98.8181 2.11166 98.6961 2.11166 98.7113 2.64722C98.7113 2.90736 98.7113 2.99917 98.391 2.98387C98.0706 2.96856 97.7808 2.84615 97.6283 3.06038C97.4757 3.2746 97.6283 3.61124 97.6283 3.88668C97.6283 4.16211 97.6283 4.59057 97.6283 4.92721C97.6283 5.60049 97.9639 5.87593 98.6198 5.75351H98.8181" fill="white"/>
<path d="M71.6957 5.66174V6.41153C71.6957 6.53395 71.6958 6.56455 71.5432 6.59516C71.3003 6.706 71.0326 6.75097 70.7669 6.72557C70.5012 6.70018 70.2468 6.60531 70.0292 6.45044C69.8115 6.29556 69.6381 6.08611 69.5263 5.84299C69.4146 5.59987 69.3684 5.3316 69.3923 5.06497C69.3923 4.46819 69.3923 3.85612 69.3923 3.24404C69.3923 3.06042 69.3923 2.98391 69.133 2.98391C68.4771 2.98391 68.4923 2.98391 68.5228 2.32593C68.5228 2.15761 68.5991 2.127 68.7517 2.127C69.3923 2.127 69.4076 2.127 69.3771 1.46902C69.3771 1.13238 69.4686 0.964058 69.8042 0.90285C70.1398 0.841643 70.2618 0.749831 70.5212 0.65802C70.5444 1.01979 70.5444 1.38268 70.5212 1.74445C70.5212 2.0811 70.6279 2.17291 70.9178 2.127C71.2076 2.0811 71.2991 2.127 71.4822 2.127C71.6652 2.127 71.7263 2.127 71.7263 2.37183C71.7263 2.98391 71.7263 2.98391 71.1313 2.98391C70.5364 2.98391 70.5364 2.98391 70.5364 3.59598V4.75893C70.5364 5.64644 70.7957 5.87597 71.711 5.70765" fill="white"/>
<path d="M66.2804 2.76967C66.3988 2.54961 66.5692 2.36201 66.7766 2.2233C66.9841 2.08458 67.2222 1.99898 67.4703 1.97397H67.8821C67.9106 1.97306 67.9388 1.97881 67.9646 1.99075C67.9905 2.0027 68.0132 2.02052 68.0309 2.04279C68.0487 2.06507 68.061 2.09119 68.067 2.11908C68.0729 2.14698 68.0723 2.17588 68.0652 2.2035C68.0574 2.25421 68.0574 2.30581 68.0652 2.35652C68.0652 2.55544 68.0652 2.81558 68.0652 2.96859C68.0652 3.12161 67.7143 2.96859 67.5313 2.96859C67.3715 2.95458 67.2106 2.97583 67.0599 3.03085C66.9092 3.08587 66.7724 3.17334 66.659 3.28709C66.5456 3.40085 66.4584 3.53814 66.4035 3.68931C66.3487 3.84049 66.3275 4.00188 66.3414 4.16214C66.3414 4.89663 66.3414 5.63112 66.3414 6.36562C66.3414 6.54924 66.3414 6.62575 66.0974 6.61045C65.8533 6.59514 65.4567 6.70226 65.2736 6.61045C65.0906 6.51864 65.2736 6.07488 65.2736 5.79945C65.2736 4.6365 65.2736 3.47356 65.2736 2.32591C65.2736 2.1729 65.2736 2.12699 65.4414 2.14229H65.5635C65.7847 2.0952 66.0134 2.0952 66.2347 2.14229C66.4482 2.2341 66.3262 2.55544 66.4177 2.80027" fill="white"/>
<path d="M70.0178 35.1944C70.0178 34.6894 70.0178 34.1845 70.0178 33.6642C70.0178 33.4806 70.0178 33.4194 70.2618 33.4347C70.7347 33.4347 71.2229 33.4347 71.6957 33.4347C72.0733 33.4727 72.4232 33.6506 72.6771 33.9336C72.9309 34.2165 73.0705 34.5842 73.0686 34.9649C73.1233 35.1639 73.1372 35.372 73.1095 35.5765C73.0819 35.7811 73.0133 35.9779 72.9078 36.1552C72.8024 36.3325 72.6623 36.4865 72.4959 36.608C72.3295 36.7295 72.1404 36.816 71.9398 36.8623C71.3498 36.9567 70.7509 36.9824 70.1551 36.9388C70.0025 36.9388 70.033 36.8164 70.033 36.7093V35.1944H70.0178ZM70.689 35.1944V36.2043C70.689 36.3726 70.689 36.4339 70.9025 36.4186H71.1771C72.3059 36.4186 72.55 35.6688 72.4127 34.8884C72.3897 34.6503 72.2779 34.4298 72.0997 34.2709C71.9215 34.112 71.69 34.0265 71.4517 34.0315C71.2534 34.0315 71.0551 34.0315 70.8568 34.0315C70.6584 34.0315 70.6737 34.0315 70.689 34.2151V35.1944Z" fill="white"/>
<path d="M116.239 35.1943V33.6642C116.239 33.557 116.239 33.4346 116.376 33.4346C116.944 33.3735 117.517 33.3735 118.084 33.4346C118.299 33.4841 118.501 33.5771 118.679 33.7078C118.856 33.8385 119.005 34.0043 119.117 34.1948C119.228 34.3854 119.3 34.5968 119.327 34.816C119.354 35.0352 119.336 35.2577 119.274 35.4698C119.232 35.8621 119.04 36.2229 118.739 36.4767C118.437 36.7305 118.05 36.8576 117.657 36.8317H116.437C116.254 36.8317 116.239 36.7551 116.239 36.6021V35.1943ZM116.895 35.1943V35.8217C116.895 36.4491 116.895 36.4491 117.535 36.4185C117.695 36.4323 117.856 36.4093 118.005 36.3513C118.155 36.2932 118.289 36.2016 118.398 36.0835C118.507 35.9654 118.588 35.8239 118.634 35.6698C118.68 35.5157 118.69 35.3531 118.664 35.1943C118.684 35.0369 118.668 34.8769 118.616 34.7268C118.565 34.5766 118.48 34.4402 118.368 34.3279C118.257 34.2157 118.121 34.1306 117.971 34.0792C117.821 34.0278 117.662 34.0115 117.505 34.0314H117.093C116.94 34.0314 116.895 34.0314 116.895 34.2303C116.895 34.4293 116.895 34.873 116.895 35.1943Z" fill="white"/>
<path d="M48.8141 35.837C48.8141 35.0872 48.8141 34.4139 48.8141 33.756C48.8141 33.4958 48.9057 33.4652 49.1192 33.4652C49.3328 33.4652 49.4548 33.4652 49.4548 33.7713C49.4548 34.72 49.4548 35.6687 49.4548 36.6174C49.4548 36.7245 49.5463 36.9082 49.348 36.9388C49.2479 36.9669 49.1414 36.9611 49.0449 36.9224C48.9484 36.8837 48.8673 36.8141 48.8141 36.7245C48.4175 36.1737 47.9904 35.6381 47.5633 35.0872L47.1056 34.5058V36.5562C47.1067 36.6192 47.0908 36.6814 47.0597 36.7362C47.0286 36.7909 46.9835 36.8363 46.9289 36.8676C46.8743 36.8989 46.8124 36.9149 46.7496 36.9139C46.6868 36.913 46.6253 36.8952 46.5717 36.8623C46.4497 36.8623 46.4955 36.7092 46.4955 36.6174C46.4955 35.6687 46.4955 34.72 46.4955 33.7713C46.4955 33.6489 46.3887 33.4652 46.587 33.4193C46.7853 33.3734 46.9531 33.4193 47.0904 33.5723C47.5633 34.215 48.0514 34.8271 48.5395 35.4545C48.6175 35.5682 48.7042 35.6757 48.7989 35.7758" fill="white"/>
<path d="M104.905 35.3933C105.332 35.7911 105.378 36.342 105.606 36.8164C105.606 36.8164 105.606 36.8929 105.606 36.9235C105.484 36.9635 105.353 36.9675 105.229 36.9349C105.104 36.9024 104.992 36.8347 104.905 36.7399C104.798 36.4644 104.691 36.2043 104.6 35.9289C104.577 35.797 104.504 35.6795 104.395 35.6021C104.286 35.5246 104.151 35.4936 104.02 35.5157C103.455 35.5157 103.455 35.5157 103.455 36.0513V36.5562C103.455 36.9082 103.242 37.0612 102.906 36.9388C102.906 36.9388 102.906 36.8623 102.906 36.8011V33.6642C102.906 33.5418 102.906 33.5112 103.074 33.5112C103.562 33.5112 104.066 33.5112 104.6 33.5112C104.815 33.4921 105.03 33.5489 105.208 33.6718C105.386 33.7947 105.516 33.9759 105.576 34.1844C105.639 34.4186 105.619 34.6675 105.519 34.8882C105.418 35.109 105.244 35.2876 105.027 35.3933H104.905ZM104.066 35.0108C104.258 35.0404 104.453 35.0404 104.645 35.0108C104.753 34.9854 104.848 34.9218 104.912 34.8318C104.977 34.7418 105.006 34.6314 104.996 34.5211C105.001 34.4083 104.962 34.2981 104.888 34.2128C104.815 34.1275 104.711 34.0736 104.6 34.062H104.111C103.562 34.062 103.562 34.062 103.562 34.5823C103.562 35.1026 103.562 35.072 104.066 35.072" fill="white"/>
<path d="M140.569 35.3933C140.997 35.7912 141.042 36.342 141.271 36.8164C141.282 36.832 141.288 36.8507 141.288 36.8699C141.288 36.8892 141.282 36.9079 141.271 36.9235C141.149 36.9635 141.018 36.9675 140.893 36.9349C140.769 36.9024 140.657 36.8347 140.569 36.7399C140.48 36.4838 140.404 36.2233 140.341 35.9595C140.328 35.8865 140.301 35.8168 140.26 35.7547C140.22 35.6925 140.168 35.6391 140.107 35.5977C140.045 35.5562 139.977 35.5276 139.904 35.5136C139.832 35.4995 139.757 35.5002 139.685 35.5157C139.181 35.5157 139.181 35.5157 139.181 36.0207C139.181 36.2349 139.181 36.4644 139.181 36.6787C139.181 36.8929 139.029 36.9388 138.846 36.9541C138.663 36.9694 138.525 36.9541 138.541 36.6634C138.541 35.6993 138.541 34.72 138.541 33.756C138.541 33.5265 138.541 33.4653 138.815 33.4653C139.09 33.4653 139.746 33.4653 140.219 33.4653C140.691 33.4653 141.088 33.7407 141.18 34.1386C141.247 34.3708 141.231 34.6196 141.133 34.8408C141.035 35.0621 140.863 35.2415 140.646 35.3474L140.569 35.3933ZM139.715 33.9396C139.166 33.9396 139.166 33.9396 139.166 34.4905V34.8271C139.164 34.8458 139.165 34.8648 139.171 34.8827C139.177 34.9005 139.187 34.9168 139.201 34.9301C139.214 34.9434 139.23 34.9535 139.248 34.9595C139.266 34.9656 139.285 34.9674 139.303 34.9649C139.613 34.9953 139.924 34.9953 140.234 34.9649C140.339 34.9379 140.432 34.8766 140.498 34.7907C140.565 34.7049 140.601 34.5992 140.601 34.4905C140.601 34.3818 140.565 34.2761 140.498 34.1902C140.432 34.1044 140.339 34.0431 140.234 34.0161C140.081 34.0161 139.898 34.0161 139.746 34.0161" fill="white"/>
<path d="M78.4535 35.1944C78.4535 34.7047 78.4535 34.2151 78.4535 33.6642C78.4535 33.4806 78.4535 33.4194 78.6823 33.4347C79.1399 33.4347 79.5823 33.4347 80.0247 33.4347C80.4114 33.4337 80.7841 33.5802 81.0672 33.8444C81.3504 34.1085 81.523 34.4708 81.5501 34.8578C81.6091 35.062 81.625 35.2762 81.5968 35.4869C81.5687 35.6976 81.4971 35.9001 81.3866 36.0815C81.276 36.2629 81.1291 36.4193 80.955 36.5405C80.7809 36.6618 80.5836 36.7453 80.3755 36.7858C79.8009 36.8803 79.2171 36.906 78.6365 36.8623C78.4687 36.8623 78.5145 36.7246 78.5145 36.6328C78.5145 36.1278 78.5145 35.6076 78.5145 35.1026L78.4535 35.1944ZM79.1552 35.1026V35.6076C79.1552 36.3726 79.1552 36.3726 79.9179 36.3114C80.0467 36.3135 80.1745 36.2896 80.2939 36.2411C80.4133 36.1926 80.5217 36.1206 80.6128 36.0292C80.7039 35.9379 80.7757 35.8291 80.824 35.7093C80.8724 35.5896 80.8962 35.4613 80.8942 35.3321C80.9095 35.1795 80.9095 35.0257 80.8942 34.8731C80.8902 34.6227 80.7893 34.3837 80.6128 34.2066C80.4363 34.0295 80.198 33.9283 79.9484 33.9243C79.7348 33.9243 79.5365 33.9243 79.323 33.9243C79.1094 33.9243 79.1399 33.9243 79.1399 34.108C79.1399 34.2916 79.1399 34.766 79.1399 35.1026" fill="white"/>
<path d="M95.035 35.1943C95.035 34.7047 95.035 34.215 95.035 33.6642C95.035 33.4499 95.035 33.3887 95.3096 33.404C95.5842 33.4193 96.1791 33.404 96.6215 33.404C96.8218 33.404 97.0202 33.4436 97.2052 33.5205C97.3903 33.5974 97.5585 33.7101 97.7001 33.8522C97.8418 33.9943 97.9541 34.163 98.0308 34.3486C98.1074 34.5343 98.1469 34.7333 98.1469 34.9342C98.202 35.1915 98.1939 35.4584 98.1233 35.7118C98.0526 35.9653 97.9215 36.1977 97.7413 36.389C97.5612 36.5803 97.3373 36.7247 97.089 36.8098C96.8408 36.8949 96.5756 36.9182 96.3164 36.8776H95.3401C95.1723 36.8776 95.1113 36.8776 95.1113 36.648C95.1113 36.1584 95.1113 35.6534 95.1113 35.1178L95.035 35.1943ZM95.752 35.1178V35.6687C95.752 36.3573 95.752 36.3573 96.4384 36.3267C96.6174 36.3382 96.7961 36.3 96.9548 36.2163C97.1136 36.1326 97.2463 36.0067 97.3384 35.8523C97.4615 35.6355 97.5262 35.3903 97.5262 35.1408C97.5262 34.8913 97.4615 34.6461 97.3384 34.4292C97.2322 34.2474 97.0727 34.1029 96.8816 34.0153C96.6905 33.9276 96.4772 33.9012 96.2706 33.9396H95.9503C95.7367 33.9396 95.6452 33.9396 95.6604 34.1997C95.6757 34.4599 95.6604 34.8118 95.6604 35.1178" fill="white"/>
<path d="M60.3465 35.1944C60.3465 34.6894 60.3465 34.1998 60.3465 33.6642C60.3465 33.4347 60.4227 33.3888 60.6363 33.3888C61.1244 33.3888 61.6126 33.3888 62.1617 33.3888C62.3604 33.3872 62.5542 33.4506 62.7138 33.5693C62.8734 33.688 62.9902 33.8556 63.0465 34.0467C63.1177 34.2527 63.1173 34.4767 63.0453 34.6824C62.9733 34.888 62.8339 35.0631 62.6499 35.1791C62.4821 35.2709 62.5584 35.3015 62.6499 35.4086C62.9016 35.8135 63.0967 36.2511 63.2295 36.7093C63.2376 36.7232 63.2418 36.7391 63.2418 36.7552C63.2418 36.7713 63.2376 36.7871 63.2295 36.8011C63.138 36.9082 62.5889 36.8011 62.5431 36.6481C62.4973 36.4951 62.3143 36.1125 62.2228 35.8371C62.2119 35.7647 62.1864 35.6953 62.1477 35.6332C62.1091 35.5712 62.0582 35.5177 61.9982 35.4761C61.9381 35.4345 61.8702 35.4057 61.7987 35.3915C61.7271 35.3772 61.6534 35.3779 61.5821 35.3933H61.3685C61.1092 35.3933 61.0634 35.4698 61.0634 35.6993C61.0634 35.9289 61.0634 36.3114 61.0634 36.6175C61.0634 36.9235 60.8651 36.8011 60.7278 36.8164C60.5905 36.8317 60.4075 36.8164 60.4227 36.6022C60.4227 36.0972 60.4227 35.5922 60.4227 35.072L60.3465 35.1944ZM61.5363 34.8577C61.7288 34.8811 61.9235 34.8811 62.116 34.8577C62.2252 34.8355 62.322 34.7727 62.3871 34.6819C62.4521 34.5911 62.4806 34.479 62.4668 34.3681C62.4754 34.2568 62.4403 34.1466 62.3691 34.0609C62.2979 33.9751 62.1961 33.9207 62.0855 33.909C61.9078 33.8934 61.7292 33.8934 61.5516 33.909C61.0329 33.909 61.0329 33.909 61.0329 34.4293C61.0329 34.9496 61.0329 34.919 61.5363 34.919" fill="white"/>
<path d="M123.698 35.1944C123.729 35.4708 123.689 35.7506 123.581 36.0069C123.474 36.2633 123.302 36.4875 123.083 36.6581C122.864 36.8286 122.605 36.9398 122.33 36.981C122.056 37.0221 121.776 36.9917 121.517 36.8929C121.156 36.7416 120.859 36.47 120.676 36.1242C120.493 35.7784 120.434 35.3797 120.51 34.9954C120.506 34.6264 120.635 34.2683 120.873 33.9871C121.111 33.7059 121.443 33.5206 121.806 33.4653C122.053 33.4006 122.311 33.3987 122.558 33.4597C122.805 33.5207 123.032 33.6427 123.22 33.8145C123.408 33.9864 123.551 34.2026 123.634 34.4436C123.717 34.6846 123.739 34.9427 123.698 35.1944ZM123.057 35.1944C123.085 35.0272 123.085 34.8566 123.057 34.6894C123.015 34.4789 122.9 34.2901 122.732 34.1559C122.565 34.0217 122.356 33.9506 122.142 33.9549C121.926 33.9485 121.715 34.0163 121.543 34.1472C121.371 34.278 121.248 34.4639 121.196 34.6741C121.097 35.0295 121.097 35.4052 121.196 35.7605C121.232 35.8914 121.295 36.0133 121.38 36.1182C121.466 36.2231 121.573 36.3086 121.694 36.3693C121.815 36.43 121.947 36.4643 122.082 36.4702C122.217 36.476 122.352 36.4532 122.478 36.4032C122.874 36.2502 123.103 35.837 123.103 35.1944" fill="white"/>
<path d="M130.791 35.1944C130.791 34.7047 130.791 34.1997 130.791 33.6642C130.791 33.4959 130.791 33.4347 131.005 33.45H132.912C133.156 33.45 133.125 33.5877 133.125 33.7407C133.125 33.8937 133.125 34.0008 132.927 34.0008H131.707C131.508 34.0008 131.432 34.0008 131.432 34.261C131.432 34.9189 131.432 34.9189 132.073 34.9189H132.713C132.988 34.9189 133.064 34.9954 133.034 35.2556C133.003 35.5157 133.034 35.4392 132.82 35.4392H131.646C131.493 35.4392 131.432 35.4392 131.432 35.6381C131.432 36.4338 131.432 36.4338 132.18 36.4338H132.866C133.064 36.4338 133.141 36.4338 133.141 36.694C133.141 36.9541 133.141 36.9694 132.866 36.9694H131.051C130.822 36.9694 130.791 36.9694 130.791 36.694C130.791 36.2043 130.791 35.6993 130.791 35.1638" fill="white"/>
<path d="M83.8993 36.9388H82.9688C82.801 36.9388 82.7399 36.9388 82.7399 36.7246C82.7399 35.7044 82.7399 34.6843 82.7399 33.6642C82.7399 33.4959 82.7399 33.4347 82.9688 33.45H84.8756C85.1044 33.45 85.0586 33.5877 85.0586 33.7101C85.0586 33.8325 85.0586 33.9855 84.8756 33.9855H83.6247C83.4416 33.9855 83.3959 33.9855 83.3806 34.2151C83.3806 34.9036 83.3806 34.9036 84.0366 34.9036H84.7535C84.9823 34.9036 84.9671 35.0108 84.9823 35.1791C84.9976 35.3474 84.9823 35.4239 84.7688 35.4239C84.5552 35.4239 83.9908 35.4239 83.6094 35.4239C83.2281 35.4239 83.3959 35.4239 83.3806 35.6381C83.3806 36.4185 83.3806 36.4185 84.1281 36.4185H84.8451C85.0891 36.4185 85.0434 36.5562 85.0586 36.7093C85.0739 36.8623 85.0586 36.9541 84.8451 36.9541C84.6315 36.9541 84.2196 36.9541 83.8993 36.9541" fill="white"/>
<path d="M57.9668 33.4806C58.2719 33.4806 58.5922 33.4806 58.8973 33.4806C59.2024 33.4806 59.0956 33.6336 59.1109 33.7713C59.1261 33.909 59.1109 34.0314 58.9125 34.0314H57.6464C57.4786 34.0314 57.4176 34.0314 57.4176 34.261C57.4176 34.9496 57.4176 34.9496 58.0736 34.9496H58.7905C59.0193 34.9496 59.0193 35.0567 59.0193 35.225C59.0193 35.3933 59.0193 35.4851 58.8058 35.4698C58.5922 35.4545 58.0583 35.4698 57.6769 35.4698C57.2956 35.4698 57.4176 35.4698 57.4176 35.6993C57.4176 36.4644 57.4176 36.4644 58.1346 36.4644H58.9278C59.1109 36.4644 59.1109 36.5716 59.0956 36.7093C59.0803 36.847 59.0956 37 58.9278 36.9847H57.0363C56.8837 36.9847 56.8379 36.9847 56.8379 36.7858V33.6642C56.8379 33.5112 56.8379 33.4653 57.0363 33.4806H57.9668Z" fill="white"/>
<path d="M99.3062 35.1944C99.3062 34.6894 99.3062 34.1844 99.3062 33.6642C99.3062 33.4959 99.3062 33.4347 99.5198 33.45H101.427C101.671 33.45 101.625 33.603 101.64 33.7407C101.655 33.8784 101.64 34.0008 101.442 34.0008H100.145C99.9927 34.0008 99.9469 34.0008 99.9317 34.2151C99.9317 34.9189 99.9317 34.9189 100.618 34.9189H101.35C101.579 34.9189 101.518 35.072 101.518 35.1944C101.518 35.3168 101.518 35.4392 101.35 35.4392C101.183 35.4392 100.572 35.4392 100.191 35.4392C99.8096 35.4392 99.9317 35.4392 99.9317 35.6687C99.9317 36.4338 99.9317 36.4338 100.664 36.4338H101.457C101.655 36.4338 101.64 36.5562 101.64 36.6787C101.64 36.8011 101.64 36.9694 101.457 36.9541H99.4893C99.3215 36.9541 99.3062 36.8776 99.3062 36.7399C99.3062 36.2349 99.3062 35.7146 99.3062 35.2097" fill="white"/>
<path d="M91.5265 35.1944V33.6642C91.5265 33.4959 91.5265 33.4347 91.7401 33.45C92.3655 33.45 92.9909 33.45 93.6163 33.45C93.8757 33.45 93.8299 33.5877 93.8452 33.756C93.8604 33.9243 93.8452 34.0008 93.5858 34.0008H92.3655C92.2282 34.0008 92.1519 34.0008 92.1519 34.2151C92.1519 34.9189 92.1519 34.9189 92.8384 34.9189H93.5248C93.7536 34.9189 93.7384 35.0414 93.7384 35.1944C93.7384 35.3474 93.7384 35.4545 93.5248 35.4392C93.3113 35.4239 92.7774 35.4392 92.4112 35.4392C92.0451 35.4392 92.1519 35.4392 92.1519 35.6687C92.1519 36.4338 92.1519 36.4338 92.8841 36.4338H93.6011C93.7994 36.4338 93.8452 36.5103 93.8452 36.694C93.8452 36.8776 93.8452 36.9694 93.6163 36.9694H91.7553C91.557 36.9694 91.5417 36.8776 91.5417 36.7093V35.1944" fill="white"/>
<path d="M145.68 36.9082C145.069 37 145.054 37 144.856 36.4644C144.83 36.3556 144.763 36.261 144.669 36.201C144.575 36.1409 144.462 36.1202 144.353 36.1431H143.285C143.102 36.1431 142.98 36.1431 142.934 36.3726C142.94 36.4183 142.94 36.4647 142.934 36.5103C142.72 37 142.72 37 142.11 36.9082C142.507 36.0054 142.903 35.1179 143.315 34.2303C143.315 34.062 143.468 33.909 143.529 33.7407C143.547 33.6556 143.596 33.5803 143.667 33.5295C143.737 33.4786 143.824 33.4557 143.91 33.4653C143.996 33.459 144.081 33.4831 144.151 33.5335C144.22 33.5838 144.27 33.6572 144.292 33.7407L145.725 36.9082H145.68ZM143.925 34.215C143.712 34.6741 143.544 35.072 143.376 35.4698C143.376 35.5922 143.376 35.6381 143.483 35.6381H144.292C144.459 35.6381 144.52 35.6381 144.444 35.4239C144.368 35.2097 144.108 34.6741 143.925 34.215Z" fill="white"/>
<path d="M109.633 36.9388C109.45 36.9388 109.328 36.9388 109.267 36.694C109.206 36.4491 109.176 36.5103 109.161 36.4032C109.153 36.3607 109.138 36.32 109.114 36.2837C109.091 36.2474 109.061 36.2162 109.025 36.1919C108.989 36.1676 108.949 36.1508 108.907 36.1424C108.865 36.134 108.821 36.1343 108.779 36.1431H107.62C107.543 36.1292 107.464 36.1452 107.399 36.1879C107.334 36.2306 107.287 36.2967 107.269 36.3726C107.245 36.4516 107.215 36.5284 107.178 36.6022C107.159 36.6707 107.126 36.7345 107.081 36.7895C107.036 36.8444 106.98 36.8893 106.917 36.921C106.854 36.9528 106.784 36.9708 106.714 36.9739C106.643 36.9769 106.572 36.965 106.506 36.9388C106.308 36.9388 106.506 36.7705 106.506 36.7093C106.903 35.8065 107.315 34.9189 107.711 34.0314C107.711 33.9243 107.803 33.8325 107.833 33.7407C107.852 33.6526 107.903 33.575 107.977 33.5238C108.051 33.4725 108.141 33.4516 108.23 33.4653C108.311 33.4617 108.391 33.4854 108.457 33.5325C108.524 33.5796 108.573 33.6474 108.596 33.7254C109.023 34.6894 109.45 35.6381 109.893 36.6022C110.045 36.9388 110.045 36.9388 109.649 36.9388H109.633ZM108.23 34.2151C108.017 34.6741 107.849 35.072 107.681 35.4698C107.681 35.5769 107.681 35.6381 107.788 35.6381H108.657C108.779 35.6381 108.825 35.6381 108.779 35.4851C108.596 35.0873 108.428 34.6741 108.23 34.2151Z" fill="white"/>
<path d="M77.1721 36.9235C76.8822 37.0153 76.7602 36.9235 76.7145 36.6481C76.6687 36.3726 76.3636 36.0819 75.9365 36.1278C75.6474 36.1583 75.356 36.1583 75.067 36.1278C75.0318 36.1188 74.9951 36.1174 74.9594 36.1235C74.9236 36.1297 74.8895 36.1433 74.8593 36.1635C74.8291 36.1837 74.8035 36.21 74.7841 36.2408C74.7647 36.2715 74.7519 36.306 74.7466 36.342C74.7124 36.4366 74.6716 36.5286 74.6246 36.6175C74.5734 36.7452 74.4751 36.8484 74.3501 36.9053C74.2251 36.9623 74.083 36.9688 73.9534 36.9235C73.8314 36.9235 73.9534 36.8164 73.9534 36.7552L75.3416 33.6642C75.3416 33.4806 75.5551 33.5265 75.6772 33.5265C75.7992 33.5265 75.9212 33.5265 75.9822 33.6642C76.4551 34.7047 76.9433 35.7452 77.4009 36.8011C77.5534 37.1377 77.2026 36.8929 77.1721 36.9694V36.9235ZM76.2721 35.6228L75.6619 34.1997C75.4483 34.7047 75.2653 35.1638 75.067 35.6228H76.2721Z" fill="white"/>
<path d="M45.1683 34.7353C45.1683 35.0873 45.1683 35.4545 45.1683 35.8065C45.164 36.0826 45.0618 36.3481 44.8802 36.5556C44.6985 36.763 44.4492 36.8989 44.1768 36.9388C43.8799 36.9998 43.5737 36.9998 43.2768 36.9388C42.9862 36.88 42.7268 36.7172 42.5472 36.4807C42.3675 36.2441 42.2798 35.9501 42.3005 35.6534C42.3005 34.9955 42.3005 34.3375 42.3005 33.6795C42.3005 33.3888 42.4835 33.4806 42.6208 33.4806C42.7581 33.4806 42.9412 33.4806 42.9412 33.6795C42.9412 34.3069 42.9412 34.9189 42.9412 35.531C42.9412 36.1431 43.109 36.3114 43.4751 36.4185C43.5959 36.4703 43.7278 36.4906 43.8586 36.4774C43.9893 36.4643 44.1146 36.4181 44.2227 36.3432C44.3309 36.2684 44.4183 36.1672 44.477 36.0493C44.5356 35.9314 44.5636 35.8004 44.5581 35.6687C44.5581 35.0261 44.5581 34.3834 44.5581 33.756C44.5581 33.4806 44.6649 33.4653 44.8632 33.4653C45.0615 33.4653 45.2141 33.4653 45.1988 33.7407C45.1836 34.0161 45.1988 34.3987 45.1988 34.7353H45.1683Z" fill="white"/>
<path d="M137.107 36.9388C136.908 36.9388 136.802 36.9388 136.741 36.694C136.68 36.4491 136.649 36.495 136.619 36.4032C136.613 36.3613 136.599 36.3209 136.577 36.2847C136.556 36.2485 136.527 36.2171 136.492 36.1927C136.458 36.1683 136.419 36.1512 136.378 36.1427C136.336 36.1342 136.294 36.1343 136.252 36.1431H135.093C135.055 36.1342 135.015 36.1331 134.977 36.1399C134.938 36.1467 134.902 36.1612 134.869 36.1827C134.836 36.2041 134.808 36.232 134.786 36.2647C134.764 36.2973 134.749 36.334 134.742 36.3726C134.742 36.4644 134.742 36.5563 134.635 36.6634C134.579 36.7821 134.481 36.8758 134.36 36.9266C134.239 36.9774 134.103 36.9817 133.98 36.9388C133.796 36.8623 133.98 36.7552 133.98 36.694L135.154 34.0926C135.154 33.9855 135.261 33.8784 135.307 33.756C135.352 33.6336 135.444 33.4653 135.673 33.4653C135.902 33.4653 135.993 33.5724 136.085 33.756C136.496 34.72 136.939 35.6687 137.366 36.6022C137.519 36.9388 137.519 36.9388 137.122 36.9388H137.107ZM136.313 35.6228C136.1 35.1485 135.917 34.7047 135.703 34.1998L135.093 35.6228H136.313Z" fill="white"/>
<path d="M65.594 36.9694C65.182 36.9829 64.7731 36.8935 64.4041 36.7092C64.1143 36.5562 64.2974 36.4032 64.4041 36.2502C64.5109 36.0972 64.5872 36.1737 64.6787 36.2502C65.0654 36.4608 65.5145 36.526 65.9448 36.4338C66.1584 36.4338 66.3262 36.2502 66.3262 36.036C66.3262 35.8217 66.1736 35.7146 65.9753 35.6534C65.777 35.5922 65.2889 35.4698 64.9685 35.3474C64.7919 35.3099 64.6329 35.2142 64.5168 35.0755C64.4007 34.9369 64.3342 34.7632 64.3279 34.5823C64.309 34.3845 64.3536 34.1858 64.4551 34.0152C64.5566 33.8445 64.7098 33.7108 64.8923 33.6336C65.1828 33.4997 65.5017 33.4395 65.8209 33.4582C66.14 33.4768 66.4498 33.5738 66.7228 33.7407C67.0126 33.8937 66.7228 34.062 66.7228 34.1997C66.7228 34.3374 66.5245 34.1997 66.433 34.1997C66.2721 34.0956 66.0916 34.0256 65.9027 33.994C65.7139 33.9624 65.5205 33.9699 65.3347 34.0161C65.2302 34.0383 65.1354 34.0933 65.0641 34.173C64.9928 34.2528 64.9487 34.3533 64.938 34.4599C64.938 34.7047 65.1058 34.7965 65.3041 34.8577C65.5025 34.9189 65.9296 35.026 66.2347 35.1331C66.5398 35.2403 66.9669 35.5922 66.9516 36.036C66.9327 36.25 66.8452 36.4521 66.7022 36.6121C66.5592 36.7721 66.3684 36.8813 66.1584 36.9235C65.9814 36.9503 65.8015 36.9503 65.6245 36.9235" fill="white"/>
<path d="M52.3379 33.5112H52.4447C52.9938 33.5112 52.9938 33.5112 53.2074 34.0009C53.421 34.4905 53.8023 35.378 54.0922 36.0513C54.2294 36.0513 54.2142 35.9442 54.2447 35.8677L55.16 33.756C55.2285 33.6459 55.3319 33.562 55.4535 33.5176C55.5752 33.4732 55.7081 33.471 55.8312 33.5112C55.9227 33.5112 55.8312 33.6183 55.8312 33.6795L54.4278 36.847C54.3907 36.8947 54.3432 36.9333 54.289 36.9598C54.2348 36.9864 54.1753 37.0002 54.115 37.0002C54.0547 37.0002 53.9952 36.9864 53.941 36.9598C53.8869 36.9333 53.8394 36.8947 53.8023 36.847L52.2769 33.5418" fill="white"/>
<path d="M88.1705 35.1944V33.6642C88.1705 33.4806 88.1705 33.4194 88.3993 33.4347H90.1994C90.4434 33.4347 90.4129 33.5724 90.4129 33.7101C90.4129 33.8478 90.4129 34.0009 90.1994 33.9856H89.0095C88.8417 33.9856 88.7959 33.9856 88.7959 34.1998C88.7959 34.9037 88.796 34.9037 89.4671 34.9037H90.0926C90.3366 34.9037 90.3214 35.0108 90.3366 35.1944C90.3519 35.378 90.3366 35.4545 90.0926 35.4392C89.8485 35.4239 89.3756 35.4392 89.0248 35.4392C88.6739 35.4392 88.7959 35.4392 88.7959 35.6688C88.7959 35.8983 88.7959 36.3726 88.7959 36.7246C88.7959 37.0765 88.6434 36.9388 88.5061 36.9235C88.3688 36.9082 88.14 37.0306 88.1553 36.7246V35.1944" fill="white"/>
<path d="M127.435 35.1944C127.402 35.4116 127.434 35.6339 127.529 35.8321C127.624 36.0303 127.776 36.195 127.966 36.3044C128.156 36.4138 128.375 36.4628 128.593 36.445C128.812 36.4271 129.02 36.3432 129.19 36.2043C129.19 36.2043 129.357 35.9442 129.464 36.2043C129.571 36.4645 129.708 36.541 129.464 36.694C129.184 36.848 128.869 36.9287 128.549 36.9287C128.229 36.9287 127.914 36.848 127.634 36.694C127.364 36.5451 127.144 36.3217 126.998 36.0504C126.852 35.779 126.786 35.4713 126.81 35.1638C126.797 34.8573 126.866 34.5529 127.012 34.2829C127.157 34.0129 127.373 33.7875 127.636 33.6306C127.898 33.4737 128.199 33.3911 128.505 33.3916C128.81 33.3921 129.11 33.4758 129.373 33.6336C129.617 33.756 129.663 33.8937 129.525 34.1539C129.388 34.414 129.403 34.2916 129.281 34.1539C129.014 33.9671 128.69 33.8805 128.366 33.909C127.771 33.9856 127.466 34.414 127.466 35.1791" fill="white"/>
<path d="M110.991 35.1944C110.991 34.7047 110.991 34.2151 110.991 33.6642C110.991 33.1133 111.159 33.4347 111.311 33.4347C111.464 33.4347 111.647 33.4347 111.647 33.6642C111.647 34.4752 111.647 35.1944 111.647 36.0819C111.647 36.2961 111.647 36.3726 111.922 36.3573C112.196 36.342 112.669 36.3573 113.035 36.3573C113.401 36.3573 113.249 36.4644 113.234 36.6022C113.218 36.7399 113.234 36.9082 113.05 36.8929H111.189C111.006 36.8929 110.991 36.8164 110.991 36.6634V35.1944Z" fill="white"/>
<path d="M51.4226 35.1943C51.4226 35.6993 51.4226 36.2043 51.4226 36.7245C51.4226 37.2448 51.2396 36.9388 51.087 36.9388C50.9345 36.9388 50.7514 37.0153 50.7514 36.7245C50.7514 35.7146 50.7514 34.6894 50.7514 33.6642C50.7514 33.404 50.9345 33.4652 51.0718 33.4652C51.2091 33.4652 51.4226 33.3734 51.4226 33.6642C51.4226 33.9549 51.4226 34.6894 51.4226 35.1943Z" fill="white"/>
<path d="M68.6449 35.1944C68.6449 35.6993 68.6449 36.189 68.6449 36.7245C68.6449 37.2601 68.4923 36.9541 68.3245 36.9541C68.1567 36.9541 68.0042 36.9541 68.0042 36.7245C68.0042 35.7299 68.0042 34.72 68.0042 33.6642C68.0042 33.3734 68.172 33.4346 68.3245 33.4346C68.4771 33.4346 68.6601 33.4346 68.6449 33.6642C68.6296 33.8937 68.6449 34.6588 68.6449 35.1944Z" fill="white"/>
<path d="M144.795 32.486C144.368 32.7155 144.292 33.3276 143.712 33.2052C143.971 32.5166 144.124 32.3941 144.795 32.486Z" fill="white"/>
<path d="M19.7087 8.72207H24.0104C24.2698 8.72207 24.3308 8.72207 24.3308 9.05871C24.3308 9.70139 24.3308 10.3288 24.3308 10.9714C24.3308 11.2469 24.2393 11.2928 23.9952 11.2928H15.8493C15.3917 11.2928 15.2392 11.3846 15.1629 11.6753C15.1365 11.7517 15.1255 11.8325 15.1304 11.9131C15.1353 11.9938 15.1561 12.0727 15.1915 12.1452C15.227 12.2178 15.2764 12.2826 15.3369 12.3359C15.3975 12.3891 15.4679 12.4299 15.5442 12.4557C17.3443 13.4351 19.1443 14.3991 20.9443 15.3937C21.4845 15.6628 21.9293 16.0918 22.2185 16.6227C22.5077 17.1537 22.6273 17.7609 22.5613 18.3623C22.5456 18.9202 22.3781 19.4631 22.077 19.9324C21.7759 20.4017 21.3525 20.7795 20.8528 21.0248C20.4592 21.2197 20.0256 21.3193 19.5867 21.3155H16.2307C15.6663 21.3155 15.468 21.5145 15.468 22.0959C15.468 24.0699 15.468 26.0438 15.468 28.0178C15.468 28.2932 15.3917 28.3544 15.1324 28.3391C14.4612 28.3391 13.8052 28.3391 13.1341 28.3391C12.9663 28.3391 12.89 28.3391 12.89 28.1096C12.89 26.0132 12.89 23.9169 12.89 21.8052C12.8897 21.3928 12.9724 20.9846 13.1333 20.6051C13.2942 20.2255 13.5299 19.8826 13.8263 19.5967C14.1226 19.3109 14.4735 19.0881 14.8579 18.9417C15.2422 18.7953 15.6521 18.7283 16.0629 18.7448H19.3121C19.724 18.7448 19.8765 18.653 19.9528 18.3317C19.9792 18.2604 19.991 18.1846 19.9876 18.1087C19.9841 18.0327 19.9655 17.9583 19.9327 17.8897C19.9 17.8212 19.8538 17.76 19.797 17.7097C19.7402 17.6594 19.6738 17.6212 19.6019 17.5972C17.7866 16.6025 15.9561 15.6385 14.1561 14.6286C13.6151 14.3422 13.177 13.893 12.9034 13.3442C12.6298 12.7953 12.5344 12.1742 12.6307 11.5682C12.6616 11.0042 12.8476 10.4598 13.168 9.99526C13.4884 9.53073 13.9307 9.16421 14.4459 8.93629C14.8124 8.78153 15.2079 8.70844 15.6053 8.72207H19.7087Z" fill="white"/>
</g>
<defs>
<clipPath id="clip0">
<rect width="146" height="37" fill="white"/>
</clipPath>
</defs>
</svg>
