<svg xmlns="http://www.w3.org/2000/svg" viewBox="0 0 4408.29 848.58"><defs><style>.cls-1{isolation:isolate;}.cls-2{fill:#3b8b6b;}.cls-11,.cls-3{fill:#00a26e;}.cls-11,.cls-4,.cls-5{mix-blend-mode:multiply;}.cls-5{opacity:0.6;}.cls-6{fill:#14454a;}.cls-7{fill:#1e7b73;}.cls-8{fill:#2f4858;}.cls-9{fill:#15454a;}.cls-10{fill:#207b74;}.cls-12{fill:#a76480;}.cls-13{fill:#fcfad8;}.cls-14,.cls-15,.cls-16{fill:#757bbb;}.cls-15{opacity:0.32;}.cls-16{opacity:0.44;}.cls-17{fill:#255968;}.cls-18{fill:#186a71;}.cls-19{fill:#17454a;}.cls-20{fill:#198a5f;}.cls-21{fill:#9fcea9;}.cls-22{fill:#ddeed5;}.cls-23{fill:#e5e8e9;}.cls-24{fill:#ee499a;}.cls-25{fill:#4f4f4f;}.cls-26{fill:#ce3f8a;}.cls-27{fill:#a44b9c;}.cls-28{fill:#efe1db;}.cls-29{fill:#e2be78;}.cls-30{fill:#ffda84;}.cls-31{fill:none;stroke:#a44b9c;stroke-miterlimit:10;stroke-width:3px;}.cls-32{fill:#f7f9f8;}.cls-33{fill:#504e4d;}.cls-34{fill:#414445;}.cls-35{fill:#b34953;}.cls-36{fill:#f15f69;}.cls-37{fill:#5eb3c4;}.cls-38{fill:#6acce0;}.cls-39{fill:#48413c;}.cls-40{fill:#518bbb;}.cls-41{fill:#397648;}.cls-42{fill:#2ab786;}.cls-43{fill:#55494e;}.cls-44{fill:#44759f;}.cls-45{fill:#8e509f;}.cls-46{fill:#5b5958;}.cls-47{fill:#37938c;}.cls-48{fill:#399ba0;}.cls-49{fill:#286733;}.cls-50{fill:#286e69;}.cls-51{fill:#766d68;}.cls-52{fill:#8acc98;}.cls-53{fill:#7ebfba;}.cls-54{fill:#87699c;}</style></defs><title>sessão1 inteira</title><g class="cls-1"><g id="Layer_2" data-name="Layer 2"><g id="Vegetação"><g id="Arbusto1"><path id="Arbustos_2" data-name="Arbustos 2" class="cls-2" d="M2619,707.74c-5-16.58,1.09-36.38,20.11-45.22s49.76.24,50.51,17.25c11.78-13.48,45-7.95,48.36,8.05-5.42,2.34-8.21,7.73-6.35,12.27,9.51-1.06,19.53,4.07,21.85,11.2,5.22-10.19,23.17-15.15,35.71-9.86s16.63,19.54,8.13,28.35l69.88.14c-4.06-4.72,4.15-10.13,11.29-11.62,28.77-6,62,4.62,76.66,24.45,9.61-6.84,25.56-7.73,36.37-2,7.16-8.6,23.38-9.73,36.13-6.74s24,9,36.88,11.73c47.91,10.14,101.78-27.5,145.05-8.79,28.14-13.16,61.95-19.08,94.77-16.59,20.31-12,52.35-10.19,70.13,3.95,15.47,4.54,32-2.7,47.11-8s36.23-7.46,45.3,3.13c39.18-14.79,87.88-13.76,125.92,2.66-12.45-9.68,8.16-23.57,25-27.81,34.84-8.75,76.71-16.64,105.2,1,.32,10.29,4.75,20.48,12.55,28.87,35.08-6.8,71.91-13.62,107-6.95,12,2.27,23.71,6.11,36.06,6.1s26-5.44,28-14.75c16.17-.61,31.67,9.87,32.85,22.21l133.95-3.27c13-16.43,45-14.25,68.63-7.6s50.39,15.58,72.41,6.32c5.85-2.47,10.73-6,15.8-9.37a201.26,201.26,0,0,1,60.42-26.22c20.37-5.21,50.66-3.12,53.4,13.16,1.67-12,24.13-16.68,37.37-10s18.29,19.59,19.93,31.63,1,24.54,6.83,35.78C4207,798,3996.76,786.46,3790.09,777.6q-245.21-10.51-490.74-15.6-244.32-5.06-488.76-4.74c-45.56.06-92.24,2.71-137.68.62C2641.87,756.46,2625.72,730.19,2619,707.74Z"/><path class="cls-2" d="M2908.56,743.56s135.54-588.29,417.57-527c0,0,75-20.89,174,129.69s308.18,283.61,308.18,283.61,193.07,32.89,203.47,164.52Z"/><path class="cls-2" d="M4297.27,763.87s-85.83-372.55-264.43-333.76c0,0-47.5-13.23-110.2,82.14s-195.16,179.6-195.16,179.6S3605.21,712.68,3598.62,796Z"/><path class="cls-2" d="M3044.55,763.1S2985.89,508.5,2863.84,535c0,0-32.46-9-75.31,56.12s-133.37,122.74-133.37,122.74-83.56,14.23-88.06,71.2Z"/></g><g id="Arvore_2" data-name="Arvore 2"><path class="cls-3" d="M555,401.61c22.17-27.65,34.6-63.66,32-98a136.64,136.64,0,0,0-45.75-91.51,129.22,129.22,0,0,0-17.34-12.89,75.91,75.91,0,0,0-.06-10.12c-3.63-47.42-43.74-76-88.71-76a64.9,64.9,0,0,0-15.72,2,126,126,0,0,0-23.54-27.78c-26.87-23.65-58-31-92.85-31-38.33,0-71.48,22.06-92.47,52.74a174.16,174.16,0,0,0-35.91-3.39c-62,0-110,60.33-111.29,118.93-1.54,1-3.08,1.11-4.58,2.12,0,0-.05-.72-.07-.73a159.81,159.81,0,0,0-25.56,23.23A133.71,133.71,0,0,0,45.23,437.56s0,.1,0,.11c9.74,7.19,18.59,13,28.08,18.9.18.12.36.27.54.38L74,457c.82.5,1.61,1,2.44,1.52.28.13.56.24.84.38-.06,3.64,0,7.27.28,10.89a131.29,131.29,0,0,0,44,87.93c27.81,24.48,60,32.07,96.12,32.07a105.26,105.26,0,0,0,49.57-12.57c21.69,12.33,45.75,16.55,71.95,16.55,21.44,0,41.23-7,58.14-18.59,18.57,8,38.75,10.93,60.41,10.93,67.25,0,118.31-69.39,113.48-132.46A123.43,123.43,0,0,0,555,401.61Z"/><polygon class="cls-3" points="58.67 225.96 58.67 225.96 58.67 225.96 58.67 225.96"/><g class="cls-4"><g class="cls-5"><path class="cls-3" d="M410.33,116.26q2.66-3.33,5.46-6.52a124.86,124.86,0,0,0-20-22.47c-26.87-23.65-58-31-92.85-31-38.33,0-71.48,22.06-92.47,52.74a174.16,174.16,0,0,0-35.91-3.39c-62,0-110,60.33-111.29,118.93-1.54,1-3.08,1.11-4.58,2.12,0,0-.05-.72-.07-.73a159.81,159.81,0,0,0-25.56,23.23A133.71,133.71,0,0,0,45.23,437.56s0,.1,0,.11c9.74,7.19,18.59,13,28.08,18.9.18.12.36.27.54.38L74,457c.82.5,1.61,1,2.44,1.52.28.13.56.24.84.38-.06,3.64,0,7.27.28,10.89a131.29,131.29,0,0,0,44,87.93c27.81,24.48,60,32.07,96.12,32.07a104.55,104.55,0,0,0,45.65-10.67c-53.33-17.6-95.07-62.71-107.82-117.89C126.21,432,107.89,391.82,107.89,348c0-86.07,70.57-158.09,156.12-160.61,29.18-43,78.44-71.68,133.39-71.68C401.75,115.67,406.05,115.91,410.33,116.26Z"/></g><polygon class="cls-3" points="58.67 225.96 58.67 225.96 58.67 225.96 58.67 225.96"/></g><line class="cls-3" x1="323.52" y1="781.74" x2="323.52" y2="442.85"/><polygon class="cls-6" points="311.52 781.74 321.52 442.85 325.52 442.85 335.52 781.74 311.52 781.74"/><line class="cls-3" x1="328.87" y1="559.66" x2="382.15" y2="506.38"/><polygon class="cls-6" points="325.34 556.12 381.56 505.79 382.74 506.97 332.41 563.19 325.34 556.12"/><line class="cls-3" x1="328.87" y1="634.21" x2="275.6" y2="580.94"/><polygon class="cls-6" points="325.34 637.75 275.01 581.53 276.19 580.35 332.41 630.68 325.34 637.75"/></g></g><g id="Praça"><rect class="cls-3" x="606.89" y="730.6" width="2261.64" height="92.2" rx="12" ry="12"/><path class="cls-7" d="M1202.34,368.58c22.17-27.65,34.6-63.66,32-98a136.63,136.63,0,0,0-45.74-91.51,129.3,129.3,0,0,0-17.35-12.89,74.29,74.29,0,0,0,0-10.12c-3.63-47.42-43.74-76-88.71-76A65.33,65.33,0,0,0,1066.74,82a126.24,126.24,0,0,0-23.54-27.78c-26.87-23.65-58-31-92.86-31C912,23.25,878.86,45.31,857.87,76A174.12,174.12,0,0,0,822,72.6c-62,0-110,60.33-111.3,118.94-1.53.94-3.08,1.1-4.57,2.11,0,0-.05-.71-.08-.72a159.7,159.7,0,0,0-25.55,23.23,133.7,133.7,0,0,0,12.12,188.36s0,.11,0,.11c9.74,7.19,18.58,13,28.07,18.91.19.11.36.26.54.38l.17.08,2.43,1.52c.28.14.57.25.85.38-.07,3.64,0,7.28.27,10.89a131.26,131.26,0,0,0,44,87.93c27.8,24.48,60,32.07,96.11,32.07a105.41,105.41,0,0,0,49.58-12.56c21.69,12.32,45.74,16.55,71.95,16.55,21.44,0,41.23-7,58.13-18.6,18.58,8,38.75,10.94,60.41,10.94,67.26,0,118.31-69.39,113.48-132.46A123.35,123.35,0,0,0,1202.34,368.58Z"/><polygon class="cls-7" points="706.02 192.93 706.02 192.93 706.03 192.93 706.02 192.93"/><g class="cls-4"><g class="cls-5"><path class="cls-7" d="M1057.68,83.23q2.65-3.33,5.47-6.53a125.94,125.94,0,0,0-20-22.47c-26.87-23.65-58-31-92.86-31C912,23.25,878.86,45.31,857.87,76A174.12,174.12,0,0,0,822,72.6c-62,0-110,60.33-111.3,118.94-1.53.94-3.08,1.1-4.57,2.11,0,0-.05-.71-.08-.72a159.7,159.7,0,0,0-25.55,23.23,133.7,133.7,0,0,0,12.12,188.36s0,.11,0,.11c9.74,7.19,18.58,13,28.07,18.91.19.11.36.26.54.38l.17.08,2.43,1.52c.28.14.57.25.85.38-.07,3.64,0,7.28.27,10.89a131.26,131.26,0,0,0,44,87.93c27.8,24.48,60,32.07,96.11,32.07a104.51,104.51,0,0,0,45.65-10.66c-53.33-17.6-95.06-62.71-107.81-117.89-29.28-29.24-47.6-69.46-47.6-113.31,0-86.07,70.56-158.09,156.11-160.61,29.18-43,78.44-71.69,133.4-71.69C1049.11,82.63,1053.41,82.88,1057.68,83.23Z"/></g><polygon class="cls-7" points="706.02 192.93 706.02 192.93 706.03 192.93 706.02 192.93"/></g><line class="cls-7" x1="970.87" y1="748.71" x2="970.87" y2="409.81"/><polygon class="cls-6" points="958.87 748.71 968.87 409.81 972.87 409.81 982.87 748.71 958.87 748.71"/><line class="cls-7" x1="976.23" y1="526.62" x2="1029.5" y2="473.35"/><polygon class="cls-6" points="972.69 523.08 1028.91 472.76 1030.09 473.94 979.76 530.16 972.69 523.08"/><line class="cls-7" x1="976.23" y1="601.18" x2="922.96" y2="547.9"/><polygon class="cls-6" points="972.69 604.71 922.37 548.49 923.55 547.31 979.76 597.64 972.69 604.71"/><path class="cls-7" d="M1348.1,345.33c22.16-27.65,34.59-63.66,32-98a136.63,136.63,0,0,0-45.74-91.51A129.3,129.3,0,0,0,1317,142.94a74.29,74.29,0,0,0,0-10.12c-3.63-47.42-43.74-76-88.71-76a65.33,65.33,0,0,0-15.72,1.94A126.24,126.24,0,0,0,1189,31c-26.87-23.65-58-31-92.86-31-38.32,0-71.48,22.06-92.47,52.75a174.05,174.05,0,0,0-35.9-3.4c-62,0-110,60.33-111.3,118.94-1.53.94-3.08,1.1-4.57,2.11,0,0-.05-.71-.08-.72a159.7,159.7,0,0,0-25.55,23.23,133.7,133.7,0,0,0,12.12,188.36s0,.11,0,.11c9.74,7.19,18.58,13,28.08,18.91.18.11.36.26.53.38l.17.08,2.44,1.52c.27.14.56.25.84.38-.07,3.64,0,7.28.27,10.89a131.3,131.3,0,0,0,44,87.93c27.8,24.48,60,32.07,96.11,32.07A105.41,105.41,0,0,0,1060.34,521c21.69,12.32,45.74,16.55,72,16.55,21.44,0,41.23-7,58.13-18.6,18.58,8,38.75,10.94,60.42,10.94,67.25,0,118.3-69.39,113.47-132.46A123.33,123.33,0,0,0,1348.1,345.33Z"/><polygon class="cls-7" points="851.77 169.68 851.77 169.68 851.78 169.68 851.77 169.68"/><g class="cls-4"><g class="cls-5"><path class="cls-7" d="M1203.44,60q2.64-3.33,5.46-6.53A125.94,125.94,0,0,0,1189,31c-26.87-23.65-58-31-92.86-31-38.32,0-71.48,22.06-92.47,52.75a174.05,174.05,0,0,0-35.9-3.4c-62,0-110,60.33-111.3,118.94-1.53.94-3.08,1.1-4.57,2.11,0,0-.05-.71-.08-.72a159.7,159.7,0,0,0-25.55,23.23,133.7,133.7,0,0,0,12.12,188.36s0,.11,0,.11c9.74,7.19,18.58,13,28.08,18.91.18.11.36.26.53.38l.17.08,2.44,1.52c.27.14.56.25.84.38-.07,3.64,0,7.28.27,10.89a131.3,131.3,0,0,0,44,87.93c27.8,24.48,60,32.07,96.11,32.07a104.48,104.48,0,0,0,45.65-10.66c-53.32-17.6-95.06-62.71-107.81-117.89C919.32,375.75,901,335.53,901,291.68c0-86.07,70.57-158.09,156.12-160.61,29.18-43,78.44-71.69,133.39-71.69C1194.86,59.38,1199.16,59.63,1203.44,60Z"/></g><polygon class="cls-7" points="851.77 169.68 851.77 169.68 851.78 169.68 851.77 169.68"/></g><line class="cls-7" x1="1116.62" y1="725.46" x2="1116.62" y2="386.56"/><polygon class="cls-6" points="1104.63 725.46 1114.62 386.56 1118.63 386.56 1128.63 725.46 1104.63 725.46"/><line class="cls-7" x1="1121.98" y1="503.37" x2="1175.25" y2="450.1"/><polygon class="cls-6" points="1118.44 499.83 1174.66 449.51 1175.84 450.69 1125.52 506.91 1118.44 499.83"/><line class="cls-7" x1="1121.98" y1="577.93" x2="1068.71" y2="524.65"/><polygon class="cls-6" points="1118.44 581.46 1068.12 525.24 1069.3 524.06 1125.52 574.39 1118.44 581.46"/><path class="cls-7" d="M2143.1,392.18c-22.17-27.65-34.6-63.66-32-98a136.63,136.63,0,0,1,45.74-91.51,129.3,129.3,0,0,1,17.35-12.89,74.29,74.29,0,0,1,.05-10.12c3.63-47.42,43.74-76,88.71-76a65.33,65.33,0,0,1,15.72,1.94,126.24,126.24,0,0,1,23.54-27.78c26.87-23.65,58-31,92.86-31,38.32,0,71.48,22.06,92.47,52.75a174.05,174.05,0,0,1,35.9-3.4c62,0,110,60.33,111.3,118.94,1.53.94,3.08,1.1,4.57,2.11,0,0,0-.71.08-.72A159.7,159.7,0,0,1,2665,239.76a133.7,133.7,0,0,1-12.12,188.36s0,.11,0,.11c-9.74,7.19-18.58,13-28.07,18.91-.19.11-.37.26-.54.38l-.17.08c-.82.51-1.6,1-2.44,1.52-.27.14-.56.25-.84.38.07,3.64,0,7.28-.27,10.89a131.3,131.3,0,0,1-44,87.93c-27.8,24.48-60,32.07-96.11,32.07a105.41,105.41,0,0,1-49.58-12.56c-21.69,12.32-45.74,16.55-71.95,16.55-21.44,0-41.23-7-58.13-18.6-18.58,8-38.75,10.94-60.41,10.94-67.26,0-118.31-69.39-113.48-132.46A123.2,123.2,0,0,1,2143.1,392.18Z"/><polygon class="cls-7" points="2639.42 216.53 2639.42 216.53 2639.41 216.53 2639.42 216.53"/><g class="cls-4"><g class="cls-5"><path class="cls-7" d="M2287.75,106.83q-2.64-3.33-5.46-6.53a125.94,125.94,0,0,1,19.95-22.47c26.87-23.65,58-31,92.86-31,38.32,0,71.48,22.06,92.47,52.75a174.05,174.05,0,0,1,35.9-3.4c62,0,110,60.33,111.3,118.94,1.53.94,3.08,1.1,4.57,2.11,0,0,0-.71.08-.72A159.7,159.7,0,0,1,2665,239.76a133.7,133.7,0,0,1-12.12,188.36s0,.11,0,.11c-9.74,7.19-18.58,13-28.07,18.91-.19.11-.37.26-.54.38l-.17.08c-.82.51-1.6,1-2.44,1.52-.27.14-.56.25-.84.38.07,3.64,0,7.28-.27,10.89a131.3,131.3,0,0,1-44,87.93c-27.8,24.48-60,32.07-96.11,32.07a104.51,104.51,0,0,1-45.65-10.66c53.33-17.6,95.06-62.71,107.81-117.9,29.28-29.23,47.6-69.45,47.6-113.3,0-86.07-70.56-158.09-156.12-160.61-29.18-43-78.43-71.69-133.39-71.69C2296.33,106.23,2292,106.48,2287.75,106.83Z"/></g><polygon class="cls-7" points="2639.42 216.53 2639.42 216.53 2639.41 216.53 2639.42 216.53"/></g><line class="cls-7" x1="2374.57" y1="772.31" x2="2374.57" y2="433.41"/><polygon class="cls-6" points="2362.57 772.31 2372.57 433.41 2376.57 433.41 2386.57 772.31 2362.57 772.31"/><line class="cls-7" x1="2369.21" y1="550.22" x2="2315.94" y2="496.95"/><polygon class="cls-6" points="2365.68 553.75 2315.35 497.54 2316.53 496.36 2372.75 546.68 2365.68 553.75"/><line class="cls-7" x1="2369.21" y1="624.78" x2="2422.48" y2="571.5"/><polygon class="cls-6" points="2365.68 621.24 2421.89 570.91 2423.07 572.09 2372.75 628.31 2365.68 621.24"/><path class="cls-7" d="M1997.34,368.93c-22.16-27.65-34.59-63.66-32-98a136.69,136.69,0,0,1,45.75-91.51,129.3,129.3,0,0,1,17.35-12.89,74.29,74.29,0,0,1,0-10.12c3.63-47.42,43.74-76,88.71-76A65.39,65.39,0,0,1,2133,82.36a126,126,0,0,1,23.54-27.78c26.87-23.65,58-31,92.86-31,38.32,0,71.48,22.06,92.46,52.75a174.22,174.22,0,0,1,35.91-3.4c62,0,110,60.33,111.29,118.94,1.54.94,3.09,1.1,4.58,2.11,0,0,0-.71.07-.72a159.34,159.34,0,0,1,25.56,23.23,133.7,133.7,0,0,1-12.12,188.36s0,.11,0,.11c-9.74,7.19-18.59,13-28.08,18.91-.18.11-.36.26-.54.38l-.16.08-2.44,1.52c-.28.14-.56.25-.84.38.06,3.64,0,7.28-.28,10.89a131.25,131.25,0,0,1-43.95,87.93c-27.81,24.48-60,32.07-96.11,32.07a105.38,105.38,0,0,1-49.58-12.56c-21.69,12.32-45.74,16.55-71.95,16.55-21.44,0-41.23-7-58.13-18.6-18.58,8-38.76,10.94-60.42,10.94-67.25,0-118.3-69.39-113.47-132.46A123.33,123.33,0,0,1,1997.34,368.93Z"/><polygon class="cls-7" points="2493.66 193.28 2493.66 193.28 2493.66 193.28 2493.66 193.28"/><g class="cls-4"><g class="cls-5"><path class="cls-7" d="M2142,83.58c-1.76-2.22-3.59-4.4-5.46-6.53a125.94,125.94,0,0,1,19.95-22.47c26.87-23.65,58-31,92.86-31,38.32,0,71.48,22.06,92.46,52.75a174.22,174.22,0,0,1,35.91-3.4c62,0,110,60.33,111.29,118.94,1.54.94,3.09,1.1,4.58,2.11,0,0,0-.71.07-.72a159.34,159.34,0,0,1,25.56,23.23,133.7,133.7,0,0,1-12.12,188.36s0,.11,0,.11c-9.74,7.19-18.59,13-28.08,18.91-.18.11-.36.26-.54.38l-.16.08-2.44,1.52c-.28.14-.56.25-.84.38.06,3.64,0,7.28-.28,10.89a131.25,131.25,0,0,1-43.95,87.93c-27.81,24.48-60,32.07-96.11,32.07A104.56,104.56,0,0,1,2289,546.48c53.33-17.6,95.07-62.71,107.82-117.9,29.28-29.23,47.6-69.45,47.6-113.3,0-86.07-70.57-158.09-156.12-160.61-29.18-43-78.44-71.69-133.39-71.69C2150.58,83,2146.28,83.23,2142,83.58Z"/></g><polygon class="cls-7" points="2493.66 193.28 2493.66 193.28 2493.66 193.28 2493.66 193.28"/></g><line class="cls-7" x1="2228.81" y1="749.06" x2="2228.81" y2="410.16"/><polygon class="cls-6" points="2216.81 749.06 2226.81 410.16 2230.82 410.16 2240.81 749.06 2216.81 749.06"/><line class="cls-7" x1="2223.46" y1="526.97" x2="2170.19" y2="473.7"/><polygon class="cls-6" points="2219.92 530.5 2169.6 474.29 2170.78 473.11 2226.99 523.43 2219.92 530.5"/><line class="cls-7" x1="2223.46" y1="601.53" x2="2276.73" y2="548.25"/><polygon class="cls-6" points="2219.92 597.99 2276.14 547.66 2277.32 548.84 2226.99 605.06 2219.92 597.99"/><rect class="cls-8" x="650.75" y="794.7" width="5.86" height="39.35" rx="2.44" ry="2.44"/><rect class="cls-8" x="786.43" y="794.7" width="5.86" height="39.35" rx="2.44" ry="2.44"/><rect class="cls-8" x="644.89" y="774.26" width="5.86" height="24.07" rx="2.44" ry="2.44"/><rect class="cls-8" x="792.29" y="776.14" width="5.86" height="22.19" rx="2.44" ry="2.44"/><path class="cls-9" d="M828.74,779.29H612.67c-5.53,0-10-29.43-10-29.43a10.08,10.08,0,0,1,10-10.05H828.74a10.07,10.07,0,0,1,10,10.05S834.26,779.29,828.74,779.29Z"/><rect class="cls-9" x="616.46" y="793.96" width="208.49" height="16.36" rx="6.83" ry="6.83"/><rect class="cls-8" x="1106.54" y="740.66" width="4.69" height="31.49" rx="2.35" ry="2.35"/><rect class="cls-8" x="1215.12" y="740.66" width="4.69" height="31.49" rx="2.35" ry="2.35"/><rect class="cls-8" x="1101.85" y="724.3" width="4.69" height="19.26" rx="2.35" ry="2.35"/><rect class="cls-8" x="1219.81" y="725.81" width="4.69" height="17.76" rx="2.35" ry="2.35"/><path class="cls-9" d="M1249,728.33H1076.07c-4.43,0-8-23.55-8-23.55a8.05,8.05,0,0,1,8-8H1249a8.06,8.06,0,0,1,8,8S1253.4,728.33,1249,728.33Z"/><rect class="cls-9" x="1079.1" y="740.07" width="166.84" height="13.1" rx="6.55" ry="6.55"/><rect class="cls-8" x="2681.76" y="795.09" width="5.86" height="39.35" rx="2.44" ry="2.44"/><rect class="cls-8" x="2817.44" y="795.09" width="5.86" height="39.35" rx="2.44" ry="2.44"/><rect class="cls-8" x="2675.9" y="774.65" width="5.86" height="24.07" rx="2.44" ry="2.44"/><rect class="cls-8" x="2823.3" y="776.53" width="5.86" height="22.19" rx="2.44" ry="2.44"/><path class="cls-9" d="M2859.75,779.68H2643.68c-5.53,0-10-29.43-10-29.43a10.08,10.08,0,0,1,10-10h216.07a10.07,10.07,0,0,1,10,10S2865.27,779.68,2859.75,779.68Z"/><rect class="cls-9" x="2647.47" y="794.35" width="208.49" height="16.36" rx="6.83" ry="6.83"/><path class="cls-3" d="M978.39,471.4c-.25-.37-.52-.72-.77-1.08a145.83,145.83,0,0,0-25-144.83A121.69,121.69,0,0,0,924,179.62L897.74,162a122.74,122.74,0,0,0-63.62-12.37l-30.92,6.51a121.67,121.67,0,0,0-71.07,164.46c-.67.73-1.38,1.42-2,2.17A147.52,147.52,0,0,0,694,430.83a145.18,145.18,0,0,0,8.74,39.48,172.19,172.19,0,0,0-11.87,20.13c-1.46,3-2.81,6-4.08,9-11.55,23.91-17.87,59.19-15,84.49a165.42,165.42,0,0,0,292.42,92.9l.2-.19c19.29-18.75,34.45-54.55,39.36-80.24l2.61-44.63A166.68,166.68,0,0,0,978.39,471.4Z"/><g class="cls-4"><path class="cls-3" d="M733,591a147.61,147.61,0,0,1,21.27-76.11A147.7,147.7,0,0,1,742,455.81c0-46.29,21.71-88.26,55.36-116.14a147.3,147.3,0,0,1-12.17-58.59c0-55.19,31-104.2,76.19-130.44a125,125,0,0,0-27.21-1l-30.92,6.51a121.67,121.67,0,0,0-71.07,164.46c-.67.73-1.38,1.42-2,2.17A147.52,147.52,0,0,0,694,430.83a145.18,145.18,0,0,0,8.74,39.48,172.19,172.19,0,0,0-11.87,20.13c-1.46,3-2.81,6-4.08,9-11.55,23.91-17.87,59.19-15,84.49A165.31,165.31,0,0,0,846.61,736.38C782,719.75,733,660.22,733,591Z"/></g><line class="cls-3" x1="838.86" y1="794.36" x2="838.86" y2="505.07"/><polygon class="cls-9" points="826.86 794.36 836.86 505.07 840.86 505.07 850.86 794.36 826.86 794.36"/><line class="cls-3" x1="843.43" y1="604.78" x2="888.9" y2="559.3"/><polygon class="cls-9" points="839.89 601.24 888.31 558.72 889.49 559.89 846.96 608.31 839.89 601.24"/><line class="cls-3" x1="843.43" y1="668.42" x2="797.95" y2="622.95"/><polygon class="cls-9" points="839.89 671.96 797.37 623.54 798.54 622.36 846.96 664.89 839.89 671.96"/><path class="cls-10" d="M1822.78,546.54l-.47-.66a88.86,88.86,0,0,0-15.25-88.26,74.16,74.16,0,0,0-17.44-88.89l-16-10.74a74.89,74.89,0,0,0-38.77-7.54l-18.85,4a74.3,74.3,0,0,0-49.51,75.83,73.73,73.73,0,0,0,6.2,24.4c-.41.44-.84.86-1.25,1.32a89.92,89.92,0,0,0-22,65.85,88.14,88.14,0,0,0,5.33,24.06,103.53,103.53,0,0,0-7.24,12.27c-.89,1.81-1.71,3.64-2.48,5.48-7,14.57-10.9,36.07-9.13,51.49a100.81,100.81,0,0,0,178.2,56.62l.13-.12c11.75-11.43,21-33.25,24-48.9l1.59-27.2A101.42,101.42,0,0,0,1822.78,546.54Z"/><g class="cls-4"><path class="cls-10" d="M1673.26,619.41a90,90,0,0,1,13-46.38,90,90,0,0,1-7.53-36c0-28.21,13.24-53.79,33.74-70.78a89.88,89.88,0,0,1-7.42-35.7c0-33.63,18.88-63.5,46.43-79.5a76.09,76.09,0,0,0-16.57-.61l-18.85,4a74.3,74.3,0,0,0-49.51,75.83,73.73,73.73,0,0,0,6.2,24.4c-.41.44-.84.86-1.25,1.32a89.92,89.92,0,0,0-22,65.85,88.14,88.14,0,0,0,5.33,24.06,103.53,103.53,0,0,0-7.24,12.27c-.89,1.81-1.71,3.64-2.48,5.48-7,14.57-10.9,36.07-9.13,51.49A100.76,100.76,0,0,0,1742.48,708C1703.08,697.89,1673.26,661.61,1673.26,619.41Z"/></g><line class="cls-10" x1="1737.75" y1="743.36" x2="1737.75" y2="567.06"/><polygon class="cls-9" points="1725.75 743.36 1735.75 567.06 1739.75 567.06 1749.75 743.36 1725.75 743.36"/><line class="cls-10" x1="1740.54" y1="627.83" x2="1768.25" y2="600.11"/><polygon class="cls-9" points="1737 624.29 1767.66 599.52 1768.84 600.7 1744.07 631.36 1737 624.29"/><line class="cls-10" x1="1740.54" y1="666.61" x2="1712.82" y2="638.9"/><polygon class="cls-9" points="1737 670.15 1712.23 639.49 1713.41 638.31 1744.07 663.08 1737 670.15"/><path class="cls-3" d="M2776.23,478.28c-.25-.37-.52-.72-.77-1.08a145.83,145.83,0,0,0-25-144.83,121.65,121.65,0,0,0-28.6-145.87l-26.24-17.62A122.79,122.79,0,0,0,2632,156.52L2601,163a121.92,121.92,0,0,0-81.25,124.42,121.25,121.25,0,0,0,10.19,40c-.68.73-1.39,1.42-2.05,2.17a147.51,147.51,0,0,0-36,108,145.54,145.54,0,0,0,8.73,39.48,173.6,173.6,0,0,0-11.87,20.13q-2.17,4.47-4.07,9c-11.55,23.91-17.88,59.18-15,84.49a165.42,165.42,0,0,0,292.42,92.9l.21-.19c19.28-18.75,34.45-54.55,39.35-80.24l2.61-44.63A166.47,166.47,0,0,0,2776.23,478.28Z"/><path class="cls-11" d="M2530.88,597.85a147.6,147.6,0,0,1,21.27-76.1,147.71,147.71,0,0,1-12.36-59.06c0-46.29,21.72-88.26,55.36-116.14A147.48,147.48,0,0,1,2583,288c0-55.19,31-104.2,76.19-130.44a124.89,124.89,0,0,0-27.2-1L2601,163a121.92,121.92,0,0,0-81.25,124.42,121.25,121.25,0,0,0,10.19,40c-.68.73-1.39,1.42-2.05,2.17a147.51,147.51,0,0,0-36,108,145.54,145.54,0,0,0,8.73,39.48,173.6,173.6,0,0,0-11.87,20.13q-2.17,4.47-4.07,9c-11.55,23.91-17.88,59.18-15,84.49a165.32,165.32,0,0,0,174.78,152.45C2579.81,726.63,2530.88,667.1,2530.88,597.85Z"/><line class="cls-3" x1="2636.7" y1="801.24" x2="2636.7" y2="511.95"/><polygon class="cls-9" points="2624.7 801.24 2634.7 511.95 2638.7 511.95 2648.7 801.24 2624.7 801.24"/><line class="cls-3" x1="2641.27" y1="611.66" x2="2686.75" y2="566.18"/><polygon class="cls-9" points="2637.74 608.12 2686.16 565.6 2687.34 566.77 2644.81 615.19 2637.74 608.12"/><line class="cls-3" x1="2641.27" y1="675.3" x2="2595.8" y2="629.83"/><polygon class="cls-9" points="2637.74 678.84 2595.21 630.42 2596.39 629.24 2644.81 671.77 2637.74 678.84"/><polygon class="cls-12" points="1631.11 794.21 1626.82 794.21 1616.82 798.29 1619.67 796.06 1625.39 794.21 1618.96 794.58 1624.68 793.46 1622.99 779.98 1622.26 774.12 1622.17 773.45 1623.95 773.45 1623.98 773.86 1624.46 780.39 1625.39 793.09 1627.89 793.09 1628.47 793.29 1631.11 794.21"/><polygon class="cls-12" points="1629.32 797.17 1631.11 799.77 1631.11 802.36 1628.61 797.54 1621.46 800.5 1623.61 798.29 1627.89 796.8 1627.66 794.21 1627.57 793.09 1626.51 780.98 1625.85 773.47 1625.75 772.33 1627.89 770.85 1627.94 772.95 1628.11 781.44 1628.25 788.28 1628.47 793.29 1628.52 794.21 1628.61 796.44 1635.04 798.29 1636.84 800.88 1629.32 797.17"/><path class="cls-13" d="M1657.56,760.9c2.22-.33,5.72-.71,5.72.3,0,1.33-17.69,5.91-21.46,6.88h-.06l-.64.17-.18.08-1.24.52c-1.7.71-4.72,1.91-8.13,3-.93.3-1.9.6-2.87.88l-.76.2c-.7.2-1.4.38-2.09.52s-1.26.28-1.87.39-1.16.2-1.72.26a17.71,17.71,0,0,1-2,.18,13.93,13.93,0,0,1-2.38-.11c-7.51-1.12-15-7.79-15.37-13-.27-3.76,4.78-9.71,7.27-14,.25-.44.49-.86.68-1.27h0a4.28,4.28,0,0,0,.62-2.56,7.83,7.83,0,0,0-2.45-4.22,4.28,4.28,0,0,0-.77-.59l-8.58-1.12,8.94-2.59,1.55-1.56,2-2s12.93-2.75,10.42-1.27-4,20.78.71,20c4.25-.67,29.33,4.83,29,5.94s-7.52-1.11-7.52-1.11l5,3s17.88-.75,17.88.37C1667.22,759.07,1660.78,760.33,1657.56,760.9Z"/><path class="cls-12" d="M1609.88,739.19a3.37,3.37,0,0,1-1.24,0h0a5.32,5.32,0,0,0-.77-.6l-8.57-1.11,8.93-2.59,1.54-1.56c-.07.1-1.33,1.86-1,2.57S1610.25,738.82,1609.88,739.19Z"/><ellipse class="cls-14" cx="1613.22" cy="735.18" rx="1" ry="1.5"/><path class="cls-15" d="M1612.83,756.1s-5.54,7.77,1.52,9.06,34.94-2.7,34.94-2.7,2.27-1.68-6.63-3c0,0,6.93,1,2.12-.7S1617.37,752.72,1612.83,756.1Z"/><polygon class="cls-12" points="1570.64 799.31 1567.19 799.31 1559.12 802.48 1561.43 800.76 1566.03 799.31 1560.86 799.6 1565.45 798.74 1564.48 791.24 1563.49 783.62 1563.44 783.2 1564.88 783.2 1565.49 791.24 1566.03 798.46 1568.06 798.46 1568.51 798.6 1570.64 799.31"/><polygon class="cls-12" points="1569.2 801.63 1570.64 803.63 1570.64 805.64 1568.62 801.91 1562.87 804.21 1564.6 802.48 1568.06 801.34 1567.88 799.31 1567.79 798.46 1567.13 791.24 1566.33 782.47 1566.32 782.33 1568.06 781.19 1568.07 781.79 1568.26 791.24 1568.33 794.72 1568.51 798.6 1568.54 799.31 1568.62 801.05 1573.81 802.48 1575.24 804.5 1569.2 801.63"/><path class="cls-13" d="M1588.41,762.55c.5-.1,3.61-.63,3.95.37s-8.77,2.2-8.77,2.2-.67,9-6.47,14.27c-.26.24-.54.47-.83.7-6.57,5.11-16.43,9.13-20.45,5.48s-5.48-6.94-5.84-6.94-1.43,4-2.85,6.34h0a4.08,4.08,0,0,1-1.53,1.69c-2.56,1.1-2.2,1.1-2.2,1.1l-1.82,5.47-1.46-5.47s-2.77,0-2.56-2.19c.73-7.67-.36-10.23-.36-10.23s4.38-1.09,5.47.37,3.29-4.39,3.29-4.39,4.75-8,6.94-8.76,26.66-2.19,28.48-1.83,12.78-1.09,13.15-.36S1589.11,762.38,1588.41,762.55Z"/><path class="cls-12" d="M1544,787a3,3,0,0,1,0,1h0a4,4,0,0,0-.52.62l-1.22,7.09-1.85-7.52-1.24-1.34c.08.07,1.51,1.18,2.11.91S1543.67,786.66,1544,787Z"/><path class="cls-14" d="M1543.22,785.68a2,2,0,0,0,2-2"/><path class="cls-16" d="M1557.22,775.68s2,9,5,8,17-11,17-13c0,0,0-2-5,1,0,0,5-3,2-2S1562.22,770.68,1557.22,775.68Z"/><path class="cls-17" d="M1502.86,769.44c-3.37-36.32-40.83-64.94-86.56-64.94s-83,28.49-86.53,64.68c19.72-1.64,50.49-2.7,85.07-2.7C1451.19,766.48,1483.34,767.65,1502.86,769.44Z"/><ellipse class="cls-18" cx="1416.31" cy="704.5" rx="39" ry="10.55"/><path class="cls-17" d="M1283.22,600.26c5.17,55.85,62.79,99.86,133.11,99.86,70.16,0,127.67-43.8,133.08-99.46-30.33,2.52-77.65,4.14-130.83,4.14C1362.68,604.8,1313.24,603,1283.22,600.26Z"/><path class="cls-18" d="M1547.43,585c-30.32-3.26-77.77-5.36-131.12-5.36-56.07,0-105.64,2.32-135.63,5.87-19,2.24-30.11,5-30.11,7.93s11.25,5.72,30.38,8c30,3.54,79.46,5.84,135.36,5.84,53.18,0,100.5-2.09,130.83-5.33,21.88-2.34,34.91-5.28,34.91-8.48S1569.13,587.28,1547.43,585Z"/><path class="cls-17" d="M1507.31,586.4c-21-2.27-54-3.72-91-3.72-38.92,0-73.32,1.61-94.13,4.07-13.16,1.56-20.9,3.46-20.9,5.51s7.81,4,21.09,5.53c20.83,2.45,55.14,4.05,93.94,4.05,36.91,0,69.75-1.45,90.8-3.7,15.18-1.62,24.23-3.66,24.23-5.88S1522.37,588,1507.31,586.4Z"/><rect class="cls-18" x="1299.31" y="765.86" width="234" height="8" rx="4" ry="4"/><rect class="cls-17" x="1410.38" y="343.06" width="11.86" height="259.7" rx="5.93" ry="5.93"/><rect class="cls-17" x="1403.08" y="323.96" width="14.6" height="248.56" rx="7.3" ry="7.3" transform="translate(121.14 1174.84) rotate(-47.04)"/><rect class="cls-17" x="1412.59" y="348.97" width="14.6" height="248.56" rx="7.3" ry="7.3" transform="translate(105.86 1189.76) rotate(-47.04)"/><ellipse class="cls-17" cx="1428.9" cy="448.24" rx="124.49" ry="24.67" transform="matrix(0.75, -0.66, 0.66, 0.75, 59.63, 1054.67)"/><path class="cls-3" d="M2174,735.06l-.05,0c-2.28,1.53-6.61,1.42-10.45.42,1.27,4,1.42,7.79-1.7,9.89a8.55,8.55,0,0,1-1.57.8c-4.08,1.56-10.61.88-15.87-.91a31.37,31.37,0,0,1-3.37,7c-1.32,3.39-3.32,6.06-6,7-5.44,1.89-12.13-3.85-16-10.2-5.4,3.46-12.74,5.94-16.95,4.39-3.49-1.27-4.14-5.05-3.73-9.2-3.53,1.9-7.73,3.08-10.27,2.15-2.15-.79-2.76-3-2.65-5.46a28.72,28.72,0,0,1,1.27-6.68,36.37,36.37,0,0,1-3.52-13.77c-.84-13.3,4.9-24.43,12.83-24.86a9.57,9.57,0,0,1,5.35,1.38,37,37,0,0,1,5.06-15.55c2.75-4.3,6.38-7,10.5-7.2,5.72-.31,11.1,4.17,14.82,11.36a17.58,17.58,0,0,1,11.89-5.84c9.53-.51,18.07,7.38,21.07,18.53,5,1.19,9,6.6,9.43,13.31a16.43,16.43,0,0,1-2.24,9.61C2173.82,724.86,2178.14,732.2,2174,735.06Z"/><polygon class="cls-19" points="2121.74 759.8 2111.09 740.36 2112.9 739.27 2123.55 758.71 2121.74 759.8"/><rect class="cls-19" x="2126.23" y="733.62" width="2.08" height="25.63"/><polygon class="cls-19" points="2137.84 762.39 2147.15 739.38 2149.07 740.24 2142.64 756.12 2156.77 745.55 2159.68 746.05 2137.84 762.39"/><polygon class="cls-19" points="2131.09 763.02 2146.37 744.49 2144.57 744.57 2129.68 761.45 2131.09 763.02"/><rect class="cls-19" x="2116.91" y="747.58" width="25.63" height="2.08" transform="translate(788.6 2564.54) rotate(-72.92)"/><polygon class="cls-19" points="2114.94 760.77 2112.79 736.04 2110.71 736.3 2112.19 753.36 2101.79 739.11 2100.11 740.46 2114.94 760.77"/><path class="cls-20" d="M2162.29,719.53c-6.41-10.37-17-15.44-23.61-11.34a9.27,9.27,0,0,0-2,1.74l-.31-.21c1-5.3-.46-12.17-4.39-18.52-6.41-10.36-17-15.44-23.61-11.34a9.5,9.5,0,0,0-2,1.62h0l0,.06a11.92,11.92,0,0,0-2.69,5.49,42.87,42.87,0,0,0-2.33,10,9.57,9.57,0,0,0-5.35-1.38c-7.93.43-13.67,11.56-12.83,24.86a36.37,36.37,0,0,0,3.52,13.77,28.72,28.72,0,0,0-1.27,6.68c-.11,2.5.5,4.67,2.65,5.46,2.54.93,6.74-.25,10.27-2.15-.41,4.15.24,7.93,3.73,9.2,4.21,1.55,11.55-.93,16.95-4.39,3.88,6.35,10.57,12.09,16,10.2,2.69-.94,4.69-3.61,6-7a31.59,31.59,0,0,0,3.12-6.3,8.3,8.3,0,0,0,.88-.47,32.09,32.09,0,0,0,10.39,1.56,10.14,10.14,0,0,0,6.51-1.35C2168.53,741.61,2168.7,729.89,2162.29,719.53Z"/><path class="cls-3" d="M1081.38,779.44l-.05,0c-2.29,1.53-6.62,1.42-10.45.43,1.27,3.94,1.42,7.78-1.71,9.88a7.88,7.88,0,0,1-1.56.8c-4.08,1.56-10.62.88-15.87-.91a31.37,31.37,0,0,1-3.37,7c-1.32,3.39-3.32,6.06-6,7-5.43,1.89-12.13-3.85-16-10.19-5.41,3.46-12.75,5.93-17,4.39-3.48-1.28-4.13-5.06-3.72-9.21-3.53,1.91-7.73,3.08-10.27,2.15-2.16-.78-2.76-2.95-2.66-5.46a29.37,29.37,0,0,1,1.28-6.68,36.37,36.37,0,0,1-3.52-13.76c-.84-13.31,4.9-24.44,12.83-24.87a9.57,9.57,0,0,1,5.35,1.38,36.91,36.91,0,0,1,5.05-15.55c2.75-4.3,6.39-7,10.51-7.2,5.72-.3,11.1,4.17,14.82,11.36a17.53,17.53,0,0,1,11.89-5.83c9.53-.52,18.06,7.37,21.07,18.53,5,1.18,9,6.59,9.42,13.3a16.35,16.35,0,0,1-2.24,9.61C1081.18,769.24,1085.51,776.58,1081.38,779.44Z"/><polygon class="cls-19" points="1029.11 804.18 1018.46 784.74 1020.26 783.65 1030.91 803.09 1029.11 804.18"/><rect class="cls-19" x="1033.6" y="778" width="2.08" height="25.63"/><polygon class="cls-19" points="1045.2 806.77 1054.52 783.77 1056.43 784.62 1050.01 800.5 1064.13 789.93 1067.05 790.43 1045.2 806.77"/><polygon class="cls-19" points="1038.45 807.4 1053.74 788.87 1051.94 788.95 1037.05 805.83 1038.45 807.4"/><rect class="cls-19" x="1024.27" y="791.96" width="25.63" height="2.08" transform="translate(-25.54 1551.44) rotate(-72.92)"/><polygon class="cls-19" points="1022.31 805.16 1020.16 780.43 1018.08 780.68 1019.56 797.74 1009.16 783.49 1007.48 784.84 1022.31 805.16"/><path class="cls-20" d="M1069.66,763.91c-6.42-10.36-17-15.44-23.61-11.34a9.32,9.32,0,0,0-2.06,1.74l-.3-.2c1-5.31-.46-12.17-4.39-18.53-6.42-10.36-17-15.44-23.61-11.34a9,9,0,0,0-2,1.63v0l0,.07a11.82,11.82,0,0,0-2.68,5.48,42.87,42.87,0,0,0-2.33,10,9.57,9.57,0,0,0-5.35-1.38c-7.93.43-13.67,11.56-12.83,24.87A36.37,36.37,0,0,0,994,778.65a29.37,29.37,0,0,0-1.28,6.68c-.1,2.51.5,4.68,2.66,5.46,2.54.93,6.74-.24,10.27-2.15-.41,4.15.24,7.93,3.72,9.21,4.21,1.54,11.55-.93,17-4.39,3.87,6.34,10.57,12.08,16,10.19,2.7-.94,4.7-3.61,6-7a32.14,32.14,0,0,0,3.12-6.3,7.3,7.3,0,0,0,.87-.47,32.15,32.15,0,0,0,10.4,1.56,10.14,10.14,0,0,0,6.51-1.35C1075.89,786,1076.07,774.27,1069.66,763.91Z"/><path class="cls-3" d="M1920.63,762.86l-.05,0c-2.28,1.53-6.62,1.41-10.45.42,1.27,3.95,1.42,7.79-1.7,9.89a8.23,8.23,0,0,1-1.57.79c-4.08,1.57-10.62.89-15.87-.9a31.8,31.8,0,0,1-3.37,7c-1.32,3.38-3.32,6.06-6,7-5.43,1.88-12.13-3.85-16-10.2-5.41,3.46-12.75,5.93-17,4.39-3.48-1.27-4.13-5-3.72-9.2-3.53,1.9-7.73,3.08-10.27,2.15-2.16-.79-2.76-3-2.66-5.47a29.28,29.28,0,0,1,1.28-6.67,36.37,36.37,0,0,1-3.52-13.77c-.84-13.3,4.9-24.44,12.83-24.87a9.58,9.58,0,0,1,5.35,1.39,36.82,36.82,0,0,1,5.06-15.55c2.74-4.31,6.38-7,10.5-7.2,5.72-.31,11.1,4.17,14.82,11.36a17.54,17.54,0,0,1,11.89-5.84c9.53-.52,18.06,7.38,21.07,18.53,5,1.19,9,6.6,9.43,13.31a16.43,16.43,0,0,1-2.24,9.61C1920.44,752.65,1924.76,760,1920.63,762.86Z"/><polygon class="cls-19" points="1868.36 787.6 1857.71 768.15 1859.51 767.07 1870.16 786.51 1868.36 787.6"/><rect class="cls-19" x="1872.85" y="761.42" width="2.08" height="25.63"/><polygon class="cls-19" points="1884.45 790.19 1893.77 767.18 1895.69 768.04 1889.26 783.91 1903.38 773.35 1906.3 773.85 1884.45 790.19"/><polygon class="cls-19" points="1877.71 790.82 1892.99 772.29 1891.19 772.37 1876.3 789.25 1877.71 790.82"/><rect class="cls-19" x="1863.52" y="775.38" width="25.63" height="2.08" transform="translate(583.07 2341.97) rotate(-72.92)"/><polygon class="cls-19" points="1861.56 788.57 1859.41 763.84 1857.33 764.09 1858.81 781.16 1848.41 766.91 1846.73 768.25 1861.56 788.57"/><path class="cls-20" d="M1908.91,747.32c-6.41-10.36-17-15.43-23.61-11.33a9.28,9.28,0,0,0-2.06,1.74l-.3-.21c1-5.3-.46-12.17-4.39-18.52-6.41-10.37-17-15.44-23.61-11.34a9.5,9.5,0,0,0-2,1.62h0l0,.06a11.87,11.87,0,0,0-2.69,5.49,42.87,42.87,0,0,0-2.33,10,9.58,9.58,0,0,0-5.35-1.39c-7.93.43-13.67,11.57-12.83,24.87a36.37,36.37,0,0,0,3.52,13.77,29.28,29.28,0,0,0-1.28,6.67c-.1,2.51.5,4.68,2.66,5.47,2.54.93,6.74-.25,10.27-2.15-.41,4.15.24,7.93,3.72,9.2,4.21,1.54,11.55-.93,17-4.39,3.87,6.35,10.57,12.08,16,10.2,2.7-.94,4.7-3.62,6-7a31.59,31.59,0,0,0,3.12-6.3,7.3,7.3,0,0,0,.87-.47,32.15,32.15,0,0,0,10.4,1.56,10.2,10.2,0,0,0,6.51-1.35C1915.14,769.41,1915.32,757.68,1908.91,747.32Z"/><path class="cls-21" d="M2066.51,582.63H1917.34a12,12,0,0,0-12,12V672a12,12,0,0,0,12,12h5v99.54a5.56,5.56,0,1,0,11.11,0V684h116.88v99.54a5.56,5.56,0,1,0,11.12,0V684h5a12,12,0,0,0,12-12V594.63A12,12,0,0,0,2066.51,582.63Z"/></g><g id="Ourtdoor"><rect class="cls-17" x="3494.59" y="360.13" width="734.81" height="347.62" rx="12" ry="12"/><rect class="cls-17" x="3623.11" y="681.85" width="72.18" height="166.73" rx="12" ry="12"/><rect class="cls-17" x="4028.16" y="681.85" width="72.18" height="166.73" rx="12" ry="12"/><rect class="cls-22" x="3547.41" y="368.65" width="670" height="295.54" rx="12" ry="12"/><rect class="cls-17" x="3581.41" y="333.98" width="60" height="29.66" rx="12" ry="12"/><rect class="cls-17" x="3725.41" y="333.98" width="60" height="29.66" rx="12" ry="12"/><rect class="cls-17" x="3874.41" y="333.98" width="60" height="29.66" rx="12" ry="12"/><rect class="cls-17" x="4020.16" y="333.98" width="60" height="29.66" rx="12" ry="12"/><rect class="cls-17" x="4170.16" y="333.98" width="60" height="29.66" rx="12" ry="12"/></g><g id="Objetos"><rect class="cls-17" x="1633.97" y="738.11" width="28" height="68" rx="12" ry="12"/><rect class="cls-17" x="1638.3" y="334.11" width="19.35" height="438" rx="9.68" ry="9.68"/><rect class="cls-18" x="1626.97" y="324.11" width="42" height="18.95" rx="9.47" ry="9.47"/><rect class="cls-17" x="3227.53" y="734.8" width="28" height="68" rx="12" ry="12"/><rect class="cls-17" x="3231.86" y="330.8" width="19.35" height="438" rx="9.68" ry="9.68"/><rect class="cls-18" x="3220.53" y="320.8" width="42" height="18.95" rx="9.47" ry="9.47"/></g><g id="Posição_dos_personagens" data-name="Posição dos personagens"><g id="Layer_2-2" data-name="Layer 2"><g id="Luiziane"><g id="Luiziane_copy" data-name="Luiziane copy"><g id="Corpo_copy" data-name="Corpo copy"><ellipse class="cls-23" cx="969.94" cy="775.48" rx="17.08" ry="9.03"/><path class="cls-24" d="M961.67,797.21a16.19,16.19,0,0,1-5.12-1.23c.42,6.78.5,14.21-.41,19.76l9,.85s2.57-10.41,3.93-20.55A15.35,15.35,0,0,1,961.67,797.21Z"/><path class="cls-23" d="M969.81,782.59a9.07,9.07,0,0,0-1.44-4.71l-13.66.48s.19,1.3.47,3.46c.42,3.26,1,8.48,1.37,14.16a16.19,16.19,0,0,0,5.12,1.23,15.35,15.35,0,0,0,7.42-1.17A64.46,64.46,0,0,0,969.81,782.59Z"/><path class="cls-24" d="M977.26,795.48A63.49,63.49,0,0,1,980,813.65h7.07S988.29,804.9,989,795a12.54,12.54,0,0,1-6.28,1.59A12.86,12.86,0,0,1,977.26,795.48Z"/><path class="cls-23" d="M988.72,767.43l-18.78,10a83.14,83.14,0,0,1,4.09,8.77,95.36,95.36,0,0,1,3.23,9.29,13,13,0,0,0,5.43,1.15A12.64,12.64,0,0,0,989,795c.25-3.51.41-7.15.43-10.6C989.44,777.59,990.54,770,988.72,767.43Z"/><ellipse class="cls-25" cx="958.46" cy="816.59" rx="6.7" ry="4.67"/><ellipse class="cls-25" cx="983.11" cy="817.38" rx="6.69" ry="4.66"/><path class="cls-24" d="M941.49,739.59C934.12,752.36,921,779,924.71,781.06s17.36-12.77,24.74-25.54,10.36-24.84,6.68-27S948.86,726.81,941.49,739.59Z"/><ellipse class="cls-24" cx="925.72" cy="779.3" rx="5.55" ry="4.96"/><ellipse class="cls-24" cx="930.01" cy="781.59" rx="1.26" ry="2.96"/><path class="cls-25" d="M991.09,755.84c0,15.9-7.45,17.67-22.72,22-13.46,3.88-33.31-1.68-28.77-28.77,2.62-15.65,12.88-28.77,28.77-28.77S991.09,740,991.09,755.84Z"/><ellipse class="cls-25" cx="948.01" cy="741.2" rx="13.97" ry="10.26" transform="translate(-246.45 887.44) rotate(-45)"/><path class="cls-24" d="M994.5,739.94c7.38,12.77,20.46,39.38,16.78,41.48s-17.36-12.77-24.73-25.54-10.35-24.85-6.68-27S987.13,727.17,994.5,739.94Z"/><ellipse class="cls-24" cx="1010.27" cy="779.65" rx="5.55" ry="4.96"/><ellipse class="cls-24" cx="1005.98" cy="781.95" rx="1.26" ry="2.96"/><path class="cls-26" d="M978.22,719c0,3.07-12.26,8.63-18.25,8.63s-3.77-5.43-1.18-7.07c6.38-4,2.59-4,8.58-4S978.22,715.89,978.22,719Z"/></g><g id="Cabeça_copy" data-name="Cabeça copy"><circle class="cls-26" cx="992.86" cy="690.81" r="5.81"/><path class="cls-24" d="M968.37,673.39h0a25.24,25.24,0,0,1,25.24,25.24h0a25.24,25.24,0,0,1-25.24,25.24h0a25.24,25.24,0,0,1-25.24-25.24h0A25.24,25.24,0,0,1,968.37,673.39Z"/><ellipse class="cls-24" cx="963.4" cy="706.37" rx="25.84" ry="17.5"/><ellipse class="cls-27" cx="952.39" cy="698.63" rx="5.21" ry="3.87"/><ellipse class="cls-28" cx="965.16" cy="689.88" rx="2.2" ry="4.88"/><circle class="cls-29" cx="987.01" cy="665.99" r="13.97"/><path class="cls-30" d="M992.1,685c-6.33-3.9-9.54,5.27-20.05.76s-16.65-13.69-13.72-20.52,20.43-10.31,32.08,2.77C998.66,677.26,1000,689.88,992.1,685Z"/><path class="cls-30" d="M963.4,673.39c0,5.55-6.68,4-11,7.41-5.22,4.14-9.94-1.15-7.74-6.23,2.52-5.84,7.42-11.19,13-11.19S963.4,667.86,963.4,673.39Z"/><ellipse class="cls-28" cx="949.28" cy="688.98" rx="4.45" ry="1.76" transform="translate(6.42 1386.73) rotate(-72.47)"/><path class="cls-31" d="M952.39,708.74s13.18,4.2,20.38-2.36"/><path class="cls-30" d="M984.19,685a10,10,0,0,1,2.86,9.76c-1.51,6.06,8.5-1.68,7.36-8.75S984.19,685,984.19,685Z"/><circle class="cls-23" cx="995.29" cy="696.61" r="2.08"/></g></g></g></g><g id="Layer_2-3" data-name="Layer 2"><g id="Glaucyanih"><g id="Glaucyanih-2"><g id="Corpo"><path class="cls-32" d="M1049.42,756.74c0,10.27,2.5,17.23-2.58,17.23s-10.86-4.52-9.21-18.59c1.19-10.2,9.3-22.22,12.13-18C1052.94,742.18,1049.42,746.48,1049.42,756.74Z"/><path class="cls-33" d="M1060,758.85c-2.55,12.15,4.48,16.32-4.65,16.47-2.36,0-5.4.4-7-.24-5.62-2.22-6.91-8.56-5.17-19.44,2-12.24,5.64-22.47,12.64-22.47S1062.78,745.47,1060,758.85Z"/><path class="cls-34" d="M1044,771.25s-.31,5.43,1.73,6.37,11.86,3.84,16,0c0,0,1.42-1.65-.57-5.18C1061.15,772.44,1047.73,775.08,1044,771.25Z"/><ellipse class="cls-32" cx="1048.9" cy="737.39" rx="3.26" ry="1.93" transform="translate(-93.69 1319.13) rotate(-62.09)"/><ellipse class="cls-35" cx="1054.56" cy="733.08" rx="5.57" ry="3.74" transform="translate(-107.59 1279.82) rotate(-60)"/><path class="cls-32" d="M1066.35,756.74c0,10.27,2.5,17.23-2.58,17.23s-10.86-4.52-9.21-18.59c1.2-10.2,6.38-22.82,9.21-18.59C1067,741.58,1066.35,746.48,1066.35,756.74Z"/><ellipse class="cls-32" cx="1070.35" cy="759.59" rx="3.06" ry="22.77" transform="translate(-143.26 259.82) rotate(-12.98)"/><path class="cls-32" d="M1059.53,737.69c-.69,4.73-2.71,4.93-5,3.21-.85-.64.7-3.43,1.54-5s3.47-4.62,4.41-4.12S1059.79,735.91,1059.53,737.69Z"/><ellipse class="cls-32" cx="1038.31" cy="757.38" rx="22.77" ry="3.06" transform="translate(-87.67 1376.95) rotate(-64.93)"/><ellipse class="cls-36" cx="1076" cy="782.44" rx="2.53" ry="3.75" transform="translate(-106.4 172.58) rotate(-8.74)"/><ellipse class="cls-36" cx="1074.33" cy="781.46" rx="3.14" ry="1.12" transform="translate(-139.6 1321.13) rotate(-60)"/><ellipse class="cls-36" cx="1028.85" cy="777.61" rx="3.75" ry="2.53" transform="translate(-184.66 1214.21) rotate(-56.87)"/><ellipse class="cls-36" cx="1028.18" cy="775.97" rx="3.14" ry="1.12" transform="translate(-229.21 496.24) rotate(-24.5)"/><path class="cls-34" d="M1045.05,777.06s.43,29.9,0,37.59,2.32,4.08,2.32,4.08,5.05-25.46,5.73-41.11Z"/><path class="cls-34" d="M1062.2,776.34s3.42,30.34,4.7,37.93-1.86,4.31-1.86,4.31-7.9-24.53-10.28-40Z"/><ellipse class="cls-33" cx="1044.98" cy="818.89" rx="3.3" ry="1.88" transform="translate(-157.23 255.64) rotate(-12.98)"/><ellipse class="cls-33" cx="1068.03" cy="818.9" rx="1.88" ry="3.3" transform="translate(93.44 1747.04) rotate(-81.08)"/></g><g id="Cabeça"><circle class="cls-37" cx="1067.85" cy="693.61" r="5.63"/><circle class="cls-37" cx="1043.69" cy="692.23" r="5.63"/><circle class="cls-37" cx="1071.9" cy="716.53" r="5.63"/><circle class="cls-37" cx="1069.86" cy="724.36" r="5.63"/><circle class="cls-37" cx="1071.9" cy="700.71" r="5.63"/><circle class="cls-37" cx="1073.47" cy="709.95" r="5.63"/><circle class="cls-38" cx="1041.72" cy="728.75" r="5.63"/><circle class="cls-38" cx="1040.99" cy="736.79" r="5.63"/><ellipse class="cls-38" cx="1040.4" cy="748.53" rx="5.41" ry="2.77" transform="translate(73.49 1589.84) rotate(-76.76)"/><ellipse class="cls-38" cx="1043.7" cy="747.02" rx="2.76" ry="5.41" transform="translate(-215.81 500.08) rotate(-24.5)"/><circle class="cls-38" cx="1041.38" cy="742.21" r="2.3"/><circle class="cls-35" cx="1069.86" cy="714.58" r="5.13"/><g id="Layer_5" data-name="Layer 5"><circle class="cls-36" cx="1049.38" cy="714.58" r="20.48"/></g><ellipse class="cls-35" cx="1039.85" cy="717.66" rx="4.12" ry="3.08"/><ellipse class="cls-39" cx="1049.38" cy="711.66" rx="2" ry="4.87"/><ellipse class="cls-39" cx="1035.84" cy="709.64" rx="4.53" ry="1.51" transform="translate(50.54 1487.93) rotate(-72.72)"/><path class="cls-35" d="M1039.87,725.68a20.39,20.39,0,0,0,14.71-1.65"/><path class="cls-38" d="M1069.86,708.26c-2.4,3.68-8.88-.64-15.64-5s-10.28-10.94-7.88-14.62,13.94-1.92,20.69,2.48S1072.26,704.58,1069.86,708.26Z"/><path class="cls-38" d="M1030.79,703.26c-1.74-4,3.76-11.71,11.16-14.92s5.69.36,7.43,4.38-3.08,8.2-11,9.7C1028.9,704.22,1032.54,707.28,1030.79,703.26Z"/><circle class="cls-38" cx="1064.73" cy="731.76" r="5.63"/><circle class="cls-38" cx="1060.73" cy="738.78" r="5.63"/><ellipse class="cls-38" cx="1055.33" cy="749.22" rx="5.41" ry="2.76" transform="translate(-183.1 1125.18) rotate(-52.26)"/><ellipse class="cls-38" cx="1058.96" cy="749.21" rx="2.77" ry="5.41"/><circle class="cls-38" cx="1058.84" cy="743.88" r="2.3"/><path class="cls-38" d="M1071.2,698.12s5.55,6.75,2.87,13.54c0,0-2.63-3.9-4.23,0l-1.58,3.9-2.59-6.12Z"/></g></g></g></g><g id="Layer_2-4" data-name="Layer 2"><g id="Laerte"><g id="Laerte-2"><g id="Corpo-2" data-name="Corpo"><path class="cls-40" d="M1606.85,665.4c-4.57,1.51-9.8,14.34-1.71,22.52,14.37,14.56,11,18.82,14.83,17.06,4.39-2,5.34-11.6,1.72-22.53S1611.43,663.88,1606.85,665.4Z"/><path class="cls-41" d="M1592.21,707.68l5.75,17,7.88-1c-.17-5.23,2.23-17.5,2.23-17.5Z"/><path class="cls-41" d="M1592.23,707.68l-15.47-8.82c-1.67,5.08,4.64,25.82,4.64,25.82h8.7c.19-3,4-11.43,4-11.43Z"/><path class="cls-42" d="M1592.66,658.92c13.46,0,22.15,11.11,24.38,24.38,3.85,23-13,27.67-24.38,24.39-13-3.72-19.25-5.21-19.25-18.68S1579.19,658.92,1592.66,658.92Z"/><path class="cls-40" d="M1582.75,663.9c4.57,1.52,9.81,14.36,1.71,22.53-14.37,14.55-11,18.81-14.83,17.06-4.39-2-5.33-11.61-1.71-22.54S1578.18,662.39,1582.75,663.9Z"/><path class="cls-40" d="M1598,724.68l-1.11-3.34,9.16-1a23.33,23.33,0,0,0-.14,3.34Z"/><path class="cls-40" d="M1580.44,721.34l1,3.34h8.7a20.58,20.58,0,0,1,.8-3.34Z"/><ellipse class="cls-43" cx="1603.33" cy="725.6" rx="5.61" ry="3.09"/><ellipse class="cls-43" cx="1586.04" cy="726.1" rx="5.61" ry="3.09"/><circle class="cls-40" cx="1569.59" cy="701.86" r="4.38"/><ellipse class="cls-40" cx="1619.31" cy="703.07" rx="4.19" ry="3.69"/><circle class="cls-40" cx="1615.58" cy="702.46" r="1.39"/><circle class="cls-40" cx="1573.96" cy="702.46" r="1.39"/><path class="cls-43" d="M1573.63,700.15c-2.92-2.25-7.42-1.78-7.42-1.78a19.17,19.17,0,0,1-.46-3.1c4.49-.26,8.62,3.59,8.62,3.59Z"/></g><ellipse class="cls-44" cx="1597.12" cy="665.21" rx="6.92" ry="8.41" transform="translate(-59.26 1164.92) rotate(-39.4)"/><g id="Cabeça-2" data-name="Cabeça"><ellipse class="cls-44" cx="1577.19" cy="645.63" rx="4.64" ry="6.21"/><path class="cls-40" d="M1614.27,645.63h0a18.54,18.54,0,0,1-18.54,18.54h0a18.54,18.54,0,0,1-18.54-18.54h0a18.54,18.54,0,0,1,18.54-18.54h0A18.54,18.54,0,0,1,1614.27,645.63Z"/><ellipse class="cls-40" cx="1599.38" cy="651.31" rx="18.98" ry="12.86"/><ellipse class="cls-45" cx="1604.68" cy="646.81" rx="4.91" ry="3.58"/><ellipse class="cls-46" cx="1594.54" cy="640.06" rx="3.05" ry="1.49" transform="translate(-116.26 480.73) rotate(-16.55)"/><ellipse class="cls-46" cx="1608.5" cy="640.06" rx="1.49" ry="3.05" transform="translate(536.77 1999.6) rotate(-73.45)"/><path class="cls-44" d="M1590.54,653.41c3,1.86,15.75,1.12,15.75,1.12"/></g></g></g></g><g id="Layer_2-5" data-name="Layer 2"><g id="Rodiney"><g id="Rodiney-2"><g id="Corpo-3" data-name="Corpo"><path class="cls-47" d="M1806.36,736.9c-3.3,1.59-4.19-9-10.17-21.25-1.12-2.31-2.1-4.58-3-6.77a10,10,0,0,0,11.47-4.92,46.44,46.44,0,0,1,1.67,8.67C1807.71,726.23,1809.66,735.3,1806.36,736.9Z"/><path class="cls-48" d="M1793.22,708.88c-3.66-9.47-4.65-17.26-1.88-18.36,4.41-1.74,10.32,3.24,13.35,13.44A10,10,0,0,1,1793.22,708.88Z"/><ellipse class="cls-49" cx="1780.25" cy="731.37" rx="10.06" ry="6.95"/><path class="cls-48" d="M1769.51,689.43h20.81c13.53,1.9,2.92,44.09,0,44.09h-20.81C1773.2,722.11,1761.09,695.2,1769.51,689.43Z"/><ellipse class="cls-50" cx="1781.15" cy="688.97" rx="3.56" ry="5.8" transform="translate(-105.85 982.88) rotate(-30)"/><path class="cls-47" d="M1755.86,736.15c3.3,1.6,4.19-9,10.17-21.25,1.12-2.3,2.1-4.6,3-6.77a10,10,0,0,1-11.47-4.92,47.82,47.82,0,0,0-1.66,8.71C1754.5,725.5,1752.56,734.56,1755.86,736.15Z"/><path class="cls-48" d="M1769,708.13c3.67-9.46,4.66-17.26,1.88-18.36-4.4-1.73-10.31,3.24-13.35,13.44A10,10,0,0,0,1769,708.13Z"/><path class="cls-49" d="M1781.15,733.53a35.11,35.11,0,0,1,.6,4.34c.3,3.18,6.34,35,6.34,35h2.22c-1.24-10.28,0-39.33,0-39.33Z"/><path class="cls-49" d="M1778.61,733.53a35.09,35.09,0,0,0-.59,4.34c-.31,3.18-6.35,35-6.35,35h-2.23c1.25-10.28,0-39.33,0-39.33Z"/><ellipse class="cls-51" cx="1790.91" cy="773.99" rx="2.03" ry="3.36" transform="translate(859.89 2488.52) rotate(-84.87)"/><ellipse class="cls-51" cx="1770.18" cy="773.99" rx="2.03" ry="3.36" transform="translate(841.01 2467.87) rotate(-84.87)"/></g><g id="Cabeça-3" data-name="Cabeça"><circle class="cls-50" cx="1764.08" cy="670.35" r="6.14"/><rect class="cls-47" x="1764.08" y="651.82" width="37.61" height="37.61" rx="10.29" ry="10.29"/><ellipse class="cls-52" cx="1781.15" cy="667.06" rx="1.73" ry="3.28"/><ellipse class="cls-52" cx="1795.63" cy="667.06" rx="1.73" ry="3.28"/><path class="cls-53" d="M1777.11,682.05c-2.32-2.77-1.16-7-1.16-7a24.47,24.47,0,0,0,16.19,1.42C1790.08,684.07,1779.42,684.82,1777.11,682.05Z"/><path class="cls-54" d="M1806.88,633.38c6.39,2.54,6.08,28.75-12,23.63-9.22-4.52-3.62-7.12-1.07-12.76S1803.67,632.11,1806.88,633.38Z"/><path class="cls-54" d="M1801.69,624.4c4,6.06,3.23,34.46-8.77,31.93-12.27-2.57-24-2.84-25.74,1.16-2.94,6.61,1.16-16.41,11.4-23.1S1797.74,618.34,1801.69,624.4Z"/><path class="cls-54" d="M1783.26,621.81c3.61,1.64,7.88,11.53,5.32,17.14s-7.56,8.83-11.17,7.18-4.47-7.51-1.91-13.15S1779.64,620.16,1783.26,621.81Z"/><path class="cls-54" d="M1779.49,636.31c-1.51,4.81,3.08,11.25-2.21,18.44s-19,12.27-17,7.63c.48-1.12-1.57-12.16,2.22-18.46C1768.73,633.59,1780.18,634.11,1779.49,636.31Z"/><path class="cls-54" d="M1761.19,664.14c-1,7.79,5.65,10.42,5.06,8.11s.62-9.6.62-9.6Z"/></g><ellipse class="cls-47" cx="1803.12" cy="733.98" rx="1.76" ry="0.58" transform="translate(521.33 2199.23) rotate(-70.97)"/><ellipse class="cls-47" cx="1758.81" cy="733.52" rx="0.58" ry="1.76" transform="translate(-146.8 743.54) rotate(-22.94)"/></g></g></g></g></g></g></svg>