<svg xmlns="http://www.w3.org/2000/svg" viewBox="0 0 3692.87 522.77"><defs><style>.cls-1{fill:#255968;}.cls-2{fill:#ddeed5;}.cls-3{fill:#00a26e;}.cls-4{fill:#17454a;}.cls-5{fill:#198a5f;}.cls-6{fill:#186a71;}.cls-7{fill:#9569ad;}.cls-8{fill:#5a2b7b;}.cls-9{fill:#456931;}.cls-10{fill:#3abfbf;}.cls-11{fill:#a474b2;}.cls-12{fill:#3f5785;}.cls-13{fill:#62479c;}.cls-14{fill:#2d73ab;}</style></defs><title>sessão2 inteira</title><g id="Layer_2" data-name="Layer 2"><g id="Ourtdoor"><rect class="cls-1" x="2957.3" y="26.15" width="734.81" height="347.62" rx="12" ry="12"/><rect class="cls-1" x="3085.82" y="347.87" width="72.18" height="166.73" rx="12" ry="12"/><rect class="cls-1" x="3490.87" y="347.87" width="72.18" height="166.73" rx="12" ry="12"/><rect class="cls-2" x="3010.12" y="34.66" width="670" height="295.54" rx="12" ry="12"/><rect class="cls-1" x="3044.12" width="60" height="29.66" rx="12" ry="12"/><rect class="cls-1" x="3188.12" width="60" height="29.66" rx="12" ry="12"/><rect class="cls-1" x="3337.12" width="60" height="29.66" rx="12" ry="12"/><rect class="cls-1" x="3482.87" width="60" height="29.66" rx="12" ry="12"/><rect class="cls-1" x="3632.87" width="60" height="29.66" rx="12" ry="12"/><rect class="cls-1" x="303.91" y="435.61" width="24" height="44.29" rx="12" ry="12"/><rect class="cls-1" x="1020.97" y="435.61" width="24" height="44.29" rx="12" ry="12"/><rect class="cls-1" x="1738.02" y="435.61" width="24" height="44.29" rx="12" ry="12"/><rect class="cls-1" x="2455.07" y="435.61" width="24" height="44.29" rx="12" ry="12"/><path class="cls-3" d="M2012.12,471.18l-.06.05c-2.28,1.53-6.61,1.41-10.45.42,1.27,4,1.43,7.79-1.7,9.89a7.86,7.86,0,0,1-1.56.79c-4.08,1.57-10.62.88-15.87-.9a32.25,32.25,0,0,1-3.37,7c-1.32,3.38-3.32,6.06-6,7-5.44,1.88-12.13-3.85-16-10.2-5.41,3.46-12.75,5.93-17,4.39-3.48-1.27-4.14-5-3.73-9.2-3.52,1.9-7.72,3.08-10.26,2.15-2.16-.79-2.76-3-2.66-5.47a29.82,29.82,0,0,1,1.27-6.67,36.6,36.6,0,0,1-3.51-13.77c-.84-13.3,4.9-24.44,12.82-24.87a9.62,9.62,0,0,1,5.36,1.39,36.82,36.82,0,0,1,5-15.55c2.75-4.31,6.39-7,10.51-7.2,5.72-.31,11.1,4.17,14.81,11.36a17.56,17.56,0,0,1,11.89-5.84c9.53-.52,18.07,7.38,21.08,18.53,5,1.18,9,6.6,9.42,13.31a16.35,16.35,0,0,1-2.24,9.61C2011.92,461,2016.24,468.33,2012.12,471.18Z"/><polygon class="cls-4" points="1959.84 495.93 1949.19 476.48 1951 475.39 1961.65 494.84 1959.84 495.93"/><rect class="cls-4" x="1964.34" y="469.75" width="2.08" height="25.63"/><polygon class="cls-4" points="1975.94 498.52 1985.26 475.51 1987.17 476.37 1980.74 492.24 1994.87 481.68 1997.79 482.18 1975.94 498.52"/><polygon class="cls-4" points="1969.19 499.15 1984.48 480.62 1982.68 480.7 1967.79 497.58 1969.19 499.15"/><rect class="cls-4" x="1955.01" y="483.71" width="25.63" height="2.08" transform="translate(926.49 2223.41) rotate(-72.92)"/><polygon class="cls-4" points="1953.04 496.9 1950.9 472.17 1948.81 472.42 1950.3 489.49 1939.9 475.24 1938.22 476.58 1953.04 496.9"/><path class="cls-5" d="M2000.39,455.65c-6.41-10.36-17-15.43-23.6-11.33a9.06,9.06,0,0,0-2.06,1.74l-.31-.21c1-5.31-.45-12.17-4.39-18.52-6.41-10.37-17-15.44-23.6-11.34a9.24,9.24,0,0,0-2,1.62h0l0,.06a11.85,11.85,0,0,0-2.68,5.49,41.77,41.77,0,0,0-2.33,10,9.62,9.62,0,0,0-5.36-1.39c-7.92.43-13.66,11.57-12.82,24.87a36.6,36.6,0,0,0,3.51,13.77,29.82,29.82,0,0,0-1.27,6.67c-.1,2.51.5,4.68,2.66,5.47,2.54.93,6.74-.25,10.26-2.15-.41,4.15.25,7.93,3.73,9.2,4.21,1.54,11.55-.93,17-4.39,3.87,6.35,10.56,12.08,16,10.2,2.7-.94,4.7-3.62,6-7a32.14,32.14,0,0,0,3.12-6.3c.29-.14.59-.3.87-.47a32.15,32.15,0,0,0,10.4,1.56,10.18,10.18,0,0,0,6.5-1.35C2006.63,477.74,2006.8,466,2000.39,455.65Z"/><path class="cls-3" d="M3057.47,471.58l0,0c-2.28,1.54-6.62,1.42-10.45.43,1.27,3.95,1.42,7.79-1.7,9.88a8.26,8.26,0,0,1-1.57.8c-4.08,1.56-10.62.88-15.87-.9a31.51,31.51,0,0,1-3.37,7c-1.32,3.39-3.32,6.07-6,7-5.43,1.89-12.13-3.85-16-10.19-5.41,3.46-12.75,5.93-17,4.39-3.48-1.28-4.13-5.05-3.72-9.2-3.53,1.9-7.73,3.08-10.27,2.15-2.16-.79-2.76-3-2.66-5.47a29.37,29.37,0,0,1,1.28-6.68,36.32,36.32,0,0,1-3.52-13.76c-.84-13.3,4.9-24.44,12.83-24.87a9.5,9.5,0,0,1,5.35,1.39,36.91,36.91,0,0,1,5.06-15.56c2.74-4.3,6.38-7,10.5-7.19,5.72-.31,11.1,4.17,14.82,11.36a17.54,17.54,0,0,1,11.89-5.84c9.53-.52,18.06,7.38,21.07,18.53,5,1.18,9,6.6,9.43,13.31a16.43,16.43,0,0,1-2.24,9.61C3057.28,461.38,3061.6,468.73,3057.47,471.58Z"/><polygon class="cls-4" points="3005.2 496.32 2994.55 476.88 2996.36 475.79 3007.01 495.24 3005.2 496.32"/><rect class="cls-4" x="3009.69" y="470.15" width="2.08" height="25.63"/><polygon class="cls-4" points="3021.29 498.92 3030.61 475.91 3032.53 476.76 3026.1 492.64 3040.22 482.07 3043.14 482.58 3021.29 498.92"/><polygon class="cls-4" points="3014.55 499.55 3029.83 481.01 3028.03 481.1 3013.14 497.98 3014.55 499.55"/><rect class="cls-4" x="3000.36" y="484.11" width="25.63" height="2.08" transform="translate(1664.44 3222.94) rotate(-72.92)"/><polygon class="cls-4" points="2998.4 497.3 2996.25 472.57 2994.17 472.82 2995.65 489.89 2985.25 475.64 2983.57 476.98 2998.4 497.3"/><path class="cls-5" d="M3045.75,456.05c-6.41-10.36-17-15.44-23.61-11.34a9.56,9.56,0,0,0-2.06,1.74l-.3-.2c1-5.31-.46-12.17-4.39-18.53-6.41-10.36-17-15.43-23.61-11.33a9.19,9.19,0,0,0-2,1.62v0a.25.25,0,0,0,0,.07,11.87,11.87,0,0,0-2.69,5.49,42.75,42.75,0,0,0-2.33,10,9.5,9.5,0,0,0-5.35-1.39c-7.93.43-13.67,11.57-12.83,24.87a36.32,36.32,0,0,0,3.52,13.76,29.37,29.37,0,0,0-1.28,6.68c-.1,2.51.5,4.68,2.66,5.47,2.54.93,6.74-.25,10.27-2.15-.41,4.15.24,7.92,3.72,9.2,4.21,1.54,11.55-.93,17-4.39,3.87,6.34,10.57,12.08,16,10.19,2.7-.93,4.7-3.61,6-7a31.51,31.51,0,0,0,3.12-6.29c.3-.15.59-.3.87-.47a32.41,32.41,0,0,0,10.4,1.55,10.2,10.2,0,0,0,6.51-1.34C3052,478.14,3052.16,466.41,3045.75,456.05Z"/></g><g id="Objetos"><rect class="cls-1" x="7" y="454.77" width="28" height="68" rx="12" ry="12"/><rect class="cls-1" x="11.32" y="50.77" width="19.35" height="438" rx="9.68" ry="9.68"/><rect class="cls-6" y="40.77" width="42" height="18.95" rx="9.47" ry="9.47"/><rect class="cls-1" x="1867.69" y="452.45" width="28" height="68" rx="12" ry="12"/><rect class="cls-1" x="1872.02" y="48.45" width="19.35" height="438" rx="9.68" ry="9.68"/><rect class="cls-6" x="1860.69" y="38.45" width="42" height="18.95" rx="9.47" ry="9.47"/></g><g id="Posição_dos_personagens" data-name="Posição dos personagens"><g id="Layer_2-2" data-name="Layer 2"><g id="Gustavo"><g id="Gustavo_copy" data-name="Gustavo copy"><ellipse class="cls-7" cx="3559.62" cy="451.17" rx="7.04" ry="2.22"/><g id="Corpo_copy_8" data-name="Corpo copy 8"><path class="cls-8" d="M3556,477.69s2.85,27.19,2.21,32.5h1.1s1.73-24.16,1.3-27.62l1.19-.11-.65-2.93Z"/><path class="cls-8" d="M3561.38,482.5c.41,2.75,4.85,24.58,5.39,27.69h1.2s-3-29.9-2.62-32.5l-4.72,1.88Z"/><path class="cls-9" d="M3565.35,477.69c1,1.73-8.57,3.19-9.36,0-1-3.93-2.72-23.46,0-26.53,0,0,10.48-.93,9.36,0S3564,475.27,3565.35,477.69Z"/><ellipse class="cls-9" cx="3557.58" cy="510.51" rx="1.99" ry="0.89" transform="translate(-19.57 858.34) rotate(-13.72)"/><ellipse class="cls-9" cx="3568.63" cy="510.52" rx="0.89" ry="1.99" transform="translate(2226.28 3856.23) rotate(-76.28)"/><path class="cls-9" d="M3551.51,467.58c-1.1,7.31-2.84,13.08-2.15,13.26s2.77-5.46,4.66-12.61,2.64-12.77,2.15-13.25C3554.14,453,3552.72,459.52,3551.51,467.58Z"/><ellipse class="cls-10" cx="3549.11" cy="481.3" rx="1.71" ry="1.38" transform="translate(1789.64 3600.93) rotate(-68.3)"/><ellipse class="cls-10" cx="3550.4" cy="480.85" rx="0.32" ry="1.1" transform="translate(239.37 1849.66) rotate(-30.17)"/><path class="cls-9" d="M3568.43,466.41c1.12,7.31,2.87,13.07,2.18,13.25s-2.78-5.45-4.68-12.59-2.67-12.76-2.17-13.25C3565.77,451.83,3567.2,458.36,3568.43,466.41Z"/><ellipse class="cls-10" cx="3570.89" cy="480.31" rx="1.38" ry="1.71" transform="translate(77.46 1362.29) rotate(-21.83)"/><ellipse class="cls-10" cx="3569.46" cy="480.06" rx="1.1" ry="0.32" transform="translate(1368.99 3331.27) rotate(-60)"/></g><circle class="cls-11" cx="3559.14" cy="451.64" r="2.44"/><ellipse class="cls-7" cx="3554.57" cy="451.43" rx="2.47" ry="3.52" transform="translate(-21.17 221.59) rotate(-3.56)"/><g id="Cabeça_copy_8" data-name="Cabeça copy 8"><ellipse class="cls-12" cx="3571.78" cy="446.46" rx="1.3" ry="3.25" transform="translate(-14.01 761.13) rotate(-12.14)"/><ellipse class="cls-12" cx="3566.98" cy="431.51" rx="11.03" ry="11.72" transform="translate(2746.65 3929.6) rotate(-83.7)"/><ellipse class="cls-11" cx="3573.37" cy="442.22" rx="3.84" ry="2.71" transform="translate(1101.49 3060.3) rotate(-53.7)"/><ellipse class="cls-10" cx="3560.21" cy="438.11" rx="14.36" ry="13" transform="translate(2734.07 3928.74) rotate(-83.7)"/><ellipse class="cls-13" cx="3556.4" cy="444.1" rx="3.14" ry="4.22" transform="translate(2724.73 3930.29) rotate(-83.7)"/><ellipse class="cls-14" cx="3563.22" cy="438.61" rx="3.57" ry="1.95" transform="translate(2736.26 3932.18) rotate(-83.7)"/><ellipse class="cls-14" cx="3551.96" cy="437.2" rx="3.41" ry="1.76" transform="matrix(0.11, -0.99, 0.99, 0.11, 2727.63, 3919.73)"/><ellipse class="cls-12" cx="3558.6" cy="429.27" rx="5.31" ry="5.62" transform="translate(2741.42 3919.27) rotate(-83.7)"/><path class="cls-12" d="M3562.34,424.34c-2.63,1.3-3.08,5-6.18,4.66a5.47,5.47,0,0,1-5-5.89,5.34,5.34,0,0,1,6.18-4.66C3562.59,419.44,3566.13,422.47,3562.34,424.34Z"/><ellipse class="cls-12" cx="3568" cy="429.45" rx="5.31" ry="5.62" transform="matrix(0.11, -0.99, 0.99, 0.11, 2749.61, 3928.78)"/><path class="cls-12" d="M3556.62,427.5a5.49,5.49,0,0,1-6.18,4.66c-3.09-.32-6-3.13-5-5.89,1-1.13,3.7-1.26,6.17-4.66C3553.43,419.09,3556.94,424.58,3556.62,427.5Z"/><ellipse class="cls-12" cx="3563.02" cy="419.15" rx="1.3" ry="3.25" transform="translate(-24.26 372.23) rotate(-5.96)"/><path class="cls-12" d="M3570.26,434.34s.87,3.17-.56,5,0,2.75,1,2.6,3.73-2,4.29-7.05-1.39-4.79-1.39-4.79Z"/><circle class="cls-12" cx="3563.5" cy="425.72" r="3.09"/></g><ellipse class="cls-7" cx="3562.99" cy="452.36" rx="3.52" ry="2.47" transform="translate(2102.98 3733.81) rotate(-73.25)"/></g></g></g></g></g></svg>