<svg xmlns="http://www.w3.org/2000/svg" viewBox="0 0 4604.89 956.86"><defs><style>.cls-1{isolation:isolate;}.cls-2{fill:#00a26e;}.cls-3{opacity:0.6;mix-blend-mode:multiply;}.cls-4{fill:#13454a;}.cls-5{fill:#265968;}.cls-6{fill:#196a71;}.cls-7{fill:#71c062;}.cls-8{fill:#d6ece1;}.cls-9{fill:#2f4858;}.cls-10{fill:#17454a;}.cls-11{fill:#198a5f;}.cls-12{fill:#255968;}.cls-13{fill:#186a71;}.cls-14{fill:#11454a;}.cls-15{fill:#1e7b73;}.cls-16{fill:#f15f69;}.cls-17{fill:#4fb965;}.cls-18{fill:#12454a;}.cls-19{fill:none;stroke:#12454a;stroke-miterlimit:10;}.cls-20{fill:#ab4f55;}.cls-21{fill:#eb665f;}.cls-22{fill:#def3fd;}</style></defs><title>Sessão inteira</title><g class="cls-1"><g id="Layer_2" data-name="Layer 2"><g id="Vegetação"><path class="cls-2" d="M4029.94,374.2a251.61,251.61,0,0,0-42.36-121.39l-42.5-48.35a255,255,0,0,0-45.38-31.76,253.75,253.75,0,0,0-218.18-24,254.88,254.88,0,0,0-29.11,468.71c18.17,11,103.89,34.51,67.82,23.39a15.4,15.4,0,0,0,3.8.68,648.94,648.94,0,0,0,68.5,4,15.46,15.46,0,0,0,2.15-.18c22.77-2.77,45.12-9.3,67.46-14.12a251.79,251.79,0,0,0,167.8-257Z"/><g class="cls-3"><path class="cls-2" d="M3724,641.5c4.68.52,9.35,1,14,1.38-76.06-53.64-126.51-142.09-126.51-240.55,0-117.21,71.47-220.22,172.54-267.21a253.16,253.16,0,0,0-102.57,13.6,254.88,254.88,0,0,0-29.11,468.71c18.17,11,103.89,34.51,67.82,23.39A15.4,15.4,0,0,0,3724,641.5Z"/></g><line class="cls-2" x1="3770.89" y1="780.84" x2="3770.89" y2="463.76"/><polygon class="cls-4" points="3758.89 780.85 3768.89 463.76 3772.89 463.76 3782.89 780.85 3758.89 780.85"/><line class="cls-2" x1="3775.9" y1="573.05" x2="3825.74" y2="523.2"/><polygon class="cls-4" points="3772.36 569.51 3825.15 522.62 3826.33 523.79 3779.43 576.59 3772.36 569.51"/><line class="cls-2" x1="3775.9" y1="642.81" x2="3726.06" y2="592.96"/><polygon class="cls-4" points="3772.36 646.34 3725.47 593.55 3726.65 592.37 3779.43 639.27 3772.36 646.34"/></g><g id="Prédios"><rect class="cls-5" x="723.89" y="593.07" width="150.56" height="71.05" rx="12" ry="12"/><path class="cls-6" d="M889.34,664.12H709a7.64,7.64,0,0,0-7.61,7.62V852.07a7.63,7.63,0,0,0,7.61,7.61h27.55V727.73a7.63,7.63,0,0,1,7.61-7.61h110a7.63,7.63,0,0,1,7.61,7.61V859.68h27.55a7.63,7.63,0,0,0,7.61-7.61V671.74A7.64,7.64,0,0,0,889.34,664.12Z"/><rect class="cls-6" x="895.79" y="446.06" width="520.42" height="413.63" rx="12" ry="12"/><rect class="cls-5" x="889.22" y="671.74" width="533.56" height="33.15" rx="12" ry="12"/><rect class="cls-5" x="981.66" y="693.47" width="26.47" height="166.21" rx="12" ry="12"/><rect class="cls-7" x="908.78" y="452.4" width="495.45" height="154.79" rx="12" ry="12"/><rect class="cls-6" x="1416.66" y="461.75" width="205.45" height="399.67" rx="12" ry="12"/><rect class="cls-6" x="1639.88" y="464.29" width="357.75" height="399.67" rx="12" ry="12"/><rect class="cls-5" x="1622.11" y="484.52" width="19.21" height="375.16" rx="9.6" ry="9.6"/><rect class="cls-8" x="1444.88" y="593.07" width="149.44" height="131.28" rx="12" ry="12"/><rect class="cls-8" x="1669.89" y="564.47" width="56.9" height="26.9" rx="7.02" ry="7.02"/><rect class="cls-8" x="1731.23" y="564.47" width="56.9" height="26.9" rx="7.02" ry="7.02"/><rect class="cls-8" x="1792.57" y="564.47" width="56.9" height="26.9" rx="7.02" ry="7.02"/><rect class="cls-8" x="1853.91" y="564.47" width="56.9" height="26.9" rx="7.02" ry="7.02"/><rect class="cls-8" x="1915.25" y="564.47" width="56.9" height="26.9" rx="7.02" ry="7.02"/><rect class="cls-8" x="1669.89" y="595.81" width="56.9" height="26.9" rx="7.02" ry="7.02"/><rect class="cls-8" x="1731.23" y="595.81" width="56.9" height="26.9" rx="7.02" ry="7.02"/><rect class="cls-8" x="1792.57" y="595.81" width="56.9" height="26.9" rx="7.02" ry="7.02"/><rect class="cls-8" x="1853.91" y="595.81" width="56.9" height="26.9" rx="7.02" ry="7.02"/><rect class="cls-8" x="1915.25" y="595.81" width="56.9" height="26.9" rx="7.02" ry="7.02"/><rect class="cls-8" x="1669.89" y="627.15" width="56.9" height="26.9" rx="7.02" ry="7.02"/><rect class="cls-8" x="1731.23" y="627.15" width="56.9" height="26.9" rx="7.02" ry="7.02"/><rect class="cls-8" x="1792.57" y="627.15" width="56.9" height="26.9" rx="7.02" ry="7.02"/><rect class="cls-8" x="1853.91" y="627.15" width="56.9" height="26.9" rx="7.02" ry="7.02"/><rect class="cls-8" x="1915.25" y="627.15" width="56.9" height="26.9" rx="7.02" ry="7.02"/><rect class="cls-8" x="1669.89" y="658.49" width="56.9" height="26.9" rx="7.02" ry="7.02"/><rect class="cls-8" x="1731.23" y="658.49" width="56.9" height="26.9" rx="7.02" ry="7.02"/><rect class="cls-8" x="1792.57" y="658.49" width="56.9" height="26.9" rx="7.02" ry="7.02"/><rect class="cls-8" x="1853.91" y="658.49" width="56.9" height="26.9" rx="7.02" ry="7.02"/><rect class="cls-8" x="1915.25" y="658.49" width="56.9" height="26.9" rx="7.02" ry="7.02"/><rect class="cls-8" x="1669.89" y="689.83" width="56.9" height="26.9" rx="7.02" ry="7.02"/><rect class="cls-8" x="1731.23" y="689.83" width="56.9" height="26.9" rx="7.02" ry="7.02"/><rect class="cls-8" x="1792.57" y="689.83" width="56.9" height="26.9" rx="7.02" ry="7.02"/><rect class="cls-8" x="1853.91" y="689.83" width="56.9" height="26.9" rx="7.02" ry="7.02"/><rect class="cls-8" x="1915.25" y="689.83" width="56.9" height="26.9" rx="7.02" ry="7.02"/><path class="cls-5" d="M1980.1,439.66c14.33,11.29,5.65,77,0,86.83s-152.21,17.38-182.17,0-81.32-78.26-86.83-86.83S1965.77,428.37,1980.1,439.66Z"/><rect class="cls-5" x="1641.32" y="446.06" width="137.46" height="18.23" rx="9.12" ry="9.12"/><rect class="cls-5" x="2128.85" y="609.26" width="17.22" height="94.03" rx="8.61" ry="8.61"/><rect class="cls-5" x="2805.18" y="611.7" width="17.22" height="94.03" rx="8.61" ry="8.61"/><rect class="cls-5" x="2692.26" y="617.11" width="17.22" height="94.03" rx="8.61" ry="8.61"/><rect class="cls-5" x="2247.76" y="617.11" width="17.22" height="94.03" rx="8.61" ry="8.61"/><rect class="cls-5" x="2043.68" y="555.17" width="877.74" height="91.35" rx="12" ry="12"/><rect class="cls-7" x="2023.93" y="416" width="916.61" height="224.6" rx="12" ry="12"/><rect class="cls-6" x="1999.61" y="696.64" width="958.12" height="166.21" rx="12" ry="12"/><rect class="cls-8" x="2013.01" y="745.49" width="382.44" height="68.52" rx="12" ry="12"/><rect class="cls-8" x="2558.1" y="745.49" width="382.44" height="68.52" rx="12" ry="12"/><rect class="cls-9" x="2426.97" y="779.75" width="103.23" height="83.11" rx="12" ry="12"/><path class="cls-6" d="M3734.08,0H3513.36a7.63,7.63,0,0,0-7.61,7.61V667.3H3193.68V7.61A7.63,7.63,0,0,0,3186.07,0H2965.35a7.63,7.63,0,0,0-7.61,7.61V855.24a7.64,7.64,0,0,0,7.61,7.62h768.73a7.64,7.64,0,0,0,7.61-7.62V7.61A7.63,7.63,0,0,0,3734.08,0Z"/><rect class="cls-7" x="2984.37" y="110.36" width="734.49" height="205.5" rx="12" ry="12"/><rect class="cls-7" x="2984.37" y="383.67" width="734.49" height="205.5" rx="12" ry="12"/><rect class="cls-9" x="3300" y="779.44" width="103.23" height="83.11" rx="12" ry="12"/><rect class="cls-8" x="2984.37" y="612.78" width="80.17" height="90.5" rx="11.3" ry="11.3"/><rect class="cls-8" x="3090.04" y="612.35" width="80.17" height="90.5" rx="11.3" ry="11.3"/><rect class="cls-8" x="2984.37" y="730.49" width="80.17" height="90.5" rx="11.3" ry="11.3"/><rect class="cls-8" x="3090.04" y="730.07" width="80.17" height="90.5" rx="11.3" ry="11.3"/><rect class="cls-8" x="3533.03" y="617.69" width="80.17" height="90.5" rx="11.3" ry="11.3"/><rect class="cls-8" x="3638.69" y="617.27" width="80.17" height="90.5" rx="11.3" ry="11.3"/><rect class="cls-8" x="3533.03" y="735.41" width="80.17" height="90.5" rx="11.3" ry="11.3"/><rect class="cls-8" x="3638.69" y="734.98" width="80.17" height="90.5" rx="11.3" ry="11.3"/><rect class="cls-5" x="3193.68" y="646.53" width="311.38" height="75.06" rx="12" ry="12"/><rect class="cls-5" x="3219.59" y="711.14" width="19.03" height="151.4" rx="9.52" ry="9.52"/><rect class="cls-5" x="3463.2" y="711.14" width="19.03" height="151.4" rx="9.52" ry="9.52"/><circle class="cls-5" cx="102.43" cy="389.36" r="30.45"/><circle class="cls-5" cx="701.22" cy="389.36" r="30.45"/><rect class="cls-7" x="132.88" y="389.36" width="538.67" height="83.74" rx="12" ry="12"/><rect class="cls-7" x="3877.79" y="631.08" width="660.47" height="134.13" rx="12" ry="12"/><rect class="cls-5" x="3811.18" y="631.29" width="66.62" height="231.46" rx="12" ry="12"/><rect class="cls-5" x="4538.27" y="631.08" width="66.62" height="231.46" rx="12" ry="12"/><rect class="cls-9" x="728.68" y="716.74" width="133.12" height="142.95" rx="12" ry="12"/><path class="cls-2" d="M3002.35,876.32l0,0c-2.28,1.53-6.61,1.42-10.45.42,1.27,4,1.42,7.79-1.7,9.89a8,8,0,0,1-1.57.79c-4.08,1.57-10.61.89-15.87-.9a31.8,31.8,0,0,1-3.37,7c-1.32,3.39-3.32,6.06-6,7-5.44,1.89-12.13-3.85-16-10.2-5.4,3.46-12.74,5.94-17,4.39-3.49-1.27-4.14-5.05-3.73-9.2-3.53,1.9-7.73,3.08-10.27,2.15-2.15-.79-2.76-3-2.65-5.47a28.74,28.74,0,0,1,1.27-6.67,36.37,36.37,0,0,1-3.52-13.77c-.84-13.3,4.9-24.44,12.83-24.87a9.58,9.58,0,0,1,5.35,1.39,37,37,0,0,1,5.06-15.55c2.75-4.3,6.38-7,10.5-7.2,5.72-.31,11.1,4.17,14.82,11.36a17.54,17.54,0,0,1,11.89-5.84c9.53-.51,18.07,7.38,21.07,18.53,5,1.19,9,6.6,9.43,13.31a16.43,16.43,0,0,1-2.24,9.61C3002.16,866.11,3006.48,873.46,3002.35,876.32Z"/><polygon class="cls-10" points="2950.08 901.06 2939.43 881.61 2941.24 880.53 2951.89 899.97 2950.08 901.06"/><rect class="cls-10" x="2954.57" y="874.88" width="2.08" height="25.63"/><polygon class="cls-10" points="2966.18 903.65 2975.49 880.64 2977.41 881.5 2970.98 897.37 2985.11 886.81 2988.02 887.31 2966.18 903.65"/><polygon class="cls-10" points="2959.43 904.28 2974.71 885.75 2972.91 885.83 2958.02 902.71 2959.43 904.28"/><rect class="cls-10" x="2945.25" y="888.84" width="25.63" height="2.08" transform="matrix(0.29, -0.96, 0.96, 0.29, 1238.62, 3456.12)"/><polygon class="cls-10" points="2943.28 902.03 2941.13 877.3 2939.05 877.55 2940.53 894.62 2930.13 880.37 2928.45 881.71 2943.28 902.03"/><path class="cls-11" d="M2990.63,860.78c-6.41-10.36-17-15.43-23.61-11.33a9,9,0,0,0-2.05,1.74l-.31-.21c1-5.3-.46-12.17-4.39-18.52-6.41-10.36-17-15.44-23.61-11.34a9.5,9.5,0,0,0-1.95,1.62h0l0,.06a11.87,11.87,0,0,0-2.69,5.49,42.87,42.87,0,0,0-2.33,10,9.58,9.58,0,0,0-5.35-1.39c-7.93.43-13.67,11.57-12.83,24.87a36.37,36.37,0,0,0,3.52,13.77,28.74,28.74,0,0,0-1.27,6.67c-.11,2.51.5,4.68,2.65,5.47,2.54.93,6.74-.25,10.27-2.15-.41,4.15.24,7.93,3.73,9.2,4.21,1.55,11.55-.93,17-4.39,3.88,6.35,10.57,12.09,16,10.2,2.69-.94,4.69-3.61,6-7a31.59,31.59,0,0,0,3.12-6.3,8.3,8.3,0,0,0,.88-.47,32.09,32.09,0,0,0,10.39,1.56,10.2,10.2,0,0,0,6.51-1.35C2996.87,882.87,2997,871.15,2990.63,860.78Z"/></g><g id="Objetos"><rect class="cls-12" x="7" y="813.52" width="28" height="68" rx="12" ry="12"/><rect class="cls-12" x="11.32" y="409.52" width="19.35" height="438" rx="9.68" ry="9.68"/><rect class="cls-13" y="399.52" width="42" height="18.95" rx="9.47" ry="9.47"/></g><g id="Posição_dos_personagens" data-name="Posição dos personagens"><g id="Layer_2-2" data-name="Layer 2"><g id="Ciclista_1" data-name="Ciclista 1"><g id="Bike"><g id="trás"><circle class="cls-14" cx="1104.88" cy="921.24" r="35.62"/><circle class="cls-15" cx="1105.55" cy="921.24" r="31.34"/></g><g id="rodas"><circle class="cls-14" cx="1232.28" cy="921.19" r="35.62"/><circle class="cls-15" cx="1232.28" cy="921.19" r="31.34"/></g><path id="esquerd" class="cls-16" d="M1172.63,853.23s26.29,4.45,27,14.69c.64,8.66-19.83,17.65-18.9,17.71l-3.8-1.34c6.79-3.3,41.38-21.44-7.27-26.63Z"/><rect class="cls-17" x="1097.18" y="894.45" width="65.17" height="5.19" transform="translate(-303.4 1061.6) rotate(-45)"/><rect class="cls-17" x="1107.9" y="911.76" width="65.17" height="5.19" transform="translate(-110.91 158.87) rotate(-7.6)"/><g id="em_pé" data-name="em pé"><polygon class="cls-18" points="1174.61 906.38 1172.63 905.56 1179.29 893.4 1181.27 894.22 1174.61 906.38"/><rect class="cls-14" x="1174.61" y="891.67" width="10.34" height="2.55" rx="0.92" ry="0.92"/></g><polygon class="cls-17" points="1172.94 910.5 1169.68 906.84 1210.59 860.76 1213.85 864.42 1172.94 910.5"/><rect class="cls-17" x="1151.3" y="846.77" width="5.19" height="65.17" transform="translate(-247.24 503.13) rotate(-22.28)"/><polygon class="cls-17" points="1152.71 877.64 1152.1 872.49 1209.44 863.87 1210.05 869.01 1152.71 877.64"/><rect class="cls-17" x="1218.56" y="856.8" width="5.46" height="63.02" transform="translate(-209 403.62) rotate(-17.31)"/><circle id="trás-2" class="cls-14" cx="1104.88" cy="921.92" r="8.25"/><circle id="bola" class="cls-14" cx="1232.28" cy="921.63" r="5.28"/><path class="cls-14" d="M1165.65,853.79c2.54,2.82-.48,3.09-16.92,5.92-9.32.84-16.93-2.66-16.93-5.92s7.57-5.93,16.93-5.93S1163.51,851.4,1165.65,853.79Z"/><rect class="cls-18" x="1148.23" y="867" width="8.12" height="16.94" rx="3.19" ry="3.19" transform="translate(-245.89 502.23) rotate(-22.28)"/><rect class="cls-18" x="1210.7" y="856.37" width="8.12" height="21.93" rx="3.19" ry="3.19" transform="translate(-203.05 400.72) rotate(-17.31)"/><circle class="cls-14" cx="1169.37" cy="914.36" r="11.37"/><circle class="cls-18" cx="1169.37" cy="914.36" r="3.83"/><path class="cls-19" d="M1104.88,913.13l63.9-10.14a11.28,11.28,0,0,1,11.43,7.91c3.14,8.76-5.13,14.67-8.94,14.67s-66.39,4.6-66.39,4.6-8-.12-8.26-8.25S1104.88,913.13,1104.88,913.13Z"/><g id="deitado"><polygon class="cls-18" points="1160.42 933.05 1158.43 932.25 1166.79 916.51 1168.78 917.31 1160.42 933.05"/><rect class="cls-14" x="1154.58" y="931.76" width="10.34" height="2.55" rx="0.92" ry="0.92"/></g><rect class="cls-18" x="1207.97" y="848.81" width="12.42" height="3.11" rx="1.22" ry="1.22" transform="translate(-198.03 399.78) rotate(-17.31)"/><rect class="cls-18" x="1208.21" y="845.28" width="3.59" height="14.15" rx="1.76" ry="1.76" transform="translate(-200.51 403.93) rotate(-17.53)"/><rect class="cls-14" x="1208.94" y="855.02" width="4.61" height="2.06" rx="0.59" ry="0.59" transform="translate(-199.85 399.17) rotate(-17.31)"/><circle class="cls-14" cx="1221.76" cy="847.68" r="3.41"/></g><g id="Personagem"><g id="Corpo"><path id="tras" class="cls-17" d="M1173.62,815.3l-4.53,3.36c-4.07-5.5-6.93-10.28-5.27-11.54S1169.54,809.79,1173.62,815.3Z"/><path id="tras-2" class="cls-14" d="M1146.78,845.08s2.93,7.89,14.51,11.65,15.8-2.51,8.65-8.61S1152.57,833.87,1146.78,845.08Z"/><path class="cls-14" d="M1161.1,842.78c.1-.15,6.94-24.84,6.94-24.84,2-7-3.6-12.25-10-13.12l-3.56-.52a11.66,11.66,0,0,0-13.13,9.74,3.68,3.68,0,0,0,0,.47,46.06,46.06,0,0,1-2.94,21.39.24.24,0,0,0,0,.12c-1.44,4.62-.85,7,2.39,9.49a18.13,18.13,0,0,0,7.12,3.19C1153.32,848.5,1157.82,846.69,1161.1,842.78Z"/><path class="cls-17" d="M1158.48,809.53c1.8-.38,2.12-1.51,1-3.35h-8.36C1151.12,806.69,1156,810.06,1158.48,809.53Z"/><path class="cls-17" d="M1140.59,828.61s16.55,11,23.66,3l-1.87,6.69s-8,5.75-23.1-4.85Z"/><path class="cls-16" d="M1145.74,866.27s11.74,12,14,62.47l3.85-1.7s1.6-26-11.83-62.34Z"/><path id="frente" class="cls-14" d="M1137.54,839.87s-3.84,8.41,2.28,20.29,14.27,10.3,13.41,0S1150.71,835.65,1137.54,839.87Z"/><path id="frente-2" class="cls-16" d="M1148,821.37c-.85.11,21.66,29.72,73.74,27.32v-4.41s-47.61,6.09-69.22-26.29Z"/><path id="frente-3" class="cls-17" d="M1152.52,817.94l-4.52,3.35c-4.09-5.49-7-10.29-5.29-11.53S1148.43,812.46,1152.52,817.94Z"/><circle class="cls-16" cx="1221.76" cy="847.68" r="3.14"/><circle class="cls-14" cx="1220.82" cy="848.63" r="1.89"/><path id="esquerdo" class="cls-16" d="M1173.62,815.3s15.13,27.37,47.66,29.24l-1.11,2.31c-24-3.42-36.71-8.76-51.08-28.19Z"/><ellipse class="cls-17" cx="1164.09" cy="929.39" rx="5.02" ry="2.69"/><ellipse class="cls-17" cx="1179.52" cy="888.3" rx="2.69" ry="5.02" transform="translate(-286.12 708.77) rotate(-30)"/></g><g id="Cabeça"><path class="cls-20" d="M1133.06,778.91a6.76,6.76,0,1,0,.08,13.52,6.57,6.57,0,0,0,2-.3V779.24A6.45,6.45,0,0,0,1133.06,778.91Z"/><path class="cls-16" d="M1162.67,765.2h-14.16a13.4,13.4,0,0,0-13.41,13.4h0v14.16a13.41,13.41,0,0,0,13.4,13.41h14.17a13.41,13.41,0,0,0,13.41-13.41V778.61A13.41,13.41,0,0,0,1162.67,765.2Z"/><circle class="cls-21" cx="1169.18" cy="788.17" r="2.99"/><ellipse class="cls-22" cx="1155.59" cy="782.34" rx="2.36" ry="4.51"/></g><g id="Cabelo_e_capacete" data-name="Cabelo e capacete"><circle class="cls-18" cx="1134.03" cy="774.26" r="5.79"/><ellipse class="cls-18" cx="1149.37" cy="762.11" rx="18.66" ry="13.76"/><circle class="cls-18" cx="1172.16" cy="768.47" r="9.35"/><circle class="cls-18" cx="1169.37" cy="758.58" r="5.9"/><path class="cls-17" d="M1179.47,757.68c2.68,9.14-7.71,1.28-23.84,8.66-9.05,4.16-10.35,19.16-29.83.4-6.61-6.37,5.47-19,22.44-24S1176.81,748.53,1179.47,757.68Z"/><polygon class="cls-18" points="1142.39 775.87 1139.98 775.87 1139.98 797.09 1142.39 799.5 1142.39 775.87"/><path class="cls-18" d="M1140,803.12a16.54,16.54,0,0,0,2.39,1.59v-2.39l-2.39-1.79Z"/><path class="cls-18" d="M1149.08,806.18l-6.69-6.68v3.42l2.62,2.79A14.26,14.26,0,0,0,1149.08,806.18Z"/><path class="cls-18" d="M1135.1,792.13a18.67,18.67,0,0,0,.52,4.34l4.36,4v-3.37Z"/><polygon class="cls-18" points="1139.98 797.09 1139.98 800.5 1142.39 802.92 1142.39 799.5 1139.98 797.09"/><path class="cls-18" d="M1148,749.47A25.86,25.86,0,0,1,1164,756.4c.58.46,2,1.59,1.77,2.09-.32.66-3.51-.3-4.66-.64a41.61,41.61,0,0,1-9.83-4.43C1147.91,750.86,1147,749.69,1148,749.47Z"/><path class="cls-18" d="M1159.66,745.25a23.64,23.64,0,0,1,11.57,9.27c.37.49,1.28,1.72,1,2s-2.84-1.13-3.71-1.69a37.56,37.56,0,0,1-7.1-5.84C1159.28,746.25,1158.75,745.14,1159.66,745.25Z"/></g></g></g></g></g></g></g></svg>