<svg xmlns="http://www.w3.org/2000/svg" viewBox="0 0 3754.04 1125.72"><defs><style>.cls-1{isolation:isolate;}.cls-2{fill:#2f4858;}.cls-3{fill:#15454a;}.cls-4{fill:#186a71;}.cls-5{fill:#ddeed5;}.cls-6{fill:#1e7b73;}.cls-7{fill:#255968;}.cls-8{fill:#9fcea9;}.cls-9{fill:#29998b;}.cls-10{fill:#3b8b6b;}.cls-11{fill:#00a26e;}.cls-12{fill:#17454a;}.cls-13{fill:#198a5f;}.cls-14{opacity:0.6;mix-blend-mode:multiply;}.cls-15{fill:#13454a;}.cls-16{fill:#11454a;}.cls-17{fill:#39a0b0;}.cls-18{fill:#2aa18b;}.cls-19{fill:#12454a;}.cls-20{fill:none;stroke:#12454a;stroke-miterlimit:10;}.cls-21{fill:#2e828f;}.cls-22{fill:#1b8974;}.cls-23{fill:#def3fd;}.cls-24{fill:#f15f69;}.cls-25{fill:#ab4f55;}.cls-26{fill:#eb665f;}</style></defs><title>sessão5 inteira</title><g class="cls-1"><g id="Layer_2" data-name="Layer 2"><g id="Sessão_5" data-name="Sessão 5"><rect class="cls-2" x="1779.54" y="878.13" width="3.87" height="25.99" rx="1.94" ry="1.94"/><rect class="cls-2" x="1869.16" y="878.13" width="3.87" height="25.99" rx="1.94" ry="1.94"/><rect class="cls-2" x="1775.66" y="864.63" width="3.87" height="15.9" rx="1.94" ry="1.94"/><rect class="cls-2" x="1873.03" y="865.87" width="3.87" height="14.66" rx="1.94" ry="1.94"/><path class="cls-3" d="M1897.1,868H1754.38c-3.65,0-6.63-19.43-6.63-19.43a6.65,6.65,0,0,1,6.63-6.64H1897.1a6.66,6.66,0,0,1,6.64,6.64S1900.75,868,1897.1,868Z"/><rect class="cls-3" x="1756.89" y="877.64" width="137.71" height="10.81" rx="5.4" ry="5.4"/><rect class="cls-4" x="355.58" y="764.51" width="259.07" height="238.1" rx="12" ry="12" transform="translate(970.22 1767.12) rotate(-180)"/><rect class="cls-5" x="556.21" y="821.01" width="36.94" height="39.18"/><rect class="cls-5" x="514.04" y="821.01" width="36.94" height="39.18"/><rect class="cls-5" x="471.86" y="821.01" width="36.94" height="39.18"/><rect class="cls-5" x="556.21" y="865.43" width="36.94" height="39.18"/><rect class="cls-5" x="514.04" y="865.43" width="36.94" height="39.18"/><rect class="cls-5" x="471.86" y="865.43" width="36.94" height="39.18"/><path class="cls-6" d="M388.86,724.82H582.63a9,9,0,0,1,9,9l38.93,40.5a9,9,0,0,1-9,9H348.66a9,9,0,0,1-9-9l40.2-40.5A9,9,0,0,1,388.86,724.82Z"/><rect class="cls-7" x="355.58" y="783.29" width="259.07" height="9.17" transform="translate(970.22 1575.75) rotate(-180)"/><rect class="cls-8" x="416.42" y="754.06" width="135.89" height="38.4" rx="12" ry="12" transform="translate(968.73 1546.52) rotate(-180)"/><rect class="cls-4" y="434.84" width="362.87" height="567.77" rx="12" ry="12"/><rect class="cls-7" x="183.14" y="773.97" width="172" height="150.92" rx="19.87" ry="19.87"/><rect class="cls-5" x="273.58" y="790.94" width="34.16" height="36.24" rx="3.26" ry="3.26"/><rect class="cls-5" x="312.59" y="790.94" width="34.16" height="36.24" rx="3.26" ry="3.26"/><rect class="cls-5" x="190.49" y="790.94" width="34.16" height="36.24" rx="3.26" ry="3.26"/><rect class="cls-5" x="229.5" y="790.94" width="34.16" height="36.24" rx="3.26" ry="3.26"/><rect class="cls-5" x="190.49" y="836.39" width="73.16" height="73.16" rx="12" ry="12"/><rect class="cls-5" x="273.16" y="836.39" width="73.16" height="73.16" rx="12" ry="12"/><rect class="cls-7" x="44.28" y="787.14" width="96" height="202.32" rx="16.97" ry="16.97"/><path class="cls-5" d="M96.56,923.69H88.9c-14.73,0-27.35-5-32.65-12.05v48c0,3.77,5.4,6.85,12,6.85h48.06c6.6,0,12-3.08,12-6.85V912.74C122.57,919.22,110.51,923.69,96.56,923.69Z"/><path class="cls-5" d="M95.36,796.81H87.7a35.33,35.33,0,0,0-32.64,21.12v58.92A35.33,35.33,0,0,0,87.7,898h7.66a35.41,35.41,0,0,0,31.75-19.2V816A35.42,35.42,0,0,0,95.36,796.81Z"/><polygon class="cls-9" points="33.74 743.24 26.2 759.05 350.67 759.05 343.14 743.24 33.74 743.24"/><path class="cls-6" d="M301,759H25.86v14.61c0,6,5.6,10.94,12.51,10.94s12.51-4.9,12.51-10.94v0c0,6,5.59,10.93,12.5,10.93s12.51-4.89,12.51-10.93h0c0,6,5.6,10.93,12.5,10.93s12.51-4.89,12.51-10.93v0c0,6,5.6,10.93,12.5,10.93s12.51-4.89,12.51-10.93h0c0,6,5.6,10.93,12.51,10.93s12.5-4.89,12.5-10.93v0c0,6,5.6,10.93,12.51,10.93s12.5-4.89,12.5-10.93h0c0,6,5.6,10.93,12.51,10.93S201,779.65,201,773.61v0c0,6,5.59,10.94,12.5,10.94S226,779.62,226,773.58v0c0,6,5.6,10.93,12.5,10.93S251,779.64,251,773.6v0c0,6,5.6,10.94,12.5,10.94S276,779.61,276,773.57h0c0,6,5.6,10.94,12.5,10.94S301,779.62,301,773.58v0c0,6,5.6,10.93,12.51,10.93S326,779.6,326,773.56h0c0,6,5.6,10.94,12.51,10.94s12.5-4.9,12.5-10.94V759H301Z"/><rect class="cls-5" x="92.66" y="495.66" width="177.56" height="119.08" rx="12" ry="12"/><path class="cls-4" d="M185.14,371.9,0,434.79c0,3.6,5.4,6.53,12,6.53H350.87c6.6,0,12-2.93,12-6.53Z"/><rect class="cls-7" x="56.25" y="612.97" width="249.62" height="58.84" rx="12" ry="12"/><path class="cls-10" d="M3561.28,870.83S3489.12,557.59,3339,590.21c0,0-39.94-11.13-92.66,69s-164.1,151-164.1,151-102.8,17.52-108.34,87.61Z"/><path class="cls-7" d="M3098.38,989s-21.07-262.77,84.92-466c95.17-182.5,313.75-309,390.08-289.09l161.32-2.71v894.38l-466.48.14Z"/><path class="cls-2" d="M3104.38,999.33s-2-438.94,82.9-374.15,80.29,500.54,80.29,500.54Z"/><rect class="cls-9" x="3366.08" width="44.52" height="407.82" rx="12" ry="12"/><rect class="cls-9" x="3388.34" y="122.9" width="364.96" height="33" rx="12" ry="12"/><rect class="cls-9" x="3389.09" y="40.4" width="364.96" height="33" rx="12" ry="12"/><path class="cls-11" d="M2858.42,898.17l-.05,0c-2.28,1.53-6.62,1.42-10.45.42,1.27,4,1.42,7.79-1.7,9.89a8,8,0,0,1-1.57.8c-4.08,1.56-10.62.88-15.87-.91a31.37,31.37,0,0,1-3.37,7c-1.32,3.39-3.32,6.06-6,7-5.44,1.89-12.13-3.85-16-10.19-5.41,3.46-12.75,5.93-17,4.39-3.48-1.28-4.13-5.06-3.72-9.21-3.53,1.91-7.73,3.08-10.27,2.15-2.16-.78-2.76-2.95-2.66-5.46a29.37,29.37,0,0,1,1.28-6.68,36.37,36.37,0,0,1-3.52-13.76c-.84-13.31,4.9-24.44,12.83-24.87a9.57,9.57,0,0,1,5.35,1.38,36.92,36.92,0,0,1,5.06-15.55c2.74-4.3,6.38-7,10.5-7.2,5.72-.3,11.1,4.17,14.82,11.36a17.53,17.53,0,0,1,11.89-5.83c9.53-.52,18.07,7.37,21.07,18.53,5,1.18,9,6.59,9.43,13.3a16.43,16.43,0,0,1-2.24,9.61C2858.23,888,2862.55,895.31,2858.42,898.17Z"/><polygon class="cls-12" points="2806.15 922.91 2795.5 903.47 2797.3 902.38 2807.95 921.82 2806.15 922.91"/><rect class="cls-12" x="2810.64" y="896.73" width="2.08" height="25.63"/><polygon class="cls-12" points="2822.24 925.5 2831.56 902.5 2833.48 903.35 2827.05 919.23 2841.18 908.66 2844.09 909.16 2822.24 925.5"/><polygon class="cls-12" points="2815.5 926.13 2830.78 907.6 2828.98 907.68 2814.09 924.56 2815.5 926.13"/><rect class="cls-12" x="2801.31" y="910.69" width="25.63" height="2.08" transform="translate(1116.08 3333.97) rotate(-72.92)"/><polygon class="cls-12" points="2799.35 923.89 2797.2 899.16 2795.12 899.41 2796.6 916.47 2786.2 902.22 2784.52 903.57 2799.35 923.89"/><path class="cls-13" d="M2846.7,882.64c-6.41-10.36-17-15.44-23.61-11.34A9.56,9.56,0,0,0,2821,873l-.3-.2c1-5.31-.46-12.18-4.39-18.53-6.41-10.36-17-15.44-23.61-11.34a9.23,9.23,0,0,0-1.95,1.63v0a.16.16,0,0,0,0,.07,11.83,11.83,0,0,0-2.69,5.48,42.87,42.87,0,0,0-2.33,10,9.57,9.57,0,0,0-5.35-1.38c-7.93.43-13.67,11.56-12.83,24.87a36.37,36.37,0,0,0,3.52,13.76,29.37,29.37,0,0,0-1.28,6.68c-.1,2.51.5,4.67,2.66,5.46,2.54.93,6.74-.24,10.27-2.15-.41,4.15.24,7.93,3.72,9.21,4.21,1.54,11.55-.93,17-4.39,3.88,6.34,10.57,12.08,16,10.19,2.69-.94,4.69-3.61,6-7a31.59,31.59,0,0,0,3.12-6.3,7.3,7.3,0,0,0,.87-.47,32.15,32.15,0,0,0,10.4,1.56,10.14,10.14,0,0,0,6.51-1.35C2852.93,904.72,2853.11,893,2846.7,882.64Z"/><path class="cls-11" d="M2357.1,869.61l0,0c-2.28,1.54-6.61,1.42-10.45.43,1.27,3.95,1.43,7.79-1.7,9.88a8.17,8.17,0,0,1-1.56.8c-4.08,1.56-10.62.88-15.87-.9a32.29,32.29,0,0,1-3.38,7c-1.32,3.38-3.31,6.06-6,7-5.44,1.88-12.13-3.85-16-10.2-5.4,3.46-12.74,5.93-17,4.39-3.49-1.28-4.14-5-3.73-9.2-3.52,1.9-7.72,3.08-10.27,2.15-2.15-.79-2.75-3-2.65-5.47a29.27,29.27,0,0,1,1.27-6.67,36.23,36.23,0,0,1-3.51-13.77c-.84-13.3,4.9-24.44,12.82-24.87a9.58,9.58,0,0,1,5.35,1.39,37.05,37.05,0,0,1,5.06-15.56c2.75-4.3,6.38-7,10.51-7.19,5.71-.31,11.1,4.17,14.81,11.36a17.56,17.56,0,0,1,11.89-5.84c9.53-.52,18.07,7.38,21.07,18.53,5,1.18,9,6.6,9.43,13.31a16.43,16.43,0,0,1-2.24,9.61C2356.91,859.41,2361.23,866.76,2357.1,869.61Z"/><polygon class="cls-12" points="2304.83 894.35 2294.18 874.91 2295.99 873.82 2306.64 893.27 2304.83 894.35"/><rect class="cls-12" x="2309.32" y="868.18" width="2.08" height="25.63"/><polygon class="cls-12" points="2320.93 896.95 2330.24 873.94 2332.16 874.79 2325.73 890.67 2339.86 880.11 2342.77 880.61 2320.93 896.95"/><polygon class="cls-12" points="2314.18 897.58 2329.47 879.05 2327.67 879.13 2312.77 896.01 2314.18 897.58"/><rect class="cls-12" x="2300" y="882.14" width="25.63" height="2.08" transform="matrix(0.29, -0.96, 0.96, 0.29, 789.3, 2834.59)"/><polygon class="cls-12" points="2298.03 895.33 2295.89 870.6 2293.8 870.85 2295.28 887.92 2284.88 873.67 2283.2 875.01 2298.03 895.33"/><path class="cls-13" d="M2345.38,854.08c-6.41-10.36-17-15.44-23.61-11.34a9.28,9.28,0,0,0-2.05,1.75l-.31-.21c1-5.31-.46-12.17-4.39-18.53-6.41-10.36-17-15.43-23.61-11.33a9.18,9.18,0,0,0-1.94,1.62v0a.43.43,0,0,1,0,.07,12,12,0,0,0-2.69,5.49,42.75,42.75,0,0,0-2.33,10,9.58,9.58,0,0,0-5.35-1.39c-7.92.43-13.66,11.57-12.82,24.87a36.23,36.23,0,0,0,3.51,13.77,29.27,29.27,0,0,0-1.27,6.67c-.1,2.51.5,4.68,2.65,5.47,2.55.93,6.75-.25,10.27-2.15-.41,4.15.24,7.92,3.73,9.2,4.21,1.54,11.55-.93,17-4.39,3.88,6.35,10.57,12.08,16,10.2,2.7-.94,4.69-3.62,6-7a31.59,31.59,0,0,0,3.12-6.3c.3-.14.59-.3.88-.47a32.66,32.66,0,0,0,10.4,1.56,10.19,10.19,0,0,0,6.5-1.35C2351.62,876.17,2351.79,864.44,2345.38,854.08Z"/><path class="cls-11" d="M1329.81,942.55l0,0c-2.28,1.54-6.62,1.42-10.45.43,1.27,3.94,1.42,7.78-1.7,9.88a8,8,0,0,1-1.57.8c-4.08,1.56-10.62.88-15.87-.9a31.51,31.51,0,0,1-3.37,7c-1.32,3.39-3.32,6.06-6,7-5.44,1.89-12.13-3.85-16-10.19-5.4,3.46-12.75,5.93-17,4.39-3.48-1.28-4.13-5.05-3.72-9.21-3.53,1.91-7.73,3.08-10.27,2.16-2.16-.79-2.76-3-2.66-5.47a29.37,29.37,0,0,1,1.28-6.68,36.32,36.32,0,0,1-3.52-13.76c-.84-13.31,4.9-24.44,12.83-24.87a9.5,9.5,0,0,1,5.35,1.39,36.91,36.91,0,0,1,5.06-15.56c2.74-4.3,6.38-7,10.5-7.19,5.72-.31,11.1,4.16,14.82,11.35a17.53,17.53,0,0,1,11.89-5.83c9.53-.52,18.07,7.38,21.07,18.53,5,1.18,9,6.6,9.43,13.31a16.43,16.43,0,0,1-2.24,9.61C1329.62,932.35,1333.94,939.69,1329.81,942.55Z"/><polygon class="cls-12" points="1277.54 967.29 1266.89 947.85 1268.69 946.76 1279.35 966.2 1277.54 967.29"/><rect class="cls-12" x="1282.03" y="941.11" width="2.08" height="25.63"/><polygon class="cls-12" points="1293.63 969.89 1302.95 946.88 1304.87 947.73 1298.44 963.61 1312.57 953.04 1315.48 953.54 1293.63 969.89"/><polygon class="cls-12" points="1286.89 970.51 1302.17 951.98 1300.37 952.06 1285.48 968.95 1286.89 970.51"/><rect class="cls-12" x="1272.71" y="955.08" width="25.63" height="2.08" transform="translate(-5.99 1904.12) rotate(-72.92)"/><polygon class="cls-12" points="1270.74 968.27 1268.59 943.54 1266.51 943.79 1267.99 960.86 1257.59 946.61 1255.91 947.95 1270.74 968.27"/><path class="cls-13" d="M1318.09,927c-6.41-10.36-17-15.44-23.61-11.34a9.27,9.27,0,0,0-2,1.74l-.31-.2c1-5.31-.46-12.17-4.39-18.53-6.41-10.36-17-15.44-23.61-11.34a9.54,9.54,0,0,0-1.95,1.63v0a.25.25,0,0,0,0,.07,11.88,11.88,0,0,0-2.69,5.48,42.83,42.83,0,0,0-2.33,10,9.5,9.5,0,0,0-5.35-1.39c-7.93.43-13.67,11.56-12.83,24.87a36.32,36.32,0,0,0,3.52,13.76,29.37,29.37,0,0,0-1.28,6.68c-.1,2.51.5,4.68,2.66,5.47,2.54.92,6.74-.25,10.27-2.16-.41,4.16.24,7.93,3.72,9.21,4.21,1.54,11.56-.93,17-4.39,3.88,6.34,10.57,12.08,16,10.19,2.69-.94,4.69-3.61,6-7a31.32,31.32,0,0,0,3.12-6.3c.3-.14.59-.29.88-.46a32.35,32.35,0,0,0,10.39,1.55,10.14,10.14,0,0,0,6.51-1.35C1324.32,949.1,1324.5,937.38,1318.09,927Z"/><path class="cls-11" d="M1641.31,514.81A251.43,251.43,0,0,0,1599,393.43l-42.5-48.36a255,255,0,0,0-45.39-31.76,253.72,253.72,0,0,0-218.17-24A254.88,254.88,0,0,0,1263.79,758c18.17,11,103.89,34.51,67.81,23.39a16,16,0,0,0,3.81.69,651.61,651.61,0,0,0,68.5,4,15.46,15.46,0,0,0,2.15-.18c22.77-2.77,45.12-9.3,67.46-14.11a251.83,251.83,0,0,0,167.79-257Z"/><g class="cls-14"><path class="cls-11" d="M1335.41,782.12c4.68.52,9.35,1,14,1.37-76.06-53.64-126.51-142.08-126.51-240.55,0-117.21,71.47-220.22,172.53-267.21a253.11,253.11,0,0,0-102.56,13.6A254.88,254.88,0,0,0,1263.79,758c18.17,11,103.89,34.51,67.81,23.39A16,16,0,0,0,1335.41,782.12Z"/></g><line class="cls-11" x1="1382.27" y1="921.46" x2="1382.27" y2="604.37"/><polygon class="cls-15" points="1370.27 921.46 1380.27 604.37 1384.27 604.37 1394.27 921.46 1370.27 921.46"/><line class="cls-11" x1="1387.28" y1="713.66" x2="1437.12" y2="663.82"/><polygon class="cls-15" points="1383.74 710.13 1436.53 663.23 1437.71 664.4 1390.81 717.2 1383.74 710.13"/><line class="cls-11" x1="1387.28" y1="783.42" x2="1337.43" y2="733.57"/><polygon class="cls-15" points="1383.74 786.95 1336.84 734.16 1338.02 732.99 1390.81 779.88 1383.74 786.95"/><g id="Multidao_2" data-name="Multidao 2"><g id="Layer_2-2" data-name="Layer 2"><g id="Ciclista_1" data-name="Ciclista 1"><g id="Bike"><g id="trás"><circle class="cls-16" cx="2491.92" cy="990.86" r="35.62"/><circle class="cls-6" cx="2491.25" cy="990.86" r="31.34"/></g><g id="rodas"><circle class="cls-16" cx="2364.52" cy="990.8" r="35.62"/><circle class="cls-6" cx="2364.52" cy="990.8" r="31.34"/></g><path id="esquerd" class="cls-17" d="M2424.17,922.85s-26.29,4.45-27,14.69c-.64,8.66,19.83,17.65,18.9,17.71l3.8-1.34c-6.79-3.3-41.38-21.44,7.27-26.63Z"/><rect class="cls-18" x="2464.45" y="934.07" width="5.19" height="65.17" transform="translate(39.05 2027.59) rotate(-45)"/><rect class="cls-18" x="2453.72" y="951.39" width="5.19" height="65.17" transform="translate(1156.12 3288.57) rotate(-82.4)"/><g id="em_pé" data-name="em pé"><polygon class="cls-19" points="2422.19 976 2424.17 975.18 2417.51 963.02 2415.53 963.84 2422.19 976"/><rect class="cls-16" x="2411.85" y="961.29" width="10.34" height="2.55" rx="0.92" ry="0.92"/></g><polygon class="cls-18" points="2423.86 980.12 2427.12 976.46 2386.21 930.37 2382.95 934.04 2423.86 980.12"/><rect class="cls-18" x="2410.32" y="946.37" width="65.17" height="5.19" transform="translate(638.6 2849.71) rotate(-67.72)"/><polygon class="cls-18" points="2444.09 947.25 2444.7 942.11 2387.36 933.49 2386.75 938.63 2444.09 947.25"/><rect class="cls-18" x="2344" y="955.2" width="63.02" height="5.46" transform="matrix(0.3, -0.95, 0.95, 0.3, 754.15, 2940.82)"/><circle id="trás-2" class="cls-16" cx="2491.92" cy="991.54" r="8.25"/><circle id="bola" class="cls-16" cx="2364.52" cy="991.25" r="5.28"/><path class="cls-16" d="M2431.15,923.4c-2.54,2.82.48,3.09,16.92,5.92,9.32.85,16.93-2.65,16.93-5.92s-7.57-5.92-16.93-5.92S2433.29,921,2431.15,923.4Z"/><rect class="cls-19" x="2436.04" y="941.03" width="16.94" height="8.12" rx="3.19" ry="3.19" transform="translate(643.18 2848.78) rotate(-67.72)"/><rect class="cls-19" x="2371.07" y="932.9" width="21.93" height="8.12" rx="3.19" ry="3.19" transform="matrix(0.3, -0.95, 0.95, 0.3, 778.76, 2932.33)"/><circle class="cls-16" cx="2427.43" cy="983.98" r="11.37"/><circle class="cls-19" cx="2427.43" cy="983.98" r="3.83"/><path class="cls-20" d="M2491.92,982.75,2428,972.61a11.28,11.28,0,0,0-11.43,7.91c-3.13,8.76,5.13,14.67,8.94,14.66s66.39,4.61,66.39,4.61,8-.12,8.26-8.25S2491.92,982.75,2491.92,982.75Z"/><g id="deitado"><polygon class="cls-19" points="2436.38 1002.66 2438.37 1001.87 2430.01 986.13 2428.02 986.92 2436.38 1002.66"/><rect class="cls-16" x="2431.88" y="1001.38" width="10.34" height="2.55" rx="0.92" ry="0.92"/></g><rect class="cls-19" x="2381.06" y="913.78" width="3.11" height="12.42" rx="1.22" ry="1.22" transform="matrix(0.3, -0.95, 0.95, 0.3, 795.37, 2920.96)"/><rect class="cls-19" x="2379.72" y="920.17" width="14.15" height="3.59" rx="1.76" ry="1.76" transform="translate(788.88 2920.35) rotate(-72.47)"/><rect class="cls-16" x="2384.53" y="923.36" width="2.06" height="4.61" rx="0.59" ry="0.59" transform="translate(792.02 2927.76) rotate(-72.69)"/><circle class="cls-16" cx="2375.04" cy="917.3" r="3.41"/></g><g id="Personagem"><g id="Corpo"><path id="tras" class="cls-18" d="M2423.18,884.91l4.53,3.36c4.07-5.49,6.93-10.27,5.27-11.53S2427.26,879.41,2423.18,884.91Z"/><path id="tras-2" class="cls-16" d="M2450,914.7s-2.92,7.88-14.51,11.64-15.8-2.51-8.65-8.6S2444.24,903.49,2450,914.7Z"/><path class="cls-16" d="M2435.7,912.4c-.1-.15-6.94-24.84-6.94-24.84-2-7,3.6-12.25,10-13.12l3.56-.53a11.67,11.67,0,0,1,13.13,9.74,3.68,3.68,0,0,1,0,.47,46,46,0,0,0,2.94,21.39.28.28,0,0,1,0,.13c1.44,4.62.85,7-2.39,9.49a18.12,18.12,0,0,1-7.12,3.18C2443.48,918.11,2439,916.31,2435.7,912.4Z"/><path class="cls-18" d="M2438.32,879.15c-1.8-.39-2.12-1.52-1-3.35h8.37C2445.68,876.31,2440.84,879.68,2438.32,879.15Z"/><path class="cls-18" d="M2456.21,898.23s-16.55,11-23.66,3l1.87,6.68s8,5.76,23.1-4.85Z"/><path class="cls-17" d="M2451.06,935.89s-11.74,12-14,62.47l-3.85-1.7s-1.6-26,11.83-62.34Z"/><path id="frente" class="cls-16" d="M2459.26,909.49s3.84,8.41-2.28,20.29-14.27,10.3-13.41,0S2446.09,905.27,2459.26,909.49Z"/><path id="frente-2" class="cls-17" d="M2448.78,891c.85.1-21.66,29.72-73.74,27.32v-4.42s47.61,6.1,69.22-26.28Z"/><path id="frente-3" class="cls-18" d="M2444.28,887.56l4.52,3.35c4.09-5.49,6.95-10.29,5.29-11.53S2448.37,882.08,2444.28,887.56Z"/><circle class="cls-17" cx="2375.04" cy="917.3" r="3.14"/><circle class="cls-16" cx="2375.98" cy="918.25" r="1.89"/><path id="esquerdo" class="cls-17" d="M2423.18,884.91s-15.13,27.38-47.66,29.25l1.11,2.31c24-3.42,36.71-8.77,51.08-28.2Z"/><ellipse class="cls-18" cx="2432.71" cy="999.01" rx="5.02" ry="2.69"/><ellipse class="cls-18" cx="2417.28" cy="957.92" rx="5.02" ry="2.69" transform="translate(379.06 2572.38) rotate(-60)"/></g><g id="Cabeça"><path class="cls-21" d="M2463.74,848.53a6.76,6.76,0,1,1-.07,13.52,6.58,6.58,0,0,1-2-.3V848.86A6.45,6.45,0,0,1,2463.74,848.53Z"/><path class="cls-17" d="M2434.13,834.82h14.16a13.39,13.39,0,0,1,13.41,13.39h0v14.17a13.4,13.4,0,0,1-13.4,13.4h-14.17a13.4,13.4,0,0,1-13.41-13.4V848.22A13.4,13.4,0,0,1,2434.13,834.82Z"/><circle class="cls-22" cx="2427.62" cy="857.79" r="2.99"/><ellipse class="cls-23" cx="2441.21" cy="851.96" rx="2.36" ry="4.51"/></g><g id="Cabelo_e_capacete" data-name="Cabelo e capacete"><path class="cls-18" d="M2420,837.05c-2.54,9.15,7.3,1.28,22.56,8.66,8.57,4.16,9.8,19.16,28.23.41,6.26-6.38-5.17-19-21.24-24S2422.53,827.91,2420,837.05Z"/><polygon class="cls-19" points="2454.41 854.8 2456.82 854.8 2456.82 866.7 2454.41 869.12 2454.41 854.8"/><path class="cls-19" d="M2456.82,872.73a14.87,14.87,0,0,1-2.39,1.6v-2.39l2.39-1.8Z"/><path class="cls-19" d="M2447.72,875.79l6.69-6.67v3.41l-2.62,2.8A13.91,13.91,0,0,1,2447.72,875.79Z"/><path class="cls-19" d="M2461.7,861.75a18.67,18.67,0,0,1-.52,4.34l-4.36,4V866.7Z"/><polygon class="cls-19" points="2456.82 866.7 2456.82 870.12 2454.41 872.53 2454.41 869.12 2456.82 866.7"/><path class="cls-19" d="M2451.58,828.85a25.75,25.75,0,0,0-15.93,6.92c-.59.46-2,1.59-1.77,2.09.32.66,3.5-.3,4.66-.64a41.32,41.32,0,0,0,9.82-4.43C2451.7,830.23,2452.61,829.06,2451.58,828.85Z"/></g></g></g></g><path class="cls-19" d="M2437.24,826.76a23.64,23.64,0,0,0-11.57,9.27c-.36.49-1.28,1.72-1,2s2.84-1.13,3.71-1.69a37.56,37.56,0,0,0,7.1-5.84C2437.62,827.76,2438.15,826.65,2437.24,826.76Z"/><g id="Layer_2-3" data-name="Layer 2"><g id="Ciclista_1-2" data-name="Ciclista 1"><g id="Bike-2" data-name="Bike"><g id="trás-2-2" data-name="trás"><circle class="cls-16" cx="2695.84" cy="990.86" r="35.62"/><circle class="cls-6" cx="2695.17" cy="990.86" r="31.34"/></g><g id="rodas-2" data-name="rodas"><circle class="cls-16" cx="2568.45" cy="990.8" r="35.62"/><circle class="cls-6" cx="2568.45" cy="990.8" r="31.34"/></g><path id="esquerd-2" data-name="esquerd" class="cls-17" d="M2628.09,922.85s-26.28,4.45-27,14.69c-.63,8.66,19.84,17.65,18.91,17.71l3.8-1.34c-6.8-3.3-41.39-21.44,7.26-26.63Z"/><rect class="cls-18" x="2668.37" y="934.07" width="5.19" height="65.17" transform="translate(98.78 2171.79) rotate(-45)"/><rect class="cls-18" x="2657.65" y="951.39" width="5.19" height="65.17" transform="translate(1333.08 3490.71) rotate(-82.4)"/><g id="em_pé-2" data-name="em pé"><polygon class="cls-19" points="2626.12 976 2628.09 975.18 2621.43 963.02 2619.46 963.84 2626.12 976"/><rect class="cls-16" x="2615.77" y="961.29" width="10.34" height="2.55" rx="0.92" ry="0.92"/></g><polygon class="cls-18" points="2627.78 980.12 2631.04 976.46 2590.14 930.37 2586.88 934.04 2627.78 980.12"/><rect class="cls-18" x="2614.25" y="946.37" width="65.17" height="5.19" transform="translate(765.21 3038.41) rotate(-67.72)"/><polygon class="cls-18" points="2648.02 947.25 2648.63 942.11 2591.28 933.49 2590.68 938.63 2648.02 947.25"/><rect class="cls-18" x="2547.92" y="955.2" width="63.02" height="5.46" transform="matrix(0.3, -0.95, 0.95, 0.3, 897.4, 3135.51)"/><circle id="trás-2-3" data-name="trás-2" class="cls-16" cx="2695.84" cy="991.54" r="8.25"/><circle id="bola-2" data-name="bola" class="cls-16" cx="2568.45" cy="991.25" r="5.28"/><path class="cls-16" d="M2635.07,923.4c-2.54,2.82.49,3.09,16.93,5.92,9.31.85,16.93-2.65,16.93-5.92s-7.58-5.92-16.93-5.92S2637.22,921,2635.07,923.4Z"/><rect class="cls-19" x="2639.97" y="941.03" width="16.94" height="8.12" rx="3.19" ry="3.19" transform="translate(769.79 3037.48) rotate(-67.72)"/><rect class="cls-19" x="2575" y="932.9" width="21.93" height="8.12" rx="3.19" ry="3.19" transform="translate(922.01 3127.02) rotate(-72.69)"/><circle class="cls-16" cx="2631.35" cy="983.98" r="11.37"/><circle class="cls-19" cx="2631.35" cy="983.98" r="3.83"/><path class="cls-20" d="M2695.84,982.75l-63.9-10.14a11.28,11.28,0,0,0-11.42,7.91c-3.14,8.76,5.12,14.67,8.94,14.66s66.38,4.61,66.38,4.61,8-.12,8.26-8.25S2695.84,982.75,2695.84,982.75Z"/><g id="deitado-2" data-name="deitado"><polygon class="cls-19" points="2640.31 1002.66 2642.3 1001.87 2633.93 986.13 2631.94 986.92 2640.31 1002.66"/><rect class="cls-16" x="2635.81" y="1001.38" width="10.34" height="2.55" rx="0.92" ry="0.92"/></g><rect class="cls-19" x="2584.99" y="913.78" width="3.11" height="12.42" rx="1.22" ry="1.22" transform="translate(938.62 3115.65) rotate(-72.69)"/><rect class="cls-19" x="2583.65" y="920.17" width="14.15" height="3.59" rx="1.76" ry="1.76" transform="translate(931.4 3114.8) rotate(-72.47)"/><rect class="cls-16" x="2588.45" y="923.36" width="2.06" height="4.61" rx="0.59" ry="0.59" transform="translate(935.27 3122.45) rotate(-72.69)"/><circle class="cls-16" cx="2578.96" cy="917.3" r="3.41"/></g><g id="Personagem-2" data-name="Personagem"><g id="Corpo-2" data-name="Corpo"><path id="tras-2-2" data-name="tras" class="cls-18" d="M2627.11,884.91l4.52,3.36c4.07-5.49,6.94-10.27,5.27-11.53S2631.19,879.41,2627.11,884.91Z"/><path id="tras-2-3" data-name="tras-2" class="cls-16" d="M2653.94,914.7s-2.92,7.88-14.5,11.64-15.81-2.51-8.65-8.6S2648.16,903.49,2653.94,914.7Z"/><path class="cls-16" d="M2639.62,912.4c-.09-.15-6.94-24.84-6.94-24.84-2-7,3.6-12.25,10-13.12l3.56-.53a11.66,11.66,0,0,1,13.13,9.74,1.85,1.85,0,0,1,0,.47,46.16,46.16,0,0,0,3,21.39v.13c1.43,4.62.84,7-2.39,9.49a18.12,18.12,0,0,1-7.12,3.18C2647.4,918.11,2642.9,916.31,2639.62,912.4Z"/><path class="cls-18" d="M2642.24,879.15c-1.79-.39-2.12-1.52-1-3.35h8.36C2649.6,876.31,2644.77,879.68,2642.24,879.15Z"/><path class="cls-18" d="M2660.13,898.23s-16.54,11-23.66,3l1.88,6.68s8,5.76,23.1-4.85Z"/><path class="cls-17" d="M2655,935.89s-11.74,12-14,62.47l-3.86-1.7s-1.59-26,11.84-62.34Z"/><path id="frente-2-2" data-name="frente" class="cls-16" d="M2663.18,909.49s3.84,8.41-2.27,20.29-14.27,10.3-13.41,0S2650,905.27,2663.18,909.49Z"/><path id="frente-2-3" data-name="frente-2" class="cls-17" d="M2652.71,891c.84.1-21.67,29.72-73.75,27.32v-4.42s47.61,6.1,69.22-26.28Z"/><path id="frente-3-2" data-name="frente-3" class="cls-18" d="M2648.21,887.56l4.51,3.35c4.1-5.49,7-10.29,5.29-11.53S2652.29,882.08,2648.21,887.56Z"/><circle class="cls-17" cx="2578.96" cy="917.3" r="3.14"/><circle class="cls-16" cx="2579.91" cy="918.25" r="1.89"/><path id="esquerdo-2" data-name="esquerdo" class="cls-17" d="M2627.11,884.91s-15.14,27.38-47.66,29.25l1.1,2.31c24-3.42,36.71-8.77,51.08-28.2Z"/><ellipse class="cls-18" cx="2636.63" cy="999.01" rx="5.02" ry="2.69"/><ellipse class="cls-18" cx="2621.2" cy="957.92" rx="5.02" ry="2.69" transform="translate(481.02 2748.99) rotate(-60)"/></g><g id="Cabeça-2" data-name="Cabeça"><path class="cls-21" d="M2667.67,848.53a6.76,6.76,0,0,1-.08,13.52,6.52,6.52,0,0,1-2-.3V848.86A6.45,6.45,0,0,1,2667.67,848.53Z"/><path class="cls-17" d="M2638.05,834.82h14.16a13.4,13.4,0,0,1,13.42,13.39h0v14.17a13.4,13.4,0,0,1-13.41,13.4h-14.17a13.4,13.4,0,0,1-13.4-13.4V848.22A13.4,13.4,0,0,1,2638.05,834.82Z"/><circle class="cls-22" cx="2631.54" cy="857.79" r="2.99"/><ellipse class="cls-23" cx="2645.13" cy="851.96" rx="2.36" ry="4.51"/></g><g id="Cabelo_e_capacete-2" data-name="Cabelo e capacete"><path class="cls-18" d="M2623.93,837.05c-2.54,9.15,7.3,1.28,22.56,8.66,8.58,4.16,9.8,19.16,28.24.41,6.26-6.38-5.17-19-21.24-24S2626.45,827.91,2623.93,837.05Z"/><polygon class="cls-19" points="2658.33 854.8 2660.75 854.8 2660.75 866.7 2658.33 869.12 2658.33 854.8"/><path class="cls-19" d="M2660.75,872.73a15.81,15.81,0,0,1-2.39,1.6v-2.39l2.39-1.8Z"/><path class="cls-19" d="M2651.65,875.79l6.68-6.67v3.41l-2.61,2.8A14,14,0,0,1,2651.65,875.79Z"/><path class="cls-19" d="M2665.63,861.75a18.68,18.68,0,0,1-.53,4.34l-4.35,4V866.7Z"/><polygon class="cls-19" points="2660.75 866.7 2660.75 870.12 2658.33 872.53 2658.33 869.12 2660.75 866.7"/><path class="cls-19" d="M2655.5,828.85a25.82,25.82,0,0,0-15.93,6.92c-.58.46-2,1.59-1.77,2.09.32.66,3.51-.3,4.66-.64a41,41,0,0,0,9.82-4.43C2655.62,830.23,2656.54,829.06,2655.5,828.85Z"/></g></g></g></g><path class="cls-19" d="M2641.16,826.76A23.61,23.61,0,0,0,2629.6,836c-.37.49-1.29,1.72-1,2s2.83-1.13,3.71-1.69a37.88,37.88,0,0,0,7.1-5.84C2641.55,827.76,2642.07,826.65,2641.16,826.76Z"/><g id="Layer_2-4" data-name="Layer 2"><g id="Ciclista_1-3" data-name="Ciclista 1"><g id="Bike-3" data-name="Bike"><g id="trás-3" data-name="trás"><circle class="cls-16" cx="2899.02" cy="990.86" r="35.62"/><circle class="cls-6" cx="2898.35" cy="990.86" r="31.34"/></g><g id="rodas-3" data-name="rodas"><circle class="cls-16" cx="2771.62" cy="990.8" r="35.62"/><circle class="cls-6" cx="2771.62" cy="990.8" r="31.34"/></g><path id="esquerd-3" data-name="esquerd" class="cls-17" d="M2831.27,922.85s-26.29,4.45-27,14.69c-.64,8.66,19.84,17.65,18.9,17.71l3.8-1.34c-6.79-3.3-41.38-21.44,7.27-26.63Z"/><rect class="cls-18" x="2871.55" y="934.07" width="5.19" height="65.17" transform="translate(158.29 2315.45) rotate(-45)"/><rect class="cls-18" x="2860.82" y="951.39" width="5.19" height="65.17" transform="translate(1509.38 3692.1) rotate(-82.4)"/><g id="em_pé-3" data-name="em pé"><polygon class="cls-19" points="2829.3 976 2831.27 975.18 2824.61 963.02 2822.64 963.84 2829.3 976"/><rect class="cls-16" x="2818.95" y="961.29" width="10.34" height="2.55" rx="0.92" ry="0.92"/></g><polygon class="cls-18" points="2830.96 980.12 2834.22 976.46 2793.32 930.37 2790.06 934.04 2830.96 980.12"/><rect class="cls-18" x="2817.43" y="946.37" width="65.17" height="5.19" transform="translate(891.36 3226.42) rotate(-67.72)"/><polygon class="cls-18" points="2851.19 947.25 2851.81 942.11 2794.46 933.49 2793.86 938.63 2851.19 947.25"/><rect class="cls-18" x="2751.1" y="955.2" width="63.02" height="5.46" transform="matrix(0.3, -0.95, 0.95, 0.3, 1040.12, 3329.48)"/><circle id="trás-2-4" data-name="trás-2" class="cls-16" cx="2899.02" cy="991.54" r="8.25"/><circle id="bola-3" data-name="bola" class="cls-16" cx="2771.62" cy="991.25" r="5.28"/><path class="cls-16" d="M2838.25,923.4c-2.54,2.82.49,3.09,16.93,5.92,9.31.85,16.92-2.65,16.92-5.92s-7.57-5.92-16.92-5.92S2840.39,921,2838.25,923.4Z"/><rect class="cls-19" x="2843.14" y="941.03" width="16.94" height="8.12" rx="3.19" ry="3.19" transform="translate(895.94 3225.49) rotate(-67.72)"/><rect class="cls-19" x="2778.18" y="932.9" width="21.93" height="8.12" rx="3.19" ry="3.19" transform="translate(1064.74 3320.99) rotate(-72.69)"/><circle class="cls-16" cx="2834.53" cy="983.98" r="11.37"/><circle class="cls-19" cx="2834.53" cy="983.98" r="3.83"/><path class="cls-20" d="M2899,982.75l-63.9-10.14a11.27,11.27,0,0,0-11.42,7.91c-3.14,8.76,5.12,14.67,8.93,14.66s66.39,4.61,66.39,4.61,8-.12,8.26-8.25S2899,982.75,2899,982.75Z"/><g id="deitado-3" data-name="deitado"><polygon class="cls-19" points="2843.48 1002.66 2845.47 1001.87 2837.11 986.13 2835.12 986.92 2843.48 1002.66"/><rect class="cls-16" x="2838.98" y="1001.38" width="10.34" height="2.55" rx="0.92" ry="0.92"/></g><rect class="cls-19" x="2788.16" y="913.78" width="3.11" height="12.42" rx="1.22" ry="1.22" transform="translate(1081.34 3309.63) rotate(-72.69)"/><rect class="cls-19" x="2786.83" y="920.17" width="14.15" height="3.59" rx="1.76" ry="1.76" transform="translate(1073.39 3308.55) rotate(-72.47)"/><rect class="cls-16" x="2791.63" y="923.36" width="2.06" height="4.61" rx="0.59" ry="0.59" transform="translate(1077.99 3316.42) rotate(-72.69)"/><circle class="cls-16" cx="2782.14" cy="917.3" r="3.41"/></g><g id="Personagem-3" data-name="Personagem"><g id="Corpo-3" data-name="Corpo"><path id="tras-3" data-name="tras" class="cls-18" d="M2830.28,884.91l4.53,3.36c4.07-5.49,6.94-10.27,5.27-11.53S2834.36,879.41,2830.28,884.91Z"/><path id="tras-2-4" data-name="tras-2" class="cls-16" d="M2857.12,914.7s-2.92,7.88-14.5,11.64-15.81-2.51-8.66-8.6S2851.34,903.49,2857.12,914.7Z"/><path class="cls-16" d="M2842.8,912.4c-.1-.15-6.94-24.84-6.94-24.84-2-7,3.6-12.25,10-13.12l3.56-.53a11.67,11.67,0,0,1,13.13,9.74,1.85,1.85,0,0,1,0,.47,45.9,45.9,0,0,0,2.95,21.39v.13c1.43,4.62.84,7-2.39,9.49a18.24,18.24,0,0,1-7.12,3.18C2850.58,918.11,2846.08,916.31,2842.8,912.4Z"/><path class="cls-18" d="M2845.42,879.15c-1.79-.39-2.12-1.52-1-3.35h8.37C2852.78,876.31,2847.94,879.68,2845.42,879.15Z"/><path class="cls-18" d="M2863.31,898.23s-16.54,11-23.66,3l1.87,6.68s8,5.76,23.1-4.85Z"/><path class="cls-17" d="M2858.16,935.89s-11.74,12-14,62.47l-3.85-1.7s-1.59-26,11.84-62.34Z"/><path id="frente-3-3" data-name="frente" class="cls-16" d="M2866.36,909.49s3.84,8.41-2.28,20.29-14.26,10.3-13.4,0S2853.19,905.27,2866.36,909.49Z"/><path id="frente-2-4" data-name="frente-2" class="cls-17" d="M2855.89,891c.84.1-21.67,29.72-73.75,27.32v-4.42s47.61,6.1,69.22-26.28Z"/><path id="frente-3-4" data-name="frente-3" class="cls-18" d="M2851.39,887.56l4.51,3.35c4.1-5.49,7-10.29,5.29-11.53S2855.47,882.08,2851.39,887.56Z"/><circle class="cls-17" cx="2782.14" cy="917.3" r="3.14"/><circle class="cls-16" cx="2783.09" cy="918.25" r="1.89"/><path id="esquerdo-3" data-name="esquerdo" class="cls-17" d="M2830.28,884.91s-15.13,27.38-47.66,29.25l1.11,2.31c24-3.42,36.71-8.77,51.08-28.2Z"/><ellipse class="cls-18" cx="2839.81" cy="999.01" rx="5.02" ry="2.69"/><ellipse class="cls-18" cx="2824.38" cy="957.92" rx="5.02" ry="2.69" transform="translate(582.61 2924.94) rotate(-60)"/></g><g id="Cabeça-3" data-name="Cabeça"><path class="cls-21" d="M2870.85,848.53a6.76,6.76,0,1,1-.08,13.52,6.47,6.47,0,0,1-2-.3V848.86A6.36,6.36,0,0,1,2870.85,848.53Z"/><path class="cls-17" d="M2841.23,834.82h14.16a13.4,13.4,0,0,1,13.42,13.39h0v14.17a13.41,13.41,0,0,1-13.41,13.4h-14.17a13.41,13.41,0,0,1-13.41-13.4V848.22A13.41,13.41,0,0,1,2841.23,834.82Z"/><circle class="cls-22" cx="2834.72" cy="857.79" r="2.99"/><ellipse class="cls-23" cx="2848.31" cy="851.96" rx="2.36" ry="4.51"/></g><g id="Cabelo_e_capacete-3" data-name="Cabelo e capacete"><path class="cls-18" d="M2827.11,837.05c-2.54,9.15,7.3,1.28,22.56,8.66,8.57,4.16,9.8,19.16,28.24.41,6.25-6.38-5.18-19-21.24-24S2829.63,827.91,2827.11,837.05Z"/><polygon class="cls-19" points="2861.51 854.8 2863.92 854.8 2863.92 866.7 2861.51 869.12 2861.51 854.8"/><path class="cls-19" d="M2863.92,872.73a14.87,14.87,0,0,1-2.39,1.6v-2.39l2.39-1.8Z"/><path class="cls-19" d="M2854.83,875.79l6.68-6.67v3.41l-2.61,2.8A14,14,0,0,1,2854.83,875.79Z"/><path class="cls-19" d="M2868.81,861.75a19.23,19.23,0,0,1-.53,4.34l-4.36,4V866.7Z"/><polygon class="cls-19" points="2863.92 866.7 2863.92 870.12 2861.51 872.53 2861.51 869.12 2863.92 866.7"/><path class="cls-19" d="M2858.68,828.85a25.75,25.75,0,0,0-15.93,6.92c-.58.46-2,1.59-1.77,2.09.32.66,3.5-.3,4.66-.64a41.32,41.32,0,0,0,9.82-4.43C2858.8,830.23,2859.72,829.06,2858.68,828.85Z"/></g></g></g></g><path class="cls-19" d="M2844.34,826.76a23.64,23.64,0,0,0-11.57,9.27c-.36.49-1.28,1.72-1,2s2.84-1.13,3.72-1.69a37.5,37.5,0,0,0,7.09-5.84C2844.72,827.76,2845.25,826.65,2844.34,826.76Z"/><g id="Layer_2-5" data-name="Layer 2"><g id="Ciclista_1-4" data-name="Ciclista 1"><g id="Bike-4" data-name="Bike"><g id="trás-4" data-name="trás"><circle class="cls-16" cx="2569.71" cy="1029.73" r="35.62"/><circle class="cls-6" cx="2569.04" cy="1029.73" r="31.34"/></g><g id="rodas-4" data-name="rodas"><circle class="cls-16" cx="2442.32" cy="1029.68" r="35.62"/><circle class="cls-6" cx="2442.32" cy="1029.68" r="31.34"/></g><path id="esquerd-4" data-name="esquerd" class="cls-17" d="M2502,961.72s-26.28,4.45-27,14.69c-.63,8.67,19.84,17.65,18.91,17.72l3.8-1.35c-6.8-3.3-41.39-21.44,7.26-26.63Z"/><rect class="cls-18" x="2542.24" y="972.95" width="5.19" height="65.17" transform="translate(34.35 2093.98) rotate(-45)"/><rect class="cls-18" x="2531.52" y="990.26" width="5.19" height="65.17" transform="matrix(0.13, -0.99, 0.99, 0.13, 1185.09, 3399.42)"/><g id="em_pé-4" data-name="em pé"><polygon class="cls-19" points="2499.99 1014.88 2501.96 1014.06 2495.3 1001.89 2493.33 1002.71 2499.99 1014.88"/><rect class="cls-16" x="2489.64" y="1000.16" width="10.34" height="2.55" rx="0.92" ry="0.92"/></g><polygon class="cls-18" points="2501.65 1019 2504.91 1015.33 2464.01 969.25 2460.75 972.91 2501.65 1019"/><rect class="cls-18" x="2488.12" y="985.25" width="65.17" height="5.19" transform="translate(650.93 2945.83) rotate(-67.72)"/><polygon class="cls-18" points="2521.89 986.13 2522.5 980.98 2465.15 972.36 2464.55 977.5 2521.89 986.13"/><rect class="cls-18" x="2421.79" y="994.07" width="63.02" height="5.46" transform="translate(771.68 3042.4) rotate(-72.69)"/><circle id="trás-2-5" data-name="trás-2" class="cls-16" cx="2569.71" cy="1030.41" r="8.25"/><circle id="bola-4" data-name="bola" class="cls-16" cx="2442.32" cy="1030.12" r="5.28"/><path class="cls-16" d="M2508.94,962.28c-2.54,2.82.49,3.09,16.93,5.92,9.31.84,16.93-2.66,16.93-5.92s-7.58-5.93-16.93-5.93S2511.08,959.89,2508.94,962.28Z"/><rect class="cls-19" x="2513.84" y="979.91" width="16.94" height="8.12" rx="3.19" ry="3.19" transform="translate(655.51 2944.9) rotate(-67.72)"/><rect class="cls-19" x="2448.87" y="971.77" width="21.93" height="8.12" rx="3.19" ry="3.19" transform="translate(796.3 3033.91) rotate(-72.69)"/><circle class="cls-16" cx="2505.22" cy="1022.85" r="11.37"/><circle class="cls-19" cx="2505.22" cy="1022.85" r="3.83"/><path class="cls-20" d="M2569.71,1021.62l-63.9-10.14a11.28,11.28,0,0,0-11.42,7.91c-3.14,8.77,5.12,14.68,8.94,14.67s66.38,4.6,66.38,4.6,8-.12,8.26-8.25S2569.71,1021.62,2569.71,1021.62Z"/><g id="deitado-4" data-name="deitado"><polygon class="cls-19" points="2514.18 1041.54 2516.17 1040.74 2507.8 1025 2505.81 1025.8 2514.18 1041.54"/><rect class="cls-16" x="2509.67" y="1040.26" width="10.34" height="2.55" rx="0.92" ry="0.92"/></g><rect class="cls-19" x="2458.86" y="952.65" width="3.11" height="12.42" rx="1.22" ry="1.22" transform="translate(812.9 3022.54) rotate(-72.69)"/><rect class="cls-19" x="2457.52" y="959.05" width="14.15" height="3.59" rx="1.76" ry="1.76" transform="translate(806.18 3021.7) rotate(-72.47)"/><rect class="cls-16" x="2462.32" y="962.23" width="2.06" height="4.61" rx="0.59" ry="0.59" transform="translate(809.55 3029.34) rotate(-72.69)"/><circle class="cls-16" cx="2452.83" cy="956.18" r="3.41"/></g><g id="Personagem-4" data-name="Personagem"><g id="Corpo-4" data-name="Corpo"><path id="tras-4" data-name="tras" class="cls-18" d="M2501,923.79l4.52,3.36c4.07-5.5,6.94-10.28,5.27-11.54S2505.05,918.28,2501,923.79Z"/><path id="tras-2-5" data-name="tras-2" class="cls-16" d="M2527.81,953.57s-2.92,7.89-14.5,11.65-15.81-2.51-8.65-8.61S2522,942.36,2527.81,953.57Z"/><path class="cls-16" d="M2513.49,951.27c-.1-.14-6.94-24.84-6.94-24.84-2-7,3.6-12.25,10-13.12l3.56-.52a11.65,11.65,0,0,1,13.13,9.74,1.85,1.85,0,0,1,0,.47,46.2,46.2,0,0,0,3,21.39v.12c1.43,4.62.84,7-2.39,9.49a18,18,0,0,1-7.12,3.19C2521.27,957,2516.77,955.18,2513.49,951.27Z"/><path class="cls-18" d="M2516.11,918c-1.79-.38-2.12-1.51-1-3.35h8.36C2523.47,915.18,2518.64,918.55,2516.11,918Z"/><path class="cls-18" d="M2534,937.11s-16.54,11-23.66,3l1.88,6.68s8,5.75,23.1-4.85Z"/><path class="cls-17" d="M2528.86,974.76s-11.74,12-14,62.48l-3.86-1.71s-1.59-26,11.84-62.34Z"/><path id="frente-4" data-name="frente" class="cls-16" d="M2537.05,948.36s3.84,8.41-2.27,20.29-14.27,10.3-13.41,0S2523.89,944.14,2537.05,948.36Z"/><path id="frente-2-5" data-name="frente-2" class="cls-17" d="M2526.58,929.87c.84.1-21.67,29.72-73.75,27.31v-4.41s47.61,6.09,69.22-26.29Z"/><path id="frente-3-5" data-name="frente-3" class="cls-18" d="M2522.08,926.43l4.51,3.36c4.1-5.5,7-10.3,5.29-11.54S2526.16,921,2522.08,926.43Z"/><circle class="cls-17" cx="2452.83" cy="956.18" r="3.14"/><circle class="cls-16" cx="2453.78" cy="957.12" r="1.89"/><path id="esquerdo-4" data-name="esquerdo" class="cls-17" d="M2501,923.79s-15.14,27.38-47.66,29.24l1.1,2.31c24-3.42,36.71-8.76,51.08-28.19Z"/><ellipse class="cls-18" cx="2510.5" cy="1037.88" rx="5.02" ry="2.69"/><ellipse class="cls-18" cx="2495.07" cy="996.79" rx="5.02" ry="2.69" transform="translate(384.29 2659.19) rotate(-60)"/></g><g id="Cabeça-4" data-name="Cabeça"><path class="cls-21" d="M2541.54,887.4a6.77,6.77,0,0,1-.08,13.53,6.86,6.86,0,0,1-2-.31V887.73A6.75,6.75,0,0,1,2541.54,887.4Z"/><path class="cls-17" d="M2511.92,873.69h14.16a13.42,13.42,0,0,1,13.42,13.4h0v14.16a13.41,13.41,0,0,1-13.41,13.41h-14.17a13.42,13.42,0,0,1-13.41-13.41V887.1A13.41,13.41,0,0,1,2511.92,873.69Z"/><circle class="cls-22" cx="2505.41" cy="896.66" r="2.99"/><ellipse class="cls-23" cx="2519" cy="890.83" rx="2.36" ry="4.51"/></g><g id="Cabelo_e_capacete-4" data-name="Cabelo e capacete"><path class="cls-18" d="M2497.8,875.92c-2.54,9.15,7.3,1.29,22.56,8.66,8.57,4.16,9.8,19.16,28.24.41,6.26-6.37-5.17-19-21.24-24S2500.32,866.78,2497.8,875.92Z"/><polygon class="cls-19" points="2532.2 893.68 2534.62 893.68 2534.62 905.58 2532.2 907.99 2532.2 893.68"/><path class="cls-19" d="M2534.62,911.61a15.75,15.75,0,0,1-2.39,1.59v-2.39l2.39-1.79Z"/><path class="cls-19" d="M2525.52,914.67l6.68-6.68v3.42l-2.61,2.79A14,14,0,0,1,2525.52,914.67Z"/><path class="cls-19" d="M2539.5,900.62A18.61,18.61,0,0,1,2539,905l-4.35,4v-3.37Z"/><polygon class="cls-19" points="2534.62 905.58 2534.62 909 2532.2 911.41 2532.2 907.99 2534.62 905.58"/><path class="cls-19" d="M2529.37,867.72a25.93,25.93,0,0,0-15.93,6.92c-.58.46-2,1.6-1.77,2.1s3.51-.31,4.66-.65a41.14,41.14,0,0,0,9.82-4.43C2529.49,869.11,2530.41,867.94,2529.37,867.72Z"/></g></g></g></g><path class="cls-19" d="M2515,865.64a23.54,23.54,0,0,0-11.56,9.26c-.37.5-1.29,1.72-1,2s2.83-1.13,3.71-1.69a37.93,37.93,0,0,0,7.1-5.85C2515.41,866.63,2515.94,865.53,2515,865.64Z"/><g id="Layer_2-6" data-name="Layer 2"><g id="Ciclista_1-5" data-name="Ciclista 1"><g id="Bike-5" data-name="Bike"><g id="trás-5" data-name="trás"><circle class="cls-16" cx="2773.64" cy="1029.73" r="35.62"/><circle class="cls-6" cx="2772.97" cy="1029.73" r="31.34"/></g><g id="rodas-5" data-name="rodas"><circle class="cls-16" cx="2646.24" cy="1029.68" r="35.62"/><circle class="cls-6" cx="2646.24" cy="1029.68" r="31.34"/></g><path id="esquerd-5" data-name="esquerd" class="cls-17" d="M2705.89,961.72s-26.29,4.45-27,14.69c-.64,8.67,19.83,17.65,18.9,17.72l3.8-1.35c-6.79-3.3-41.38-21.44,7.27-26.63Z"/><rect class="cls-18" x="2746.17" y="972.95" width="5.19" height="65.17" transform="translate(94.08 2238.18) rotate(-45)"/><rect class="cls-18" x="2735.44" y="990.26" width="5.19" height="65.17" transform="translate(1362.05 3601.55) rotate(-82.4)"/><g id="em_pé-5" data-name="em pé"><polygon class="cls-19" points="2703.91 1014.88 2705.89 1014.06 2699.23 1001.89 2697.25 1002.71 2703.91 1014.88"/><rect class="cls-16" x="2693.57" y="1000.16" width="10.34" height="2.55" rx="0.92" ry="0.92"/></g><polygon class="cls-18" points="2705.58 1019 2708.84 1015.33 2667.93 969.25 2664.67 972.91 2705.58 1019"/><rect class="cls-18" x="2692.04" y="985.25" width="65.17" height="5.19" transform="translate(777.54 3134.53) rotate(-67.72)"/><polygon class="cls-18" points="2725.81 986.13 2726.43 980.98 2669.08 972.36 2668.47 977.5 2725.81 986.13"/><rect class="cls-18" x="2625.71" y="994.07" width="63.02" height="5.46" transform="matrix(0.3, -0.95, 0.95, 0.3, 914.93, 3237.09)"/><circle id="trás-2-6" data-name="trás-2" class="cls-16" cx="2773.64" cy="1030.41" r="8.25"/><circle id="bola-5" data-name="bola" class="cls-16" cx="2646.24" cy="1030.12" r="5.28"/><path class="cls-16" d="M2712.87,962.28c-2.54,2.82.48,3.09,16.92,5.92,9.32.84,16.93-2.66,16.93-5.92s-7.57-5.93-16.93-5.93S2715,959.89,2712.87,962.28Z"/><rect class="cls-19" x="2717.76" y="979.91" width="16.94" height="8.12" rx="3.19" ry="3.19" transform="translate(782.12 3133.6) rotate(-67.72)"/><rect class="cls-19" x="2652.79" y="971.77" width="21.93" height="8.12" rx="3.19" ry="3.19" transform="translate(939.55 3228.6) rotate(-72.69)"/><circle class="cls-16" cx="2709.15" cy="1022.85" r="11.37"/><circle class="cls-19" cx="2709.15" cy="1022.85" r="3.83"/><path class="cls-20" d="M2773.64,1021.62l-63.9-10.14a11.28,11.28,0,0,0-11.43,7.91c-3.14,8.77,5.13,14.68,8.94,14.67s66.39,4.6,66.39,4.6,8-.12,8.26-8.25S2773.64,1021.62,2773.64,1021.62Z"/><g id="deitado-5" data-name="deitado"><polygon class="cls-19" points="2718.1 1041.54 2720.09 1040.74 2711.73 1025 2709.74 1025.8 2718.1 1041.54"/><rect class="cls-16" x="2713.6" y="1040.26" width="10.34" height="2.55" rx="0.92" ry="0.92"/></g><rect class="cls-19" x="2662.78" y="952.65" width="3.11" height="12.42" rx="1.22" ry="1.22" transform="translate(956.15 3217.23) rotate(-72.69)"/><rect class="cls-19" x="2661.44" y="959.05" width="14.15" height="3.59" rx="1.76" ry="1.76" transform="translate(948.7 3216.16) rotate(-72.47)"/><rect class="cls-16" x="2666.25" y="962.23" width="2.06" height="4.61" rx="0.59" ry="0.59" transform="translate(952.8 3224.02) rotate(-72.69)"/><circle class="cls-16" cx="2656.76" cy="956.18" r="3.41"/></g><g id="Personagem-5" data-name="Personagem"><g id="Corpo-5" data-name="Corpo"><path id="tras-5" data-name="tras" class="cls-18" d="M2704.9,923.79l4.53,3.36c4.07-5.5,6.93-10.28,5.27-11.54S2709,918.28,2704.9,923.79Z"/><path id="tras-2-6" data-name="tras-2" class="cls-16" d="M2731.74,953.57s-2.93,7.89-14.51,11.65-15.8-2.51-8.65-8.61S2726,942.36,2731.74,953.57Z"/><path class="cls-16" d="M2717.42,951.27c-.1-.14-6.94-24.84-6.94-24.84-2-7,3.6-12.25,10-13.12l3.56-.52a11.66,11.66,0,0,1,13.13,9.74,3.69,3.69,0,0,1,0,.47,46.06,46.06,0,0,0,2.94,21.39.24.24,0,0,1,0,.12c1.44,4.62.85,7-2.39,9.49a18,18,0,0,1-7.12,3.19C2725.2,957,2720.7,955.18,2717.42,951.27Z"/><path class="cls-18" d="M2720,918c-1.8-.38-2.12-1.51-1-3.35h8.36C2727.4,915.18,2722.56,918.55,2720,918Z"/><path class="cls-18" d="M2737.93,937.11s-16.55,11-23.66,3l1.87,6.68s8,5.75,23.1-4.85Z"/><path class="cls-17" d="M2732.78,974.76s-11.74,12-14,62.48l-3.85-1.71s-1.6-26,11.83-62.34Z"/><path id="frente-5" data-name="frente" class="cls-16" d="M2741,948.36s3.84,8.41-2.28,20.29-14.27,10.3-13.41,0S2727.81,944.14,2741,948.36Z"/><path id="frente-2-6" data-name="frente-2" class="cls-17" d="M2730.5,929.87c.85.1-21.66,29.72-73.74,27.31v-4.41s47.61,6.09,69.22-26.29Z"/><path id="frente-3-6" data-name="frente-3" class="cls-18" d="M2726,926.43l4.52,3.36c4.09-5.5,6.95-10.3,5.29-11.54S2730.09,921,2726,926.43Z"/><circle class="cls-17" cx="2656.76" cy="956.18" r="3.14"/><circle class="cls-16" cx="2657.7" cy="957.12" r="1.89"/><path id="esquerdo-5" data-name="esquerdo" class="cls-17" d="M2704.9,923.79s-15.13,27.38-47.66,29.24l1.11,2.31c24-3.42,36.71-8.76,51.08-28.19Z"/><ellipse class="cls-18" cx="2714.43" cy="1037.88" rx="5.02" ry="2.69"/><ellipse class="cls-18" cx="2699" cy="996.79" rx="5.02" ry="2.69" transform="translate(486.25 2835.8) rotate(-60)"/></g><g id="Cabeça-5" data-name="Cabeça"><path class="cls-21" d="M2745.46,887.4a6.77,6.77,0,0,1-.07,13.53,6.93,6.93,0,0,1-2-.31V887.73A6.75,6.75,0,0,1,2745.46,887.4Z"/><path class="cls-17" d="M2715.85,873.69H2730a13.41,13.41,0,0,1,13.41,13.4h0v14.16a13.41,13.41,0,0,1-13.4,13.41h-14.17a13.41,13.41,0,0,1-13.41-13.41V887.1A13.41,13.41,0,0,1,2715.85,873.69Z"/><circle class="cls-22" cx="2709.34" cy="896.66" r="2.99"/><ellipse class="cls-23" cx="2722.93" cy="890.83" rx="2.36" ry="4.51"/></g><g id="Cabelo_e_capacete-5" data-name="Cabelo e capacete"><path class="cls-18" d="M2701.73,875.92c-2.54,9.15,7.3,1.29,22.56,8.66,8.57,4.16,9.8,19.16,28.23.41,6.26-6.37-5.17-19-21.24-24S2704.25,866.78,2701.73,875.92Z"/><polygon class="cls-19" points="2736.13 893.68 2738.54 893.68 2738.54 905.58 2736.13 907.99 2736.13 893.68"/><path class="cls-19" d="M2738.54,911.61a14.82,14.82,0,0,1-2.39,1.59v-2.39l2.39-1.79Z"/><path class="cls-19" d="M2729.44,914.67l6.69-6.68v3.42l-2.62,2.79A13.92,13.92,0,0,1,2729.44,914.67Z"/><path class="cls-19" d="M2743.42,900.62a18.6,18.6,0,0,1-.52,4.34l-4.36,4v-3.37Z"/><polygon class="cls-19" points="2738.54 905.58 2738.54 909 2736.13 911.41 2736.13 907.99 2738.54 905.58"/><path class="cls-19" d="M2733.3,867.72a25.87,25.87,0,0,0-15.93,6.92c-.59.46-2,1.6-1.77,2.1s3.5-.31,4.66-.65a41.32,41.32,0,0,0,9.82-4.43C2733.42,869.11,2734.33,867.94,2733.3,867.72Z"/></g></g></g></g><path class="cls-19" d="M2719,865.64a23.56,23.56,0,0,0-11.57,9.26c-.37.5-1.28,1.72-1,2s2.84-1.13,3.71-1.69a37.61,37.61,0,0,0,7.1-5.85C2719.34,866.63,2719.87,865.53,2719,865.64Z"/><g id="Layer_2-7" data-name="Layer 2"><g id="Ciclista_1-6" data-name="Ciclista 1"><g id="Bike-6" data-name="Bike"><g id="trás-6" data-name="trás"><circle class="cls-16" cx="2976.82" cy="1029.73" r="35.62"/><circle class="cls-6" cx="2976.15" cy="1029.73" r="31.34"/></g><g id="rodas-6" data-name="rodas"><circle class="cls-16" cx="2849.42" cy="1029.68" r="35.62"/><circle class="cls-6" cx="2849.42" cy="1029.68" r="31.34"/></g><path id="esquerd-6" data-name="esquerd" class="cls-17" d="M2909.07,961.72s-26.29,4.45-27,14.69c-.64,8.67,19.83,17.65,18.9,17.72l3.8-1.35c-6.8-3.3-41.38-21.44,7.26-26.63Z"/><rect class="cls-18" x="2949.35" y="972.95" width="5.19" height="65.17" transform="translate(153.58 2381.85) rotate(-45)"/><rect class="cls-18" x="2938.62" y="990.26" width="5.19" height="65.17" transform="translate(1538.36 3802.94) rotate(-82.4)"/><g id="em_pé-6" data-name="em pé"><polygon class="cls-19" points="2907.09 1014.88 2909.07 1014.06 2902.41 1001.89 2900.43 1002.71 2907.09 1014.88"/><rect class="cls-16" x="2896.74" y="1000.16" width="10.34" height="2.55" rx="0.92" ry="0.92"/></g><polygon class="cls-18" points="2908.76 1019 2912.01 1015.33 2871.11 969.25 2867.85 972.91 2908.76 1019"/><rect class="cls-18" x="2895.22" y="985.25" width="65.17" height="5.19" transform="translate(903.69 3322.54) rotate(-67.72)"/><polygon class="cls-18" points="2928.99 986.13 2929.6 980.98 2872.26 972.36 2871.65 977.5 2928.99 986.13"/><rect class="cls-18" x="2828.89" y="994.07" width="63.02" height="5.46" transform="matrix(0.3, -0.95, 0.95, 0.3, 1057.66, 3431.06)"/><circle id="trás-2-7" data-name="trás-2" class="cls-16" cx="2976.82" cy="1030.41" r="8.25"/><circle id="bola-6" data-name="bola" class="cls-16" cx="2849.42" cy="1030.12" r="5.28"/><path class="cls-16" d="M2916,962.28c-2.54,2.82.49,3.09,16.93,5.92,9.31.84,16.93-2.66,16.93-5.92s-7.58-5.93-16.93-5.93S2918.19,959.89,2916,962.28Z"/><rect class="cls-19" x="2920.94" y="979.91" width="16.94" height="8.12" rx="3.19" ry="3.19" transform="matrix(0.38, -0.93, 0.93, 0.38, 908.27, 3321.61)"/><rect class="cls-19" x="2855.97" y="971.77" width="21.93" height="8.12" rx="3.19" ry="3.19" transform="translate(1082.27 3422.57) rotate(-72.69)"/><circle class="cls-16" cx="2912.32" cy="1022.85" r="11.37"/><circle class="cls-19" cx="2912.32" cy="1022.85" r="3.83"/><path class="cls-20" d="M2976.82,1021.62l-63.91-10.14a11.28,11.28,0,0,0-11.42,7.91c-3.14,8.77,5.12,14.68,8.94,14.67s66.39,4.6,66.39,4.6,8-.12,8.26-8.25S2976.82,1021.62,2976.82,1021.62Z"/><g id="deitado-6" data-name="deitado"><polygon class="cls-19" points="2921.28 1041.54 2923.27 1040.74 2914.91 1025 2912.91 1025.8 2921.28 1041.54"/><rect class="cls-16" x="2916.78" y="1040.26" width="10.34" height="2.55" rx="0.92" ry="0.92"/></g><rect class="cls-19" x="2865.96" y="952.65" width="3.11" height="12.42" rx="1.22" ry="1.22" transform="translate(1098.88 3411.21) rotate(-72.69)"/><rect class="cls-19" x="2864.62" y="959.05" width="14.15" height="3.59" rx="1.76" ry="1.76" transform="translate(1090.69 3409.9) rotate(-72.47)"/><rect class="cls-16" x="2869.43" y="962.23" width="2.06" height="4.61" rx="0.59" ry="0.59" transform="translate(1095.52 3418) rotate(-72.69)"/><circle class="cls-16" cx="2859.93" cy="956.18" r="3.41"/></g><g id="Personagem-6" data-name="Personagem"><g id="Corpo-6" data-name="Corpo"><path id="tras-6" data-name="tras" class="cls-18" d="M2908.08,923.79l4.52,3.36c4.07-5.5,6.94-10.28,5.28-11.54S2912.16,918.28,2908.08,923.79Z"/><path id="tras-2-7" data-name="tras-2" class="cls-16" d="M2934.92,953.57s-2.93,7.89-14.51,11.65-15.8-2.51-8.65-8.61S2929.13,942.36,2934.92,953.57Z"/><path class="cls-16" d="M2920.59,951.27c-.09-.14-6.94-24.84-6.94-24.84-2-7,3.61-12.25,10-13.12l3.56-.52a11.64,11.64,0,0,1,13.12,9.74,1.85,1.85,0,0,1,0,.47,46.2,46.2,0,0,0,2.95,21.39.24.24,0,0,1,0,.12c1.44,4.62.85,7-2.39,9.49a18,18,0,0,1-7.12,3.19C2928.38,957,2923.87,955.18,2920.59,951.27Z"/><path class="cls-18" d="M2923.21,918c-1.79-.38-2.12-1.51-1-3.35h8.36C2930.57,915.18,2925.74,918.55,2923.21,918Z"/><path class="cls-18" d="M2941.1,937.11s-16.54,11-23.65,3l1.87,6.68s8,5.75,23.1-4.85Z"/><path class="cls-17" d="M2936,974.76s-11.74,12-14,62.48l-3.86-1.71s-1.59-26,11.84-62.34Z"/><path id="frente-6" data-name="frente" class="cls-16" d="M2944.16,948.36s3.84,8.41-2.28,20.29-14.27,10.3-13.41,0S2931,944.14,2944.16,948.36Z"/><path id="frente-2-7" data-name="frente-2" class="cls-17" d="M2933.68,929.87c.85.1-21.67,29.72-73.75,27.31v-4.41s47.62,6.09,69.23-26.29Z"/><path id="frente-3-7" data-name="frente-3" class="cls-18" d="M2929.18,926.43l4.52,3.36c4.09-5.5,7-10.3,5.29-11.54S2933.27,921,2929.18,926.43Z"/><circle class="cls-17" cx="2859.93" cy="956.18" r="3.14"/><circle class="cls-16" cx="2860.88" cy="957.12" r="1.89"/><path id="esquerdo-6" data-name="esquerdo" class="cls-17" d="M2908.08,923.79s-15.14,27.38-47.66,29.24l1.11,2.31c24-3.42,36.7-8.76,51.07-28.19Z"/><ellipse class="cls-18" cx="2917.61" cy="1037.88" rx="5.02" ry="2.69"/><ellipse class="cls-18" cx="2902.17" cy="996.79" rx="5.02" ry="2.69" transform="translate(587.84 3011.75) rotate(-60)"/></g><g id="Cabeça-6" data-name="Cabeça"><path class="cls-21" d="M2948.64,887.4a6.77,6.77,0,0,1-.08,13.53,6.92,6.92,0,0,1-2-.31V887.73A6.75,6.75,0,0,1,2948.64,887.4Z"/><path class="cls-17" d="M2919,873.69h14.17a13.41,13.41,0,0,1,13.41,13.4h0v14.16a13.41,13.41,0,0,1-13.41,13.41H2919a13.41,13.41,0,0,1-13.4-13.41V887.1A13.4,13.4,0,0,1,2919,873.69Z"/><circle class="cls-22" cx="2912.52" cy="896.66" r="2.99"/><ellipse class="cls-23" cx="2926.11" cy="890.83" rx="2.36" ry="4.51"/></g><g id="Cabelo_e_capacete-6" data-name="Cabelo e capacete"><path class="cls-18" d="M2904.91,875.92c-2.54,9.15,7.29,1.29,22.55,8.66,8.58,4.16,9.81,19.16,28.24.41,6.26-6.37-5.17-19-21.24-24S2907.42,866.78,2904.91,875.92Z"/><polygon class="cls-19" points="2939.3 893.68 2941.72 893.68 2941.72 905.58 2939.3 907.99 2939.3 893.68"/><path class="cls-19" d="M2941.72,911.61a15.75,15.75,0,0,1-2.39,1.59v-2.39l2.39-1.79Z"/><path class="cls-19" d="M2932.62,914.67l6.68-6.68v3.42l-2.61,2.79A14,14,0,0,1,2932.62,914.67Z"/><path class="cls-19" d="M2946.6,900.62a18.6,18.6,0,0,1-.52,4.34l-4.36,4v-3.37Z"/><polygon class="cls-19" points="2941.72 905.58 2941.72 909 2939.3 911.41 2939.3 907.99 2941.72 905.58"/><path class="cls-19" d="M2936.47,867.72a25.93,25.93,0,0,0-15.93,6.92c-.58.46-2,1.6-1.77,2.1s3.51-.31,4.66-.65a41.21,41.21,0,0,0,9.83-4.43C2936.59,869.11,2937.51,867.94,2936.47,867.72Z"/></g></g></g></g><path class="cls-19" d="M2922.14,865.64a23.52,23.52,0,0,0-11.57,9.26c-.37.5-1.28,1.72-1,2s2.83-1.13,3.71-1.69a37.61,37.61,0,0,0,7.1-5.85C2922.52,866.63,2923,865.53,2922.14,865.64Z"/><g id="Layer_2-8" data-name="Layer 2"><g id="Ciclista_1-7" data-name="Ciclista 1"><g id="Bike-7" data-name="Bike"><g id="trás-7" data-name="trás"><circle class="cls-16" cx="2361.73" cy="1029.73" r="35.62"/><circle class="cls-6" cx="2361.06" cy="1029.73" r="31.34"/></g><g id="rodas-7" data-name="rodas"><circle class="cls-16" cx="2234.33" cy="1029.68" r="35.62"/><circle class="cls-6" cx="2234.33" cy="1029.68" r="31.34"/></g><path id="esquerd-7" data-name="esquerd" class="cls-24" d="M2294,961.72s-26.29,4.45-27,14.69c-.64,8.67,19.84,17.65,18.9,17.72l3.8-1.35c-6.79-3.3-41.38-21.44,7.27-26.63Z"/><rect class="cls-18" x="2334.26" y="972.95" width="5.19" height="65.17" transform="translate(-26.57 1946.92) rotate(-45)"/><rect class="cls-18" x="2323.53" y="990.26" width="5.19" height="65.17" transform="translate(1004.62 3193.26) rotate(-82.4)"/><g id="em_pé-7" data-name="em pé"><polygon class="cls-19" points="2292.01 1014.88 2293.98 1014.06 2287.32 1001.89 2285.35 1002.71 2292.01 1014.88"/><rect class="cls-16" x="2281.66" y="1000.16" width="10.34" height="2.55" rx="0.92" ry="0.92"/></g><polygon class="cls-18" points="2293.67 1019 2296.93 1015.33 2256.02 969.25 2252.77 972.91 2293.67 1019"/><rect class="cls-18" x="2280.14" y="985.25" width="65.17" height="5.19" transform="translate(521.8 2753.38) rotate(-67.72)"/><polygon class="cls-18" points="2313.9 986.13 2314.52 980.98 2257.17 972.36 2256.57 977.5 2313.9 986.13"/><rect class="cls-18" x="2213.81" y="994.07" width="63.02" height="5.46" transform="matrix(0.3, -0.95, 0.95, 0.3, 625.58, 2843.83)"/><circle id="trás-2-8" data-name="trás-2" class="cls-16" cx="2361.73" cy="1030.41" r="8.25"/><circle id="bola-7" data-name="bola" class="cls-16" cx="2234.33" cy="1030.12" r="5.28"/><path class="cls-16" d="M2301,962.28c-2.54,2.82.48,3.09,16.93,5.92,9.31.84,16.92-2.66,16.92-5.92s-7.57-5.93-16.92-5.93S2303.1,959.89,2301,962.28Z"/><rect class="cls-19" x="2305.85" y="979.91" width="16.94" height="8.12" rx="3.19" ry="3.19" transform="translate(526.38 2752.45) rotate(-67.72)"/><rect class="cls-19" x="2240.89" y="971.77" width="21.93" height="8.12" rx="3.19" ry="3.19" transform="translate(650.2 2835.34) rotate(-72.69)"/><circle class="cls-16" cx="2297.24" cy="1022.85" r="11.37"/><circle class="cls-19" cx="2297.24" cy="1022.85" r="3.83"/><path class="cls-20" d="M2361.73,1021.62l-63.9-10.14a11.27,11.27,0,0,0-11.42,7.91c-3.14,8.77,5.12,14.68,8.93,14.67s66.39,4.6,66.39,4.6,8-.12,8.26-8.25S2361.73,1021.62,2361.73,1021.62Z"/><g id="deitado-7" data-name="deitado"><polygon class="cls-19" points="2306.19 1041.54 2308.18 1040.74 2299.82 1025 2297.83 1025.8 2306.19 1041.54"/><rect class="cls-16" x="2301.69" y="1040.26" width="10.34" height="2.55" rx="0.92" ry="0.92"/></g><rect class="cls-19" x="2250.87" y="952.65" width="3.11" height="12.42" rx="1.22" ry="1.22" transform="translate(666.8 2823.98) rotate(-72.69)"/><rect class="cls-19" x="2249.53" y="959.05" width="14.15" height="3.59" rx="1.76" ry="1.76" transform="translate(660.83 2823.37) rotate(-72.47)"/><rect class="cls-16" x="2254.34" y="962.23" width="2.06" height="4.61" rx="0.59" ry="0.59" transform="translate(663.45 2830.77) rotate(-72.69)"/><circle class="cls-16" cx="2244.85" cy="956.18" r="3.41"/></g><g id="Personagem-7" data-name="Personagem"><g id="Corpo-7" data-name="Corpo"><path id="tras-7" data-name="tras" class="cls-18" d="M2293,923.79l4.53,3.36c4.07-5.5,6.94-10.28,5.27-11.54S2297.07,918.28,2293,923.79Z"/><path id="tras-2-8" data-name="tras-2" class="cls-16" d="M2319.83,953.57s-2.92,7.89-14.51,11.65-15.8-2.51-8.65-8.61S2314.05,942.36,2319.83,953.57Z"/><path class="cls-16" d="M2305.51,951.27c-.1-.14-6.94-24.84-6.94-24.84-2-7,3.6-12.25,10-13.12l3.56-.52a11.66,11.66,0,0,1,13.13,9.74,3.69,3.69,0,0,1,0,.47,45.94,45.94,0,0,0,3,21.39v.12c1.43,4.62.84,7-2.39,9.49a18.1,18.1,0,0,1-7.13,3.19C2313.29,957,2308.79,955.18,2305.51,951.27Z"/><path class="cls-18" d="M2308.13,918c-1.79-.38-2.12-1.51-1-3.35h8.37C2315.49,915.18,2310.65,918.55,2308.13,918Z"/><path class="cls-18" d="M2326,937.11s-16.55,11-23.66,3l1.87,6.68s8,5.75,23.1-4.85Z"/><path class="cls-24" d="M2320.87,974.76s-11.74,12-14,62.48l-3.85-1.71s-1.6-26,11.84-62.34Z"/><path id="frente-7" data-name="frente" class="cls-16" d="M2329.07,948.36s3.84,8.41-2.28,20.29-14.26,10.3-13.4,0S2315.9,944.14,2329.07,948.36Z"/><path id="frente-2-8" data-name="frente-2" class="cls-24" d="M2318.6,929.87c.84.1-21.67,29.72-73.75,27.31v-4.41s47.61,6.09,69.22-26.29Z"/><path id="frente-3-8" data-name="frente-3" class="cls-18" d="M2314.09,926.43l4.52,3.36c4.1-5.5,7-10.3,5.29-11.54S2318.18,921,2314.09,926.43Z"/><circle class="cls-24" cx="2244.85" cy="956.18" r="3.14"/><circle class="cls-16" cx="2245.8" cy="957.12" r="1.89"/><path id="esquerdo-7" data-name="esquerdo" class="cls-24" d="M2293,923.79s-15.13,27.38-47.66,29.24l1.11,2.31c24-3.42,36.71-8.76,51.08-28.19Z"/><ellipse class="cls-18" cx="2302.52" cy="1037.88" rx="5.02" ry="2.69"/><ellipse class="cls-18" cx="2287.09" cy="996.79" rx="5.02" ry="2.69" transform="translate(280.3 2479.07) rotate(-60)"/></g><g id="Cabeça-7" data-name="Cabeça"><path class="cls-25" d="M2333.55,887.4a6.77,6.77,0,1,1-2,13.22V887.73A6.64,6.64,0,0,1,2333.55,887.4Z"/><path class="cls-24" d="M2303.94,873.69h14.16a13.42,13.42,0,0,1,13.42,13.4h0v14.16a13.42,13.42,0,0,1-13.41,13.41h-14.17a13.41,13.41,0,0,1-13.41-13.41V887.1A13.41,13.41,0,0,1,2303.94,873.69Z"/><circle class="cls-26" cx="2297.43" cy="896.66" r="2.99"/><ellipse class="cls-23" cx="2311.02" cy="890.83" rx="2.36" ry="4.51"/></g><g id="Cabelo_e_capacete-7" data-name="Cabelo e capacete"><path class="cls-18" d="M2289.82,875.92c-2.54,9.15,7.3,1.29,22.56,8.66,8.57,4.16,9.8,19.16,28.23.41,6.26-6.37-5.17-19-21.23-24S2292.34,866.78,2289.82,875.92Z"/><polygon class="cls-19" points="2324.22 893.68 2326.63 893.68 2326.63 905.58 2324.22 907.99 2324.22 893.68"/><path class="cls-19" d="M2326.63,911.61a14.82,14.82,0,0,1-2.39,1.59v-2.39l2.39-1.79Z"/><path class="cls-19" d="M2317.54,914.67l6.68-6.68v3.42l-2.61,2.79A14,14,0,0,1,2317.54,914.67Z"/><path class="cls-19" d="M2331.52,900.62A19.16,19.16,0,0,1,2331,905l-4.36,4v-3.37Z"/><polygon class="cls-19" points="2326.63 905.58 2326.63 909 2324.22 911.41 2324.22 907.99 2326.63 905.58"/><path class="cls-19" d="M2321.39,867.72a25.87,25.87,0,0,0-15.93,6.92c-.58.46-2,1.6-1.77,2.1s3.5-.31,4.66-.65a41.32,41.32,0,0,0,9.82-4.43C2321.51,869.11,2322.42,867.94,2321.39,867.72Z"/></g></g></g></g><path class="cls-19" d="M2306.26,866.68a23.59,23.59,0,0,0-11.57,9.27c-.37.49-1.28,1.72-1,2s2.83-1.13,3.71-1.68a38,38,0,0,0,7.1-5.85C2306.64,867.68,2307.16,866.57,2306.26,866.68Z"/></g></g></g></g></svg>