<svg width="100" height="43" viewBox="0 0 100 43" fill="none" xmlns="http://www.w3.org/2000/svg">
<g clip-path="url(#clip0)">
<path d="M0 22.0057C1.33145 19.0175 2.63277 16.0292 3.84673 12.9805C4.12688 12.2818 4.06362 11.5136 4.22026 10.7846C4.82272 8.01416 5.90415 5.47657 8.00976 3.52573C11.5703 0.26527 15.7544 -0.817518 20.3814 0.625191C25.3427 2.17376 28.2887 5.66106 29.1532 10.8028C29.6977 13.8248 29.0669 16.9414 27.391 19.5105C27.2994 19.6535 27.2424 19.8161 27.2246 19.9852C27.2068 20.1543 27.2287 20.3253 27.2886 20.4844C28.0919 23.4787 28.8952 26.472 29.6985 29.4643C29.8702 30.1024 29.8521 30.1327 29.1773 30.1357C28.5538 30.1357 27.9302 30.0994 27.3127 30.1357C26.7494 30.1781 26.4994 29.9784 26.3458 29.4219C25.5174 26.4639 24.701 23.4968 23.7762 20.566C23.6198 20.165 23.5727 19.7294 23.64 19.304C23.7072 18.8787 23.8863 18.479 24.1588 18.1464C26.7223 14.5502 26.6349 9.74723 23.4268 6.35066C21.881 4.70381 19.7813 3.69176 17.5347 3.51061C16.1479 3.33865 14.7402 3.50324 13.4298 3.99058C12.1194 4.47792 10.9446 5.27377 10.0039 6.31134C8.6071 7.78882 7.78507 9.72076 7.68744 11.7555C7.59015 12.545 7.3653 13.3132 7.02172 14.03C6.37909 15.6189 5.72943 17.2037 5.07275 18.7846C4.91912 19.1536 4.93719 19.3381 5.39808 19.3018C5.69931 19.2776 6.01862 19.3018 6.32889 19.3018C7.01569 19.3018 7.03076 19.3018 7.03377 19.9944C7.03377 21.9846 7.03377 23.9757 7.03377 25.9679C7.03377 26.7966 7.03377 26.7996 7.85011 26.7996C11.7661 26.7996 15.6821 26.7996 19.5982 26.7996C20.1223 26.7996 20.3783 26.9509 20.5019 27.4741C20.6675 28.2333 20.8965 28.9864 21.1194 29.7274C21.2369 30.1206 21.1194 30.2779 20.7127 30.2567C20.3693 30.2416 20.0229 30.2567 19.6765 30.2567H4.4733C3.70515 30.2567 3.70214 30.2567 3.70214 29.4764C3.70214 27.9641 3.72022 26.4276 3.70214 24.9032C3.70214 24.0806 3.8377 23.2488 3.60575 22.4352C2.80748 22.2477 1.99717 22.3838 1.19589 22.3475C0.793719 22.3426 0.393064 22.297 0 22.2114L0 22.0057Z" fill="white"/>
<path d="M52.3812 43C52.1312 42.8125 51.7788 42.6007 51.9806 42.2711C52.1553 41.9988 52.5288 42.1108 52.821 42.2711C53.2879 42.4979 53.5259 42.4041 53.7428 41.9263C53.7157 41.9263 53.6826 41.8869 53.6554 41.893C52.5047 42.1773 51.9475 41.6329 52.2156 40.4836C52.4837 39.3342 53.0801 38.9713 54.1977 39.2405C54.4085 39.2889 54.5411 39.1225 54.7399 39.1346C55.026 39.1528 55.2098 39.189 55.1255 39.552C54.9477 40.3444 54.7941 41.1429 54.6194 41.9384C54.564 42.1767 54.4532 42.3985 54.2962 42.5856C54.1391 42.7727 53.9402 42.9199 53.7157 43.0151L52.3812 43ZM54.1013 40.3051C54.0832 40.0752 54.026 39.8242 53.6765 39.8272C53.3271 39.8302 53.0379 40.293 53.0319 40.7648C53.0319 41.0673 53.1343 41.2276 53.4476 41.2155C53.7609 41.2034 54.1013 40.8042 54.1013 40.3051Z" fill="white"/>
<path d="M100.009 34.7823C99.5542 35.6564 98.9547 36.0285 98.1384 35.9498C98.0044 35.9491 97.872 35.9213 97.7491 35.868C97.6261 35.8146 97.5152 35.7369 97.4229 35.6394C97.3306 35.542 97.2589 35.4268 97.2121 35.3008C97.1652 35.1749 97.1442 35.0407 97.1503 34.9063C97.1248 34.5336 97.2159 34.1621 97.4108 33.8438C97.6058 33.5255 97.8949 33.2762 98.2378 33.1309C98.8884 32.8466 99.4156 32.9646 100.009 33.5332V34.7823ZM99.2379 34.2349C99.2379 33.9324 99.0812 33.7691 98.7559 33.7691C98.3613 33.7691 97.9817 34.2258 97.9908 34.7158C97.985 34.781 97.9926 34.8467 98.0131 34.9089C98.0337 34.971 98.0667 35.0282 98.1102 35.077C98.1537 35.1258 98.2068 35.1651 98.266 35.1924C98.3252 35.2198 98.3895 35.2346 98.4547 35.236C98.8402 35.2693 99.2258 34.7823 99.2288 34.244L99.2379 34.2349Z" fill="white"/>
<path d="M55.7581 11.4721C55.5713 12.3794 55.3815 13.2868 55.2008 14.1942C54.5983 17.2187 54.0019 20.2433 53.4115 23.2678C53.4071 23.3414 53.3877 23.4133 53.3546 23.479C53.3214 23.5448 53.2751 23.603 53.2187 23.65C53.1622 23.6971 53.0967 23.732 53.0262 23.7527C52.9557 23.7733 52.8818 23.7791 52.809 23.7699C51.6884 23.7699 50.5678 23.7699 49.4442 23.7699C49.0105 23.7699 48.9261 23.5915 49.0105 23.1862C49.6129 20.2524 50.2154 17.3185 50.8178 14.3847C51.2878 12.0951 51.7728 9.80858 52.2156 7.51598C52.3059 7.05019 52.5168 6.91107 52.9445 6.92921C54.773 6.94434 56.6015 6.95341 58.43 6.92921C58.5266 6.91433 58.6252 6.91977 58.7196 6.9452C58.814 6.97062 58.9021 7.01548 58.9783 7.07691C59.0545 7.13834 59.1171 7.21502 59.1622 7.30206C59.2073 7.3891 59.2339 7.4846 59.2403 7.58252C60.0436 11.0103 60.8659 14.4271 61.7074 17.8327C61.7593 18.0984 61.8539 18.3538 61.9875 18.5888C62.1894 17.6815 62.3972 16.8013 62.59 15.9091C63.2226 13.1053 63.8612 10.3016 64.4817 7.49783C64.4858 7.41137 64.5084 7.32681 64.5478 7.24984C64.5872 7.17288 64.6427 7.1053 64.7103 7.05169C64.778 6.99808 64.8564 6.95967 64.9401 6.93906C65.0238 6.91845 65.111 6.91613 65.1957 6.93224C66.2801 6.95341 67.3675 6.95643 68.455 6.93224C68.9189 6.93224 69.0153 7.08951 68.9189 7.519C68.2301 10.7149 67.5483 13.9119 66.8735 17.1098C66.4488 19.0879 66.006 21.066 65.6083 23.0501C65.4969 23.6005 65.2529 23.788 64.7046 23.7759C62.9776 23.7477 61.2525 23.7477 59.5295 23.7759C59.0144 23.7759 58.8035 23.5945 58.689 23.1015C57.8094 19.3783 56.9058 15.6611 56.0111 11.9439C55.9719 11.7836 55.9207 11.6263 55.8755 11.4691L55.7581 11.4721Z" fill="white"/>
<path d="M13.9892 25.9809H8.60621C7.88627 25.9809 7.87422 25.9809 7.87422 25.261C7.87422 23.2346 7.87422 21.2081 7.87422 19.1817C7.87422 18.5042 7.87422 18.5012 7.17235 18.4951C6.26865 18.4951 6.11502 18.6978 6.55181 17.5484C7.12716 16.0362 7.68444 14.4967 8.25076 12.9723C8.4093 12.4063 8.51023 11.8257 8.55199 11.2392C8.86889 9.3152 9.85166 7.56509 11.3273 6.29704C12.8029 5.02898 14.6768 4.32427 16.619 4.30697C20.8905 4.2374 25.4421 7.81242 25.0535 13.3352C24.9455 15.2777 24.1383 17.1146 22.7822 18.5042C22.6735 18.5988 22.5968 18.7251 22.5628 18.8655C22.5288 19.0058 22.5391 19.1534 22.5924 19.2876C23.5965 22.7275 24.6006 26.1674 25.6047 29.6073C25.7794 30.2122 25.7584 30.2122 25.1529 30.2304C24.4088 30.2304 23.6678 30.2304 22.9268 30.2304C22.8559 30.2438 22.7831 30.243 22.7125 30.2278C22.642 30.2127 22.5751 30.1836 22.5159 30.1422C22.4567 30.1008 22.4064 30.0479 22.3678 29.9867C22.3292 29.9255 22.3031 29.8572 22.2912 29.7858C21.1726 25.753 20.043 21.7203 18.9023 17.6876C18.7969 17.3155 18.9656 17.1552 19.2367 16.9828C19.9167 16.5829 20.4919 16.0257 20.9142 15.3576C21.3365 14.6895 21.5938 13.9298 21.6646 13.1417C21.8755 11.2423 20.6163 8.20258 17.5859 7.7852C14.7303 7.39503 12.3174 9.17044 11.8625 12.077C11.6908 13.1901 11.1938 14.1942 10.8685 15.2377C10.7691 15.5643 10.4979 15.9152 11.1305 16.0392C11.3565 16.0846 11.2842 16.3961 11.2842 16.5957C11.2842 18.3772 11.2842 20.1616 11.2842 21.9461C11.2842 22.6146 11.3083 22.6418 11.989 22.6418C13.939 22.6418 15.888 22.6418 17.836 22.6418H18.1372C19.1644 22.6599 19.1614 22.663 19.4295 23.6429C19.5921 24.2478 19.7307 24.8527 19.9386 25.4576C20.0831 25.8932 19.9386 26.0021 19.5168 25.999C17.6793 25.9718 15.8358 25.9809 13.9892 25.9809Z" fill="white"/>
<path d="M76.7268 17.9598C75.9888 17.9598 75.4345 17.987 74.8863 17.9598C74.4133 17.9295 74.2236 18.111 74.1302 18.5647C73.8289 20.1254 73.4494 21.6739 73.1331 23.2346C73.1297 23.3155 73.109 23.3948 73.0725 23.4671C73.0359 23.5393 72.9843 23.6028 72.9212 23.6533C72.8581 23.7037 72.7849 23.74 72.7066 23.7596C72.6283 23.7792 72.5467 23.7817 72.4674 23.7669C71.2775 23.7669 70.0876 23.7669 68.8978 23.7669C68.2953 23.7669 68.2562 23.7034 68.3736 23.1318C69.0645 19.7564 69.7583 16.383 70.4552 13.0116C70.8347 11.1636 71.2293 9.31864 71.5908 7.46762C71.5943 7.38697 71.6149 7.308 71.6512 7.23602C71.6876 7.16403 71.7389 7.1007 71.8017 7.05027C71.8645 6.99984 71.9373 6.96349 72.0152 6.94366C72.0931 6.92383 72.1744 6.92098 72.2535 6.9353C74.582 6.9353 76.9105 6.90808 79.2391 6.95345C80.7211 6.98369 82.1942 7.12282 83.5768 7.76705C84.6823 8.28122 85.3511 9.10088 85.4505 10.3016C85.6372 12.5307 85.2728 14.6056 83.4292 16.1239C82.1995 17.091 80.7254 17.6943 79.1728 17.866C78.3606 17.9542 77.5433 17.9855 76.7268 17.9598ZM76.5129 14.5995C76.8593 14.5995 77.2058 14.5995 77.5492 14.5995C78.1398 14.585 78.7116 14.3882 79.187 14.0359C79.6623 13.6836 80.0181 13.1929 80.206 12.6305C80.5525 11.5598 80.0795 10.7735 78.971 10.5799C78.0673 10.4196 77.1455 10.5224 76.2328 10.4922C75.9647 10.4922 75.8773 10.6525 75.8291 10.8733C75.5881 11.9712 75.3532 13.0721 75.1032 14.17C75.0279 14.5088 75.1724 14.6116 75.4797 14.6056C75.787 14.5995 76.1786 14.5995 76.5129 14.5995Z" fill="white"/>
<path d="M46.7422 11.9379H44.6727C44.4348 11.9379 44.242 11.9379 44.2329 11.584C44.2058 10.4075 43.5672 9.80557 42.3894 9.64829C40.6693 9.41843 39.5518 10.2955 38.7023 11.6203C37.9268 12.9109 37.4416 14.3561 37.2805 15.8547C37.1148 16.794 37.1148 17.7553 37.2805 18.6947C37.5576 20.0195 38.2324 20.576 39.5849 20.6153C40.2912 20.6538 40.9912 20.4643 41.5825 20.0747C42.1738 19.685 42.6255 19.1156 42.8714 18.4497C42.8997 18.333 42.9688 18.2304 43.0661 18.1605C43.1633 18.0906 43.2824 18.058 43.4015 18.0686C44.748 18.0686 46.0915 18.0686 47.438 18.0686C47.917 18.0686 47.9953 18.3197 47.8989 18.7068C47.6868 19.6081 47.2505 20.4406 46.6307 21.1265C45.7935 22.0656 44.7696 22.8182 43.6251 23.336C42.4806 23.8538 41.2408 24.1252 39.9856 24.1329C38.7972 24.187 37.6064 24.1324 36.428 23.9695C33.8856 23.5128 32.5662 21.7767 32.2318 19.4751C31.7318 16.018 32.3855 12.7727 34.5935 9.92655C36.2804 7.74888 38.5095 6.7296 41.1784 6.50881C42.8254 6.33167 44.4909 6.46606 46.0885 6.90503C46.6802 7.09424 47.2538 7.33616 47.8025 7.62789C49.5226 8.48989 49.6461 10.35 49.396 11.5961C49.3388 11.8804 49.1581 11.9439 48.908 11.9409H46.7362L46.7422 11.9379Z" fill="white"/>
<path d="M93.1199 22.2486C92.912 22.551 92.7795 22.7567 92.6108 22.9473C91.3125 24.4021 88.4628 24.3748 87.1886 23.658C86.1162 23.0531 85.6583 21.9885 85.5077 20.8119C85.3064 19.47 85.402 18.1 85.7878 16.7994C86.1736 15.4988 86.8401 14.2995 87.7399 13.2868C88.987 11.8472 90.704 11.4479 92.5264 11.5477C93.4723 11.5992 94.1561 12.2343 94.7797 12.9058C94.9032 13.0419 95.0176 13.187 95.1713 13.3715C95.2255 13.2264 95.2616 13.1326 95.2918 13.0388C95.593 12.0286 95.593 12.0286 96.6835 12.0286C97.5631 12.0286 98.4427 12.0286 99.3223 12.0286C99.9006 12.0286 99.9578 12.1043 99.8374 12.6729C98.9939 16.635 98.1485 20.5952 97.301 24.5533C97.069 25.6361 96.822 26.7158 96.6081 27.8017C96.6052 27.8702 96.5878 27.9373 96.5572 27.9986C96.5266 28.0599 96.4834 28.1141 96.4305 28.1575C96.3776 28.2009 96.3162 28.2326 96.2502 28.2505C96.1843 28.2684 96.1153 28.2721 96.0479 28.2614C94.9092 28.2614 93.7705 28.2614 92.6319 28.2614C92.1861 28.2614 92.1138 28.086 92.1981 27.6867C92.5385 26.0988 92.8578 24.5019 93.1861 22.9079C93.2188 22.7991 93.2298 22.6848 93.2184 22.5716C93.207 22.4585 93.1735 22.3487 93.1199 22.2486ZM94.4995 16.5624C94.5062 16.2144 94.4542 15.8678 94.3459 15.5371C94.2753 15.2507 94.1277 14.9893 93.9191 14.7815C93.7106 14.5737 93.4491 14.4275 93.1633 14.3588C92.8776 14.2901 92.5785 14.3016 92.2989 14.3921C92.0192 14.4825 91.7697 14.6485 91.5776 14.8717C90.2702 16.4173 89.8726 18.2774 90.1106 20.2615C90.1205 20.42 90.1626 20.5747 90.2341 20.7164C90.3057 20.858 90.4053 20.9834 90.5268 21.0851C90.6484 21.1867 90.7893 21.2624 90.9409 21.3075C91.0926 21.3526 91.2518 21.3661 91.4089 21.3473C92.2825 21.308 93.0385 20.9783 93.4783 20.1768C94.076 19.0607 94.4244 17.8274 94.4995 16.5624Z" fill="white"/>
<path d="M16.7304 15.9969C15.868 16.0025 15.0384 15.6654 14.4227 15.0591C13.8069 14.4527 13.4551 13.6265 13.444 12.7606C13.4412 12.3232 13.5244 11.8895 13.6887 11.4844C13.853 11.0793 14.0953 10.7107 14.4017 10.3997C14.7081 10.0887 15.0725 9.84143 15.4742 9.67202C15.8758 9.50261 16.3068 9.41439 16.7425 9.41241C17.6156 9.41617 18.4527 9.76238 19.0751 10.3772C19.6975 10.992 20.056 11.8266 20.0741 12.7031C20.0734 13.1408 19.9859 13.574 19.8168 13.9774C19.6478 14.3809 19.4004 14.7465 19.0892 15.053C18.7781 15.3596 18.4092 15.6009 18.0043 15.7629C17.5993 15.925 17.1663 16.0045 16.7304 15.9969Z" fill="white"/>
<path d="M30.063 33.4818C29.8973 34.247 29.7617 34.867 29.6322 35.4901C29.572 35.7925 29.4213 35.9468 29.105 35.9256C28.849 35.9256 28.7195 35.8046 28.7797 35.5294C28.9996 34.5131 29.2195 33.4999 29.4304 32.4837C29.4418 32.3707 29.4973 32.2668 29.5848 32.1948C29.6723 32.1228 29.7847 32.0886 29.8973 32.0995C30.1684 32.0995 30.4124 32.1177 30.5208 32.4322C30.7309 33.0758 30.9887 33.7026 31.292 34.3075C31.4185 33.7207 31.542 33.1339 31.6685 32.5502C31.7228 32.2961 31.8131 32.0874 32.1324 32.0995C32.4005 32.0995 32.5843 32.2024 32.521 32.5018C32.3011 33.5513 32.0662 34.5978 31.8372 35.6443C31.777 35.9135 31.5721 35.9256 31.3552 35.9468C31.2437 35.9648 31.1295 35.9417 31.0336 35.8816C30.9378 35.8216 30.8669 35.7287 30.8341 35.6201C30.5992 34.9426 30.3521 34.2802 30.063 33.4818Z" fill="white"/>
<path d="M59.5958 35.9347C58.5987 35.9347 58.5866 35.9347 58.7734 34.9426C58.924 34.126 59.1198 33.3184 59.2825 32.5048C59.2848 32.4487 59.2982 32.3935 59.322 32.3426C59.3457 32.2917 59.3793 32.2461 59.4208 32.2084C59.4623 32.1707 59.5109 32.1416 59.5637 32.1229C59.6165 32.1042 59.6724 32.0963 59.7283 32.0995C60.2306 32.0713 60.7343 32.0844 61.2345 32.1389C61.5144 32.1537 61.7775 32.2778 61.9677 32.4846C62.1578 32.6913 62.2601 32.9645 62.2526 33.2459C62.3551 34.8579 61.3098 35.9347 59.5958 35.9347ZM60.0838 35.1695C60.9031 35.1695 61.6652 33.8447 61.2887 33.1763C61.0778 32.8164 60.7103 32.8527 60.3669 32.8557C60.0235 32.8587 60.0506 33.1339 60.0024 33.3366C59.897 33.7721 59.8337 34.2198 59.7193 34.6523C59.6048 35.0848 59.7133 35.2179 60.0838 35.1695Z" fill="white"/>
<path d="M89.3364 33.8991C89.2189 34.4405 89.0984 35.0696 88.9388 35.6866C88.8544 36.0072 88.5622 35.9407 88.3363 35.9104C88.0531 35.8741 88.1104 35.6685 88.1526 35.4749C88.2369 35.0847 88.3243 34.6976 88.3845 34.3044C88.4146 34.1138 88.4839 33.8537 88.1857 33.7993C87.8875 33.7448 87.779 33.9505 87.7218 34.1834C87.6073 34.6341 87.5019 35.0908 87.4206 35.5475C87.4153 35.6035 87.399 35.6579 87.3726 35.7074C87.3462 35.757 87.3102 35.8009 87.2667 35.8363C87.2232 35.8718 87.1732 35.8982 87.1194 35.9141C87.0657 35.9299 87.0093 35.9348 86.9536 35.9286C86.6524 35.9286 86.4958 35.8318 86.5892 35.487C86.6825 35.1368 86.7549 34.7812 86.806 34.4223C86.8392 34.2046 86.9928 33.8961 86.6524 33.8174C86.312 33.7388 86.1885 34.0261 86.1222 34.3044C86.0289 34.6915 85.9355 35.0787 85.8692 35.4719C85.8029 35.865 85.6192 35.9921 85.2667 35.9286C84.8541 35.859 84.9956 35.5717 85.0468 35.3237C85.1673 34.749 85.2818 34.1743 85.4174 33.6027C85.4656 33.394 85.5017 33.0431 85.7788 33.1309C86.4084 33.3275 87.0802 32.6893 87.6796 33.27C87.8212 33.4061 87.9507 33.1853 88.0833 33.1248C88.6978 32.8163 89.3454 33.1672 89.3364 33.8991Z" fill="white"/>
<path d="M4.42208 40.5985C4.43714 39.3131 5.2083 38.315 6.33792 38.1123C7.08799 37.9793 7.7507 38.3059 7.94047 38.9138C8.00072 39.1104 8.08506 39.3585 7.826 39.4492C7.71163 39.5091 7.58112 39.5305 7.45368 39.5104C7.32625 39.4903 7.20862 39.4296 7.11811 39.3373C6.61806 38.7324 6.02464 38.7838 5.62701 39.4613C5.44483 39.7777 5.34149 40.1336 5.32578 40.4987C5.30723 40.6464 5.33571 40.7961 5.40714 40.9265C5.47857 41.0569 5.58928 41.1613 5.7234 41.2246C5.85111 41.2794 5.99221 41.2945 6.12857 41.2681C6.26492 41.2417 6.39029 41.1749 6.48853 41.0764C6.62409 40.9766 6.71145 40.8133 6.84098 40.7014C6.93846 40.6135 7.06278 40.5614 7.19357 40.5537C7.32436 40.546 7.45388 40.5831 7.56092 40.659C7.76877 40.8223 7.56092 41.0371 7.43742 41.1883C6.95544 41.8235 6.33792 42.1894 5.51857 42.0352C4.69922 41.8809 4.41003 41.4363 4.42208 40.5985Z" fill="white"/>
<path d="M6.64217 32.0602C7.30789 32.0602 7.72661 32.3022 7.91939 32.8194C7.99771 33.0281 8.10616 33.2943 7.83505 33.4243C7.71796 33.4996 7.57666 33.5271 7.44004 33.5012C7.30342 33.4754 7.1818 33.3981 7.10004 33.2852C6.70543 32.7377 6.19635 32.7287 5.76257 33.2489C5.48271 33.6051 5.33377 34.0474 5.34085 34.5011C5.32169 34.6369 5.34912 34.7753 5.41864 34.8935C5.48816 35.0117 5.59563 35.1026 5.72341 35.1513C5.88742 35.212 6.06652 35.2179 6.23417 35.1683C6.40182 35.1188 6.54911 35.0163 6.65422 34.8761C6.72776 34.7604 6.83245 34.6681 6.95614 34.6097C7.07984 34.5514 7.21747 34.5294 7.35308 34.5464C7.66937 34.5706 7.68745 34.7037 7.56996 34.9487C7.35231 35.3551 7.00075 35.673 6.57544 35.8479C6.15013 36.0228 5.6775 36.0438 5.23843 35.9075C5.07462 35.8516 4.925 35.7604 4.80009 35.6402C4.67518 35.52 4.57803 35.3738 4.51547 35.2118C3.9612 33.8387 5.16613 32.0602 6.64217 32.0602Z" fill="white"/>
<path d="M51.3119 34.8458C51.2908 34.4722 51.3866 34.1013 51.5859 33.7851C51.7852 33.4689 52.0781 33.2232 52.4234 33.0825C52.5301 33.0242 52.6489 32.9919 52.7703 32.9882C52.8917 32.9845 53.0123 33.0096 53.1223 33.0613C53.4687 33.2791 53.5681 33.14 53.6042 32.8073C53.6264 32.6527 53.6637 32.5007 53.7157 32.3536C53.8121 32.0753 54.047 32.0904 54.273 32.1146C54.5501 32.1449 54.535 32.3324 54.4929 32.535C54.282 33.5483 54.0651 34.5615 53.8633 35.5747C53.791 35.9225 53.5379 35.974 53.2759 35.9165C53.0109 35.8679 52.7387 35.8772 52.4776 35.9437C51.7185 36.0859 51.3058 35.6896 51.3119 34.8458ZM53.2849 34.3074C53.2849 34.0261 53.2427 33.7842 52.8843 33.7812C52.5258 33.7781 52.1975 34.1804 52.1945 34.7067C52.1945 34.9789 52.2216 35.2481 52.58 35.2541C52.9385 35.2602 53.2729 34.7823 53.2849 34.3074Z" fill="white"/>
<path d="M22.5261 33.1672C22.7641 33.1007 22.9268 33.0371 23.0925 33.0099C23.6949 32.9222 24.1227 33.2912 24.0443 33.8961C23.966 34.501 23.8365 35.0485 23.71 35.6201C23.6317 35.9649 23.3515 35.9588 23.0894 35.9044C22.7882 35.8439 22.8726 35.6019 22.9177 35.4114C22.9931 35.0575 23.0714 34.7037 23.1316 34.3437C23.1648 34.1381 23.2732 33.8689 22.9449 33.7933C22.8813 33.7757 22.8149 33.7714 22.7496 33.7805C22.6843 33.7896 22.6216 33.8119 22.5652 33.8462C22.5089 33.8804 22.46 33.9258 22.4217 33.9797C22.3834 34.0335 22.3564 34.0946 22.3424 34.1592C22.2162 34.5884 22.1156 35.0247 22.0412 35.4658C22.0383 35.5383 22.0194 35.6092 21.986 35.6735C21.9525 35.7377 21.9052 35.7937 21.8476 35.8374C21.79 35.8811 21.7234 35.9114 21.6527 35.9261C21.582 35.9408 21.5089 35.9396 21.4387 35.9225C21.2369 35.8984 21.1375 35.8106 21.1706 35.5808C21.3995 34.5192 21.6224 33.4636 21.8604 32.3929C21.9297 32.0905 22.1888 32.0905 22.4388 32.1207C22.74 32.1661 22.7129 32.3687 22.6587 32.5895C22.5924 32.7528 22.5713 32.9252 22.5261 33.1672Z" fill="white"/>
<path d="M35.1116 33.7207C35.0363 34.4314 34.8104 35.0696 34.7501 35.7441C34.72 36.0465 34.3013 35.977 34.0934 35.8802C34.0049 35.8362 33.9075 35.8133 33.8088 35.8133C33.71 35.8133 33.6126 35.8362 33.5241 35.8802C32.9879 36.0798 32.518 35.9377 32.3583 35.5566C32.2962 35.322 32.3173 35.0731 32.4178 34.8524C32.5184 34.6317 32.6922 34.4529 32.9096 34.3467C33.1948 34.2182 33.5011 34.1433 33.8133 34.126C33.9669 34.1078 34.1326 34.0897 34.1928 33.9142C34.1928 33.8749 34.1446 33.7842 34.0964 33.757C34.0271 33.7206 33.9485 33.7058 33.8707 33.7145C33.7929 33.7231 33.7195 33.7547 33.6597 33.8054C33.494 33.9173 33.3825 34.1078 33.1355 34.0866C33.003 34.0866 32.8343 34.1139 32.759 33.9778C32.6837 33.8416 32.759 33.7116 32.8403 33.5936C33.1837 32.9887 34.3465 32.7921 34.8706 33.2216C34.949 33.278 35.0122 33.3532 35.0543 33.4404C35.0964 33.5276 35.1161 33.6239 35.1116 33.7207Z" fill="white"/>
<path d="M47.191 32.9978C48.1248 32.9978 48.396 33.3396 48.2694 34.1592C48.1458 34.6567 48.0552 35.1619 47.9983 35.6715C47.9833 36.0677 47.5917 35.9498 47.3959 35.8832C47.2904 35.839 47.1773 35.8163 47.063 35.8163C46.9487 35.8163 46.8356 35.839 46.7301 35.8832C46.2211 36.0798 45.7752 35.9286 45.6065 35.5596C45.5344 35.3361 45.5429 35.0943 45.6305 34.8764C45.718 34.6586 45.8791 34.4786 46.0855 34.3679C46.4147 34.215 46.7689 34.1238 47.1308 34.0987C47.2693 34.0776 47.4892 34.0473 47.4169 33.8296C47.3447 33.6118 47.1669 33.6934 47.0103 33.7328C46.7603 33.7963 46.6518 34.1048 46.3415 34.0806C45.965 34.0534 45.8686 33.9233 46.0614 33.5967C46.1891 33.4142 46.3581 33.2648 46.5544 33.1607C46.7508 33.0566 46.969 33.0008 47.191 32.9978Z" fill="white"/>
<path d="M36.9039 42.0412C36.0484 42.0412 35.6538 41.5785 35.7773 40.7044C35.9099 39.7456 36.4581 39.1649 37.3076 39.0802C37.5741 39.038 37.8465 39.0989 38.0701 39.2504C38.2937 39.4019 38.4518 39.6329 38.5125 39.8968C38.6421 40.5652 38.4312 40.8284 37.7594 40.8344C37.4823 40.8344 37.2082 40.8344 36.9311 40.8344C36.7985 40.8344 36.6298 40.8344 36.6298 41.0219C36.6298 41.2095 36.7654 41.2881 36.9311 41.3244C37.0681 41.3478 37.209 41.3187 37.3257 41.2427C37.4042 41.1744 37.4939 41.1202 37.5908 41.0824C37.8016 41.034 38.0787 40.9372 38.1932 41.152C38.3077 41.3667 38.0787 41.521 37.9342 41.6571C37.6512 41.9108 37.2833 42.048 36.9039 42.0412Z" fill="white"/>
<path d="M28.7406 40.9917C28.7406 39.912 29.343 39.2012 30.2467 39.0832C31.057 38.9774 31.5721 39.4885 31.4998 40.2931C31.5044 40.3666 31.4925 40.4402 31.4648 40.5084C31.4371 40.5767 31.3945 40.6378 31.3401 40.6872C31.2857 40.7366 31.2209 40.773 31.1505 40.7938C31.0801 40.8146 31.0059 40.8192 30.9335 40.8072C30.6082 40.8072 30.2798 40.8072 29.9515 40.8072C29.8129 40.8072 29.596 40.7588 29.6021 40.9947C29.6081 41.2307 29.7677 41.2972 29.9635 41.2972C30.0404 41.3065 30.1183 41.2991 30.1921 41.2757C30.2659 41.2522 30.3338 41.2131 30.3913 41.1611C30.4639 41.0995 30.5487 41.0539 30.64 41.0273C30.7314 41.0008 30.8273 40.9938 30.9215 41.0068C31.2227 41.0068 31.286 41.143 31.1293 41.4031C30.7588 42.0291 29.5509 42.2227 29.0207 41.7418C28.9199 41.6467 28.8423 41.5295 28.7937 41.3995C28.7451 41.2694 28.727 41.1299 28.7406 40.9917Z" fill="white"/>
<path d="M12.0493 40.2053C12.1186 40.6439 11.8957 40.8526 11.4046 40.8102C11.1034 40.7951 10.7871 40.8102 10.4769 40.8102C10.3323 40.8102 10.1907 40.8616 10.2088 41.0461C10.2268 41.2306 10.3413 41.273 10.51 41.2881C10.5953 41.3002 10.6822 41.2937 10.7648 41.2692C10.8475 41.2447 10.9239 41.2026 10.9889 41.1459C11.0632 41.0865 11.1489 41.0429 11.2406 41.0179C11.3323 40.993 11.4281 40.9871 11.5221 41.0008C11.8234 41.025 11.8685 41.1641 11.7089 41.4091C11.3715 41.9293 10.4738 42.1622 9.84728 41.89C9.34422 41.6662 9.19059 41.1611 9.39844 40.414C9.60629 39.6669 10.028 39.1618 10.8383 39.059C11.5733 38.9804 12.0493 39.3856 12.0493 40.2053Z" fill="white"/>
<path d="M55.4779 35.9649C54.5983 35.9649 54.1917 35.4568 54.3604 34.5797C54.5531 33.5907 55.1556 33.0009 55.993 33.0009C56.1916 32.9803 56.3918 33.0189 56.5686 33.112C56.7454 33.2051 56.891 33.3484 56.9871 33.5241C57.3456 34.2228 57.0473 34.7339 56.2792 34.7339H55.5562C55.3695 34.7339 55.1887 34.7581 55.2189 35.0061C55.249 35.2542 55.4117 35.2753 55.5984 35.2784C55.7383 35.2776 55.8731 35.2261 55.978 35.1332C56.144 35.007 56.3529 34.9516 56.5593 34.9789C56.9027 34.9789 56.8877 35.1392 56.731 35.3691C56.5824 35.559 56.3918 35.7117 56.1743 35.8151C55.9569 35.9185 55.7185 35.9698 55.4779 35.9649Z" fill="white"/>
<path d="M18.0438 35.9649C17.1883 35.9649 16.7877 35.487 16.9262 34.6311C17.0919 33.6058 17.7576 32.9585 18.6161 33.0009C18.8334 32.9876 19.049 33.0457 19.2305 33.1662C19.4119 33.2868 19.5495 33.4634 19.6223 33.6693C19.8602 34.3559 19.6223 34.7188 18.8993 34.7218C18.6402 34.7218 18.3812 34.7218 18.1251 34.7218C17.9595 34.7218 17.7365 34.6886 17.7637 34.9577C17.7878 35.1785 17.9534 35.2602 18.1733 35.2602C18.3932 35.2602 18.5107 35.0908 18.6824 35.0243C18.9023 34.9396 19.1975 34.8489 19.3451 35.0666C19.4927 35.2844 19.2216 35.4326 19.08 35.5717C18.9439 35.7058 18.7814 35.8099 18.603 35.8776C18.4247 35.9453 18.2342 35.975 18.0438 35.9649Z" fill="white"/>
<path d="M90.5895 35.9649C89.7852 35.9649 89.4207 35.5596 89.487 34.7551C89.5804 33.6663 90.2883 32.9404 91.204 32.9948C91.4307 32.9865 91.6536 33.0551 91.8367 33.1895C92.0197 33.324 92.1524 33.5164 92.2132 33.7358C92.4029 34.3891 92.165 34.7128 91.4962 34.7158C91.2191 34.7158 90.945 34.7158 90.6678 34.7158C90.5142 34.7158 90.3214 34.7158 90.3274 34.9245C90.3335 35.1332 90.4871 35.2541 90.71 35.2602C90.8809 35.2397 91.0426 35.1716 91.1769 35.0636C91.4119 34.9245 91.7462 34.8519 91.8938 35.0455C92.0415 35.239 91.7553 35.4628 91.5926 35.6171C91.4574 35.74 91.2989 35.8341 91.1265 35.8939C90.9541 35.9537 90.7714 35.9778 90.5895 35.9649Z" fill="white"/>
<path d="M63.3581 35.9649C62.5057 35.9649 62.099 35.4689 62.2466 34.622C62.4183 33.6541 62.9906 33.0522 63.7889 33.0008C63.9659 32.9723 64.1473 32.9887 64.3163 33.0487C64.4854 33.1087 64.6368 33.2102 64.7566 33.3441C64.8765 33.478 64.961 33.6399 65.0024 33.8151C65.0439 33.9903 65.0409 34.173 64.9938 34.3468C64.9336 34.6129 64.8101 34.7309 64.539 34.7218C64.1925 34.7218 63.8491 34.7218 63.5057 34.7218C63.3581 34.7218 63.1714 34.6764 63.1202 34.8821C63.1079 34.9662 63.1284 35.0518 63.1774 35.121C63.2287 35.1921 63.3033 35.2428 63.3881 35.2644C63.4728 35.286 63.5625 35.277 63.6413 35.239C63.8943 35.1513 64.0901 34.9093 64.3974 34.9668C64.5118 34.988 64.6564 34.9305 64.7137 35.0757C64.7709 35.2208 64.6625 35.3025 64.5932 35.3993C64.4442 35.5823 64.2554 35.7284 64.0413 35.8265C63.8271 35.9245 63.5934 35.9719 63.3581 35.9649Z" fill="white"/>
<path d="M67.8736 34.9244C67.8736 33.7812 68.6207 32.9615 69.5816 32.9978C69.7516 32.9956 69.9197 33.0343 70.0717 33.1108C70.2237 33.1873 70.3553 33.2992 70.4553 33.4373C70.5553 33.5754 70.6209 33.7355 70.6466 33.9043C70.6722 34.073 70.6572 34.2455 70.6028 34.4072C70.5851 34.5003 70.5331 34.5832 70.4571 34.6393C70.3811 34.6954 70.2868 34.7205 70.1931 34.7097C69.8135 34.7097 69.434 34.7097 69.0544 34.7097C68.9068 34.7097 68.702 34.6764 68.708 34.9063C68.7079 34.9545 68.7177 35.0022 68.7367 35.0464C68.7558 35.0906 68.7837 35.1304 68.8187 35.1633C68.8538 35.1963 68.8952 35.2216 68.9404 35.2377C68.9856 35.2539 69.0337 35.2605 69.0815 35.2571C69.2924 35.2571 69.428 35.121 69.5936 35.0394C69.8286 34.9214 70.1539 34.8428 70.3015 35.0636C70.4491 35.2844 70.163 35.4598 70.0003 35.5989C69.7956 35.7737 69.5488 35.8917 69.2845 35.9411C69.0203 35.9904 68.7478 35.9694 68.4941 35.8802C68.2907 35.8272 68.1143 35.6998 67.9995 35.523C67.8847 35.3462 67.8398 35.1327 67.8736 34.9244Z" fill="white"/>
<path d="M10.9016 34.1774C10.9101 34.4111 10.8715 34.644 10.788 34.8623C10.7045 35.0806 10.5779 35.2796 10.4158 35.4474C10.2537 35.6153 10.0595 35.7485 9.84476 35.839C9.63006 35.9294 9.39934 35.9754 9.16648 35.974C8.39834 35.974 7.94649 35.5717 7.94649 34.8852C7.93964 34.4051 8.11854 33.9411 8.44553 33.5908C8.77251 33.2405 9.2221 33.0312 9.69967 33.0069C9.85873 32.989 10.0198 33.0066 10.1712 33.0586C10.3227 33.1105 10.4609 33.1955 10.5757 33.3074C10.6906 33.4193 10.7794 33.5553 10.8358 33.7057C10.8921 33.8562 10.9146 34.0172 10.9016 34.1774ZM9.60026 33.7842C9.1695 33.7842 8.84718 34.1744 8.83212 34.7158C8.83212 35.0183 8.92851 35.2269 9.2448 35.2602C9.62436 35.2995 10.0099 34.8277 10.019 34.3317C10.022 34.0202 9.96475 33.7661 9.60026 33.7752V33.7842Z" fill="white"/>
<path d="M25.5053 35.9649C24.7311 35.9649 24.3004 35.5808 24.3004 34.8791C24.2824 34.3997 24.4542 33.9327 24.7783 33.5802C25.1023 33.2276 25.5521 33.0183 26.0295 32.9978C26.7916 32.9978 27.2585 33.4485 27.2555 34.1623C27.2603 34.3965 27.2186 34.6293 27.1329 34.8473C27.0472 35.0652 26.9192 35.2638 26.7563 35.4315C26.5935 35.5993 26.399 35.7329 26.1842 35.8244C25.9694 35.916 25.7386 35.9637 25.5053 35.9649ZM25.18 34.6492C25.1529 34.9517 25.2222 35.2178 25.5866 35.2541C25.9511 35.2904 26.3307 34.8398 26.3638 34.3468C26.3849 34.0443 26.3036 33.7963 25.9331 33.7751C25.5625 33.7539 25.2101 34.1078 25.18 34.6492Z" fill="white"/>
<path d="M39.5096 34.8398C39.5011 34.6059 39.5387 34.3727 39.6202 34.1535C39.7017 33.9343 39.8254 33.7334 39.9844 33.5622C40.1433 33.3911 40.3343 33.2532 40.5465 33.1563C40.7586 33.0595 40.9877 33.0056 41.2206 32.9978C41.9707 32.9978 42.4617 33.4485 42.4647 34.1502C42.4687 34.3883 42.4252 34.6249 42.3368 34.8459C42.2483 35.0669 42.1167 35.2679 41.9496 35.437C41.7826 35.6061 41.5835 35.74 41.3642 35.8306C41.1448 35.9213 40.9096 35.9669 40.6723 35.9649C39.8982 35.9588 39.5036 35.5747 39.5096 34.8398ZM40.3892 34.6613C40.3892 35.0515 40.5157 35.245 40.8079 35.2481C41.1754 35.2481 41.5519 34.8035 41.576 34.3407C41.5941 34.0382 41.4977 33.7963 41.1302 33.7812C40.7115 33.76 40.4073 34.1199 40.3892 34.6613Z" fill="white"/>
<path d="M79.224 34.1774C79.2363 34.4121 79.2007 34.6468 79.1194 34.8672C79.0381 35.0876 78.9128 35.2889 78.7511 35.4589C78.5895 35.6288 78.3949 35.7638 78.1794 35.8555C77.9639 35.9472 77.732 35.9937 77.498 35.9921C76.7328 35.9921 76.275 35.5868 76.275 34.9003C76.2719 34.4211 76.4526 33.9591 76.7795 33.61C77.1065 33.2609 77.5546 33.0515 78.0311 33.0251C78.7903 32.9948 79.224 33.4243 79.224 34.1774ZM78.3565 34.3014C78.3565 33.999 78.2902 33.7933 77.9378 33.7872C77.7168 33.8095 77.5126 33.9159 77.3675 34.0847C77.2223 34.2536 77.1472 34.4718 77.1576 34.6946C77.1576 34.9971 77.257 35.2451 77.6094 35.2541C77.9619 35.2632 78.3535 34.7823 78.3595 34.2893L78.3565 34.3014Z" fill="white"/>
<path d="M60.635 42.0171C59.8759 42.0171 59.4301 41.5997 59.4301 40.904C59.4261 40.6655 59.469 40.4284 59.5563 40.2065C59.6437 39.9846 59.7738 39.7822 59.9391 39.6108C60.1045 39.4395 60.3019 39.3025 60.52 39.2078C60.7381 39.1132 60.9727 39.0626 61.2103 39.0591C61.3651 39.0464 61.5209 39.0664 61.6675 39.1177C61.8142 39.169 61.9486 39.2505 62.062 39.357C62.1755 39.4635 62.2655 39.5927 62.3263 39.7361C62.3872 39.8796 62.4175 40.0343 62.4153 40.1902C62.4201 40.4282 62.3776 40.6646 62.2903 40.8859C62.203 41.1071 62.0727 41.3087 61.907 41.4788C61.7412 41.6489 61.5433 41.7841 61.3249 41.8765C61.1065 41.9689 60.872 42.0167 60.635 42.0171ZM61.0748 39.8152C60.6531 39.8152 60.2886 40.2961 60.3187 40.8163C60.3187 41.0976 60.4422 41.3123 60.7826 41.3033C61.1802 41.3033 61.5477 40.8163 61.5387 40.2931C61.5357 39.9967 61.4001 39.8061 61.0748 39.8152Z" fill="white"/>
<path d="M45.712 42.0412C44.995 42.0412 44.5341 41.6148 44.5311 40.9524C44.5223 40.7098 44.5619 40.4679 44.6478 40.241C44.7338 40.0141 44.8641 39.8068 45.0313 39.6314C45.1984 39.456 45.3988 39.316 45.6208 39.2198C45.8428 39.1235 46.0817 39.073 46.3235 39.0711C46.4833 39.0616 46.6434 39.0866 46.7929 39.1443C46.9424 39.202 47.0779 39.2911 47.1903 39.4056C47.3027 39.5202 47.3894 39.6576 47.4446 39.8085C47.4998 39.9595 47.5222 40.1206 47.5103 40.2809C47.4963 40.7512 47.3009 41.1976 46.9654 41.5259C46.6299 41.8543 46.1805 42.0391 45.712 42.0412ZM46.1728 39.8273C45.9388 39.866 45.7282 39.9925 45.5834 40.1811C45.4386 40.3697 45.3704 40.6064 45.3927 40.8435C45.3856 40.9085 45.3934 40.9743 45.4155 41.0358C45.4376 41.0974 45.4734 41.153 45.5202 41.1985C45.567 41.244 45.6235 41.2782 45.6855 41.2985C45.7474 41.3187 45.8131 41.3245 45.8776 41.3153C46.2692 41.3153 46.6759 40.7739 46.6277 40.3021C46.6006 40.0148 46.4952 39.7849 46.1728 39.8152V39.8273Z" fill="white"/>
<path d="M24.2944 40.8919C24.29 40.6549 24.3327 40.4194 24.4201 40.1992C24.5074 39.979 24.6377 39.7786 24.8032 39.6096C24.9687 39.4406 25.1662 39.3064 25.384 39.215C25.6018 39.1236 25.8356 39.0767 26.0716 39.0772C26.2268 39.0639 26.383 39.0843 26.5296 39.1369C26.6763 39.1895 26.8099 39.2731 26.9216 39.3821C27.0333 39.4911 27.1203 39.6229 27.1769 39.7685C27.2335 39.9142 27.2582 40.0704 27.2494 40.2265C27.2526 40.4644 27.2086 40.7006 27.1198 40.9212C27.0311 41.1419 26.8994 41.3425 26.7326 41.5115C26.5657 41.6805 26.3669 41.8143 26.1479 41.9053C25.929 41.9962 25.6941 42.0424 25.4571 42.0412C24.6799 42.0049 24.2883 41.6238 24.2944 40.8919ZM25.177 40.7679C25.177 40.9887 25.1981 41.2579 25.5716 41.2972C25.9451 41.3365 26.3367 40.901 26.3638 40.3898C26.3819 40.0874 26.3006 39.8394 25.9331 39.8212C25.5656 39.8031 25.2101 40.166 25.177 40.7679Z" fill="white"/>
<path d="M50.2455 42.017C49.4955 42.017 49.0406 41.6087 49.0406 40.9101C49.0338 40.6719 49.0742 40.4347 49.1596 40.2123C49.2449 39.99 49.3735 39.7869 49.5378 39.6149C49.7021 39.4429 49.8988 39.3055 50.1165 39.2106C50.3342 39.1156 50.5685 39.0652 50.8058 39.0621C50.9568 39.0491 51.1088 39.0677 51.2523 39.1169C51.3957 39.166 51.5274 39.2445 51.639 39.3475C51.7506 39.4504 51.8397 39.5755 51.9005 39.7149C51.9614 39.8542 51.9928 40.0048 51.9927 40.1569C52.0032 40.3951 51.9659 40.633 51.8832 40.8565C51.8004 41.08 51.6739 41.2846 51.5109 41.458C51.348 41.6315 51.152 41.7703 50.9347 41.8664C50.7173 41.9624 50.483 42.0136 50.2455 42.017ZM49.9292 40.7135C49.9142 41.1127 50.0316 41.2851 50.3359 41.3002C50.7185 41.3184 51.092 40.8647 51.107 40.3626C51.107 40.0602 51.0227 39.8182 50.6582 39.8152C50.2937 39.8121 49.9473 40.1902 49.9292 40.7135Z" fill="white"/>
<path d="M15.2484 35.9619C15.074 35.9864 14.8964 35.9738 14.7272 35.9248C14.558 35.8758 14.4009 35.7916 14.2663 35.6776C14.0645 35.487 13.929 35.2178 14.1519 34.997C14.2507 34.9103 14.3775 34.8624 14.5088 34.8624C14.6401 34.8624 14.767 34.9103 14.8658 34.997C14.9441 35.0545 14.9893 35.1725 15.0736 35.2178C15.1585 35.2597 15.2517 35.2815 15.3463 35.2815C15.4408 35.2815 15.5341 35.2597 15.6189 35.2178C15.6701 35.1936 15.7394 35.1029 15.7273 35.0636C15.661 34.8579 15.4502 34.8942 15.2966 34.8428C14.8809 34.7067 14.3627 34.6916 14.3718 34.0685C14.4028 33.7907 14.5286 33.5322 14.728 33.337C14.9273 33.1418 15.1878 33.0219 15.4652 32.9978C15.8255 32.9359 16.1959 33.0045 16.5105 33.1914C16.5707 33.2177 16.6247 33.2563 16.669 33.3048C16.7134 33.3533 16.7472 33.4106 16.7682 33.473C16.7892 33.5354 16.7969 33.6015 16.7909 33.6671C16.785 33.7326 16.7654 33.7962 16.7334 33.8538C16.5888 34.0836 16.2997 34.005 16.0737 33.9173C15.9653 33.878 15.893 33.7509 15.7725 33.7086C15.6098 33.6451 15.3869 33.6209 15.3207 33.8114C15.2544 34.002 15.4924 34.011 15.6219 34.0625C15.7514 34.1139 15.8568 34.1199 15.9683 34.1562C16.2846 34.2621 16.628 34.3649 16.6611 34.7611C16.6773 34.9524 16.6381 35.1443 16.5483 35.3139C16.4586 35.4834 16.322 35.6233 16.1551 35.7169C15.8866 35.8935 15.5689 35.9793 15.2484 35.9619Z" fill="white"/>
<path d="M66.1958 35.9709C65.8843 35.996 65.5731 35.9208 65.3071 35.7562C65.042 35.5717 64.8492 35.2813 65.0812 35.0152C65.1321 34.961 65.1942 34.9188 65.2632 34.8916C65.3322 34.8644 65.4064 34.8529 65.4803 34.8578C65.5543 34.8627 65.6263 34.8839 65.6911 34.9201C65.756 34.9562 65.812 35.0062 65.8554 35.0666C65.9367 35.1604 66.003 35.2662 66.1355 35.2723C66.3193 35.2723 66.5813 35.357 66.6446 35.1513C66.7319 34.8488 66.4066 34.9486 66.268 34.8488C66.2207 34.8295 66.1711 34.8163 66.1204 34.8095C65.768 34.7127 65.3643 34.6371 65.3192 34.2046C65.3009 33.9862 65.3519 33.7676 65.465 33.5801C65.5781 33.3927 65.7475 33.246 65.9487 33.1611C66.1636 33.048 66.4018 32.9866 66.6444 32.9819C66.887 32.9772 67.1274 33.0292 67.3465 33.1339C67.6718 33.2761 67.8827 33.7146 67.6929 33.878C67.5888 33.9697 67.4542 34.0187 67.3158 34.0154C67.1774 34.012 67.0453 33.9565 66.9458 33.8598C66.8916 33.8175 66.8494 33.7509 66.7892 33.7267C66.6054 33.6572 66.3614 33.6148 66.2801 33.8114C66.1686 34.0836 66.4819 34.002 66.6024 34.0806C66.6339 34.0956 66.6674 34.1058 66.7018 34.1108C67.1326 34.2288 67.6236 34.2863 67.6055 34.9002C67.575 35.1607 67.4589 35.4034 67.2756 35.5902C67.0923 35.777 66.8523 35.8971 66.5934 35.9316C66.4617 35.952 66.3289 35.9652 66.1958 35.9709Z" fill="white"/>
<path d="M43.6786 33.1248C43.927 33.1623 44.1809 33.132 44.4136 33.0371C45.0974 32.8526 45.5734 33.3154 45.4469 34.011C45.3595 34.504 45.242 34.991 45.1456 35.484C45.144 35.5583 45.1249 35.6312 45.0899 35.6967C45.0549 35.7622 45.005 35.8185 44.9442 35.861C44.8834 35.9034 44.8135 35.9309 44.7401 35.941C44.6668 35.9512 44.5921 35.9438 44.5221 35.9195C44.0913 35.8469 44.2871 35.5445 44.3293 35.3146C44.3865 34.991 44.4709 34.6734 44.5372 34.3528C44.5763 34.1532 44.6516 33.9082 44.3956 33.8114C44.3348 33.7866 44.2696 33.7743 44.204 33.7753C44.1383 33.7762 44.0735 33.7903 44.0134 33.8168C43.9533 33.8433 43.8991 33.8817 43.8541 33.9296C43.809 33.9775 43.7739 34.034 43.7509 34.0957C43.5835 34.5484 43.4653 35.0179 43.3985 35.4961C43.3624 35.6473 43.3503 35.7985 43.1816 35.8802C43.0951 35.9205 43.0003 35.9396 42.9049 35.9359C42.8096 35.9322 42.7166 35.9059 42.6334 35.859C42.4587 35.7532 42.54 35.5868 42.5701 35.4386C42.7057 34.7974 42.8472 34.1562 42.9707 33.512C43.043 33.1732 43.2298 33.0402 43.6786 33.1248Z" fill="white"/>
<path d="M13.9199 33.9354C13.8175 34.4284 13.697 35.0212 13.5675 35.611C13.4892 35.9558 13.2181 35.9589 12.965 35.9135C12.712 35.8681 12.7391 35.6292 12.7843 35.4235C12.8626 35.0696 12.953 34.7158 13.0072 34.3589C13.0373 34.1532 13.1398 33.881 12.8174 33.7993C12.6996 33.7674 12.5742 33.7807 12.4656 33.8367C12.357 33.8926 12.273 33.9871 12.23 34.1018C12.0765 34.5237 11.9675 34.9606 11.9047 35.4054C11.8414 35.6625 11.7932 35.9195 11.4408 35.9226C11.1546 35.9226 10.9618 35.8772 11.0432 35.5142C11.1998 34.8065 11.3444 34.0957 11.483 33.3971C11.5372 33.1279 11.73 33.0734 11.9499 33.0946C12.2868 33.1338 12.6281 33.1092 12.956 33.022C13.5223 32.8859 13.9501 33.27 13.9199 33.9354Z" fill="white"/>
<path d="M15.0435 40.0268C14.9531 40.4715 14.8357 41.0794 14.6971 41.6843C14.6248 41.9868 14.3657 41.9868 14.1187 41.9626C13.8175 41.9232 13.8476 41.7115 13.8958 41.4938C13.9741 41.1399 14.0615 40.789 14.1217 40.4321C14.1579 40.2083 14.2694 39.9119 13.9229 39.8272C13.8588 39.812 13.7924 39.8096 13.7274 39.8202C13.6624 39.8308 13.6001 39.8542 13.5441 39.889C13.4881 39.9239 13.4395 39.9695 13.4012 40.0233C13.3628 40.077 13.3354 40.1378 13.3205 40.2023C13.206 40.5622 13.1458 40.9403 13.0584 41.3093C13.0327 41.4794 12.9841 41.6453 12.9138 41.8023C12.7752 42.0412 12.5222 41.9868 12.3113 41.9414C12.1005 41.896 12.1396 41.6813 12.1728 41.518C12.3113 40.8435 12.474 40.172 12.5915 39.4945C12.6487 39.1921 12.8355 39.0469 13.0976 39.1286C13.4681 39.2435 13.7964 39.1286 14.1428 39.0741C14.7061 39.0167 15.0405 39.3191 15.0435 40.0268Z" fill="white"/>
<path d="M73.6151 33.9566C73.5067 34.4587 73.3862 35.0515 73.2446 35.6383C73.1602 35.9921 72.8711 35.9407 72.618 35.9074C72.365 35.8742 72.4072 35.6322 72.4433 35.4538C72.5156 35.0817 72.603 34.7128 72.6873 34.3407C72.7325 34.1381 72.8168 33.9082 72.5518 33.8084C72.4432 33.7671 72.3237 33.7651 72.2137 33.8026C72.1038 33.8401 72.0103 33.9149 71.9493 34.0141C71.7324 34.2863 71.7505 34.619 71.6481 34.9426C71.5848 35.1755 71.5547 35.4205 71.4884 35.6504C71.395 35.9528 71.142 35.9528 70.8859 35.9074C70.6299 35.8621 70.645 35.6655 70.6871 35.4659C70.8197 34.8247 70.9673 34.1835 71.0817 33.5392C71.0824 33.4602 71.1028 33.3827 71.1412 33.3136C71.1795 33.2446 71.2344 33.1864 71.301 33.1442C71.3675 33.1021 71.4436 33.0774 71.5221 33.0724C71.6007 33.0675 71.6792 33.0824 71.7505 33.1158C71.976 33.1806 72.2171 33.1634 72.4313 33.0674C73.1211 32.8406 73.6603 33.2186 73.6151 33.9566Z" fill="white"/>
<path d="M94.4784 35.9316C94.135 35.9316 93.9723 35.8621 94.0416 35.5596C94.129 35.1725 94.2103 34.7823 94.2736 34.3891C94.3097 34.1774 94.5085 33.887 94.123 33.7842C94.0545 33.7644 93.9826 33.759 93.912 33.7683C93.8413 33.7776 93.7733 33.8014 93.7122 33.8384C93.6512 33.8753 93.5983 33.9244 93.5571 33.9828C93.5158 34.0411 93.4869 34.1074 93.4723 34.1774C93.3518 34.5736 93.2825 34.985 93.1861 35.3872C93.1684 35.5246 93.1266 35.6577 93.0626 35.7804C92.9271 35.9861 92.7012 35.9528 92.4963 35.9135C92.2915 35.8742 92.2885 35.6655 92.3216 35.4991C92.4622 34.8035 92.6118 34.1109 92.7704 33.4213C92.8096 33.2428 92.903 33.0704 93.1168 33.1188C93.5326 33.1548 93.9513 33.1252 94.3579 33.0311C94.9604 32.9555 95.3128 33.4152 95.1923 34.0171C95.0929 34.5252 94.9604 35.0303 94.873 35.5294C94.8218 35.8288 94.6592 35.9377 94.4784 35.9316Z" fill="white"/>
<path d="M44.3203 40.0269C44.2118 40.5169 44.0853 41.0915 43.9558 41.6632C43.8775 42.014 43.6033 42.0019 43.3533 41.9656C43.022 41.9172 43.1425 41.6632 43.1726 41.4756C43.2328 41.1187 43.3172 40.7649 43.3925 40.411C43.4377 40.1963 43.5582 39.9361 43.2509 39.8424C43.1239 39.8031 42.9866 39.8153 42.8684 39.8764C42.7502 39.9374 42.6604 40.0424 42.6183 40.169C42.5202 40.4449 42.4437 40.7281 42.3894 41.0159C42.3322 41.2488 42.305 41.4938 42.2297 41.7206C42.1303 42.0231 41.8652 41.9959 41.6273 41.9565C41.3893 41.9172 41.4044 41.7025 41.4465 41.5089C41.5881 40.8496 41.7478 40.1932 41.8652 39.5339C41.9345 39.174 42.1665 39.0409 42.4526 39.1467C42.73 39.2158 43.0217 39.2 43.2901 39.1014C43.9257 38.9713 44.3625 39.3191 44.3203 40.0269Z" fill="white"/>
<path d="M35.0032 38.1879H36.0906C36.2834 38.1879 36.4912 38.1879 36.4671 38.4722C36.4461 38.7081 36.3918 38.9894 36.1057 38.9441C35.2291 38.7989 35.1447 39.3796 35.0453 40.0027C34.961 40.532 34.8074 41.0492 34.723 41.5785C34.6537 42.0049 34.3736 42.0049 34.0724 41.9656C33.6747 41.9112 33.8253 41.6208 33.8675 41.4C33.994 40.7558 34.1145 40.1085 34.2772 39.4734C34.3706 39.1013 34.2772 38.9592 33.8976 38.9592C33.6868 38.9592 33.3554 39.0741 33.3524 38.6809C33.3494 38.2877 33.5904 38.1547 33.9549 38.1819C34.3194 38.2091 34.6567 38.1879 35.0032 38.1879Z" fill="white"/>
<path d="M36.3135 35.9649C35.5966 35.9649 35.2652 35.6322 35.2652 34.9154C35.2652 33.9475 35.8677 33.1581 36.6991 33.016C36.9267 32.9658 37.1641 32.9867 37.3795 33.0759C37.5948 33.1651 37.7779 33.3183 37.904 33.515C38.0004 33.7177 38.1089 33.9747 37.8679 34.1199C37.7696 34.1951 37.647 34.2309 37.524 34.2203C37.4009 34.2096 37.2862 34.1534 37.2021 34.0625C36.9642 33.7388 36.7322 33.6693 36.437 33.9385C36.1418 34.2076 36.0364 34.9275 36.2292 35.1483C36.2554 35.1843 36.2892 35.214 36.3282 35.2353C36.3672 35.2566 36.4104 35.2691 36.4547 35.2717C36.4991 35.2743 36.5434 35.267 36.5846 35.2504C36.6258 35.2337 36.6629 35.2082 36.6931 35.1755C36.8015 35.0908 36.8768 34.9668 36.9943 34.873C37.0907 34.7845 37.2158 34.7339 37.3464 34.7306C37.477 34.7273 37.6044 34.7714 37.7052 34.8549C37.8769 35.0303 37.66 35.236 37.5365 35.3933C37.3931 35.5798 37.2072 35.7291 36.9943 35.8286C36.7815 35.9281 36.548 35.9748 36.3135 35.9649Z" fill="white"/>
<path d="M22.5352 42.0412C21.7972 42.0412 21.3905 41.5996 21.4688 40.8556C21.5983 39.5913 22.5081 38.8352 23.5353 39.1376C23.6513 39.162 23.7612 39.21 23.8581 39.2786C23.955 39.3473 24.0368 39.4352 24.0986 39.5369C24.198 39.7365 24.3215 39.9996 24.0986 40.1418C23.9952 40.2236 23.8646 40.2626 23.7335 40.2508C23.6025 40.239 23.4809 40.1773 23.3937 40.0783C23.1467 39.7274 22.9087 39.7244 22.6316 39.9905C22.3544 40.2567 22.237 40.9856 22.4297 41.2004C22.4835 41.2581 22.5557 41.2952 22.6338 41.3051C22.7119 41.3151 22.7911 41.2973 22.8575 41.2548C22.9572 41.1876 23.0501 41.1106 23.1346 41.0249C23.2315 40.9246 23.3616 40.8634 23.5003 40.8528C23.6391 40.8422 23.7769 40.883 23.8877 40.9675C24.0925 41.1792 23.7943 41.397 23.6437 41.5724C23.5025 41.7249 23.3307 41.8456 23.1396 41.9264C22.9485 42.0072 22.7425 42.0463 22.5352 42.0412Z" fill="white"/>
<path d="M39.6903 42.0412C38.9071 42.0412 38.4854 41.5361 38.618 40.7497C38.7897 39.7516 39.3319 39.1619 40.1874 39.0862C40.3918 39.0427 40.6048 39.0652 40.7958 39.1504C40.9868 39.2357 41.146 39.3795 41.2507 39.5611C41.3592 39.7607 41.4345 40.0299 41.2146 40.166C41.1156 40.2405 40.9926 40.2752 40.8695 40.2635C40.7464 40.2517 40.6321 40.1943 40.5489 40.1025C40.3259 39.8 40.1121 39.7214 39.8259 39.9815C39.5397 40.2416 39.374 40.9494 39.5548 41.1913C39.5839 41.2294 39.6204 41.2613 39.662 41.2849C39.7037 41.3085 39.7496 41.3235 39.7972 41.3288C39.8447 41.3342 39.8928 41.3299 39.9386 41.3161C39.9845 41.3024 40.0271 41.2795 40.0639 41.2488C40.1663 41.1883 40.2386 41.0794 40.335 41.0129C40.4338 40.9268 40.5586 40.8768 40.6892 40.8707C40.8198 40.8647 40.9487 40.903 41.0549 40.9796C41.2417 41.1702 40.9736 41.3819 40.838 41.5422C40.6935 41.7031 40.5162 41.8309 40.3182 41.917C40.1202 42.0031 39.9061 42.0454 39.6903 42.0412Z" fill="white"/>
<path d="M57.7703 42.017C56.9178 42.017 56.5051 41.5482 56.6135 40.7891C56.7551 39.794 57.3305 39.1528 58.189 39.0741C58.3932 39.0317 58.6055 39.054 58.7965 39.138C58.9876 39.222 59.1479 39.3635 59.2553 39.543C59.3668 39.7426 59.4391 40.0087 59.2222 40.1479C59.1208 40.216 59 40.249 58.8783 40.2419C58.7565 40.2348 58.6403 40.188 58.5475 40.1085C58.0625 39.7063 57.7733 39.7849 57.5775 40.3898C57.5344 40.5213 57.5061 40.6573 57.4931 40.7951C57.4751 40.9705 57.4931 41.155 57.6618 41.2518C57.746 41.2983 57.844 41.3129 57.938 41.293C58.032 41.273 58.1158 41.2197 58.1739 41.1429C58.2488 41.048 58.3463 40.9736 58.4574 40.9265C58.5685 40.8795 58.6896 40.8613 58.8095 40.8738C59.1108 40.8949 59.171 41.0371 59.0204 41.276C58.8975 41.5009 58.7166 41.6884 58.4966 41.8188C58.2766 41.9492 58.0257 42.0177 57.7703 42.017Z" fill="white"/>
<path d="M74.9104 34.8246L75.5912 33.4697C75.6876 33.2852 75.7809 33.0886 76.037 33.0976C76.2027 33.0976 76.4135 33.025 76.519 33.1853C76.6244 33.3456 76.4678 33.4878 76.3924 33.6088C76.028 34.256 75.6454 34.8942 75.2929 35.5505C75.2275 35.6927 75.1145 35.8074 74.9737 35.8748C74.8329 35.9422 74.673 35.958 74.5218 35.9195C74.1904 35.8681 74.2206 35.5989 74.1693 35.366C74.079 34.7853 73.9826 34.2046 73.9043 33.6209C73.8711 33.385 73.8229 33.1188 74.2055 33.0946C74.5369 33.0765 74.7839 33.1128 74.7929 33.5362C74.8019 33.9596 74.8592 34.2954 74.9104 34.8246Z" fill="white"/>
<path d="M82.0406 34.9305C82.3087 34.3952 82.5105 33.9808 82.7183 33.5725C82.7679 33.4433 82.8392 33.3236 82.9292 33.2186C83.0269 33.1322 83.1498 33.08 83.2796 33.0696C83.4094 33.0592 83.5391 33.0914 83.6491 33.1612C83.8389 33.2791 83.6491 33.4636 83.5708 33.6118C83.2003 34.2772 82.8057 34.9275 82.4442 35.5959C82.3774 35.7273 82.2675 35.8316 82.1331 35.8911C81.9986 35.9506 81.8479 35.9617 81.7062 35.9226C81.3809 35.8833 81.3658 35.6201 81.3327 35.3873C81.2453 34.7823 81.1489 34.1774 81.0585 33.5937C81.0254 33.3638 80.9893 33.1188 81.3296 33.1007C81.6068 33.1007 81.8749 33.0432 81.9321 33.4576C81.9893 33.872 81.9954 34.3438 82.0406 34.9305Z" fill="white"/>
<path d="M19.9024 39.0167C20.3543 39.3191 20.3452 39.5127 19.8391 39.8121C19.7664 39.8558 19.7051 39.916 19.66 39.9881C19.615 40.0601 19.5876 40.1418 19.5801 40.2265C19.4957 40.6499 19.3873 41.0673 19.321 41.4908C19.2548 41.9142 19.065 42.0382 18.6854 41.9686C18.2426 41.887 18.4685 41.5755 18.4987 41.3637C18.5529 40.9887 18.6402 40.6197 18.7276 40.2507C18.7637 40.1646 18.7721 40.0693 18.7516 39.9782C18.731 39.8871 18.6826 39.8047 18.6131 39.7426C18.5643 39.7048 18.5271 39.6539 18.5058 39.5959C18.4844 39.5378 18.4797 39.4749 18.4923 39.4143C18.5049 39.3538 18.5342 39.2979 18.5768 39.2533C18.6195 39.2086 18.6739 39.177 18.7336 39.1619C18.8107 39.13 18.8794 39.0807 18.9342 39.0177C18.9891 38.9547 19.0287 38.8798 19.0499 38.7989C19.1048 38.6147 19.2187 38.4538 19.3739 38.3412C19.5291 38.2286 19.717 38.1704 19.9084 38.1759C20.0862 38.1759 20.3211 38.073 20.3814 38.3362C20.4094 38.4374 20.3998 38.5454 20.3543 38.64C20.3089 38.7346 20.2307 38.8094 20.1344 38.8503C20.053 38.8836 19.9386 38.8836 19.9024 39.0167Z" fill="white"/>
<path d="M16.14 41.9898C15.5195 41.9898 15.3237 41.7842 15.411 41.1974C15.4472 40.9585 15.5195 40.7256 15.5677 40.4896C15.6008 40.3203 15.7092 40.0692 15.6369 39.9906C14.9923 39.2859 15.9984 39.0621 16.0436 38.5539C16.0647 38.3241 16.387 38.3967 16.5858 38.4178C16.7846 38.439 16.7937 38.6114 16.7816 38.7747C16.7816 38.8594 16.7364 38.9955 16.7816 39.0227C17.3841 39.4522 16.9563 39.6277 16.6159 39.9029C16.2756 40.1781 16.3147 41.028 16.5617 41.3698C16.6018 41.437 16.623 41.5138 16.623 41.5921C16.623 41.6704 16.6018 41.7472 16.5617 41.8144C16.4683 42.017 16.2665 41.9807 16.14 41.9898Z" fill="white"/>
<path d="M96.9274 32.7559C96.9033 32.9101 96.8642 33.0371 97.0901 33.1158C97.1346 33.1315 97.1739 33.1596 97.2032 33.1967C97.2325 33.2339 97.2508 33.2787 97.2558 33.3258C97.2609 33.373 97.2525 33.4206 97.2317 33.4632C97.2109 33.5058 97.1785 33.5416 97.1383 33.5664C96.5358 33.7509 96.6412 34.2893 96.5358 34.7037C96.4756 34.9244 96.3219 35.1694 96.7015 35.3479C96.9093 35.4447 96.7768 35.7622 96.6141 35.8681C96.4853 35.9401 96.3395 35.9759 96.1921 35.9716C96.0447 35.9673 95.9012 35.9232 95.7767 35.8439C95.6765 35.7892 95.5994 35.7 95.5596 35.5927C95.5197 35.4855 95.5198 35.3674 95.5598 35.2602C95.6231 34.9396 95.6924 34.619 95.7647 34.2984C95.8189 34.0655 95.9333 33.8265 95.6622 33.6451C95.6275 33.609 95.6062 33.562 95.602 33.512C95.5749 33.3487 96.3099 32.3475 96.4726 32.3203C96.816 32.2568 96.9364 32.3627 96.9274 32.7559Z" fill="white"/>
<path d="M48.911 35.9256C48.5707 35.9498 48.4351 35.8349 48.5074 35.5022C48.7303 34.4738 48.9412 33.4455 49.1581 32.4171C49.2243 32.0965 49.4593 32.0874 49.7184 32.1147C49.9774 32.1419 50.0196 32.3264 49.9593 32.5623C49.7425 33.5543 49.5336 34.5484 49.3328 35.5445C49.2816 35.8076 49.1581 35.9498 48.911 35.9256Z" fill="white"/>
<path d="M79.7572 35.9256C79.4168 35.9498 79.3174 35.7895 79.3867 35.481C79.5976 34.5041 79.8084 33.5271 80.0072 32.5472C80.0092 32.4732 80.0283 32.4007 80.0631 32.3354C80.098 32.2702 80.1475 32.214 80.2078 32.1714C80.2681 32.1288 80.3374 32.1009 80.4104 32.09C80.4833 32.0791 80.5577 32.0855 80.6278 32.1086C81.0555 32.1933 80.8567 32.4927 80.8115 32.7135C80.6278 33.6209 80.435 34.5282 80.2422 35.4356C80.185 35.729 80.0916 35.9619 79.7572 35.9256Z" fill="white"/>
<path d="M20.2187 35.9226C19.8753 35.9226 19.6976 35.8288 19.7698 35.4961C19.9867 34.4879 20.2046 33.4797 20.4235 32.4715C20.5018 32.1026 20.776 32.0784 21.0621 32.1388C21.3483 32.1993 21.2609 32.4625 21.2248 32.6439C21.035 33.5937 20.8272 34.5373 20.6223 35.484C20.5741 35.7229 20.4838 35.9437 20.2187 35.9226Z" fill="white"/>
<path d="M48.0134 41.9717C47.685 41.9717 47.5615 41.8537 47.6338 41.5301C47.8477 40.5501 48.0616 39.5732 48.2544 38.5902C48.3357 38.191 48.5917 38.1426 48.905 38.2031C49.2665 38.2726 49.1069 38.563 49.0677 38.7505C48.8839 39.6821 48.6701 40.6076 48.4652 41.5331C48.414 41.7932 48.3176 41.9989 48.0134 41.9717Z" fill="white"/>
<path d="M8.2899 41.9747C7.96156 42.0049 7.88926 41.8295 7.9465 41.5573C8.0941 40.8677 8.24773 40.1781 8.39232 39.4855C8.47064 39.1135 8.73874 39.0893 9.02491 39.1377C9.39241 39.1982 9.23276 39.4734 9.19661 39.67C9.07913 40.2961 8.93755 40.9191 8.81103 41.5422C8.75079 41.8325 8.61222 42.0201 8.2899 41.9747Z" fill="white"/>
<path d="M17.3269 41.9746C16.9925 42.0109 16.8841 41.8627 16.9533 41.5452C17.1009 40.8707 17.2546 40.1962 17.3871 39.5217C17.4654 39.1316 17.7335 39.0741 18.0468 39.1406C18.3601 39.2072 18.2396 39.4885 18.2034 39.6851C18.089 40.29 17.9504 40.8949 17.8269 41.4998C17.7727 41.7871 17.6642 42.0109 17.3269 41.9746Z" fill="white"/>
<path d="M20.9477 39.1316C21.273 39.1044 21.3965 39.2617 21.3302 39.5672C21.1826 40.2568 21.029 40.9433 20.8754 41.6299C20.7941 42.008 20.5169 42.011 20.2368 41.9626C19.9114 41.9051 20.041 41.642 20.0741 41.4636C20.1946 40.8223 20.3422 40.1872 20.4717 39.546C20.526 39.2768 20.6404 39.0953 20.9477 39.1316Z" fill="white"/>
<path d="M55.6044 41.9747C55.264 41.9928 55.1285 41.8719 55.2188 41.5119C55.3815 40.8405 55.5271 40.166 55.6556 39.4885C55.7309 39.0983 55.996 39.0953 56.2792 39.1407C56.6437 39.2012 56.4961 39.4704 56.4569 39.67C56.3274 40.3112 56.1737 40.9494 56.0502 41.5936C55.999 41.8628 55.8725 41.9928 55.6044 41.9747Z" fill="white"/>
<path d="M83.9654 35.9286C83.7033 35.9286 83.5497 35.8348 83.613 35.5294C83.7636 34.8035 83.9142 34.0776 84.0648 33.3547C84.1401 33.022 84.4233 33.0885 84.6673 33.1067C84.9474 33.1279 84.9294 33.3366 84.8902 33.5271C84.7396 34.2197 84.589 34.9063 84.4323 35.5959C84.3661 35.856 84.2124 35.9316 83.9654 35.9286Z" fill="white"/>
<path d="M38.4764 35.9256C38.2022 35.9256 38.0245 35.8318 38.0787 35.5566C38.2233 34.8327 38.3759 34.1099 38.5366 33.388C38.6149 33.0341 38.9071 33.0855 39.1571 33.1067C39.4945 33.1491 39.359 33.4092 39.3228 33.5876C39.1993 34.2288 39.0607 34.867 38.9252 35.5052C38.8589 35.7683 38.7505 35.9558 38.4764 35.9256Z" fill="white"/>
</g>
<defs>
<clipPath id="clip0">
<rect width="100" height="43" fill="white"/>
</clipPath>
</defs>
</svg>
